<?xml version="1.0" standalone="no"?>
<!DOCTYPE svg PUBLIC "-//W3C//DTD SVG 1.1//EN" "http://www.w3.org/Graphics/SVG/1.1/DTD/svg11.dtd" >
<svg xmlns="http://www.w3.org/2000/svg">
<metadata></metadata>
<defs>
<font id="ars_noveltybold" horiz-adv-x="576" >
<font-face units-per-em="1000" ascent="750" descent="-250" />
<missing-glyph horiz-adv-x="253" />
<glyph unicode="ff" horiz-adv-x="632" d="M221 591q5 18 -7 33.5t-31 15.5q-18 0 -31 -14t-13 -37q0 -34 29 -61.5t70 -27.5h141v15q0 88 52 142.5t127 54.5q43 0 68.5 -18.5t25.5 -51.5q0 -29 -19 -52t-56 -23q-44 0 -58 24q5 18 -7 33.5t-31 15.5q-18 0 -31 -14t-13 -37q0 -34 29 -61.5t70 -27.5h73v-122h-95 v-378h-135v378h-156v-378h-135v378h-68v122h68v15q0 88 49 142.5t119 54.5q42 0 65 -19.5t23 -50.5q0 -30 -19 -52.5t-54 -22.5q-38 0 -50 24z" />
<glyph unicode="fi" horiz-adv-x="557" d="M504 0h-135v378h-146v-378h-135v378h-68v122h68v16q0 81 62 138.5t189 57.5q85 0 128 -25t43 -62q0 -31 -22.5 -49.5t-56.5 -18.5q-51 0 -69 31q7 16 7 34t-18.5 32.5t-52.5 14.5q-40 0 -65 -23.5t-25 -70.5q0 -41 15 -75h281v-500z" />
<glyph unicode="fl" horiz-adv-x="577" d="M297 668q-45 0 -68 -24.5t-23 -64.5t17 -79h95v-122h-95v-378h-135v378h-68v122h68v16q0 81 57 138.5t173 57.5q46 0 89 -12h117v-700h-135v594q0 23 -22.5 48.5t-69.5 25.5z" />
<glyph unicode="ffi" horiz-adv-x="848" d="M795 0h-135v378h-146v-378h-135v378h-156v-378h-135v378h-68v122h68v15q0 88 49 142.5t119 54.5q42 0 65 -19.5t23 -50.5q0 -30 -19 -52.5t-54 -22.5q-38 0 -50 24q5 18 -7 33.5t-31 15.5q-18 0 -31 -14t-13 -37q0 -34 29 -61.5t70 -27.5h141v16q0 81 62 138.5t189 57.5 q85 0 128 -25t43 -62q0 -31 -22.5 -49.5t-56.5 -18.5q-51 0 -69 31q7 16 7 34t-18.5 32.5t-52.5 14.5q-40 0 -65 -23.5t-25 -70.5q0 -41 15 -75h281v-500z" />
<glyph unicode="ffl" horiz-adv-x="868" d="M588 668q-45 0 -68 -24.5t-23 -64.5t17 -79h95v-122h-95v-378h-135v378h-156v-378h-135v378h-68v122h68v15q0 88 49 142.5t119 54.5q42 0 65 -19.5t23 -50.5q0 -30 -19 -52.5t-54 -22.5q-38 0 -50 24q5 18 -7 33.5t-31 15.5q-18 0 -31 -14t-13 -37q0 -34 29 -61.5 t70 -27.5h141v16q0 81 57 138.5t173 57.5q46 0 89 -12h117v-700h-135v594q0 23 -22.5 48.5t-69.5 25.5z" />
<glyph unicode="fb" horiz-adv-x="955" d="M297 668q-45 0 -68 -24.5t-23 -64.5t17 -79h95v-122h-95v-378h-135v378h-68v122h68v16q0 81 57 138.5t173 57.5q46 0 89 -12h117v-254q56 65 151 65q107 0 180.5 -76.5t73.5 -184.5t-73.5 -184.5t-180.5 -76.5q-95 0 -151 65v-54h-135v594q0 23 -22.5 48.5t-69.5 25.5z M787 250q0 55 -38.5 93.5t-92.5 38.5q-55 0 -93.5 -38.5t-38.5 -93.5q0 -54 38.5 -93t93.5 -39q54 0 92.5 39t38.5 93z" />
<glyph unicode="fh" horiz-adv-x="904" d="M297 668q-45 0 -68 -24.5t-23 -64.5t17 -79h95v-122h-95v-378h-135v378h-68v122h68v16q0 81 57 138.5t173 57.5q46 0 89 -12h117v-200h327v-500h-135v378h-192v-378h-135v594q0 23 -22.5 48.5t-69.5 25.5z" />
<glyph unicode="fj" horiz-adv-x="557" d="M369 0v378h-146v-378h-135v378h-68v122h68v16q0 81 62 138.5t189 57.5q85 0 128 -25t43 -62q0 -31 -22.5 -49.5t-56.5 -18.5q-51 0 -69 31q7 16 7 34t-18.5 32.5t-52.5 14.5q-40 0 -65 -23.5t-25 -70.5q0 -41 15 -75h281v-504q0 -92 -42 -144.5t-107 -52.5 q-39 0 -62.5 20.5t-23.5 50.5q0 26 18 44.5t46 18.5q33 0 47 -22q-5 -15 2.5 -28.5t26.5 -13.5q17 0 28 12t11 35q0 27 -22 51.5t-57 32.5z" />
<glyph unicode="fk" horiz-adv-x="908" d="M297 668q-45 0 -68 -24.5t-23 -64.5t17 -79h95v-122h-95v-378h-135v378h-68v122h68v16q0 81 57 138.5t173 57.5q46 0 89 -12h117v-408l203 208h183l-246 -243l254 -257h-186l-208 217v-217h-135v594q0 23 -22.5 48.5t-69.5 25.5z" />
<glyph unicode="ffb" horiz-adv-x="1246" d="M588 668q-45 0 -68 -24.5t-23 -64.5t17 -79h95v-122h-95v-378h-135v378h-156v-378h-135v378h-68v122h68v15q0 88 49 142.5t119 54.5q42 0 65 -19.5t23 -50.5q0 -30 -19 -52.5t-54 -22.5q-38 0 -50 24q5 18 -7 33.5t-31 15.5q-18 0 -31 -14t-13 -37q0 -34 29 -61.5 t70 -27.5h141v16q0 81 57 138.5t173 57.5q46 0 89 -12h117v-254q56 65 151 65q107 0 180.5 -76.5t73.5 -184.5t-73.5 -184.5t-180.5 -76.5q-95 0 -151 65v-54h-135v594q0 23 -22.5 48.5t-69.5 25.5zM1078 250q0 55 -38.5 93.5t-92.5 38.5q-55 0 -93.5 -38.5t-38.5 -93.5 q0 -54 38.5 -93t93.5 -39q54 0 92.5 39t38.5 93z" />
<glyph unicode="ffh" horiz-adv-x="1195" d="M588 668q-45 0 -68 -24.5t-23 -64.5t17 -79h95v-122h-95v-378h-135v378h-156v-378h-135v378h-68v122h68v15q0 88 49 142.5t119 54.5q42 0 65 -19.5t23 -50.5q0 -30 -19 -52.5t-54 -22.5q-38 0 -50 24q5 18 -7 33.5t-31 15.5q-18 0 -31 -14t-13 -37q0 -34 29 -61.5 t70 -27.5h141v16q0 81 57 138.5t173 57.5q46 0 89 -12h117v-200h327v-500h-135v378h-192v-378h-135v594q0 23 -22.5 48.5t-69.5 25.5z" />
<glyph unicode="ffj" horiz-adv-x="848" d="M795 500v-504q0 -92 -42 -144.5t-107 -52.5q-39 0 -62.5 20.5t-23.5 50.5q0 26 18 44.5t46 18.5q33 0 47 -22q-5 -15 2.5 -28.5t26.5 -13.5q17 0 28 12t11 35q0 27 -22 51.5t-57 32.5v378h-146v-378h-135v378h-156v-378h-135v378h-68v122h68v15q0 88 49 142.5t119 54.5 q42 0 65 -19.5t23 -50.5q0 -30 -19 -52.5t-54 -22.5q-38 0 -50 24q5 18 -7 33.5t-31 15.5q-18 0 -31 -14t-13 -37q0 -34 29 -61.5t70 -27.5h141v16q0 81 62 138.5t189 57.5q85 0 128 -25t43 -62q0 -31 -22.5 -49.5t-56.5 -18.5q-51 0 -69 31q7 16 7 34t-18.5 32.5 t-52.5 14.5q-40 0 -65 -23.5t-25 -70.5q0 -41 15 -75h281z" />
<glyph unicode="ffk" horiz-adv-x="1199" d="M588 668q-45 0 -68 -24.5t-23 -64.5t17 -79h95v-122h-95v-378h-135v378h-156v-378h-135v378h-68v122h68v15q0 88 49 142.5t119 54.5q42 0 65 -19.5t23 -50.5q0 -30 -19 -52.5t-54 -22.5q-38 0 -50 24q5 18 -7 33.5t-31 15.5q-18 0 -31 -14t-13 -37q0 -34 29 -61.5 t70 -27.5h141v16q0 81 57 138.5t173 57.5q46 0 89 -12h117v-408l203 208h183l-246 -243l254 -257h-186l-208 217v-217h-135v594q0 23 -22.5 48.5t-69.5 25.5z" />
<glyph unicode="f&#xef;" horiz-adv-x="557" d="M245 500h259v-500h-135v378h-146v-378h-135v378h-68v122h68v15q0 91 52 144t143 53q62 0 96.5 -23.5t34.5 -61.5q0 -28 -19 -49t-56 -21q-44 0 -58 24q7 27 -9 51t-52 24q-33 0 -51.5 -20.5t-18.5 -48.5q0 -34 27 -60.5t68 -26.5zM460 628q0 30 20.5 51t50.5 21t51 -21 t21 -51t-21 -50.5t-51 -20.5t-50.5 20.5t-20.5 50.5z" />
<glyph unicode="ff&#xef;" horiz-adv-x="848" d="M536 500h259v-500h-135v378h-146v-378h-135v378h-156v-378h-135v378h-68v122h68v15q0 88 49 142.5t119 54.5q42 0 65 -19.5t23 -50.5q0 -30 -19 -52.5t-54 -22.5q-38 0 -50 24q5 18 -7 33.5t-31 15.5q-18 0 -31 -14t-13 -37q0 -34 29 -61.5t70 -27.5h141v15q0 91 52 144 t143 53q62 0 96.5 -23.5t34.5 -61.5q0 -28 -19 -49t-56 -21q-44 0 -58 24q7 27 -9 51t-52 24q-33 0 -51.5 -20.5t-18.5 -48.5q0 -34 27 -60.5t68 -26.5zM751 628q0 30 20.5 51t50.5 21t51 -21t21 -51t-21 -50.5t-51 -20.5t-50.5 20.5t-20.5 50.5z" />
<glyph unicode="FB" horiz-adv-x="955" d="M929 250q0 -108 -73.5 -184.5t-180.5 -76.5q-95 0 -151 65v-54h-135v700h135v-254q56 65 151 65q107 0 180.5 -76.5t73.5 -184.5zM787 250q0 55 -38.5 93.5t-92.5 38.5q-55 0 -93.5 -38.5t-38.5 -93.5q0 -54 38.5 -93t93.5 -39q54 0 92.5 39t38.5 93zM223 543v-43h95 v-122h-95v-378h-135v378h-68v122h68v52q0 83 47 121.5t112 38.5q31 0 71 -12v-126q-22 14 -49 14q-46 0 -46 -45z" />
<glyph unicode="FF" horiz-adv-x="632" d="M223 543v-43h156v52q0 43 14.5 75.5t40 50t54.5 26t62 8.5q45 0 95 -15v-129q-38 20 -76 20q-26 0 -40.5 -12t-14.5 -33v-43h95v-122h-95v-378h-135v378h-156v-378h-135v378h-68v122h68v52q0 83 47 121.5t112 38.5q31 0 71 -12v-126q-22 14 -49 14q-46 0 -46 -45z" />
<glyph unicode="FH" horiz-adv-x="904" d="M223 543v-43h95v-122h-95v-378h-135v378h-68v122h68v52q0 83 47 121.5t112 38.5q31 0 71 -12v-126q-22 14 -49 14q-46 0 -46 -45zM851 0h-135v378h-192v-378h-135v700h135v-200h327v-500z" />
<glyph unicode="FI" horiz-adv-x="567" d="M223 543v-43h95v-122h-95v-378h-135v378h-68v122h68v52q0 83 47 121.5t112 38.5q31 0 71 -12v-126q-22 14 -49 14q-46 0 -46 -45zM514 0h-135v500h135v-500zM369 635q0 32 23 54.5t55 22.5q31 0 54 -23t23 -54q0 -32 -22.5 -55t-54.5 -23t-55 23t-23 55z" />
<glyph unicode="FJ" horiz-adv-x="567" d="M223 543v-43h95v-122h-95v-378h-135v378h-68v122h68v52q0 83 47 121.5t112 38.5q31 0 71 -12v-126q-22 14 -49 14q-46 0 -46 -45zM369 635q0 32 23 54.5t55 22.5q31 0 54 -23t23 -54q0 -32 -22.5 -55t-54.5 -23t-55 23t-23 55zM379 -12v512h135v-504q0 -97 -41 -147 t-106 -50q-27 0 -51 11v114q8 -5 20 -5q43 0 43 69z" />
<glyph unicode="FK" horiz-adv-x="908" d="M223 543v-43h95v-122h-95v-378h-135v378h-68v122h68v52q0 83 47 121.5t112 38.5q31 0 71 -12v-126q-22 14 -49 14q-46 0 -46 -45zM524 0h-135v700h135v-408l203 208h183l-246 -243l254 -257h-186l-208 217v-217z" />
<glyph unicode="FL" horiz-adv-x="577" d="M223 543v-43h95v-122h-95v-378h-135v378h-68v122h68v52q0 83 47 121.5t112 38.5q31 0 71 -12v-126q-22 14 -49 14q-46 0 -46 -45zM524 0h-135v700h135v-700z" />
<glyph unicode="FFB" horiz-adv-x="1252" d="M1226 250q0 -108 -73.5 -184.5t-180.5 -76.5q-95 0 -151 65v-54h-135v700h135v-254q56 65 151 65q107 0 180.5 -76.5t73.5 -184.5zM1084 250q0 55 -38.5 93.5t-92.5 38.5q-55 0 -93.5 -38.5t-38.5 -93.5q0 -54 38.5 -93t93.5 -39q54 0 92.5 39t38.5 93zM520 500h95v-122 h-95v-378h-135v378h-162v-378h-135v378h-68v122h68v52q0 83 47 121.5t112 38.5q31 0 71 -12v-126q-22 14 -49 14q-46 0 -46 -45v-43h162v52q0 83 47 121.5t112 38.5q31 0 71 -12v-126q-22 14 -49 14q-46 0 -46 -45v-43z" />
<glyph unicode="FFH" horiz-adv-x="1201" d="M1148 0h-135v378h-192v-378h-135v700h135v-200h327v-500zM520 500h95v-122h-95v-378h-135v378h-162v-378h-135v378h-68v122h68v52q0 83 47 121.5t112 38.5q31 0 71 -12v-126q-22 14 -49 14q-46 0 -46 -45v-43h162v52q0 83 47 121.5t112 38.5q31 0 71 -12v-126 q-22 14 -49 14q-46 0 -46 -45v-43z" />
<glyph unicode="FFI" horiz-adv-x="858" d="M514 500h95v-122h-95v-378h-135v378h-156v-378h-135v378h-68v122h68v52q0 83 47 121.5t112 38.5q31 0 71 -12v-126q-22 14 -49 14q-46 0 -46 -45v-43h156v52q0 83 47 121.5t112 38.5q31 0 71 -12v-126q-22 14 -49 14q-46 0 -46 -45v-43zM805 0h-135v500h135v-500z M660 635q0 32 23 54.5t55 22.5t54.5 -23t22.5 -54q0 -32 -22.5 -55t-54.5 -23t-55 23t-23 55z" />
<glyph unicode="FFJ" horiz-adv-x="858" d="M660 635q0 32 23 54.5t55 22.5t54.5 -23t22.5 -54q0 -32 -22.5 -55t-54.5 -23t-55 23t-23 55zM670 -12v512h135v-504q0 -97 -41 -147t-106 -50q-27 0 -51 11v114q8 -5 20 -5q43 0 43 69zM514 500h95v-122h-95v-378h-135v378h-156v-378h-135v378h-68v122h68v52 q0 83 47 121.5t112 38.5q31 0 71 -12v-126q-22 14 -49 14q-46 0 -46 -45v-43h156v52q0 83 47 121.5t112 38.5q31 0 71 -12v-126q-22 14 -49 14q-46 0 -46 -45v-43z" />
<glyph unicode="FFK" horiz-adv-x="1195" d="M811 0h-135v700h135v-408l203 208h183l-246 -243l254 -257h-186l-208 217v-217zM514 500h95v-122h-95v-378h-135v378h-156v-378h-135v378h-68v122h68v52q0 83 47 121.5t112 38.5q31 0 71 -12v-126q-22 14 -49 14q-46 0 -46 -45v-43h156v52q0 83 47 121.5t112 38.5 q31 0 71 -12v-126q-22 14 -49 14q-46 0 -46 -45v-43z" />
<glyph unicode="FFL" horiz-adv-x="864" d="M811 0h-135v700h135v-700zM514 500h95v-122h-95v-378h-135v378h-156v-378h-135v378h-68v122h68v52q0 83 47 121.5t112 38.5q31 0 71 -12v-126q-22 14 -49 14q-46 0 -46 -45v-43h156v52q0 83 47 121.5t112 38.5q31 0 71 -12v-126q-22 14 -49 14q-46 0 -46 -45v-43z" />
<glyph unicode="F&#xcf;" horiz-adv-x="567" d="M223 0h-135v378h-68v122h68v15q0 91 52 144t143 53q65 0 103 -26t38 -64q0 -26 -18 -45.5t-50 -19.5q-22 0 -47 14t-43 14q-43 0 -43 -42v-43h95v-122h-95v-378zM514 0h-135v500h135v-500zM470 628q0 30 20.5 51t50.5 21t51 -21t21 -51t-21 -50.5t-51 -20.5t-50.5 20.5 t-20.5 50.5z" />
<glyph unicode="FF&#xcf;" horiz-adv-x="858" d="M514 0h-135v378h-156v-378h-135v378h-68v122h68v52q0 83 47 121.5t112 38.5q31 0 71 -12v-126q-22 14 -49 14q-46 0 -46 -45v-43h156v15q0 91 52 144t143 53q65 0 103 -26t38 -64q0 -26 -18 -45.5t-50 -19.5q-21 0 -46 14t-44 14q-43 0 -43 -42v-43h95v-122h-95v-378z M805 0h-135v500h135v-500zM761 628q0 30 20.5 51t50.5 21t51 -21t21 -51t-21 -50.5t-51 -20.5t-50.5 20.5t-20.5 50.5z" />
<glyph unicode=" "  horiz-adv-x="253" />
<glyph unicode="&#x09;" horiz-adv-x="253" />
<glyph unicode="&#xa0;" horiz-adv-x="253" />
<glyph unicode="!" horiz-adv-x="252" d="M193 241h-135v459h135v-459zM39 77q0 37 25 62t62 25q36 0 61.5 -25t25.5 -62q0 -36 -25.5 -61.5t-61.5 -25.5q-37 0 -62 25.5t-25 61.5z" />
<glyph unicode="&#x22;" horiz-adv-x="431" d="M100 378h-47v322h153zM299 378h-47v322h153z" />
<glyph unicode="#" d="M83 0h-53l65 159h-75v50h96l69 169h-105v50h126l65 159h53l-65 -159h158l65 159h53l-65 -159h75v-50h-96l-69 -169h105v-50h-126l-65 -159h-53l65 159h-158zM238 378l-69 -169h158l69 169h-158z" />
<glyph unicode="$" d="M152 -100l30 101q-60 15 -103 46v143q64 -60 138 -74l31 105q-86 24 -128.5 61t-42.5 106q0 76 50.5 119.5t134.5 43.5q31 0 83 -10l31 103h49l-33 -110q20 -2 31 -2q27 0 48 5v-129q-12 -2 -37 -2q-38 0 -78 10l-24 -81q81 -25 120.5 -63t39.5 -107q0 -87 -59.5 -131.5 t-152.5 -44.5q-19 0 -51 4l-28 -93h-49zM204 403q0 -22 19.5 -32.5t63.5 -22.5l24 79q-36 9 -57 9q-50 0 -50 -33zM363 157q0 22 -16 32t-53 20l-30 -98h13q86 0 86 46z" />
<glyph unicode="%" horiz-adv-x="719" d="M646 587l-511 -587h-62l510 587h63zM30 436q0 66 46.5 112.5t112.5 46.5t112.5 -46.5t46.5 -112.5t-46.5 -112.5t-112.5 -46.5t-112.5 46.5t-46.5 112.5zM118 436q0 -29 21 -50t50 -21t50 21t21 50t-21 50t-50 21t-50 -21t-21 -50zM371 152q0 66 46.5 112.5t112.5 46.5 t112.5 -46.5t46.5 -112.5t-46.5 -112.5t-112.5 -46.5t-112.5 46.5t-46.5 112.5zM459 152q0 -29 21 -50t50 -21t50 21t21 50t-21 50t-50 21t-50 -21t-21 -50z" />
<glyph unicode="&#x26;" horiz-adv-x="708" d="M309 120q93 0 153 57q-41 50 -98.5 83t-109.5 33q-41 0 -64 -21t-23 -54q0 -42 38.5 -70t103.5 -28zM299 433q6 -3 59 -28t94.5 -52.5t74.5 -64.5q9 21 9 61q0 86 -53 151h153q30 -71 30 -149q0 -104 -47 -187q47 -83 47 -164h-132q0 30 -11 60q-92 -71 -222 -71 q-128 0 -201.5 67t-73.5 163q0 58 31 108t96 77q-43 53 -43 118q0 84 56 137t143 53q69 0 116.5 -33t47.5 -85q0 -33 -19.5 -55t-55.5 -22q-44 0 -58 24q27 38 9 80t-67 42q-33 0 -58 -21t-25 -66q0 -87 100 -143z" />
<glyph unicode="'" horiz-adv-x="232" d="M100 378h-47v322h153z" />
<glyph unicode="(" horiz-adv-x="328" d="M302 -190l-29 -36q-96 69 -164.5 196.5t-68.5 284.5t68.5 284.5t164.5 196.5l29 -36q-87 -63 -149.5 -181.5t-62.5 -263.5t62.5 -263.5t149.5 -181.5z" />
<glyph unicode=")" horiz-adv-x="328" d="M55 -226l-29 36q87 63 149.5 181.5t62.5 263.5t-62.5 263.5t-149.5 181.5l29 36q96 -69 164.5 -196.5t68.5 -284.5t-68.5 -284.5t-164.5 -196.5z" />
<glyph unicode="*" horiz-adv-x="516" d="M280 474q22 -10 79.5 -20t78.5 -23q26 -17 26 -43q0 -20 -15 -36.5t-37 -16.5q-13 0 -25 6q-20 10 -59 54.5t-59 58.5q2 -23 21 -75.5t19 -77.5q0 -27 -14 -41t-37 -14t-37 14t-14 41q0 25 19 77.5t21 75.5q-20 -14 -59 -58.5t-59 -54.5q-12 -6 -25 -6q-22 0 -37 16.5 t-15 36.5q0 26 26 43q21 13 78.5 23t79.5 20q-22 10 -79.5 20t-78.5 23q-26 17 -26 43q0 20 15 36.5t37 16.5q13 0 25 -6q20 -10 59 -54.5t59 -58.5q-2 23 -21 75.5t-19 77.5q0 27 14 41t37 14t37 -14t14 -41q0 -25 -19 -77.5t-21 -75.5q20 14 59 58.5t59 54.5q12 6 25 6 q22 0 37 -16.5t15 -36.5q0 -26 -26 -43q-21 -13 -78.5 -23t-79.5 -20z" />
<glyph unicode="+" d="M313 500v-225h225v-50h-225v-225h-50v225h-225v50h225v225h50z" />
<glyph unicode="," horiz-adv-x="253" d="M45 93q0 34 24 57.5t59 23.5q33 0 57.5 -24t24.5 -71q0 -73 -56.5 -132.5t-108.5 -75.5v33q30 44 30 82q0 25 -15 57q-15 30 -15 50z" />
<glyph unicode="-" horiz-adv-x="366" d="M327 190h-288v120h288v-120z" />
<glyph unicode="." horiz-adv-x="253" d="M39 77q0 37 25 62t62 25q36 0 61.5 -25t25.5 -62q0 -36 -25.5 -61.5t-61.5 -25.5q-37 0 -62 25.5t-25 61.5z" />
<glyph unicode="/" horiz-adv-x="446" d="M67 -190h-53l365 890h53z" />
<glyph unicode="0" horiz-adv-x="588" d="M422 250q0 55 -37.5 93.5t-90.5 38.5q-54 0 -91.5 -38.5t-37.5 -93.5q0 -54 37.5 -92.5t91.5 -38.5q53 0 90.5 38.5t37.5 92.5zM26 250q0 109 77.5 185t190.5 76t190.5 -76t77.5 -185t-77.5 -185t-190.5 -76t-190.5 76t-77.5 185z" />
<glyph unicode="1" horiz-adv-x="377" d="M317 0h-135v378h-152v122h287v-500z" />
<glyph unicode="2" d="M346 128h199v-128h-519v43q302 152 302 271q0 32 -18.5 51t-46.5 19q-27 0 -45 -18.5t-18 -48.5q0 -11 1 -16h-132q0 2 -0.5 7t-0.5 11q0 79 58 135.5t142 56.5q83 0 140 -56t57 -138q0 -76 -52 -134q-13 -15 -30 -29t-27 -20z" />
<glyph unicode="3" horiz-adv-x="543" d="M378 -14q0 76 -55 122.5t-137 51.5v18l113 200h-256v122h469l-149 -262q76 -29 115 -84t39 -125q0 -96 -68 -163t-198 -67q-111 0 -173 49t-62 116q0 40 22 63t55 23q43 0 61 -31q-18 -28 -18 -65q0 -45 30 -78.5t85 -33.5q63 0 95 43.5t32 100.5z" />
<glyph unicode="4" d="M226 500h145q0 -124 -38 -220t-92 -158h145v164h137v-476h-137v190h-362v43q96 94 149 198t53 259z" />
<glyph unicode="5" horiz-adv-x="546" d="M216 162q-79 0 -138 -51l-31 19q40 124 40 370h401v-122h-275q-2 -63 -16 -123q38 22 94 22q95 0 159.5 -66.5t64.5 -163.5q0 -99 -70 -173.5t-201 -74.5q-106 0 -166 49t-60 116q0 41 22 63.5t56 22.5q42 0 60 -31q-17 -29 -17 -63q0 -46 28 -80t85 -34q66 0 99 45.5 t33 106.5q0 72 -45 120t-123 48z" />
<glyph unicode="6" d="M71 392l66 108q12 19 33.5 58.5t34.5 59t32 44t40 35t46 10.5q33 0 53 -20t20 -49t-19.5 -49t-52.5 -20q-17 0 -22 5q1 12 -9.5 23t-29.5 11q-20 0 -33 -14t-13 -35q0 -26 20.5 -42.5t50.5 -16.5q113 0 187 -74t74 -181t-74 -181.5t-187 -74.5t-187 74.5t-74 181.5 q0 75 44 147zM408 245q0 53 -34.5 89.5t-85.5 36.5q-52 0 -86 -36.5t-34 -89.5q0 -52 34 -88.5t86 -36.5q51 0 85.5 36.5t34.5 88.5z" />
<glyph unicode="7" horiz-adv-x="537" d="M536 500l-284 -500q-71 0 -108 -29t-37 -63q0 -17 10.5 -28t26.5 -11q20 0 27 15t-1 27q14 22 47 22q28 0 46 -18.5t18 -44.5q0 -30 -24 -50.5t-63 -20.5q-50 0 -86 32t-36 81q0 39 28 88l215 378h-291v122h512z" />
<glyph unicode="8" d="M288 712q87 0 144.5 -58t57.5 -140q0 -68 -47 -116q43 -23 71 -72t28 -108q0 -95 -70.5 -162t-183.5 -67t-183.5 67t-70.5 162q0 59 28 108t71 72q-47 48 -47 116q0 82 57.5 140t144.5 58zM303 429l36 44q39 48 39 96q0 42 -23.5 70t-66.5 28t-66.5 -28t-23.5 -70 q0 -48 39 -96l36 -44h30zM288 120q60 0 86.5 32.5t26.5 73.5q0 52 -32 81h-162q-32 -29 -32 -81q0 -41 26.5 -73.5t86.5 -32.5z" />
<glyph unicode="9" d="M288 0q-113 0 -187 74t-74 181t74 181.5t187 74.5t187 -74.5t74 -181.5q0 -75 -44 -147l-66 -108q-11 -18 -32 -55.5t-32.5 -56t-30 -41.5t-38.5 -33t-43 -10q-33 0 -53 20t-20 50q0 28 18.5 48t50.5 20q20 0 25 -5q-2 -13 8 -24t28 -11q17 0 28.5 12.5t11.5 29.5 q0 25 -18.5 40.5t-53.5 15.5zM168 255q0 -53 34.5 -89.5t85.5 -36.5q52 0 86 36.5t34 89.5q0 52 -34 88.5t-86 36.5q-51 0 -85.5 -36.5t-34.5 -88.5z" />
<glyph unicode=":" horiz-adv-x="270" d="M48 77q0 37 25.5 62t61.5 25q37 0 62 -25t25 -62q0 -36 -25 -61.5t-62 -25.5q-36 0 -61.5 25.5t-25.5 61.5zM48 423q0 36 25.5 61.5t61.5 25.5q37 0 62 -25.5t25 -61.5t-25 -61.5t-62 -25.5q-36 0 -61.5 25.5t-25.5 61.5z" />
<glyph unicode=";" horiz-adv-x="270" d="M48 423q0 36 25.5 61.5t61.5 25.5q37 0 62 -25.5t25 -61.5t-25 -61.5t-62 -25.5q-36 0 -61.5 25.5t-25.5 61.5zM56 93q0 34 24 57.5t58 23.5t58 -24t24 -71q0 -73 -56 -132t-108 -76v33q30 46 30 82q0 22 -15 57q-15 30 -15 50z" />
<glyph unicode="&#x3c;" d="M120 250l249 250h72l-251 -250l251 -250h-72z" />
<glyph unicode="=" horiz-adv-x="600" d="M538 125h-500v50h500v-50zM538 325h-500v50h500v-50z" />
<glyph unicode="&#x3e;" d="M207 500l249 -250l-249 -250h-72l251 250l-251 250h72z" />
<glyph unicode="?" horiz-adv-x="442" d="M94 77q0 37 25 62t62 25q36 0 61.5 -25t25.5 -62q0 -36 -25.5 -61.5t-61.5 -25.5q-37 0 -62 25.5t-25 61.5zM416 517q0 -67 -37 -117.5t-115 -100.5q-1 -1 -14 -8.5t-26 -16t-28 -18t-25.5 -18.5t-13.5 -14h-5q-24 45 -24 80q0 13 2.5 24.5t9 22.5t11 17.5t16.5 17.5 t16 14t20 14.5t18 13.5l10 7q96 67 96 140q0 45 -28 68.5t-64 23.5t-59 -24.5t-24.5 -56.5t14.5 -65q-14 -24 -58 -24q-36 0 -55.5 22.5t-19.5 57.5q0 59 50.5 97t126.5 38q89 0 147.5 -53.5t58.5 -141.5z" />
<glyph unicode="@" horiz-adv-x="865" d="M799 37v-67q-61 -57 -148 -90.5t-183 -33.5q-183 0 -306.5 117.5t-123.5 298.5q0 178 119.5 295t295.5 117q159 0 264.5 -97t105.5 -253q0 -121 -60.5 -191.5t-132.5 -70.5q-59 0 -84 46q-49 -55 -136 -55q-86 0 -145 61.5t-59 147.5t59 147.5t144 61.5q75 0 122 -52v43 h108v-272q0 -40 33 -40q35 0 68 48.5t33 130.5q0 131 -91 213t-228 82q-156 0 -260 -102.5t-104 -259.5q0 -160 107.5 -263t271.5 -103q98 0 186.5 38.5t143.5 102.5zM531 262q0 44 -31 75t-74 31q-44 0 -75 -31t-31 -75t31 -75t75 -31q43 0 74 31t31 75z" />
<glyph unicode="A" horiz-adv-x="548" d="M66 378v122h429v-500h-135v48q-56 -59 -149 -59q-84 0 -133.5 43.5t-49.5 109.5q0 83 71 124q50 28 127 28q72 0 134 -22v106h-294zM256 199q-87 0 -87 -48q0 -23 21 -34t50 -11q39 0 71.5 20.5t48.5 54.5v1q-54 17 -104 17z" />
<glyph unicode="B" horiz-adv-x="619" d="M593 250q0 -108 -73.5 -184.5t-180.5 -76.5q-95 0 -151 65v-54h-135v700h135v-254q56 65 151 65q107 0 180.5 -76.5t73.5 -184.5zM451 250q0 55 -38.5 93.5t-92.5 38.5q-55 0 -93.5 -38.5t-38.5 -93.5q0 -54 38.5 -93t93.5 -39q54 0 92.5 39t38.5 93z" />
<glyph unicode="C" horiz-adv-x="525" d="M485 198v-145q-81 -64 -190 -64q-115 0 -192 71t-77 190q0 118 75 189.5t182 71.5q32 0 97 -13t105 -6v-133q-49 -9 -110.5 7.5t-81.5 16.5q-53 0 -88.5 -35t-35.5 -93q0 -61 38.5 -98t98.5 -37q94 0 179 78z" />
<glyph unicode="D" horiz-adv-x="620" d="M567 0h-135v54q-56 -65 -151 -65q-107 0 -181 76.5t-74 184.5t74 184.5t181 76.5q95 0 151 -65v254h135v-700zM432 250q0 55 -38.5 93.5t-93.5 38.5q-54 0 -92.5 -38.5t-38.5 -93.5q0 -54 38.5 -93t92.5 -39q55 0 93.5 39t38.5 93z" />
<glyph unicode="E" horiz-adv-x="535" d="M300 221q-80 0 -132 16q2 -58 41.5 -89.5t108.5 -31.5q101 0 177 78v-147q-76 -58 -191 -58q-130 0 -203.5 72.5t-73.5 184.5q0 116 74.5 190.5t195.5 74.5q93 0 146.5 -44t53.5 -109q0 -37 -18 -67.5t-47 -45.5q-45 -24 -132 -24zM268 316q45 0 66.5 8t21.5 30 q0 40 -65 40q-82 0 -110 -70q34 -8 87 -8z" />
<glyph unicode="F" horiz-adv-x="341" d="M223 543v-43h95v-122h-95v-378h-135v378h-68v122h68v52q0 43 14.5 75.5t40 50t54.5 26t62 8.5q45 0 95 -15v-129q-38 20 -76 20q-26 0 -40.5 -12t-14.5 -33z" />
<glyph unicode="G" horiz-adv-x="514" d="M185 122h172q73 0 110 -37t37 -85q0 -86 -79 -143.5t-209 -57.5q-55 0 -100 10.5t-77 36t-32 63.5q0 73 104 91q-43 14 -64.5 43.5t-21.5 61.5q0 34 23 64t67 44q-64 46 -64 131q0 72 51 119.5t145 47.5q23 0 43 -3q51 -8 142 -8h68v-121q-30 0 -61 5q5 -22 5 -40 q0 -72 -51.5 -120t-145.5 -48h-60q-18 0 -28.5 -8t-10.5 -20q0 -11 10 -18.5t27 -7.5zM294 0h-69q-37 0 -57 -13t-20 -32q0 -23 27.5 -34.5t67.5 -11.5q46 0 80.5 15t34.5 42q0 34 -64 34zM185 344q0 -24 16 -39.5t46 -15.5q31 0 47 15.5t16 39.5q0 23 -16 38t-47 15 q-30 0 -46 -15t-16 -38z" />
<glyph unicode="H" horiz-adv-x="568" d="M515 0h-135v378h-192v-378h-135v700h135v-200h327v-500z" />
<glyph unicode="I" horiz-adv-x="241" d="M188 0h-135v500h135v-500zM43 635q0 32 23 54.5t55 22.5q31 0 54 -23t23 -54q0 -32 -22.5 -55t-54.5 -23t-55 23t-23 55z" />
<glyph unicode="J" horiz-adv-x="241" d="M43 635q0 32 23 54.5t55 22.5q31 0 54 -23t23 -54q0 -32 -22.5 -55t-54.5 -23t-55 23t-23 55zM53 -12v512h135v-504q0 -97 -41 -147t-106 -50q-27 0 -51 11v114q8 -5 20 -5q43 0 43 69z" />
<glyph unicode="K" horiz-adv-x="572" d="M188 0h-135v700h135v-408l203 208h183l-246 -243l254 -257h-186l-208 217v-217z" />
<glyph unicode="L" horiz-adv-x="241" d="M188 0h-135v700h135v-700z" />
<glyph unicode="M" horiz-adv-x="766" d="M383 74q-61 0 -102 49.5t-41 129.5q0 72 36 125h-88v-378h-135v500h148q101 0 182 -36q81 36 182 36h148v-500h-135v378h-89q37 -55 37 -125q0 -80 -41 -129.5t-102 -49.5zM383 179q20 0 29 23t9 53q0 66 -38 107q-39 -40 -39 -107q0 -29 9.5 -52.5t29.5 -23.5z" />
<glyph unicode="N" horiz-adv-x="568" d="M515 0h-135v378h-192v-378h-135v500h462v-500z" />
<glyph unicode="O" horiz-adv-x="592" d="M566 250q0 -109 -76.5 -185t-192.5 -76t-193.5 76t-77.5 185t77.5 185t193.5 76t192.5 -76t76.5 -185zM425 250q0 55 -37.5 93.5t-90.5 38.5q-54 0 -91.5 -38.5t-37.5 -93.5q0 -54 37.5 -92.5t91.5 -38.5q53 0 90.5 38.5t37.5 92.5z" />
<glyph unicode="P" horiz-adv-x="619" d="M593 251q0 -108 -73.5 -184.5t-180.5 -76.5q-95 0 -151 65v-245h-135v690h135v-53q56 65 151 65q107 0 180.5 -76.5t73.5 -184.5zM451 251q0 55 -38.5 93.5t-92.5 38.5q-55 0 -93.5 -38.5t-38.5 -93.5q0 -54 38.5 -92.5t93.5 -38.5q54 0 92.5 38.5t38.5 92.5z" />
<glyph unicode="Q" horiz-adv-x="620" d="M567 -193h-135v247q-56 -65 -151 -65q-107 0 -181 76.5t-74 184.5t74 184.5t181 76.5q95 0 151 -65v54h135v-693zM432 250q0 55 -38.5 93.5t-93.5 38.5q-54 0 -92.5 -38.5t-38.5 -93.5q0 -54 38.5 -93t92.5 -39q55 0 93.5 39t38.5 93z" />
<glyph unicode="R" horiz-adv-x="348" d="M328 378h-140v-378h-135v500h275v-122z" />
<glyph unicode="S" horiz-adv-x="455" d="M226 -11q-111 0 -187 58v143q77 -79 180 -79q63 0 63 37q0 13 -9.5 22.5t-21.5 14t-38 11.5q-36 10 -63 21.5t-55 31t-43 48t-15 65.5q0 66 47 107.5t124 41.5q29 0 75.5 -9.5t73.5 -9.5q24 0 44 5v-129q-11 -2 -33 -2q-36 0 -88 15t-68 15q-37 0 -37 -27q0 -10 10 -18.5 t20.5 -13t31.5 -11.5q37 -13 56.5 -20t48.5 -22.5t43.5 -31.5t25.5 -42t11 -58q0 -79 -55 -121t-141 -42z" />
<glyph unicode="T" horiz-adv-x="391" d="M20 378v122h68v150h135v-150h129v-122h-129v-213q0 -46 45 -46q50 0 85 37v-129q-48 -35 -121 -35q-62 0 -103 32t-41 104v250h-68z" />
<glyph unicode="U" horiz-adv-x="556" d="M508 500v-290q0 -95 -65.5 -158t-164.5 -63t-164.5 63t-65.5 158v290h135v-280q0 -44 27 -72.5t68 -28.5t68 28.5t27 72.5v280h135z" />
<glyph unicode="V" horiz-adv-x="542" d="M285 -11h-28l-267 511h150l131 -253l131 253h150z" />
<glyph unicode="W" horiz-adv-x="780" d="M498 -11l-108 210l-108 -210h-28l-262 511h150l130 -261l29 56q12 23 12 39q0 10 -7 32.5t-7 41.5q0 43 25 69t66 26q40 0 65.5 -26.5t25.5 -67.5q0 -18 -6.5 -41.5t-6.5 -34.5q0 -17 11 -38l29 -56l130 261h150l-262 -511h-28z" />
<glyph unicode="X" horiz-adv-x="564" d="M159 0h-157l200 263l-180 237h155l105 -145l105 145h155l-180 -237l200 -263h-157l-123 161z" />
<glyph unicode="Y" horiz-adv-x="548" d="M558 500l-262 -501q-58 -111 -103.5 -154t-102.5 -43q-37 0 -75 19v123q27 -15 53 -15q28 0 54.5 35.5t79.5 139.5l-206 396h150l131 -253l131 253h150z" />
<glyph unicode="Z" horiz-adv-x="500" d="M490 500l-250 -378h240v-122h-480l249 378h-224v122h465z" />
<glyph unicode="[" horiz-adv-x="270" d="M234 -226h-181v962h181v-42h-131v-878h131v-42z" />
<glyph unicode="\" horiz-adv-x="446" d="M432 -190h-53l-365 890h53z" />
<glyph unicode="]" horiz-adv-x="270" d="M217 -226h-181v42h131v878h-131v42h181v-962z" />
<glyph unicode="^" d="M67 420l-35 35l257 257l256 -257l-35 -35l-221 222z" />
<glyph unicode="_" d="M576 -125h-576v50h576v-50z" />
<glyph unicode="`" horiz-adv-x="245" d="M173 634l31 -87h-64l-79 52q-40 26 -40 63q0 25 19.5 43t48.5 18q15 0 27.5 -5t20 -11t14.5 -18t9.5 -18.5t7 -20z" />
<glyph unicode="a" horiz-adv-x="548" d="M66 378v122h429v-500h-135v48q-56 -59 -149 -59q-84 0 -133.5 43.5t-49.5 109.5q0 83 71 124q50 28 127 28q72 0 134 -22v106h-294zM256 199q-87 0 -87 -48q0 -23 21 -34t50 -11q39 0 71.5 20.5t48.5 54.5v1q-54 17 -104 17z" />
<glyph unicode="b" horiz-adv-x="619" d="M593 250q0 -108 -73.5 -184.5t-180.5 -76.5q-95 0 -151 65v-54h-135v700h135v-254q56 65 151 65q107 0 180.5 -76.5t73.5 -184.5zM451 250q0 55 -38.5 93.5t-92.5 38.5q-55 0 -93.5 -38.5t-38.5 -93.5q0 -54 38.5 -93t93.5 -39q54 0 92.5 39t38.5 93z" />
<glyph unicode="c" horiz-adv-x="525" d="M485 198v-145q-81 -64 -190 -64q-115 0 -192 71t-77 190q0 118 75 189.5t182 71.5q32 0 97 -13t105 -6v-133q-49 -9 -110.5 7.5t-81.5 16.5q-53 0 -88.5 -35t-35.5 -93q0 -61 38.5 -98t98.5 -37q94 0 179 78z" />
<glyph unicode="d" horiz-adv-x="620" d="M567 0h-135v54q-56 -65 -151 -65q-107 0 -181 76.5t-74 184.5t74 184.5t181 76.5q95 0 151 -65v254h135v-700zM432 250q0 55 -38.5 93.5t-93.5 38.5q-54 0 -92.5 -38.5t-38.5 -93.5q0 -54 38.5 -93t92.5 -39q55 0 93.5 39t38.5 93z" />
<glyph unicode="e" horiz-adv-x="535" d="M300 221q-80 0 -132 16q2 -58 41.5 -89.5t108.5 -31.5q101 0 177 78v-147q-76 -58 -191 -58q-130 0 -203.5 72.5t-73.5 184.5q0 116 74.5 190.5t195.5 74.5q93 0 146.5 -44t53.5 -109q0 -37 -18 -67.5t-47 -45.5q-45 -24 -132 -24zM268 316q45 0 66.5 8t21.5 30 q0 40 -65 40q-82 0 -110 -70q34 -8 87 -8z" />
<glyph unicode="f" horiz-adv-x="341" d="M245 500h73v-122h-95v-378h-135v378h-68v122h68v15q0 88 52 142.5t125 54.5q44 0 70 -20.5t26 -53.5q0 -29 -19.5 -50t-55.5 -21q-44 0 -58 24q5 18 -7 33.5t-31 15.5q-18 0 -31 -14t-13 -37q0 -34 29 -61.5t70 -27.5z" />
<glyph unicode="g" horiz-adv-x="514" d="M185 122h172q73 0 110 -37t37 -85q0 -86 -79 -143.5t-209 -57.5q-55 0 -100 10.5t-77 36t-32 63.5q0 73 104 91q-43 14 -64.5 43.5t-21.5 61.5q0 34 23 64t67 44q-64 46 -64 131q0 72 51 119.5t145 47.5q22 0 43 -3q51 -8 142 -8h68v-121q-30 0 -61 5q5 -22 5 -40 q0 -72 -51.5 -120t-145.5 -48h-60q-18 0 -28.5 -8t-10.5 -20q0 -11 10 -18.5t27 -7.5zM185 344q0 -24 16 -39.5t46 -15.5q31 0 47 15.5t16 39.5q0 23 -16 38t-47 15q-30 0 -46 -15t-16 -38zM338 0h-152q-33 0 -49 -16.5t-16 -38.5q0 -42 45.5 -65t113.5 -23t106.5 25 t38.5 62q0 56 -87 56z" />
<glyph unicode="h" horiz-adv-x="568" d="M515 0h-135v378h-192v-378h-135v700h135v-200h327v-500z" />
<glyph unicode="i" horiz-adv-x="241" d="M188 0h-135v500h135v-500zM43 635q0 32 23 54.5t55 22.5q31 0 54 -23t23 -54q0 -32 -22.5 -55t-54.5 -23t-55 23t-23 55z" />
<glyph unicode="j" horiz-adv-x="241" d="M53 0v500h135v-504q0 -92 -42 -144.5t-107 -52.5q-39 0 -62.5 20.5t-23.5 50.5q0 26 18 44.5t46 18.5q33 0 47 -22q-5 -15 2.5 -28.5t26.5 -13.5q17 0 28 12t11 35q0 27 -22 51.5t-57 32.5zM43 635q0 32 23 54.5t55 22.5q31 0 54 -23t23 -54q0 -32 -22.5 -55t-54.5 -23 t-55 23t-23 55z" />
<glyph unicode="k" horiz-adv-x="572" d="M188 0h-135v700h135v-408l203 208h183l-246 -243l254 -257h-186l-208 217v-217z" />
<glyph unicode="l" horiz-adv-x="241" d="M188 0h-135v700h135v-700z" />
<glyph unicode="m" horiz-adv-x="766" d="M383 74q-61 0 -102 49.5t-41 129.5q0 72 36 125h-88v-378h-135v500h148q101 0 182 -36q81 36 182 36h148v-500h-135v378h-89q37 -55 37 -125q0 -80 -41 -129.5t-102 -49.5zM383 179q20 0 29 23t9 53q0 66 -38 107q-39 -40 -39 -107q0 -29 9.5 -52.5t29.5 -23.5z" />
<glyph unicode="n" horiz-adv-x="568" d="M515 0h-135v378h-192v-378h-135v500h462v-500z" />
<glyph unicode="o" horiz-adv-x="592" d="M566 250q0 -109 -76.5 -185t-192.5 -76t-193.5 76t-77.5 185t77.5 185t193.5 76t192.5 -76t76.5 -185zM425 250q0 55 -37.5 93.5t-90.5 38.5q-54 0 -91.5 -38.5t-37.5 -93.5q0 -54 37.5 -92.5t91.5 -38.5q53 0 90.5 38.5t37.5 92.5z" />
<glyph unicode="p" horiz-adv-x="619" d="M53 -190v690h135v-53q56 65 151 65q107 0 180.5 -76.5t73.5 -184.5t-73.5 -184.5t-180.5 -76.5q-95 0 -151 65v-245h-135zM451 251q0 55 -38.5 93.5t-92.5 38.5q-55 0 -93.5 -38.5t-38.5 -93.5q0 -54 38.5 -92.5t93.5 -38.5q54 0 92.5 38.5t38.5 92.5z" />
<glyph unicode="q" horiz-adv-x="620" d="M567 -190h-135v244q-56 -65 -151 -65q-107 0 -181 76.5t-74 184.5t74 184.5t181 76.5q95 0 151 -65v54h135v-690zM432 250q0 55 -38.5 93.5t-93.5 38.5q-54 0 -92.5 -38.5t-38.5 -93.5q0 -54 38.5 -93t92.5 -39q55 0 93.5 39t38.5 93z" />
<glyph unicode="r" horiz-adv-x="348" d="M328 378h-140v-378h-135v500h275v-122z" />
<glyph unicode="s" horiz-adv-x="455" d="M226 -11q-111 0 -187 58v143q77 -79 180 -79q63 0 63 37q0 13 -9.5 22.5t-21.5 14t-38 11.5q-36 10 -63 21.5t-55 31t-43 48t-15 65.5q0 66 47 107.5t124 41.5q29 0 75.5 -9.5t73.5 -9.5q24 0 44 5v-129q-11 -2 -33 -2q-36 0 -88 15t-68 15q-37 0 -37 -27q0 -10 10 -18.5 t20.5 -13t31.5 -11.5q37 -13 56.5 -20t48.5 -22.5t43.5 -31.5t25.5 -42t11 -58q0 -79 -55 -121t-141 -42z" />
<glyph unicode="t" horiz-adv-x="391" d="M20 378v122h21q68 0 104.5 38t55.5 112h22v-150h129v-122h-129v-213q0 -46 45 -46q50 0 85 37v-129q-48 -35 -121 -35q-62 0 -103 32t-41 104v250h-68z" />
<glyph unicode="u" horiz-adv-x="556" d="M508 500v-290q0 -95 -65.5 -158t-164.5 -63t-164.5 63t-65.5 158v290h135v-280q0 -44 27 -72.5t68 -28.5t68 28.5t27 72.5v280h135z" />
<glyph unicode="v" horiz-adv-x="542" d="M285 -11h-28l-267 511h150l131 -253l131 253h150z" />
<glyph unicode="w" horiz-adv-x="780" d="M498 -11l-108 210l-108 -210h-28l-262 511h150l130 -261l29 56q12 23 12 39q0 10 -7 32.5t-7 41.5q0 43 25 69t66 26q40 0 65.5 -26.5t25.5 -67.5q0 -18 -6.5 -41.5t-6.5 -34.5q0 -17 11 -38l29 -56l130 261h150l-262 -511h-28z" />
<glyph unicode="x" horiz-adv-x="564" d="M159 0h-157l200 263l-180 237h155l105 -145l105 145h155l-180 -237l200 -263h-157l-123 161z" />
<glyph unicode="y" horiz-adv-x="548" d="M257 0l-261 500h150l131 -253l131 253h150l-267 -511q-7 -13 -23 -45t-23.5 -46t-23 -36.5t-29.5 -32.5t-35 -18.5t-45 -8.5q-50 0 -73 26.5t-23 58.5q0 30 20.5 51.5t51.5 21.5q30 0 43 -18q-17 -14 -10 -34.5t32 -20.5q48 0 104 113z" />
<glyph unicode="z" horiz-adv-x="500" d="M490 500l-250 -378h240v-122h-480l249 378h-224v122h465z" />
<glyph unicode="{" horiz-adv-x="397" d="M95 257v-4q52 -12 78 -46t26 -80q0 -23 -10.5 -77t-10.5 -79q0 -71 53.5 -116t145.5 -45v-36q-116 0 -182.5 50t-66.5 148q0 34 11 86t11 72q0 45 -28 73t-75 28h-29v48h29q47 0 75 28t28 73q0 20 -11 72t-11 86q0 98 66.5 148t182.5 50v-36q-92 0 -145.5 -45t-53.5 -116 q0 -25 10.5 -79t10.5 -77q0 -46 -26 -80t-78 -46z" />
<glyph unicode="|" horiz-adv-x="290" d="M170 -190h-50v890h50v-890z" />
<glyph unicode="}" horiz-adv-x="397" d="M302 253v4q-52 12 -78 46t-26 80q0 23 10.5 77t10.5 79q0 71 -53.5 116t-145.5 45v36q116 0 182.5 -50t66.5 -148q0 -34 -11 -86t-11 -72q0 -45 28 -73t75 -28h29v-48h-29q-47 0 -75 -28t-28 -73q0 -20 11 -72t11 -86q0 -98 -66.5 -148t-182.5 -50v36q92 0 145.5 45 t53.5 116q0 25 -10.5 79t-10.5 77q0 46 26 80t78 46z" />
<glyph unicode="~" d="M47 204h-17q10 47 50 74.5t96 27.5q46 0 120 -29.5t122 -29.5q77 0 111 49h17q-10 -47 -50 -74.5t-96 -27.5q-46 0 -120 29.5t-122 29.5q-77 0 -111 -49z" />
<glyph unicode="&#xa1;" horiz-adv-x="252" d="M58 260h135v-450h-135v450zM39 424q0 36 25 61.5t62 25.5q36 0 61.5 -25.5t25.5 -61.5q0 -37 -25.5 -62t-61.5 -25q-37 0 -62 25t-25 62z" />
<glyph unicode="&#xa2;" d="M66 220q0 101 69.5 162.5t168.5 61.5q22 0 58 -6l34 112h49l-36 -120q55 -9 91 -3v-115q-53 -8 -124 10l-66 -219h14q94 0 176 67v-120q-77 -60 -182 -60q-22 0 -41 3l-28 -93h-49l31 102q-76 23 -120.5 81t-44.5 137zM191 219q0 -80 73 -107l66 220q-3 0 -9.5 0.5 t-9.5 0.5q-51 0 -85.5 -30.5t-34.5 -83.5z" />
<glyph unicode="&#xa3;" d="M258 363q0 -15 3 -33h152v-100h-135q3 -17 3 -31q0 -47 -26 -77h262v-122h-480v43q61 24 88.5 63t27.5 80q0 17 -5 44h-105v100h82q-3 20 -3 38q0 94 72 160.5t173 66.5q70 0 118 -28v-137q-19 19 -52 30.5t-65 11.5q-53 0 -81.5 -31.5t-28.5 -77.5z" />
<glyph unicode="&#xa4;" d="M191 250q0 -40 28.5 -68.5t68.5 -28.5t68.5 28.5t28.5 68.5t-28.5 68.5t-68.5 28.5t-68.5 -28.5t-28.5 -68.5zM109 250q0 60 36 107l-87 87l36 36l86 -87q49 36 108 36q58 0 107 -36l87 87l36 -36l-87 -87q36 -49 36 -107q0 -59 -36 -108l87 -86l-36 -36l-87 87 q-47 -36 -107 -36q-61 0 -108 36l-86 -87l-36 36l87 86q-36 47 -36 108z" />
<glyph unicode="&#xa5;" d="M538 228h-182v-67h182v-50h-182v-111h-135v111h-183v50h183v65l-1 2h-182v50h156l-160 306h150l104 -201l104 201h150l-160 -306h156v-50z" />
<glyph unicode="&#xa7;" horiz-adv-x="545" d="M447 -14q0 -85 -56 -136t-141 -51q-75 0 -125.5 38t-50.5 97q0 35 19.5 57.5t55.5 22.5q44 0 58 -24q-28 -47 -6.5 -96.5t73.5 -49.5q33 0 58.5 23t25.5 68q0 44 -25.5 76.5t-70.5 64.5l-83 58q-1 1 -12.5 8.5t-16 11t-16.5 12.5t-18.5 15.5t-17.5 18t-17 21.5t-14 23.5 t-12.5 27t-7.5 30.5t-3 34q0 61 22 99h5q1 -20 8.5 -39.5t17 -35t27 -33.5t30 -29t36.5 -28t35.5 -24.5t37 -23.5t32.5 -20q78 -50 115 -100t37 -116zM98 525q0 85 56 136t141 51q75 0 125.5 -38t50.5 -97q0 -35 -19.5 -57.5t-55.5 -22.5q-44 0 -58 24q28 47 6.5 96.5 t-73.5 49.5q-33 0 -58.5 -23t-25.5 -68q0 -44 25.5 -76.5t70.5 -64.5l83 -58q1 -1 12.5 -8.5t16 -11t16.5 -12.5t18.5 -15.5t17.5 -18t17 -21.5t14 -23.5t12.5 -27t7.5 -30.5t3 -34q0 -61 -22 -99h-5q-1 20 -8.5 39.5t-17 35t-27 33.5t-30 29t-36.5 28t-35.5 24.5t-37 23.5 t-32.5 20q-78 50 -115 100t-37 116z" />
<glyph unicode="&#xa8;" horiz-adv-x="332" d="M0 628q0 30 20.5 51t50.5 21t51 -21t21 -51t-21 -50.5t-51 -20.5t-50.5 20.5t-20.5 50.5zM189 628q0 30 20.5 51t50.5 21t51 -21t21 -51t-21 -50.5t-51 -20.5t-50.5 20.5t-20.5 50.5z" />
<glyph unicode="&#xa9;" horiz-adv-x="721" d="M681 250q0 -132 -94 -226t-227 -94q-132 0 -226 94t-94 226q0 133 94 227t226 94q133 0 227 -94t94 -227zM549 224q-10 -70 -63.5 -117t-125.5 -47q-79 0 -134.5 55.5t-55.5 134.5t55.5 135t134.5 56q68 0 120 -42.5t67 -107.5h-103q-11 24 -33.5 38.5t-50.5 14.5 q-39 0 -66 -27t-27 -67q0 -39 27 -66t66 -27q32 0 57 19t33 48h99zM631 250q0 112 -79.5 191.5t-191.5 79.5t-191 -79.5t-79 -191.5t79 -191t191 -79t191.5 79t79.5 191z" />
<glyph unicode="&#xaa;" horiz-adv-x="439" d="M384 378h-94v35q-35 -42 -96 -42q-69 0 -116.5 49t-47.5 119t47.5 119t116.5 49q61 0 96 -42v35h94v-322zM290 539q0 34 -24 57.5t-57 23.5t-57 -23.5t-24 -57.5q0 -33 24 -57t57 -24t57 24t24 57z" />
<glyph unicode="&#xab;" horiz-adv-x="574" d="M527 -6l-256 257l256 256v-154l-101 -102l101 -101v-156zM283 -6l-257 257l257 256v-154l-101 -102l101 -101v-156z" />
<glyph unicode="&#xac;" horiz-adv-x="600" d="M517 75h-70v202h-404v70h474v-272z" />
<glyph unicode="&#xae;" horiz-adv-x="437" d="M411 517q0 -79 -57 -135.5t-136 -56.5t-135.5 56.5t-56.5 135.5t56.5 136t135.5 57q80 0 136.5 -57t56.5 -136zM323 560q0 -58 -59 -69l55 -82h-64l-67 105v-105h-57v217h115q35 0 56 -18.5t21 -47.5zM188 573v-50q12 -4 36 -4q42 0 42 29q0 11 -9 18t-23 7h-46zM381 517 q0 67 -47.5 115t-115.5 48q-67 0 -114.5 -48t-47.5 -115t47.5 -114.5t114.5 -47.5t115 47.5t48 114.5z" />
<glyph unicode="&#xaf;" horiz-adv-x="378" d="M340 596h-297v64h297v-64z" />
<glyph unicode="&#xb0;" horiz-adv-x="362" d="M22 549q0 66 46.5 112.5t112.5 46.5t112.5 -46.5t46.5 -112.5t-46.5 -112.5t-112.5 -46.5t-112.5 46.5t-46.5 112.5zM110 549q0 -29 21 -50t50 -21t50 21t21 50t-21 50t-50 21t-50 -21t-21 -50z" />
<glyph unicode="&#xb1;" d="M313 600v-225h225v-50h-225v-225h-50v225h-225v50h225v225h50zM538 0h-500v50h500v-50z" />
<glyph unicode="&#xb4;" horiz-adv-x="245" d="M41 547l31 87l5.5 16.5t7 20t9.5 18.5t14.5 18t20 11t27.5 5q29 0 48.5 -18t19.5 -43q0 -37 -40 -63l-79 -52h-64z" />
<glyph unicode="&#xb5;" d="M53 -4v504h135v-398q40 20 109 20h83v378h135v-500h-295q-55 0 -83 -25t-28 -60q0 -22 11 -34t28 -12q19 0 26.5 13.5t2.5 28.5q14 22 47 22q28 0 46 -18.5t18 -44.5q0 -30 -23.5 -50.5t-63.5 -20.5q-64 0 -106 52.5t-42 144.5z" />
<glyph unicode="&#xb6;" horiz-adv-x="534" d="M469 -190h-41v833q-25 -18 -53 -18v-815h-79v573q-42 -20 -83 -20q-71 0 -122 51t-51 124q0 72 51 123t126 51q49 0 105 -33q25 -15 51 -15t44 16q11 11 13 20h39v-890z" />
<glyph unicode="&#xb7;" horiz-adv-x="252" d="M39 250q0 37 25 62t62 25q36 0 61.5 -25t25.5 -62q0 -36 -25.5 -61.5t-61.5 -25.5q-37 0 -62 25.5t-25 61.5z" />
<glyph unicode="&#xb8;" horiz-adv-x="318" d="M61 -213v42q38 -19 75 -19q34 0 55.5 19.5t15.5 50.5q-13 -17 -41 -17t-46 16.5t-18 37.5q0 22 18 37.5t52 15.5q43 0 74 -25t31 -70q0 -48 -36.5 -79t-92.5 -31q-46 0 -87 22z" />
<glyph unicode="&#xba;" horiz-adv-x="412" d="M383 539q0 -70 -49.5 -119t-126.5 -49q-79 0 -128.5 48.5t-49.5 119.5t49.5 119.5t128.5 48.5q77 0 126.5 -49t49.5 -119zM286 539q0 34 -23.5 57.5t-55.5 23.5q-34 0 -57 -23.5t-23 -57.5q0 -33 23.5 -57t56.5 -24q32 0 55.5 24t23.5 57z" />
<glyph unicode="&#xbb;" horiz-adv-x="575" d="M304 251l-257 -257v156l102 101l-102 102v154zM549 251l-256 -257v156l101 101l-101 102v154z" />
<glyph unicode="&#xbf;" horiz-adv-x="442" d="M348 424q0 -37 -25 -62t-62 -25q-36 0 -61.5 25t-25.5 62q0 36 25.5 61.5t61.5 25.5q37 0 62 -25.5t25 -61.5zM26 -6q0 67 37 117.5t115 100.5q1 1 14 8.5t26 16t28 18t25.5 18.5t13.5 14h5q24 -45 24 -80q0 -13 -2.5 -24.5t-9 -22.5t-11 -17.5t-16.5 -17.5t-16 -14 t-20 -14.5t-18 -13.5l-10 -7q-96 -67 -96 -140q0 -45 28 -68.5t64 -23.5t59 24.5t24.5 56.5t-14.5 65q14 24 58 24q36 0 55.5 -22.5t19.5 -57.5q0 -59 -50.5 -97t-126.5 -38q-89 0 -147.5 53.5t-58.5 141.5z" />
<glyph unicode="&#xc0;" horiz-adv-x="548" d="M66 378v122h429v-500h-135v48q-56 -59 -149 -59q-84 0 -133.5 43.5t-49.5 109.5q0 83 71 124q50 28 127 28q72 0 134 -22v106h-294zM256 199q-87 0 -87 -48q0 -23 21 -34t50 -11q39 0 71.5 20.5t48.5 54.5v1q-54 17 -104 17zM233 547l-123 165h154l71 -165h-102z" />
<glyph unicode="&#xc1;" horiz-adv-x="548" d="M66 378v122h429v-500h-135v48q-56 -59 -149 -59q-84 0 -133.5 43.5t-49.5 109.5q0 83 71 124q50 28 127 28q72 0 134 -22v106h-294zM256 199q-87 0 -87 -48q0 -23 21 -34t50 -11q39 0 71.5 20.5t48.5 54.5v1q-54 17 -104 17zM433 712l-123 -165h-102l71 165h154z" />
<glyph unicode="&#xc2;" horiz-adv-x="548" d="M66 378v122h429v-500h-135v48q-56 -59 -149 -59q-84 0 -133.5 43.5t-49.5 109.5q0 83 71 124q50 28 127 28q72 0 134 -22v106h-294zM256 199q-87 0 -87 -48q0 -23 21 -34t50 -11q39 0 71.5 20.5t48.5 54.5v1q-54 17 -104 17zM279 717q27 0 43 -10.5t33 -32.5l98 -127 h-115l-59 75l-59 -75h-115l98 127q17 22 33 32.5t43 10.5z" />
<glyph unicode="&#xc3;" horiz-adv-x="548" d="M66 378v122h429v-500h-135v48q-56 -59 -149 -59q-84 0 -133.5 43.5t-49.5 109.5q0 83 71 124q50 28 127 28q72 0 134 -22v106h-294zM256 199q-87 0 -87 -48q0 -23 21 -34t50 -11q39 0 71.5 20.5t48.5 54.5v1q-54 17 -104 17zM184 556h-90q0 66 34.5 113t95.5 47 q42 0 81 -32q22 -19 40 -19q38 0 40 47h90q0 -66 -34.5 -113t-95.5 -47q-42 0 -81 32q-22 19 -40 19q-38 0 -40 -47z" />
<glyph unicode="&#xc4;" horiz-adv-x="548" d="M66 378v122h429v-500h-135v48q-56 -59 -149 -59q-84 0 -133.5 43.5t-49.5 109.5q0 83 71 124q50 28 127 28q72 0 134 -22v106h-294zM256 199q-87 0 -87 -48q0 -23 21 -34t50 -11q39 0 71.5 20.5t48.5 54.5v1q-54 17 -104 17zM111 628q0 30 20.5 51t50.5 21t51 -21t21 -51 t-21 -50.5t-51 -20.5t-50.5 20.5t-20.5 50.5zM300 628q0 30 20.5 51t50.5 21t51 -21t21 -51t-21 -50.5t-51 -20.5t-50.5 20.5t-20.5 50.5z" />
<glyph unicode="&#xc5;" horiz-adv-x="548" d="M66 378v122h429v-500h-135v48q-56 -59 -149 -59q-84 0 -133.5 43.5t-49.5 109.5q0 83 71 124q50 28 127 28q72 0 134 -22v106h-294zM256 199q-87 0 -87 -48q0 -23 21 -34t50 -11q39 0 71.5 20.5t48.5 54.5v1q-54 17 -104 17zM174 627q0 41 29.5 70.5t70.5 29.5 t70.5 -29.5t29.5 -70.5t-29.5 -70.5t-70.5 -29.5t-70.5 29.5t-29.5 70.5zM234 627q0 -17 12 -28.5t28 -11.5t28 11.5t12 28.5t-12 28.5t-28 11.5t-28 -11.5t-12 -28.5z" />
<glyph unicode="&#xc6;" horiz-adv-x="866" d="M68 378v122h429v-44q58 55 148 55q84 0 133.5 -43.5t49.5 -109.5q0 -83 -71 -124q-50 -28 -127 -28q-73 0 -132 21q5 -53 44.5 -82t104.5 -29q101 0 177 78v-147q-76 -58 -191 -58q-157 0 -228 105q-66 -105 -192 -105q-84 0 -133.5 43.5t-49.5 109.5q0 83 71 124 q50 28 127 28q72 0 134 -22v106h-294zM600 301q87 0 87 48q0 23 -21 34t-50 11q-40 0 -72 -20.5t-48 -55.5q4 -1 18.5 -4.5t24.5 -6t27 -4.5t34 -2zM258 199q-87 0 -87 -48q0 -23 21 -34t50 -11q39 0 71.5 20.5t48.5 54.5v1q-54 17 -104 17z" />
<glyph unicode="&#xc7;" horiz-adv-x="525" d="M485 198v-145q-81 -64 -190 -64q-115 0 -192 71t-77 190q0 118 75 189.5t182 71.5q32 0 97 -13t105 -6v-133q-49 -9 -110.5 7.5t-81.5 16.5q-53 0 -88.5 -35t-35.5 -93q0 -61 38.5 -98t98.5 -37q94 0 179 78zM154 -223v66q28 -19 69 -19q30 0 49 12.5t19 30.5 q-16 -9 -37 -9q-26 0 -42.5 16t-16.5 39t18 40t53 17q43 0 73.5 -25.5t30.5 -74.5q0 -53 -36.5 -84t-92.5 -31q-46 0 -87 22z" />
<glyph unicode="&#xc8;" horiz-adv-x="535" d="M300 221q-80 0 -132 16q2 -58 41.5 -89.5t108.5 -31.5q101 0 177 78v-147q-76 -58 -191 -58q-130 0 -203.5 72.5t-73.5 184.5q0 116 74.5 190.5t195.5 74.5q93 0 146.5 -44t53.5 -109q0 -37 -18 -67.5t-47 -45.5q-45 -24 -132 -24zM268 316q45 0 66.5 8t21.5 30 q0 40 -65 40q-82 0 -110 -70q34 -8 87 -8zM246 547l-123 165h154l71 -165h-102z" />
<glyph unicode="&#xc9;" horiz-adv-x="535" d="M300 221q-80 0 -132 16q2 -58 41.5 -89.5t108.5 -31.5q101 0 177 78v-147q-76 -58 -191 -58q-130 0 -203.5 72.5t-73.5 184.5q0 116 74.5 190.5t195.5 74.5q93 0 146.5 -44t53.5 -109q0 -37 -18 -67.5t-47 -45.5q-45 -24 -132 -24zM268 316q45 0 66.5 8t21.5 30 q0 40 -65 40q-82 0 -110 -70q34 -8 87 -8zM455 712l-123 -165h-102l71 165h154z" />
<glyph unicode="&#xca;" horiz-adv-x="535" d="M300 221q-80 0 -132 16q2 -58 41.5 -89.5t108.5 -31.5q101 0 177 78v-147q-76 -58 -191 -58q-130 0 -203.5 72.5t-73.5 184.5q0 116 74.5 190.5t195.5 74.5q93 0 146.5 -44t53.5 -109q0 -37 -18 -67.5t-47 -45.5q-45 -24 -132 -24zM268 316q45 0 66.5 8t21.5 30 q0 40 -65 40q-82 0 -110 -70q34 -8 87 -8zM290 717q27 0 43 -10.5t33 -32.5l98 -127h-115l-59 75l-59 -75h-115l98 127q17 22 33 32.5t43 10.5z" />
<glyph unicode="&#xcb;" horiz-adv-x="535" d="M300 221q-80 0 -132 16q2 -58 41.5 -89.5t108.5 -31.5q101 0 177 78v-147q-76 -58 -191 -58q-130 0 -203.5 72.5t-73.5 184.5q0 116 74.5 190.5t195.5 74.5q93 0 146.5 -44t53.5 -109q0 -37 -18 -67.5t-47 -45.5q-45 -24 -132 -24zM268 316q45 0 66.5 8t21.5 30 q0 40 -65 40q-82 0 -110 -70q34 -8 87 -8zM119 628q0 30 20.5 51t50.5 21t51 -21t21 -51t-21 -50.5t-51 -20.5t-50.5 20.5t-20.5 50.5zM308 628q0 30 20.5 51t50.5 21t51 -21t21 -51t-21 -50.5t-51 -20.5t-50.5 20.5t-20.5 50.5z" />
<glyph unicode="&#xcc;" horiz-adv-x="241" d="M188 0h-135v500h135v-500zM87 547l-123 165h154l71 -165h-102z" />
<glyph unicode="&#xcd;" horiz-adv-x="241" d="M188 0h-135v500h135v-500zM277 712l-123 -165h-102l71 165h154z" />
<glyph unicode="&#xce;" horiz-adv-x="241" d="M188 0h-135v500h135v-500zM121 717q27 0 43 -10.5t33 -32.5l98 -127h-115l-59 75l-59 -75h-115l98 127q17 22 33 32.5t43 10.5z" />
<glyph unicode="&#xcf;" horiz-adv-x="241" d="M188 0h-135v500h135v-500zM-45 628q0 30 20.5 51t50.5 21t51 -21t21 -51t-21 -50.5t-51 -20.5t-50.5 20.5t-20.5 50.5zM144 628q0 30 20.5 51t50.5 21t51 -21t21 -51t-21 -50.5t-51 -20.5t-50.5 20.5t-20.5 50.5z" />
<glyph unicode="&#xd0;" horiz-adv-x="575" d="M27 245q0 101 66.5 174t175.5 81l-41 56l-79 -28l-53 71l79 28l-54 73h158l20 -28l76 28l53 -71l-77 -28l153 -208q45 -62 45 -148q0 -107 -74 -181.5t-187 -74.5t-187 74.5t-74 181.5zM168 245q0 -52 34.5 -88.5t85.5 -36.5q52 0 86 36.5t34 88.5q0 53 -34 89.5 t-86 36.5q-51 0 -85.5 -36.5t-34.5 -89.5z" />
<glyph unicode="&#xd1;" horiz-adv-x="568" d="M515 0h-135v378h-192v-378h-135v500h462v-500zM183 556h-90q0 66 34.5 113t95.5 47q42 0 81 -32q22 -19 40 -19q38 0 40 47h90q0 -66 -34.5 -113t-95.5 -47q-42 0 -81 32q-22 19 -40 19q-38 0 -40 -47z" />
<glyph unicode="&#xd2;" horiz-adv-x="592" d="M566 250q0 -109 -76.5 -185t-192.5 -76t-193.5 76t-77.5 185t77.5 185t193.5 76t192.5 -76t76.5 -185zM425 250q0 55 -37.5 93.5t-90.5 38.5q-54 0 -91.5 -38.5t-37.5 -93.5q0 -54 37.5 -92.5t91.5 -38.5q53 0 90.5 38.5t37.5 92.5zM242 547l-123 165h154l71 -165h-102z " />
<glyph unicode="&#xd3;" horiz-adv-x="592" d="M566 250q0 -109 -76.5 -185t-192.5 -76t-193.5 76t-77.5 185t77.5 185t193.5 76t192.5 -76t76.5 -185zM425 250q0 55 -37.5 93.5t-90.5 38.5q-54 0 -91.5 -38.5t-37.5 -93.5q0 -54 37.5 -92.5t91.5 -38.5q53 0 90.5 38.5t37.5 92.5zM459 712l-123 -165h-102l71 165h154z " />
<glyph unicode="&#xd4;" horiz-adv-x="592" d="M566 250q0 -109 -76.5 -185t-192.5 -76t-193.5 76t-77.5 185t77.5 185t193.5 76t192.5 -76t76.5 -185zM425 250q0 55 -37.5 93.5t-90.5 38.5q-54 0 -91.5 -38.5t-37.5 -93.5q0 -54 37.5 -92.5t91.5 -38.5q53 0 90.5 38.5t37.5 92.5zM296 717q27 0 43 -10.5t33 -32.5 l98 -127h-115l-59 75l-59 -75h-115l98 127q17 22 33 32.5t43 10.5z" />
<glyph unicode="&#xd5;" horiz-adv-x="592" d="M566 250q0 -109 -76.5 -185t-192.5 -76t-193.5 76t-77.5 185t77.5 185t193.5 76t192.5 -76t76.5 -185zM425 250q0 55 -37.5 93.5t-90.5 38.5q-54 0 -91.5 -38.5t-37.5 -93.5q0 -54 37.5 -92.5t91.5 -38.5q53 0 90.5 38.5t37.5 92.5zM195 556h-90q0 66 34.5 113t95.5 47 q42 0 81 -32q22 -19 40 -19q38 0 40 47h90q0 -66 -34.5 -113t-95.5 -47q-42 0 -81 32q-22 19 -40 19q-38 0 -40 -47z" />
<glyph unicode="&#xd6;" horiz-adv-x="592" d="M566 250q0 -109 -76.5 -185t-192.5 -76t-193.5 76t-77.5 185t77.5 185t193.5 76t192.5 -76t76.5 -185zM425 250q0 55 -37.5 93.5t-90.5 38.5q-54 0 -91.5 -38.5t-37.5 -93.5q0 -54 37.5 -92.5t91.5 -38.5q53 0 90.5 38.5t37.5 92.5zM130 628q0 30 20.5 51t50.5 21t51 -21 t21 -51t-21 -50.5t-51 -20.5t-50.5 20.5t-20.5 50.5zM319 628q0 30 20.5 51t50.5 21t51 -21t21 -51t-21 -50.5t-51 -20.5t-50.5 20.5t-20.5 50.5z" />
<glyph unicode="&#xd7;" d="M94 480l194 -195l194 195l36 -36l-195 -194l195 -194l-36 -36l-194 195l-194 -195l-36 36l195 194l-195 194z" />
<glyph unicode="&#xd8;" horiz-adv-x="592" d="M66 44l27 32q-67 73 -67 174q0 109 77.5 185t193.5 76q72 0 133 -33l29 35q13 16 33 16q17 0 31 -13.5t14 -30.5t-11 -29l-27 -32q67 -73 67 -174q0 -109 -76.5 -185t-192.5 -76q-74 0 -135 33l-29 -35q-13 -16 -33 -16q-17 0 -31 13.5t-14 30.5t11 29zM425 250 q0 36 -17 65l-158 -188q24 -8 47 -8q53 0 90.5 38.5t37.5 92.5zM168 250q0 -35 16 -65l158 188q-21 9 -45 9q-54 0 -91.5 -38.5t-37.5 -93.5z" />
<glyph unicode="&#xd9;" horiz-adv-x="556" d="M508 500v-290q0 -95 -65.5 -158t-164.5 -63t-164.5 63t-65.5 158v290h135v-280q0 -44 27 -72.5t68 -28.5t68 28.5t27 72.5v280h135zM226 547l-123 165h154l71 -165h-102z" />
<glyph unicode="&#xda;" horiz-adv-x="556" d="M508 500v-290q0 -95 -65.5 -158t-164.5 -63t-164.5 63t-65.5 158v290h135v-280q0 -44 27 -72.5t68 -28.5t68 28.5t27 72.5v280h135zM449 712l-123 -165h-102l71 165h154z" />
<glyph unicode="&#xdb;" horiz-adv-x="556" d="M508 500v-290q0 -95 -65.5 -158t-164.5 -63t-164.5 63t-65.5 158v290h135v-280q0 -44 27 -72.5t68 -28.5t68 28.5t27 72.5v280h135zM278 717q27 0 43 -10.5t33 -32.5l98 -127h-115l-59 75l-59 -75h-115l98 127q17 22 33 32.5t43 10.5z" />
<glyph unicode="&#xdc;" horiz-adv-x="556" d="M508 500v-290q0 -95 -65.5 -158t-164.5 -63t-164.5 63t-65.5 158v290h135v-280q0 -44 27 -72.5t68 -28.5t68 28.5t27 72.5v280h135zM112 628q0 30 20.5 51t50.5 21t51 -21t21 -51t-21 -50.5t-51 -20.5t-50.5 20.5t-20.5 50.5zM301 628q0 30 20.5 51t50.5 21t51 -21 t21 -51t-21 -50.5t-51 -20.5t-50.5 20.5t-20.5 50.5z" />
<glyph unicode="&#xdd;" horiz-adv-x="548" d="M558 500l-262 -501q-58 -111 -103.5 -154t-102.5 -43q-37 0 -75 19v123q27 -15 53 -15q28 0 54.5 35.5t79.5 139.5l-206 396h150l131 -253l131 253h150zM436 712l-123 -165h-102l71 165h154z" />
<glyph unicode="&#xde;" horiz-adv-x="619" d="M593 250q0 -108 -73.5 -184.5t-180.5 -76.5q-95 0 -151 65v-244h-135v890h135v-254q56 65 151 65q107 0 180.5 -76.5t73.5 -184.5zM451 250q0 55 -38.5 93.5t-92.5 38.5q-55 0 -93.5 -38.5t-38.5 -93.5q0 -54 38.5 -93t93.5 -39q54 0 92.5 39t38.5 93z" />
<glyph unicode="&#xdf;" horiz-adv-x="613" d="M536 378h-107q-35 0 -35 -24q0 -4 1 -7t3 -6t4.5 -5t6.5 -4.5t7 -4.5t9.5 -4.5t10 -4t11 -4.5t11.5 -4q64 -25 96.5 -59.5t32.5 -95.5q0 -81 -53.5 -123.5t-131.5 -42.5q-92 0 -158 48v143q26 -27 66 -48t81 -21q56 0 56 38q0 17 -12 27t-37 20q-30 12 -47 20.5 t-41.5 26.5t-36 44t-11.5 61q0 106 118 152q61 24 61 75q0 36 -27 59t-74 23q-45 0 -80.5 -22t-54.5 -57q-17 -31 -17 -78v-500h-135v456q0 110 73 183t189 73q101 0 161 -57.5t60 -154.5v-122z" />
<glyph unicode="&#xe0;" horiz-adv-x="548" d="M66 378v122h429v-500h-135v48q-56 -59 -149 -59q-84 0 -133.5 43.5t-49.5 109.5q0 83 71 124q50 28 127 28q72 0 134 -22v106h-294zM256 199q-87 0 -87 -48q0 -23 21 -34t50 -11q39 0 71.5 20.5t48.5 54.5v1q-54 17 -104 17zM291 634l31 -87h-64l-79 52q-40 26 -40 63 q0 25 19.5 43t48.5 18q15 0 27.5 -5t20 -11t14.5 -18t9.5 -18.5t7 -20z" />
<glyph unicode="&#xe1;" horiz-adv-x="548" d="M66 378v122h429v-500h-135v48q-56 -59 -149 -59q-84 0 -133.5 43.5t-49.5 109.5q0 83 71 124q50 28 127 28q72 0 134 -22v106h-294zM256 199q-87 0 -87 -48q0 -23 21 -34t50 -11q39 0 71.5 20.5t48.5 54.5v1q-54 17 -104 17zM221 547l31 87l5.5 16.5t7 20t9.5 18.5 t14.5 18t20 11t27.5 5q29 0 48.5 -18t19.5 -43q0 -37 -40 -63l-79 -52h-64z" />
<glyph unicode="&#xe2;" horiz-adv-x="548" d="M66 378v122h429v-500h-135v48q-56 -59 -149 -59q-84 0 -133.5 43.5t-49.5 109.5q0 83 71 124q50 28 127 28q72 0 134 -22v106h-294zM256 199q-87 0 -87 -48q0 -23 21 -34t50 -11q39 0 71.5 20.5t48.5 54.5v1q-54 17 -104 17zM105 547l98 127q17 22 33 32.5t43 10.5 t43 -10.5t33 -32.5l98 -127h-55l-119 68l-119 -68h-55z" />
<glyph unicode="&#xe3;" horiz-adv-x="548" d="M66 378v122h429v-500h-135v48q-56 -59 -149 -59q-84 0 -133.5 43.5t-49.5 109.5q0 83 71 124q50 28 127 28q72 0 134 -22v106h-294zM256 199q-87 0 -87 -48q0 -23 21 -34t50 -11q39 0 71.5 20.5t48.5 54.5v1q-54 17 -104 17zM130 556h-36q0 68 27 114t92 46q38 0 92 -33 q37 -23 66 -23q56 0 68 52h36q0 -68 -27 -114t-92 -46q-38 0 -92 33q-37 23 -66 23q-56 0 -68 -52z" />
<glyph unicode="&#xe4;" horiz-adv-x="548" d="M66 378v122h429v-500h-135v48q-56 -59 -149 -59q-84 0 -133.5 43.5t-49.5 109.5q0 83 71 124q50 28 127 28q72 0 134 -22v106h-294zM256 199q-87 0 -87 -48q0 -23 21 -34t50 -11q39 0 71.5 20.5t48.5 54.5v1q-54 17 -104 17zM111 628q0 30 20.5 51t50.5 21t51 -21t21 -51 t-21 -50.5t-51 -20.5t-50.5 20.5t-20.5 50.5zM300 628q0 30 20.5 51t50.5 21t51 -21t21 -51t-21 -50.5t-51 -20.5t-50.5 20.5t-20.5 50.5z" />
<glyph unicode="&#xe5;" horiz-adv-x="548" d="M66 378v122h429v-500h-135v48q-56 -59 -149 -59q-84 0 -133.5 43.5t-49.5 109.5q0 83 71 124q50 28 127 28q72 0 134 -22v106h-294zM256 199q-87 0 -87 -48q0 -23 21 -34t50 -11q39 0 71.5 20.5t48.5 54.5v1q-54 17 -104 17zM174 627q0 41 29.5 70.5t70.5 29.5 t70.5 -29.5t29.5 -70.5t-29.5 -70.5t-70.5 -29.5t-70.5 29.5t-29.5 70.5zM234 627q0 -17 12 -28.5t28 -11.5t28 11.5t12 28.5t-12 28.5t-28 11.5t-28 -11.5t-12 -28.5z" />
<glyph unicode="&#xe6;" horiz-adv-x="866" d="M68 378v122h429v-44q58 55 148 55q84 0 133.5 -43.5t49.5 -109.5q0 -83 -71 -124q-50 -28 -127 -28q-73 0 -132 21q5 -53 44.5 -82t104.5 -29q101 0 177 78v-147q-76 -58 -191 -58q-157 0 -228 105q-66 -105 -192 -105q-84 0 -133.5 43.5t-49.5 109.5q0 83 71 124 q50 28 127 28q72 0 134 -22v106h-294zM600 301q87 0 87 48q0 23 -21 34t-50 11q-40 0 -72 -20.5t-48 -55.5q4 -1 18.5 -4.5t24.5 -6t27 -4.5t34 -2zM258 199q-87 0 -87 -48q0 -23 21 -34t50 -11q39 0 71.5 20.5t48.5 54.5v1q-54 17 -104 17z" />
<glyph unicode="&#xe7;" horiz-adv-x="525" d="M485 198v-145q-81 -64 -190 -64q-115 0 -192 71t-77 190q0 118 75 189.5t182 71.5q32 0 97 -13t105 -6v-133q-49 -9 -110.5 7.5t-81.5 16.5q-53 0 -88.5 -35t-35.5 -93q0 -61 38.5 -98t98.5 -37q94 0 179 78zM154 -213v42q38 -19 75 -19q34 0 55.5 19.5t15.5 50.5 q-13 -17 -41 -17t-46 16.5t-18 37.5q0 22 18 37.5t52 15.5q43 0 74 -25t31 -70q0 -48 -36.5 -79t-92.5 -31q-46 0 -87 22z" />
<glyph unicode="&#xe8;" horiz-adv-x="535" d="M300 221q-80 0 -132 16q2 -58 41.5 -89.5t108.5 -31.5q101 0 177 78v-147q-76 -58 -191 -58q-130 0 -203.5 72.5t-73.5 184.5q0 116 74.5 190.5t195.5 74.5q93 0 146.5 -44t53.5 -109q0 -37 -18 -67.5t-47 -45.5q-45 -24 -132 -24zM268 316q45 0 66.5 8t21.5 30 q0 40 -65 40q-82 0 -110 -70q34 -8 87 -8zM304 634l31 -87h-64l-79 52q-40 26 -40 63q0 25 19.5 43t48.5 18q15 0 27.5 -5t20 -11t14.5 -18t9.5 -18.5t7 -20z" />
<glyph unicode="&#xe9;" horiz-adv-x="535" d="M300 221q-80 0 -132 16q2 -58 41.5 -89.5t108.5 -31.5q101 0 177 78v-147q-76 -58 -191 -58q-130 0 -203.5 72.5t-73.5 184.5q0 116 74.5 190.5t195.5 74.5q93 0 146.5 -44t53.5 -109q0 -37 -18 -67.5t-47 -45.5q-45 -24 -132 -24zM268 316q45 0 66.5 8t21.5 30 q0 40 -65 40q-82 0 -110 -70q34 -8 87 -8zM243 547l31 87l5.5 16.5t7 20t9.5 18.5t14.5 18t20 11t27.5 5q29 0 48.5 -18t19.5 -43q0 -37 -40 -63l-79 -52h-64z" />
<glyph unicode="&#xea;" horiz-adv-x="535" d="M300 221q-80 0 -132 16q2 -58 41.5 -89.5t108.5 -31.5q101 0 177 78v-147q-76 -58 -191 -58q-130 0 -203.5 72.5t-73.5 184.5q0 116 74.5 190.5t195.5 74.5q93 0 146.5 -44t53.5 -109q0 -37 -18 -67.5t-47 -45.5q-45 -24 -132 -24zM268 316q45 0 66.5 8t21.5 30 q0 40 -65 40q-82 0 -110 -70q34 -8 87 -8zM116 547l98 127q17 22 33 32.5t43 10.5t43 -10.5t33 -32.5l98 -127h-55l-119 68l-119 -68h-55z" />
<glyph unicode="&#xeb;" horiz-adv-x="535" d="M300 221q-80 0 -132 16q2 -58 41.5 -89.5t108.5 -31.5q101 0 177 78v-147q-76 -58 -191 -58q-130 0 -203.5 72.5t-73.5 184.5q0 116 74.5 190.5t195.5 74.5q93 0 146.5 -44t53.5 -109q0 -37 -18 -67.5t-47 -45.5q-45 -24 -132 -24zM268 316q45 0 66.5 8t21.5 30 q0 40 -65 40q-82 0 -110 -70q34 -8 87 -8zM119 628q0 30 20.5 51t50.5 21t51 -21t21 -51t-21 -50.5t-51 -20.5t-50.5 20.5t-20.5 50.5zM308 628q0 30 20.5 51t50.5 21t51 -21t21 -51t-21 -50.5t-51 -20.5t-50.5 20.5t-20.5 50.5z" />
<glyph unicode="&#xec;" horiz-adv-x="241" d="M188 0h-135v500h135v-500zM145 634l31 -87h-64l-79 52q-40 26 -40 63q0 25 19.5 43t48.5 18q15 0 27.5 -5t20 -11t14.5 -18t9.5 -18.5t7 -20z" />
<glyph unicode="&#xed;" horiz-adv-x="241" d="M188 0h-135v500h135v-500zM65 547l31 87l5.5 16.5t7 20t9.5 18.5t14.5 18t20 11t27.5 5q29 0 48.5 -18t19.5 -43q0 -37 -40 -63l-79 -52h-64z" />
<glyph unicode="&#xee;" horiz-adv-x="241" d="M188 0h-135v500h135v-500zM-53 547l98 127q17 22 33 32.5t43 10.5t43 -10.5t33 -32.5l98 -127h-55l-119 68l-119 -68h-55z" />
<glyph unicode="&#xef;" horiz-adv-x="241" d="M188 0h-135v500h135v-500zM-45 628q0 30 20.5 51t50.5 21t51 -21t21 -51t-21 -50.5t-51 -20.5t-50.5 20.5t-20.5 50.5zM144 628q0 30 20.5 51t50.5 21t51 -21t21 -51t-21 -50.5t-51 -20.5t-50.5 20.5t-20.5 50.5z" />
<glyph unicode="&#xf0;" horiz-adv-x="575" d="M269 500q-26 40 -51 73l-81 -29l-37 49l78 28q-51 53 -97 53q-6 0 -18 -2v28q60 10 88 10q77 0 137 -49l91 33l37 -49l-81 -29q27 -31 50 -61l119 -162q45 -62 45 -148q0 -107 -74 -181.5t-187 -74.5t-187 74.5t-74 181.5q0 101 66.5 174t175.5 81zM168 245 q0 -52 34.5 -88.5t85.5 -36.5q52 0 86 36.5t34 88.5q0 53 -34 89.5t-86 36.5q-51 0 -85.5 -36.5t-34.5 -89.5z" />
<glyph unicode="&#xf1;" horiz-adv-x="568" d="M515 0h-135v378h-192v-378h-135v500h462v-500zM129 556h-36q0 68 27 114t92 46q38 0 92 -33q37 -23 66 -23q56 0 68 52h36q0 -68 -27 -114t-92 -46q-38 0 -92 33q-37 23 -66 23q-56 0 -68 -52z" />
<glyph unicode="&#xf2;" horiz-adv-x="592" d="M566 250q0 -109 -76.5 -185t-192.5 -76t-193.5 76t-77.5 185t77.5 185t193.5 76t192.5 -76t76.5 -185zM425 250q0 55 -37.5 93.5t-90.5 38.5q-54 0 -91.5 -38.5t-37.5 -93.5q0 -54 37.5 -92.5t91.5 -38.5q53 0 90.5 38.5t37.5 92.5zM300 634l31 -87h-64l-79 52 q-40 26 -40 63q0 25 19.5 43t48.5 18q15 0 27.5 -5t20 -11t14.5 -18t9.5 -18.5t7 -20z" />
<glyph unicode="&#xf3;" horiz-adv-x="592" d="M566 250q0 -109 -76.5 -185t-192.5 -76t-193.5 76t-77.5 185t77.5 185t193.5 76t192.5 -76t76.5 -185zM425 250q0 55 -37.5 93.5t-90.5 38.5q-54 0 -91.5 -38.5t-37.5 -93.5q0 -54 37.5 -92.5t91.5 -38.5q53 0 90.5 38.5t37.5 92.5zM247 547l31 87l5.5 16.5t7 20 t9.5 18.5t14.5 18t20 11t27.5 5q29 0 48.5 -18t19.5 -43q0 -37 -40 -63l-79 -52h-64z" />
<glyph unicode="&#xf4;" horiz-adv-x="592" d="M566 250q0 -109 -76.5 -185t-192.5 -76t-193.5 76t-77.5 185t77.5 185t193.5 76t192.5 -76t76.5 -185zM425 250q0 55 -37.5 93.5t-90.5 38.5q-54 0 -91.5 -38.5t-37.5 -93.5q0 -54 37.5 -92.5t91.5 -38.5q53 0 90.5 38.5t37.5 92.5zM122 547l98 127q17 22 33 32.5 t43 10.5t43 -10.5t33 -32.5l98 -127h-55l-119 68l-119 -68h-55z" />
<glyph unicode="&#xf5;" horiz-adv-x="592" d="M566 250q0 -109 -76.5 -185t-192.5 -76t-193.5 76t-77.5 185t77.5 185t193.5 76t192.5 -76t76.5 -185zM425 250q0 55 -37.5 93.5t-90.5 38.5q-54 0 -91.5 -38.5t-37.5 -93.5q0 -54 37.5 -92.5t91.5 -38.5q53 0 90.5 38.5t37.5 92.5zM141 556h-36q0 68 27 114t92 46 q38 0 92 -33q37 -23 66 -23q56 0 68 52h36q0 -68 -27 -114t-92 -46q-38 0 -92 33q-37 23 -66 23q-56 0 -68 -52z" />
<glyph unicode="&#xf6;" horiz-adv-x="592" d="M566 250q0 -109 -76.5 -185t-192.5 -76t-193.5 76t-77.5 185t77.5 185t193.5 76t192.5 -76t76.5 -185zM425 250q0 55 -37.5 93.5t-90.5 38.5q-54 0 -91.5 -38.5t-37.5 -93.5q0 -54 37.5 -92.5t91.5 -38.5q53 0 90.5 38.5t37.5 92.5zM130 628q0 30 20.5 51t50.5 21t51 -21 t21 -51t-21 -50.5t-51 -20.5t-50.5 20.5t-20.5 50.5zM319 628q0 30 20.5 51t50.5 21t51 -21t21 -51t-21 -50.5t-51 -20.5t-50.5 20.5t-20.5 50.5z" />
<glyph unicode="&#xf7;" d="M538 225h-500v50h500v-50zM217 428q0 30 20.5 51t50.5 21t51 -21t21 -51t-21 -50.5t-51 -20.5t-50.5 20.5t-20.5 50.5zM217 71q0 30 20.5 51t50.5 21t51 -21t21 -51t-21 -50.5t-51 -20.5t-50.5 20.5t-20.5 50.5z" />
<glyph unicode="&#xf8;" horiz-adv-x="592" d="M68 16l38 46q-80 75 -80 188q0 109 77.5 185t193.5 76q83 0 150 -43l40 47q7 9 18 9q10 0 17.5 -7.5t7.5 -16.5q0 -8 -6 -16l-39 -46q81 -76 81 -188q0 -109 -76.5 -185t-192.5 -76q-85 0 -152 43l-40 -47q-7 -9 -18 -9q-10 0 -17.5 7.5t-7.5 16.5q0 8 6 16zM425 250 q0 45 -28 83l-165 -197q29 -17 65 -17q53 0 90.5 38.5t37.5 92.5zM168 250q0 -46 28 -82l165 197q-29 17 -64 17q-54 0 -91.5 -38.5t-37.5 -93.5z" />
<glyph unicode="&#xf9;" horiz-adv-x="556" d="M508 500v-290q0 -95 -65.5 -158t-164.5 -63t-164.5 63t-65.5 158v290h135v-280q0 -44 27 -72.5t68 -28.5t68 28.5t27 72.5v280h135zM284 634l31 -87h-64l-79 52q-40 26 -40 63q0 25 19.5 43t48.5 18q15 0 27.5 -5t20 -11t14.5 -18t9.5 -18.5t7 -20z" />
<glyph unicode="&#xfa;" horiz-adv-x="556" d="M508 500v-290q0 -95 -65.5 -158t-164.5 -63t-164.5 63t-65.5 158v290h135v-280q0 -44 27 -72.5t68 -28.5t68 28.5t27 72.5v280h135zM237 547l31 87l5.5 16.5t7 20t9.5 18.5t14.5 18t20 11t27.5 5q29 0 48.5 -18t19.5 -43q0 -37 -40 -63l-79 -52h-64z" />
<glyph unicode="&#xfb;" horiz-adv-x="556" d="M508 500v-290q0 -95 -65.5 -158t-164.5 -63t-164.5 63t-65.5 158v290h135v-280q0 -44 27 -72.5t68 -28.5t68 28.5t27 72.5v280h135zM104 547l98 127q17 22 33 32.5t43 10.5t43 -10.5t33 -32.5l98 -127h-55l-119 68l-119 -68h-55z" />
<glyph unicode="&#xfc;" horiz-adv-x="556" d="M508 500v-290q0 -95 -65.5 -158t-164.5 -63t-164.5 63t-65.5 158v290h135v-280q0 -44 27 -72.5t68 -28.5t68 28.5t27 72.5v280h135zM112 628q0 30 20.5 51t50.5 21t51 -21t21 -51t-21 -50.5t-51 -20.5t-50.5 20.5t-20.5 50.5zM301 628q0 30 20.5 51t50.5 21t51 -21 t21 -51t-21 -50.5t-51 -20.5t-50.5 20.5t-20.5 50.5z" />
<glyph unicode="&#xfd;" horiz-adv-x="548" d="M257 0l-261 500h150l131 -253l131 253h150l-267 -511q-7 -13 -23 -45t-23.5 -46t-23 -36.5t-29.5 -32.5t-35 -18.5t-45 -8.5q-50 0 -73 26.5t-23 58.5q0 30 20.5 51.5t51.5 21.5q30 0 43 -18q-17 -14 -10 -34.5t32 -20.5q48 0 104 113zM224 547l31 87l5.5 16.5t7 20 t9.5 18.5t14.5 18t20 11t27.5 5q29 0 48.5 -18t19.5 -43q0 -37 -40 -63l-79 -52h-64z" />
<glyph unicode="&#xfe;" horiz-adv-x="619" d="M593 250q0 -108 -73.5 -184.5t-180.5 -76.5q-95 0 -151 65v-244h-135v890h135v-254q56 65 151 65q107 0 180.5 -76.5t73.5 -184.5zM451 250q0 55 -38.5 93.5t-92.5 38.5q-55 0 -93.5 -38.5t-38.5 -93.5q0 -54 38.5 -93t93.5 -39q54 0 92.5 39t38.5 93z" />
<glyph unicode="&#xff;" horiz-adv-x="548" d="M257 0l-261 500h150l131 -253l131 253h150l-267 -511q-7 -13 -23 -45t-23.5 -46t-23 -36.5t-29.5 -32.5t-35 -18.5t-45 -8.5q-50 0 -73 26.5t-23 58.5q0 30 20.5 51.5t51.5 21.5q30 0 43 -18q-17 -14 -10 -34.5t32 -20.5q48 0 104 113zM111 628q0 30 20.5 51t50.5 21 t51 -21t21 -51t-21 -50.5t-51 -20.5t-50.5 20.5t-20.5 50.5zM300 628q0 30 20.5 51t50.5 21t51 -21t21 -51t-21 -50.5t-51 -20.5t-50.5 20.5t-20.5 50.5z" />
<glyph unicode="&#x100;" horiz-adv-x="548" d="M66 378v122h429v-500h-135v48q-56 -59 -149 -59q-84 0 -133.5 43.5t-49.5 109.5q0 83 71 124q50 28 127 28q72 0 134 -22v106h-294zM256 199q-87 0 -87 -48q0 -23 21 -34t50 -11q39 0 71.5 20.5t48.5 54.5v1q-54 17 -104 17zM426 581h-297v94h297v-94z" />
<glyph unicode="&#x101;" horiz-adv-x="548" d="M66 378v122h429v-500h-135v48q-56 -59 -149 -59q-84 0 -133.5 43.5t-49.5 109.5q0 83 71 124q50 28 127 28q72 0 134 -22v106h-294zM256 199q-87 0 -87 -48q0 -23 21 -34t50 -11q39 0 71.5 20.5t48.5 54.5v1q-54 17 -104 17zM426 596h-297v64h297v-64z" />
<glyph unicode="&#x102;" horiz-adv-x="548" d="M66 378v122h429v-500h-135v48q-56 -59 -149 -59q-84 0 -133.5 43.5t-49.5 109.5q0 83 71 124q50 28 127 28q72 0 134 -22v106h-294zM256 199q-87 0 -87 -48q0 -23 21 -34t50 -11q39 0 71.5 20.5t48.5 54.5v1q-54 17 -104 17zM274 550q-85 0 -124.5 41.5t-39.5 111.5v9h82 q0 -66 82 -66t82 66h82v-9q0 -70 -39.5 -111.5t-124.5 -41.5z" />
<glyph unicode="&#x103;" horiz-adv-x="548" d="M66 378v122h429v-500h-135v48q-56 -59 -149 -59q-84 0 -133.5 43.5t-49.5 109.5q0 83 71 124q50 28 127 28q72 0 134 -22v106h-294zM256 199q-87 0 -87 -48q0 -23 21 -34t50 -11q39 0 71.5 20.5t48.5 54.5v1q-54 17 -104 17zM274 552q-81 0 -120 41t-39 110v9h32 q6 -32 38 -43.5t89 -11.5t88.5 11.5t38.5 43.5h32v-9q0 -69 -39 -110t-120 -41z" />
<glyph unicode="&#x104;" horiz-adv-x="548" d="M495 -86v-83q-32 -32 -82 -32q-41 0 -69 25.5t-28 66.5q0 52 44 109v48q-56 -59 -149 -59q-84 0 -133.5 43.5t-49.5 109.5q0 83 71 124q50 28 127 28q72 0 134 -22v106h-294v122h429v-500h-70q-21 -25 -21 -53q0 -25 13.5 -35.5t32.5 -10.5q28 0 45 13zM256 199 q-87 0 -87 -48q0 -23 21 -34t50 -11q39 0 71.5 20.5t48.5 54.5v1q-54 17 -104 17z" />
<glyph unicode="&#x105;" horiz-adv-x="548" d="M495 -96v-53q-11 -24 -34.5 -38t-50.5 -14q-39 0 -66.5 25.5t-27.5 66.5q0 52 44 109v48q-56 -59 -149 -59q-84 0 -133.5 43.5t-49.5 109.5q0 83 71 124q50 28 127 28q72 0 134 -22v106h-294v122h429v-500h-90q-21 -31 -21 -63q0 -30 17.5 -44t40.5 -14q32 0 53 25z M256 199q-87 0 -87 -48q0 -23 21 -34t50 -11q39 0 71.5 20.5t48.5 54.5v1q-54 17 -104 17z" />
<glyph unicode="&#x106;" horiz-adv-x="525" d="M485 198v-145q-81 -64 -190 -64q-115 0 -192 71t-77 190q0 118 75 189.5t182 71.5q32 0 97 -13t105 -6v-133q-49 -9 -110.5 7.5t-81.5 16.5q-53 0 -88.5 -35t-35.5 -93q0 -61 38.5 -98t98.5 -37q94 0 179 78zM442 712l-123 -165h-102l71 165h154z" />
<glyph unicode="&#x107;" horiz-adv-x="525" d="M485 198v-145q-81 -64 -190 -64q-115 0 -192 71t-77 190q0 118 75 189.5t182 71.5q32 0 97 -13t105 -6v-133q-49 -9 -110.5 7.5t-81.5 16.5q-53 0 -88.5 -35t-35.5 -93q0 -61 38.5 -98t98.5 -37q94 0 179 78zM230 547l31 87l5.5 16.5t7 20t9.5 18.5t14.5 18t20 11t27.5 5 q29 0 48.5 -18t19.5 -43q0 -37 -40 -63l-79 -52h-64z" />
<glyph unicode="&#x108;" horiz-adv-x="525" d="M485 198v-145q-81 -64 -190 -64q-115 0 -192 71t-77 190q0 118 75 189.5t182 71.5q32 0 97 -13t105 -6v-133q-49 -9 -110.5 7.5t-81.5 16.5q-53 0 -88.5 -35t-35.5 -93q0 -61 38.5 -98t98.5 -37q94 0 179 78zM286 717q27 0 43 -10.5t33 -32.5l98 -127h-115l-59 75 l-59 -75h-115l98 127q17 22 33 32.5t43 10.5z" />
<glyph unicode="&#x109;" horiz-adv-x="525" d="M485 198v-145q-81 -64 -190 -64q-115 0 -192 71t-77 190q0 118 75 189.5t182 71.5q32 0 97 -13t105 -6v-133q-49 -9 -110.5 7.5t-81.5 16.5q-53 0 -88.5 -35t-35.5 -93q0 -61 38.5 -98t98.5 -37q94 0 179 78zM112 547l98 127q17 22 33 32.5t43 10.5t43 -10.5t33 -32.5 l98 -127h-55l-119 68l-119 -68h-55z" />
<glyph unicode="&#x10a;" horiz-adv-x="525" d="M485 198v-145q-81 -64 -190 -64q-115 0 -192 71t-77 190q0 118 75 189.5t182 71.5q32 0 97 -13t105 -6v-133q-49 -9 -110.5 7.5t-81.5 16.5q-53 0 -88.5 -35t-35.5 -93q0 -61 38.5 -98t98.5 -37q94 0 179 78zM215 628q0 30 20.5 51t50.5 21t51 -21t21 -51t-21 -50.5 t-51 -20.5t-50.5 20.5t-20.5 50.5z" />
<glyph unicode="&#x10b;" horiz-adv-x="525" d="M485 198v-145q-81 -64 -190 -64q-115 0 -192 71t-77 190q0 118 75 189.5t182 71.5q32 0 97 -13t105 -6v-133q-49 -9 -110.5 7.5t-81.5 16.5q-53 0 -88.5 -35t-35.5 -93q0 -61 38.5 -98t98.5 -37q94 0 179 78zM215 628q0 30 20.5 51t50.5 21t51 -21t21 -51t-21 -50.5 t-51 -20.5t-50.5 20.5t-20.5 50.5z" />
<glyph unicode="&#x10c;" horiz-adv-x="525" d="M485 198v-145q-81 -64 -190 -64q-115 0 -192 71t-77 190q0 118 75 189.5t182 71.5q32 0 97 -13t105 -6v-133q-49 -9 -110.5 7.5t-81.5 16.5q-53 0 -88.5 -35t-35.5 -93q0 -61 38.5 -98t98.5 -37q94 0 179 78zM282 542q-27 0 -43 10.5t-33 32.5l-98 127h115l59 -75l59 75 h115l-98 -127q-17 -22 -33 -32.5t-43 -10.5z" />
<glyph unicode="&#x10d;" horiz-adv-x="525" d="M485 198v-145q-81 -64 -190 -64q-115 0 -192 71t-77 190q0 118 75 189.5t182 71.5q32 0 97 -13t105 -6v-133q-49 -9 -110.5 7.5t-81.5 16.5q-53 0 -88.5 -35t-35.5 -93q0 -61 38.5 -98t98.5 -37q94 0 179 78zM206 585l-98 127h55l119 -68l119 68h55l-98 -127 q-17 -22 -33 -32.5t-43 -10.5t-43 10.5t-33 32.5z" />
<glyph unicode="&#x10e;" horiz-adv-x="744" d="M567 0h-135v54q-56 -65 -151 -65q-107 0 -181 76.5t-74 184.5t74 184.5t181 76.5q95 0 151 -65v254h135v-700zM432 250q0 55 -38.5 93.5t-93.5 38.5q-54 0 -92.5 -38.5t-38.5 -93.5q0 -54 38.5 -93t92.5 -39q55 0 93.5 39t38.5 93zM617 642q0 29 20 49.5t50 20.5 t51 -21.5t21 -65.5q0 -68 -48.5 -125t-93.5 -72v34q30 44 30 82q0 21 -15 46q-15 27 -15 52z" />
<glyph unicode="&#x10f;" horiz-adv-x="744" d="M567 0h-135v54q-56 -65 -151 -65q-107 0 -181 76.5t-74 184.5t74 184.5t181 76.5q95 0 151 -65v254h135v-700zM432 250q0 55 -38.5 93.5t-93.5 38.5q-54 0 -92.5 -38.5t-38.5 -93.5q0 -54 38.5 -93t92.5 -39q55 0 93.5 39t38.5 93zM617 642q0 29 20 49.5t50 20.5 t51 -21.5t21 -65.5q0 -68 -48.5 -125t-93.5 -72v34q30 44 30 82q0 21 -15 46q-15 27 -15 52z" />
<glyph unicode="&#x110;" horiz-adv-x="625" d="M567 0h-135v54q-56 -65 -151 -65q-107 0 -181 76.5t-74 184.5t74 184.5t181 76.5q95 0 151 -65v124h-122v84h122v46h135v-46h40v-84h-40v-570zM432 250q0 55 -38.5 93.5t-93.5 38.5q-54 0 -92.5 -38.5t-38.5 -93.5q0 -54 38.5 -93t92.5 -39q55 0 93.5 39t38.5 93z" />
<glyph unicode="&#x111;" horiz-adv-x="625" d="M567 0h-135v54q-56 -65 -151 -65q-107 0 -181 76.5t-74 184.5t74 184.5t181 76.5q95 0 151 -65v144h-122v64h122v46h135v-46h40v-64h-40v-590zM432 250q0 55 -38.5 93.5t-93.5 38.5q-54 0 -92.5 -38.5t-38.5 -93.5q0 -54 38.5 -93t92.5 -39q55 0 93.5 39t38.5 93z" />
<glyph unicode="&#x112;" horiz-adv-x="535" d="M300 221q-80 0 -132 16q2 -58 41.5 -89.5t108.5 -31.5q101 0 177 78v-147q-76 -58 -191 -58q-130 0 -203.5 72.5t-73.5 184.5q0 116 74.5 190.5t195.5 74.5q93 0 146.5 -44t53.5 -109q0 -37 -18 -67.5t-47 -45.5q-45 -24 -132 -24zM268 316q45 0 66.5 8t21.5 30 q0 40 -65 40q-82 0 -110 -70q34 -8 87 -8zM433 581h-297v94h297v-94z" />
<glyph unicode="&#x113;" horiz-adv-x="535" d="M300 221q-80 0 -132 16q2 -58 41.5 -89.5t108.5 -31.5q101 0 177 78v-147q-76 -58 -191 -58q-130 0 -203.5 72.5t-73.5 184.5q0 116 74.5 190.5t195.5 74.5q93 0 146.5 -44t53.5 -109q0 -37 -18 -67.5t-47 -45.5q-45 -24 -132 -24zM268 316q45 0 66.5 8t21.5 30 q0 40 -65 40q-82 0 -110 -70q34 -8 87 -8zM433 596h-297v64h297v-64z" />
<glyph unicode="&#x114;" horiz-adv-x="535" d="M300 221q-80 0 -132 16q2 -58 41.5 -89.5t108.5 -31.5q101 0 177 78v-147q-76 -58 -191 -58q-130 0 -203.5 72.5t-73.5 184.5q0 116 74.5 190.5t195.5 74.5q93 0 146.5 -44t53.5 -109q0 -37 -18 -67.5t-47 -45.5q-45 -24 -132 -24zM268 316q45 0 66.5 8t21.5 30 q0 40 -65 40q-82 0 -110 -70q34 -8 87 -8zM287 550q-85 0 -124.5 41.5t-39.5 111.5v9h82q0 -66 82 -66t82 66h82v-9q0 -70 -39.5 -111.5t-124.5 -41.5z" />
<glyph unicode="&#x115;" horiz-adv-x="535" d="M300 221q-80 0 -132 16q2 -58 41.5 -89.5t108.5 -31.5q101 0 177 78v-147q-76 -58 -191 -58q-130 0 -203.5 72.5t-73.5 184.5q0 116 74.5 190.5t195.5 74.5q93 0 146.5 -44t53.5 -109q0 -37 -18 -67.5t-47 -45.5q-45 -24 -132 -24zM268 316q45 0 66.5 8t21.5 30 q0 40 -65 40q-82 0 -110 -70q34 -8 87 -8zM287 552q-81 0 -120 41t-39 110v9h32q6 -32 38 -43.5t89 -11.5t88.5 11.5t38.5 43.5h32v-9q0 -69 -39 -110t-120 -41z" />
<glyph unicode="&#x116;" horiz-adv-x="535" d="M300 221q-80 0 -132 16q2 -58 41.5 -89.5t108.5 -31.5q101 0 177 78v-147q-76 -58 -191 -58q-130 0 -203.5 72.5t-73.5 184.5q0 116 74.5 190.5t195.5 74.5q93 0 146.5 -44t53.5 -109q0 -37 -18 -67.5t-47 -45.5q-45 -24 -132 -24zM268 316q45 0 66.5 8t21.5 30 q0 40 -65 40q-82 0 -110 -70q34 -8 87 -8zM214 628q0 30 20.5 51t50.5 21t51 -21t21 -51t-21 -50.5t-51 -20.5t-50.5 20.5t-20.5 50.5z" />
<glyph unicode="&#x117;" horiz-adv-x="535" d="M300 221q-80 0 -132 16q2 -58 41.5 -89.5t108.5 -31.5q101 0 177 78v-147q-76 -58 -191 -58q-130 0 -203.5 72.5t-73.5 184.5q0 116 74.5 190.5t195.5 74.5q93 0 146.5 -44t53.5 -109q0 -37 -18 -67.5t-47 -45.5q-45 -24 -132 -24zM268 316q45 0 66.5 8t21.5 30 q0 40 -65 40q-82 0 -110 -70q34 -8 87 -8zM214 628q0 30 20.5 51t50.5 21t51 -21t21 -51t-21 -50.5t-51 -20.5t-50.5 20.5t-20.5 50.5z" />
<glyph unicode="&#x118;" horiz-adv-x="535" d="M316 -109q0 47 38 102q-21 -4 -52 -4q-129 0 -202 72.5t-73 185.5q0 115 74.5 189.5t195.5 74.5q93 0 146.5 -44t53.5 -109q0 -37 -18 -67.5t-47 -45.5q-45 -24 -132 -24q-80 0 -132 16q2 -57 42 -89t107 -32q102 0 178 78v-147q-91 -52 -91 -101q0 -45 47 -45 q27 0 44 13v-83q-32 -32 -82 -32q-41 0 -69 25.5t-28 66.5zM268 316q45 0 66.5 8t21.5 30q0 40 -65 40q-82 0 -110 -70q34 -8 87 -8z" />
<glyph unicode="&#x119;" horiz-adv-x="535" d="M495 -96v-53q-11 -24 -34.5 -38t-50.5 -14q-39 0 -66.5 25.5t-27.5 66.5q0 47 38 102q-21 -4 -52 -4q-129 0 -202 72.5t-73 185.5q0 115 74.5 189.5t195.5 74.5q93 0 146.5 -44t53.5 -109q0 -37 -18 -67.5t-47 -45.5q-45 -24 -132 -24q-80 0 -132 16q2 -57 42 -89 t107 -32q102 0 178 78v-147q-56 -28 -83.5 -54.5t-27.5 -58.5q0 -25 17 -40t41 -15q32 0 53 25zM268 316q45 0 66.5 8t21.5 30q0 40 -65 40q-82 0 -110 -70q34 -8 87 -8z" />
<glyph unicode="&#x11a;" horiz-adv-x="535" d="M300 221q-80 0 -132 16q2 -58 41.5 -89.5t108.5 -31.5q101 0 177 78v-147q-76 -58 -191 -58q-130 0 -203.5 72.5t-73.5 184.5q0 116 74.5 190.5t195.5 74.5q93 0 146.5 -44t53.5 -109q0 -37 -18 -67.5t-47 -45.5q-45 -24 -132 -24zM268 316q45 0 66.5 8t21.5 30 q0 40 -65 40q-82 0 -110 -70q34 -8 87 -8zM287 542q-27 0 -43 10.5t-33 32.5l-98 127h115l59 -75l59 75h115l-98 -127q-17 -22 -33 -32.5t-43 -10.5z" />
<glyph unicode="&#x11b;" horiz-adv-x="535" d="M300 221q-80 0 -132 16q2 -58 41.5 -89.5t108.5 -31.5q101 0 177 78v-147q-76 -58 -191 -58q-130 0 -203.5 72.5t-73.5 184.5q0 116 74.5 190.5t195.5 74.5q93 0 146.5 -44t53.5 -109q0 -37 -18 -67.5t-47 -45.5q-45 -24 -132 -24zM268 316q45 0 66.5 8t21.5 30 q0 40 -65 40q-82 0 -110 -70q34 -8 87 -8zM211 585l-98 127h55l119 -68l119 68h55l-98 -127q-17 -22 -33 -32.5t-43 -10.5t-43 10.5t-33 32.5z" />
<glyph unicode="&#x11c;" horiz-adv-x="514" d="M185 122h172q73 0 110 -37t37 -85q0 -86 -79 -143.5t-209 -57.5q-55 0 -100 10.5t-77 36t-32 63.5q0 73 104 91q-43 14 -64.5 43.5t-21.5 61.5q0 34 23 64t67 44q-64 46 -64 131q0 72 51 119.5t145 47.5q23 0 43 -3q51 -8 142 -8h68v-121q-30 0 -61 5q5 -22 5 -40 q0 -72 -51.5 -120t-145.5 -48h-60q-18 0 -28.5 -8t-10.5 -20q0 -11 10 -18.5t27 -7.5zM294 0h-69q-37 0 -57 -13t-20 -32q0 -23 27.5 -34.5t67.5 -11.5q46 0 80.5 15t34.5 42q0 34 -64 34zM185 344q0 -24 16 -39.5t46 -15.5q31 0 47 15.5t16 39.5q0 23 -16 38t-47 15 q-30 0 -46 -15t-16 -38zM259 717q27 0 43 -10.5t33 -32.5l98 -127h-115l-59 75l-59 -75h-115l98 127q17 22 33 32.5t43 10.5z" />
<glyph unicode="&#x11d;" horiz-adv-x="514" d="M185 122h172q73 0 110 -37t37 -85q0 -86 -79 -143.5t-209 -57.5q-55 0 -100 10.5t-77 36t-32 63.5q0 73 104 91q-43 14 -64.5 43.5t-21.5 61.5q0 34 23 64t67 44q-64 46 -64 131q0 72 51 119.5t145 47.5q22 0 43 -3q51 -8 142 -8h68v-121q-30 0 -61 5q5 -22 5 -40 q0 -72 -51.5 -120t-145.5 -48h-60q-18 0 -28.5 -8t-10.5 -20q0 -11 10 -18.5t27 -7.5zM185 344q0 -24 16 -39.5t46 -15.5q31 0 47 15.5t16 39.5q0 23 -16 38t-47 15q-30 0 -46 -15t-16 -38zM338 0h-152q-33 0 -49 -16.5t-16 -38.5q0 -42 45.5 -65t113.5 -23t106.5 25 t38.5 62q0 56 -87 56zM85 547l98 127q17 22 33 32.5t43 10.5t43 -10.5t33 -32.5l98 -127h-55l-119 68l-119 -68h-55z" />
<glyph unicode="&#x11e;" horiz-adv-x="514" d="M185 122h172q73 0 110 -37t37 -85q0 -86 -79 -143.5t-209 -57.5q-55 0 -100 10.5t-77 36t-32 63.5q0 73 104 91q-43 14 -64.5 43.5t-21.5 61.5q0 34 23 64t67 44q-64 46 -64 131q0 72 51 119.5t145 47.5q23 0 43 -3q51 -8 142 -8h68v-121q-30 0 -61 5q5 -22 5 -40 q0 -72 -51.5 -120t-145.5 -48h-60q-18 0 -28.5 -8t-10.5 -20q0 -11 10 -18.5t27 -7.5zM294 0h-69q-37 0 -57 -13t-20 -32q0 -23 27.5 -34.5t67.5 -11.5q46 0 80.5 15t34.5 42q0 34 -64 34zM185 344q0 -24 16 -39.5t46 -15.5q31 0 47 15.5t16 39.5q0 23 -16 38t-47 15 q-30 0 -46 -15t-16 -38zM255 550q-85 0 -124.5 41.5t-39.5 111.5v9h82q0 -66 82 -66t82 66h82v-9q0 -70 -39.5 -111.5t-124.5 -41.5z" />
<glyph unicode="&#x11f;" horiz-adv-x="514" d="M185 122h172q73 0 110 -37t37 -85q0 -86 -79 -143.5t-209 -57.5q-55 0 -100 10.5t-77 36t-32 63.5q0 73 104 91q-43 14 -64.5 43.5t-21.5 61.5q0 34 23 64t67 44q-64 46 -64 131q0 72 51 119.5t145 47.5q22 0 43 -3q51 -8 142 -8h68v-121q-30 0 -61 5q5 -22 5 -40 q0 -72 -51.5 -120t-145.5 -48h-60q-18 0 -28.5 -8t-10.5 -20q0 -11 10 -18.5t27 -7.5zM185 344q0 -24 16 -39.5t46 -15.5q31 0 47 15.5t16 39.5q0 23 -16 38t-47 15q-30 0 -46 -15t-16 -38zM338 0h-152q-33 0 -49 -16.5t-16 -38.5q0 -42 45.5 -65t113.5 -23t106.5 25 t38.5 62q0 56 -87 56zM255 552q-81 0 -120 41t-39 110v9h32q6 -32 38 -43.5t89 -11.5t88.5 11.5t38.5 43.5h32v-9q0 -69 -39 -110t-120 -41z" />
<glyph unicode="&#x120;" horiz-adv-x="514" d="M185 122h172q73 0 110 -37t37 -85q0 -86 -79 -143.5t-209 -57.5q-55 0 -100 10.5t-77 36t-32 63.5q0 73 104 91q-43 14 -64.5 43.5t-21.5 61.5q0 34 23 64t67 44q-64 46 -64 131q0 72 51 119.5t145 47.5q23 0 43 -3q51 -8 142 -8h68v-121q-30 0 -61 5q5 -22 5 -40 q0 -72 -51.5 -120t-145.5 -48h-60q-18 0 -28.5 -8t-10.5 -20q0 -11 10 -18.5t27 -7.5zM294 0h-69q-37 0 -57 -13t-20 -32q0 -23 27.5 -34.5t67.5 -11.5q46 0 80.5 15t34.5 42q0 34 -64 34zM185 344q0 -24 16 -39.5t46 -15.5q31 0 47 15.5t16 39.5q0 23 -16 38t-47 15 q-30 0 -46 -15t-16 -38zM187 628q0 30 20.5 51t50.5 21t51 -21t21 -51t-21 -50.5t-51 -20.5t-50.5 20.5t-20.5 50.5z" />
<glyph unicode="&#x121;" horiz-adv-x="514" d="M185 122h172q73 0 110 -37t37 -85q0 -86 -79 -143.5t-209 -57.5q-55 0 -100 10.5t-77 36t-32 63.5q0 73 104 91q-43 14 -64.5 43.5t-21.5 61.5q0 34 23 64t67 44q-64 46 -64 131q0 72 51 119.5t145 47.5q22 0 43 -3q51 -8 142 -8h68v-121q-30 0 -61 5q5 -22 5 -40 q0 -72 -51.5 -120t-145.5 -48h-60q-18 0 -28.5 -8t-10.5 -20q0 -11 10 -18.5t27 -7.5zM185 344q0 -24 16 -39.5t46 -15.5q31 0 47 15.5t16 39.5q0 23 -16 38t-47 15q-30 0 -46 -15t-16 -38zM338 0h-152q-33 0 -49 -16.5t-16 -38.5q0 -42 45.5 -65t113.5 -23t106.5 25 t38.5 62q0 56 -87 56zM187 628q0 30 20.5 51t50.5 21t51 -21t21 -51t-21 -50.5t-51 -20.5t-50.5 20.5t-20.5 50.5z" />
<glyph unicode="&#x122;" horiz-adv-x="514" d="M324 601q0 -26 -19.5 -44t-49.5 -18q-29 0 -50 18.5t-21 56.5q0 59 48 108.5t92 62.5v-29q-29 -38 -29 -70q0 -15 14 -41q15 -25 15 -44zM185 122h172q73 0 110 -37t37 -85q0 -86 -79 -143.5t-209 -57.5q-55 0 -100 10.5t-77 36t-32 63.5q0 73 104 91q-43 14 -64.5 43.5 t-21.5 61.5q0 34 23 64t67 44q-64 46 -64 131q0 72 51 119.5t145 47.5q23 0 43 -3q51 -8 142 -8h68v-121q-30 0 -61 5q5 -22 5 -40q0 -72 -51.5 -120t-145.5 -48h-60q-18 0 -28.5 -8t-10.5 -20q0 -11 10 -18.5t27 -7.5zM294 0h-69q-37 0 -57 -13t-20 -32q0 -23 27.5 -34.5 t67.5 -11.5q46 0 80.5 15t34.5 42q0 34 -64 34zM185 344q0 -24 16 -39.5t46 -15.5q31 0 47 15.5t16 39.5q0 23 -16 38t-47 15q-30 0 -46 -15t-16 -38z" />
<glyph unicode="&#x123;" horiz-adv-x="514" d="M324 601q0 -26 -19.5 -44t-49.5 -18q-29 0 -50 18.5t-21 56.5q0 59 48 108.5t92 62.5v-29q-29 -38 -29 -70q0 -15 14 -41q15 -25 15 -44zM185 122h172q73 0 110 -37t37 -85q0 -86 -79 -143.5t-209 -57.5q-55 0 -100 10.5t-77 36t-32 63.5q0 73 104 91q-43 14 -64.5 43.5 t-21.5 61.5q0 34 23 64t67 44q-64 46 -64 131q0 72 51 119.5t145 47.5q22 0 43 -3q51 -8 142 -8h68v-121q-30 0 -61 5q5 -22 5 -40q0 -72 -51.5 -120t-145.5 -48h-60q-18 0 -28.5 -8t-10.5 -20q0 -11 10 -18.5t27 -7.5zM185 344q0 -24 16 -39.5t46 -15.5q31 0 47 15.5 t16 39.5q0 23 -16 38t-47 15q-30 0 -46 -15t-16 -38zM338 0h-152q-33 0 -49 -16.5t-16 -38.5q0 -42 45.5 -65t113.5 -23t106.5 25t38.5 62q0 56 -87 56z" />
<glyph unicode="&#x124;" horiz-adv-x="568" d="M515 0h-135v378h-192v-378h-135v700h135v-200h327v-500zM122 849q34 0 60 -30l79 -89h-92l-47 52l-48 -52h-92l79 89q26 30 61 30z" />
<glyph unicode="&#x125;" horiz-adv-x="568" d="M515 0h-135v378h-192v-378h-135v700h135v-200h327v-500zM-18 730l79 89q26 30 61 30q34 0 60 -30l79 -89h-44l-95 47l-96 -47h-44z" />
<glyph unicode="&#x126;" horiz-adv-x="573" d="M315 570h-122v-70h327v-500h-135v378h-192v-378h-135v570h-40v84h40v46h135v-46h122v-84z" />
<glyph unicode="&#x127;" horiz-adv-x="573" d="M315 590h-122v-90h327v-500h-135v378h-192v-378h-135v590h-40v64h40v46h135v-46h122v-64z" />
<glyph unicode="&#x128;" horiz-adv-x="241" d="M188 0h-135v500h135v-500zM30 556h-81q0 66 31 113t86 47q39 0 73 -32q21 -19 36 -19q34 0 36 47h81q0 -66 -31 -113t-86 -47q-39 0 -73 32q-21 19 -36 19q-34 0 -36 -47z" />
<glyph unicode="&#x129;" horiz-adv-x="241" d="M188 0h-135v500h135v-500zM-19 556h-32q0 42 8 75.5t33.5 59t65.5 25.5q22 0 39 -7.5t44 -25.5q34 -23 59 -23q51 0 61 52h33q0 -42 -8 -75.5t-33.5 -59t-65.5 -25.5q-23 0 -39 7.5t-44 25.5q-34 23 -59 23q-50 0 -62 -52z" />
<glyph unicode="&#x12a;" horiz-adv-x="241" d="M188 0h-135v500h135v-500zM269 581h-297v94h297v-94z" />
<glyph unicode="&#x12b;" horiz-adv-x="241" d="M188 0h-135v500h135v-500zM269 596h-297v64h297v-64z" />
<glyph unicode="&#x12c;" horiz-adv-x="241" d="M188 0h-135v500h135v-500zM121 550q-85 0 -124.5 41.5t-39.5 111.5v9h82q0 -66 82 -66t82 66h82v-9q0 -70 -39.5 -111.5t-124.5 -41.5z" />
<glyph unicode="&#x12d;" horiz-adv-x="241" d="M188 0h-135v500h135v-500zM121 552q-81 0 -120 41t-39 110v9h32q6 -32 38 -43.5t89 -11.5t88.5 11.5t38.5 43.5h32v-9q0 -69 -39 -110t-120 -41z" />
<glyph unicode="&#x12e;" horiz-adv-x="241" d="M188 -86v-83q-32 -32 -82 -32q-41 0 -69 25.5t-28 66.5q0 52 44 109v500h135v-500h-70q-21 -25 -21 -53q0 -25 13.5 -35.5t32.5 -10.5q28 0 45 13zM43 635q0 32 23 54.5t55 22.5q31 0 54 -23t23 -54q0 -32 -22.5 -55t-54.5 -23t-55 23t-23 55z" />
<glyph unicode="&#x12f;" horiz-adv-x="241" d="M188 -96v-53q-11 -24 -34.5 -38t-50.5 -14q-39 0 -66.5 25.5t-27.5 66.5q0 52 44 109v500h135v-500h-90q-21 -31 -21 -63q0 -30 17.5 -44t40.5 -14q32 0 53 25zM43 635q0 32 23 54.5t55 22.5q31 0 54 -23t23 -54q0 -32 -22.5 -55t-54.5 -23t-55 23t-23 55z" />
<glyph unicode="&#x130;" horiz-adv-x="241" d="M188 0h-135v500h135v-500zM49 628q0 30 20.5 51t50.5 21t51 -21t21 -51t-21 -50.5t-51 -20.5t-50.5 20.5t-20.5 50.5z" />
<glyph unicode="&#x131;" horiz-adv-x="241" d="M188 0h-135v500h135v-500z" />
<glyph unicode="&#x134;" horiz-adv-x="241" d="M53 -12v512h135v-504q0 -97 -41 -147t-106 -50q-27 0 -51 11v114q8 -5 20 -5q43 0 43 69zM121 717q27 0 43 -10.5t33 -32.5l98 -127h-115l-59 75l-59 -75h-115l98 127q17 22 33 32.5t43 10.5z" />
<glyph unicode="&#x135;" horiz-adv-x="241" d="M188 0h-135v500h135v-500zM53 0h135v-4q0 -92 -42 -144.5t-107 -52.5q-39 0 -62.5 20.5t-23.5 50.5q0 26 18 44.5t46 18.5q33 0 47 -22q-5 -15 2.5 -28.5t26.5 -13.5q17 0 28 12t11 35q0 27 -22 51.5t-57 32.5zM-53 547l98 127q17 22 33 32.5t43 10.5t43 -10.5t33 -32.5 l98 -127h-55l-119 68l-119 -68h-55z" />
<glyph unicode="&#x136;" horiz-adv-x="572" d="M188 0h-135v700h135v-408l203 208h183l-246 -243l254 -257h-186l-208 217v-217zM216 -101q0 26 19.5 44t49.5 18q29 0 50 -18.5t21 -56.5q0 -59 -48 -108.5t-92 -62.5v29q29 38 29 70q0 15 -14 41q-15 25 -15 44z" />
<glyph unicode="&#x137;" horiz-adv-x="572" d="M188 0h-135v700h135v-408l203 208h183l-246 -243l254 -257h-186l-208 217v-217zM216 -101q0 26 19.5 44t49.5 18q29 0 50 -18.5t21 -56.5q0 -59 -48 -108.5t-92 -62.5v29q29 38 29 70q0 15 -14 41q-15 25 -15 44z" />
<glyph unicode="&#x138;" horiz-adv-x="572" d="M188 0h-135v500h135v-208l203 208h183l-246 -243l254 -257h-186l-208 217v-217z" />
<glyph unicode="&#x139;" horiz-adv-x="241" d="M188 0h-135v700h135v-700zM243 845l-99 -114h-82l57 114h124z" />
<glyph unicode="&#x13a;" horiz-adv-x="241" d="M188 0h-135v700h135v-700zM72 728l25 60q1 2 4.5 11.5t6 14t8 13t11 12.5t15.5 7.5t22 3.5q24 0 39.5 -12.5t15.5 -30.5q0 -25 -32 -43l-64 -36h-51z" />
<glyph unicode="&#x13b;" horiz-adv-x="241" d="M188 0h-135v700h135v-700zM50 -101q0 26 19.5 44t49.5 18q29 0 50 -18.5t21 -56.5q0 -59 -48 -108.5t-92 -62.5v29q29 38 29 70q0 15 -14 41q-15 25 -15 44z" />
<glyph unicode="&#x13c;" horiz-adv-x="241" d="M188 0h-135v700h135v-700zM50 -101q0 26 19.5 44t49.5 18q29 0 50 -18.5t21 -56.5q0 -59 -48 -108.5t-92 -62.5v29q29 38 29 70q0 15 -14 41q-15 25 -15 44z" />
<glyph unicode="&#x13d;" horiz-adv-x="365" d="M188 0h-135v700h135v-700zM238 642q0 29 20 49.5t50 20.5t51 -21.5t21 -65.5q0 -68 -48.5 -125t-93.5 -72v34q30 44 30 82q0 21 -15 46q-15 27 -15 52z" />
<glyph unicode="&#x13e;" horiz-adv-x="365" d="M188 0h-135v700h135v-700zM238 642q0 29 20 49.5t50 20.5t51 -21.5t21 -65.5q0 -68 -48.5 -125t-93.5 -72v34q30 44 30 82q0 21 -15 46q-15 27 -15 52z" />
<glyph unicode="&#x13f;" horiz-adv-x="461" d="M188 0h-135v700h135v-700zM263 250q0 37 25 62t62 25q36 0 61.5 -25t25.5 -62q0 -36 -25.5 -61.5t-61.5 -25.5q-37 0 -62 25.5t-25 61.5z" />
<glyph unicode="&#x140;" horiz-adv-x="461" d="M188 0h-135v700h135v-700zM263 250q0 37 25 62t62 25q36 0 61.5 -25t25.5 -62q0 -36 -25.5 -61.5t-61.5 -25.5q-37 0 -62 25.5t-25 61.5z" />
<glyph unicode="&#x141;" horiz-adv-x="297" d="M208 0h-135v308l-53 -23v109l53 23v283h135v-222l74 33v-109l-74 -33v-369z" />
<glyph unicode="&#x142;" horiz-adv-x="297" d="M208 0h-135v360l-53 -23v57l53 23v283h135v-222l74 33v-57l-74 -33v-421z" />
<glyph unicode="&#x143;" horiz-adv-x="568" d="M515 0h-135v378h-192v-378h-135v500h462v-500zM449 712l-123 -165h-102l71 165h154z" />
<glyph unicode="&#x144;" horiz-adv-x="568" d="M515 0h-135v378h-192v-378h-135v500h462v-500zM237 547l31 87l5.5 16.5t7 20t9.5 18.5t14.5 18t20 11t27.5 5q29 0 48.5 -18t19.5 -43q0 -37 -40 -63l-79 -52h-64z" />
<glyph unicode="&#x145;" horiz-adv-x="568" d="M515 0h-135v378h-192v-378h-135v500h462v-500zM214 -101q0 26 19.5 44t49.5 18q29 0 50 -18.5t21 -56.5q0 -59 -48 -108.5t-92 -62.5v29q29 38 29 70q0 15 -14 41q-15 25 -15 44z" />
<glyph unicode="&#x146;" horiz-adv-x="568" d="M515 0h-135v378h-192v-378h-135v500h462v-500zM214 -101q0 26 19.5 44t49.5 18q29 0 50 -18.5t21 -56.5q0 -59 -48 -108.5t-92 -62.5v29q29 38 29 70q0 15 -14 41q-15 25 -15 44z" />
<glyph unicode="&#x147;" horiz-adv-x="568" d="M515 0h-135v378h-192v-378h-135v500h462v-500zM284 542q-27 0 -43 10.5t-33 32.5l-98 127h115l59 -75l59 75h115l-98 -127q-17 -22 -33 -32.5t-43 -10.5z" />
<glyph unicode="&#x148;" horiz-adv-x="568" d="M515 0h-135v378h-192v-378h-135v500h462v-500zM208 585l-98 127h55l119 -68l119 68h55l-98 -127q-17 -22 -33 -32.5t-43 -10.5t-43 10.5t-33 32.5z" />
<glyph unicode="&#x14a;" horiz-adv-x="568" d="M380 -12v390h-192v-378h-135v500h462v-504q0 -97 -41 -147t-106 -50q-27 0 -51 11v114q8 -5 20 -5q43 0 43 69z" />
<glyph unicode="&#x14b;" horiz-adv-x="568" d="M380 0v378h-192v-378h-135v500h462v-504q0 -92 -42 -144.5t-107 -52.5q-39 0 -62.5 20.5t-23.5 50.5q0 26 18 44.5t46 18.5q33 0 47 -22q-5 -15 2.5 -28.5t26.5 -13.5q17 0 28 12t11 35q0 27 -22 51.5t-57 32.5z" />
<glyph unicode="&#x14c;" horiz-adv-x="592" d="M566 250q0 -109 -76.5 -185t-192.5 -76t-193.5 76t-77.5 185t77.5 185t193.5 76t192.5 -76t76.5 -185zM425 250q0 55 -37.5 93.5t-90.5 38.5q-54 0 -91.5 -38.5t-37.5 -93.5q0 -54 37.5 -92.5t91.5 -38.5q53 0 90.5 38.5t37.5 92.5zM444 581h-297v94h297v-94z" />
<glyph unicode="&#x14d;" horiz-adv-x="592" d="M566 250q0 -109 -76.5 -185t-192.5 -76t-193.5 76t-77.5 185t77.5 185t193.5 76t192.5 -76t76.5 -185zM425 250q0 55 -37.5 93.5t-90.5 38.5q-54 0 -91.5 -38.5t-37.5 -93.5q0 -54 37.5 -92.5t91.5 -38.5q53 0 90.5 38.5t37.5 92.5zM444 596h-297v64h297v-64z" />
<glyph unicode="&#x14e;" horiz-adv-x="592" d="M566 250q0 -109 -76.5 -185t-192.5 -76t-193.5 76t-77.5 185t77.5 185t193.5 76t192.5 -76t76.5 -185zM425 250q0 55 -37.5 93.5t-90.5 38.5q-54 0 -91.5 -38.5t-37.5 -93.5q0 -54 37.5 -92.5t91.5 -38.5q53 0 90.5 38.5t37.5 92.5zM296 550q-85 0 -124.5 41.5 t-39.5 111.5v9h82q0 -66 82 -66t82 66h82v-9q0 -70 -39.5 -111.5t-124.5 -41.5z" />
<glyph unicode="&#x14f;" horiz-adv-x="592" d="M566 250q0 -109 -76.5 -185t-192.5 -76t-193.5 76t-77.5 185t77.5 185t193.5 76t192.5 -76t76.5 -185zM425 250q0 55 -37.5 93.5t-90.5 38.5q-54 0 -91.5 -38.5t-37.5 -93.5q0 -54 37.5 -92.5t91.5 -38.5q53 0 90.5 38.5t37.5 92.5zM296 552q-81 0 -120 41t-39 110v9h32 q6 -32 38 -43.5t89 -11.5t88.5 11.5t38.5 43.5h32v-9q0 -69 -39 -110t-120 -41z" />
<glyph unicode="&#x150;" horiz-adv-x="592" d="M566 250q0 -109 -76.5 -185t-192.5 -76t-193.5 76t-77.5 185t77.5 185t193.5 76t192.5 -76t76.5 -185zM425 250q0 55 -37.5 93.5t-90.5 38.5q-54 0 -91.5 -38.5t-37.5 -93.5q0 -54 37.5 -92.5t91.5 -38.5q53 0 90.5 38.5t37.5 92.5zM549 712l-123 -165h-107l86 165h144z M341 712l-86 -165h-102l54 165h134z" />
<glyph unicode="&#x151;" horiz-adv-x="592" d="M566 250q0 -109 -76.5 -185t-192.5 -76t-193.5 76t-77.5 185t77.5 185t193.5 76t192.5 -76t76.5 -185zM425 250q0 55 -37.5 93.5t-90.5 38.5q-54 0 -91.5 -38.5t-37.5 -93.5q0 -54 37.5 -92.5t91.5 -38.5q53 0 90.5 38.5t37.5 92.5zM164 547l31 87l5.5 16.5t7 20 t9.5 18.5t14.5 18t20 11t27.5 5q29 0 48.5 -18t19.5 -43q0 -37 -40 -63l-79 -52h-64zM341 547l31 87l5.5 16.5t7 20t9.5 18.5t14.5 18t20 11t27.5 5q29 0 48.5 -18t19.5 -43q0 -37 -40 -63l-79 -52h-64z" />
<glyph unicode="&#x152;" horiz-adv-x="933" d="M698 221q-80 0 -132 16q2 -58 41.5 -89.5t108.5 -31.5q101 0 177 78v-147q-76 -58 -191 -58q-136 0 -210 80q-77 -80 -195 -80q-116 0 -193.5 76t-77.5 185t77.5 185t193.5 76q119 0 196 -82q76 82 202 82q93 0 146.5 -44t53.5 -109q0 -37 -18 -67.5t-47 -45.5 q-45 -24 -132 -24zM425 250q0 55 -37.5 93.5t-90.5 38.5q-54 0 -91.5 -38.5t-37.5 -93.5q0 -54 37.5 -92.5t91.5 -38.5q53 0 90.5 38.5t37.5 92.5zM666 316q45 0 66.5 8t21.5 30q0 40 -65 40q-82 0 -110 -70q34 -8 87 -8z" />
<glyph unicode="&#x153;" horiz-adv-x="933" d="M698 221q-80 0 -132 16q2 -58 41.5 -89.5t108.5 -31.5q101 0 177 78v-147q-76 -58 -191 -58q-136 0 -210 80q-77 -80 -195 -80q-116 0 -193.5 76t-77.5 185t77.5 185t193.5 76q119 0 196 -82q76 82 202 82q93 0 146.5 -44t53.5 -109q0 -37 -18 -67.5t-47 -45.5 q-45 -24 -132 -24zM425 250q0 55 -37.5 93.5t-90.5 38.5q-54 0 -91.5 -38.5t-37.5 -93.5q0 -54 37.5 -92.5t91.5 -38.5q53 0 90.5 38.5t37.5 92.5zM666 316q45 0 66.5 8t21.5 30q0 40 -65 40q-82 0 -110 -70q34 -8 87 -8z" />
<glyph unicode="&#x154;" horiz-adv-x="348" d="M328 378h-140v-378h-135v500h275v-122zM336 712l-123 -165h-102l71 165h154z" />
<glyph unicode="&#x155;" horiz-adv-x="348" d="M328 378h-140v-378h-135v500h275v-122zM124 547l31 87l5.5 16.5t7 20t9.5 18.5t14.5 18t20 11t27.5 5q29 0 48.5 -18t19.5 -43q0 -37 -40 -63l-79 -52h-64z" />
<glyph unicode="&#x156;" horiz-adv-x="348" d="M328 378h-140v-378h-135v500h275v-122zM48 -101q0 26 19.5 44t49.5 18q29 0 50 -18.5t21 -56.5q0 -59 -48 -108.5t-92 -62.5v29q29 38 29 70q0 15 -14 41q-15 25 -15 44z" />
<glyph unicode="&#x157;" horiz-adv-x="348" d="M328 378h-140v-378h-135v500h275v-122zM48 -101q0 26 19.5 44t49.5 18q29 0 50 -18.5t21 -56.5q0 -59 -48 -108.5t-92 -62.5v29q29 38 29 70q0 15 -14 41q-15 25 -15 44z" />
<glyph unicode="&#x158;" horiz-adv-x="348" d="M328 378h-140v-378h-135v500h275v-122zM188 542q-27 0 -43 10.5t-33 32.5l-98 127h115l59 -75l59 75h115l-98 -127q-17 -22 -33 -32.5t-43 -10.5z" />
<glyph unicode="&#x159;" horiz-adv-x="348" d="M328 378h-140v-378h-135v500h275v-122zM112 585l-98 127h55l119 -68l119 68h55l-98 -127q-17 -22 -33 -32.5t-43 -10.5t-43 10.5t-33 32.5z" />
<glyph unicode="&#x15a;" horiz-adv-x="455" d="M226 -11q-111 0 -187 58v143q77 -79 180 -79q63 0 63 37q0 13 -9.5 22.5t-21.5 14t-38 11.5q-36 10 -63 21.5t-55 31t-43 48t-15 65.5q0 66 47 107.5t124 41.5q29 0 75.5 -9.5t73.5 -9.5q24 0 44 5v-129q-11 -2 -33 -2q-36 0 -88 15t-68 15q-37 0 -37 -27q0 -10 10 -18.5 t20.5 -13t31.5 -11.5q37 -13 56.5 -20t48.5 -22.5t43.5 -31.5t25.5 -42t11 -58q0 -79 -55 -121t-141 -42zM386 712l-123 -165h-102l71 165h154z" />
<glyph unicode="&#x15b;" horiz-adv-x="455" d="M226 -11q-111 0 -187 58v143q77 -79 180 -79q63 0 63 37q0 13 -9.5 22.5t-21.5 14t-38 11.5q-36 10 -63 21.5t-55 31t-43 48t-15 65.5q0 66 47 107.5t124 41.5q29 0 75.5 -9.5t73.5 -9.5q24 0 44 5v-129q-11 -2 -33 -2q-36 0 -88 15t-68 15q-37 0 -37 -27q0 -10 10 -18.5 t20.5 -13t31.5 -11.5q37 -13 56.5 -20t48.5 -22.5t43.5 -31.5t25.5 -42t11 -58q0 -79 -55 -121t-141 -42zM174 547l31 87l5.5 16.5t7 20t9.5 18.5t14.5 18t20 11t27.5 5q29 0 48.5 -18t19.5 -43q0 -37 -40 -63l-79 -52h-64z" />
<glyph unicode="&#x15c;" horiz-adv-x="455" d="M226 -11q-111 0 -187 58v143q77 -79 180 -79q63 0 63 37q0 13 -9.5 22.5t-21.5 14t-38 11.5q-36 10 -63 21.5t-55 31t-43 48t-15 65.5q0 66 47 107.5t124 41.5q29 0 75.5 -9.5t73.5 -9.5q24 0 44 5v-129q-11 -2 -33 -2q-36 0 -88 15t-68 15q-37 0 -37 -27q0 -10 10 -18.5 t20.5 -13t31.5 -11.5q37 -13 56.5 -20t48.5 -22.5t43.5 -31.5t25.5 -42t11 -58q0 -79 -55 -121t-141 -42zM225 717q27 0 43 -10.5t33 -32.5l98 -127h-115l-59 75l-59 -75h-115l98 127q17 22 33 32.5t43 10.5z" />
<glyph unicode="&#x15d;" horiz-adv-x="455" d="M226 -11q-111 0 -187 58v143q77 -79 180 -79q63 0 63 37q0 13 -9.5 22.5t-21.5 14t-38 11.5q-36 10 -63 21.5t-55 31t-43 48t-15 65.5q0 66 47 107.5t124 41.5q29 0 75.5 -9.5t73.5 -9.5q24 0 44 5v-129q-11 -2 -33 -2q-36 0 -88 15t-68 15q-37 0 -37 -27q0 -10 10 -18.5 t20.5 -13t31.5 -11.5q37 -13 56.5 -20t48.5 -22.5t43.5 -31.5t25.5 -42t11 -58q0 -79 -55 -121t-141 -42zM51 547l98 127q17 22 33 32.5t43 10.5t43 -10.5t33 -32.5l98 -127h-55l-119 68l-119 -68h-55z" />
<glyph unicode="&#x15e;" horiz-adv-x="455" d="M226 -11q-111 0 -187 58v143q77 -79 180 -79q63 0 63 37q0 13 -9.5 22.5t-21.5 14t-38 11.5q-36 10 -63 21.5t-55 31t-43 48t-15 65.5q0 66 47 107.5t124 41.5q29 0 75.5 -9.5t73.5 -9.5q24 0 44 5v-129q-11 -2 -33 -2q-36 0 -88 15t-68 15q-37 0 -37 -27q0 -10 10 -18.5 t20.5 -13t31.5 -11.5q37 -13 56.5 -20t48.5 -22.5t43.5 -31.5t25.5 -42t11 -58q0 -79 -55 -121t-141 -42zM110 -223v66q28 -19 69 -19q30 0 49 12.5t19 30.5q-16 -9 -37 -9q-26 0 -42.5 16t-16.5 39t18 40t53 17q43 0 73.5 -25.5t30.5 -74.5q0 -53 -36.5 -84t-92.5 -31 q-46 0 -87 22z" />
<glyph unicode="&#x15f;" horiz-adv-x="455" d="M226 -11q-111 0 -187 58v143q77 -79 180 -79q63 0 63 37q0 13 -9.5 22.5t-21.5 14t-38 11.5q-36 10 -63 21.5t-55 31t-43 48t-15 65.5q0 66 47 107.5t124 41.5q29 0 75.5 -9.5t73.5 -9.5q24 0 44 5v-129q-11 -2 -33 -2q-36 0 -88 15t-68 15q-37 0 -37 -27q0 -10 10 -18.5 t20.5 -13t31.5 -11.5q37 -13 56.5 -20t48.5 -22.5t43.5 -31.5t25.5 -42t11 -58q0 -79 -55 -121t-141 -42zM110 -213v42q38 -19 75 -19q34 0 55.5 19.5t15.5 50.5q-13 -17 -41 -17t-46 16.5t-18 37.5q0 22 18 37.5t52 15.5q43 0 74 -25t31 -70q0 -48 -36.5 -79t-92.5 -31 q-46 0 -87 22z" />
<glyph unicode="&#x160;" horiz-adv-x="455" d="M226 -11q-111 0 -187 58v143q77 -79 180 -79q63 0 63 37q0 13 -9.5 22.5t-21.5 14t-38 11.5q-36 10 -63 21.5t-55 31t-43 48t-15 65.5q0 66 47 107.5t124 41.5q29 0 75.5 -9.5t73.5 -9.5q24 0 44 5v-129q-11 -2 -33 -2q-36 0 -88 15t-68 15q-37 0 -37 -27q0 -10 10 -18.5 t20.5 -13t31.5 -11.5q37 -13 56.5 -20t48.5 -22.5t43.5 -31.5t25.5 -42t11 -58q0 -79 -55 -121t-141 -42zM225 542q-27 0 -43 10.5t-33 32.5l-98 127h115l59 -75l59 75h115l-98 -127q-17 -22 -33 -32.5t-43 -10.5z" />
<glyph unicode="&#x161;" horiz-adv-x="455" d="M226 -11q-111 0 -187 58v143q77 -79 180 -79q63 0 63 37q0 13 -9.5 22.5t-21.5 14t-38 11.5q-36 10 -63 21.5t-55 31t-43 48t-15 65.5q0 66 47 107.5t124 41.5q29 0 75.5 -9.5t73.5 -9.5q24 0 44 5v-129q-11 -2 -33 -2q-36 0 -88 15t-68 15q-37 0 -37 -27q0 -10 10 -18.5 t20.5 -13t31.5 -11.5q37 -13 56.5 -20t48.5 -22.5t43.5 -31.5t25.5 -42t11 -58q0 -79 -55 -121t-141 -42zM149 585l-98 127h55l119 -68l119 68h55l-98 -127q-17 -22 -33 -32.5t-43 -10.5t-43 10.5t-33 32.5z" />
<glyph unicode="&#x162;" horiz-adv-x="386" d="M20 378v122h68v150h135v-150h129v-122h-129v-213q0 -46 45 -46q50 0 85 37v-129q-48 -35 -121 -35q-62 0 -103 32t-41 104v250h-68zM133 -101q0 26 19.5 44t49.5 18q29 0 50 -18.5t21 -56.5q0 -59 -48 -108.5t-92 -62.5v29q29 38 29 70q0 15 -14 41q-15 25 -15 44z" />
<glyph unicode="&#x163;" horiz-adv-x="386" d="M20 378v122h21q68 0 104.5 38t55.5 112h22v-150h129v-122h-129v-213q0 -46 45 -46q50 0 85 37v-129q-48 -35 -121 -35q-62 0 -103 32t-41 104v250h-68zM133 -101q0 26 19.5 44t49.5 18q29 0 50 -18.5t21 -56.5q0 -59 -48 -108.5t-92 -62.5v29q29 38 29 70q0 15 -14 41 q-15 25 -15 44z" />
<glyph unicode="&#x164;" horiz-adv-x="386" d="M20 378v122h68v150h135v-150h129v-122h-129v-213q0 -46 45 -46q50 0 85 37v-129q-48 -35 -121 -35q-62 0 -103 32t-41 104v250h-68zM286 711q0 23 17.5 39t43.5 16q25 0 43.5 -16.5t18.5 -49.5q0 -52 -42 -95t-81 -56v26q26 33 26 61q0 13 -13 36q-13 22 -13 39z" />
<glyph unicode="&#x165;" horiz-adv-x="386" d="M20 378v122h21q68 0 104.5 38t55.5 112h22v-150h129v-122h-129v-213q0 -46 45 -46q50 0 85 37v-129q-48 -35 -121 -35q-62 0 -103 32t-41 104v250h-68zM286 711q0 23 17.5 39t43.5 16q25 0 43.5 -16.5t18.5 -49.5q0 -52 -42 -95t-81 -56v26q26 33 26 61q0 13 -13 36 q-13 22 -13 39z" />
<glyph unicode="&#x166;" horiz-adv-x="401" d="M327 226h-94v-61q0 -46 45 -46q50 0 85 37v-129q-48 -35 -121 -35q-62 0 -103 32t-41 104v98h-68v84h68v68h-68v122h68v150h135v-150h129v-122h-129v-68h94v-84z" />
<glyph unicode="&#x167;" horiz-adv-x="401" d="M327 236h-94v-71q0 -46 45 -46q50 0 85 37v-129q-48 -35 -121 -35q-62 0 -103 32t-41 104v108h-68v64h68v78h-68v122h21q68 0 104.5 38t55.5 112h22v-150h129v-122h-129v-78h94v-64z" />
<glyph unicode="&#x168;" horiz-adv-x="556" d="M508 500v-290q0 -95 -65.5 -158t-164.5 -63t-164.5 63t-65.5 158v290h135v-280q0 -44 27 -72.5t68 -28.5t68 28.5t27 72.5v280h135zM178 556h-90q0 66 34.5 113t95.5 47q42 0 81 -32q22 -19 40 -19q38 0 40 47h90q0 -66 -34.5 -113t-95.5 -47q-42 0 -81 32q-22 19 -40 19 q-38 0 -40 -47z" />
<glyph unicode="&#x169;" horiz-adv-x="556" d="M508 500v-290q0 -95 -65.5 -158t-164.5 -63t-164.5 63t-65.5 158v290h135v-280q0 -44 27 -72.5t68 -28.5t68 28.5t27 72.5v280h135zM124 556h-36q0 68 27 114t92 46q38 0 92 -33q37 -23 66 -23q56 0 68 52h36q0 -68 -27 -114t-92 -46q-38 0 -92 33q-37 23 -66 23 q-56 0 -68 -52z" />
<glyph unicode="&#x16a;" horiz-adv-x="556" d="M508 500v-290q0 -95 -65.5 -158t-164.5 -63t-164.5 63t-65.5 158v290h135v-280q0 -44 27 -72.5t68 -28.5t68 28.5t27 72.5v280h135zM427 581h-297v94h297v-94z" />
<glyph unicode="&#x16b;" horiz-adv-x="556" d="M508 500v-290q0 -95 -65.5 -158t-164.5 -63t-164.5 63t-65.5 158v290h135v-280q0 -44 27 -72.5t68 -28.5t68 28.5t27 72.5v280h135zM427 596h-297v64h297v-64z" />
<glyph unicode="&#x16c;" horiz-adv-x="556" d="M508 500v-290q0 -95 -65.5 -158t-164.5 -63t-164.5 63t-65.5 158v290h135v-280q0 -44 27 -72.5t68 -28.5t68 28.5t27 72.5v280h135zM278 550q-85 0 -124.5 41.5t-39.5 111.5v9h82q0 -66 82 -66t82 66h82v-9q0 -70 -39.5 -111.5t-124.5 -41.5z" />
<glyph unicode="&#x16d;" horiz-adv-x="556" d="M508 500v-290q0 -95 -65.5 -158t-164.5 -63t-164.5 63t-65.5 158v290h135v-280q0 -44 27 -72.5t68 -28.5t68 28.5t27 72.5v280h135zM278 552q-81 0 -120 41t-39 110v9h32q6 -32 38 -43.5t89 -11.5t88.5 11.5t38.5 43.5h32v-9q0 -69 -39 -110t-120 -41z" />
<glyph unicode="&#x16e;" horiz-adv-x="556" d="M508 500v-290q0 -95 -65.5 -158t-164.5 -63t-164.5 63t-65.5 158v290h135v-280q0 -44 27 -72.5t68 -28.5t68 28.5t27 72.5v280h135zM178 627q0 41 29.5 70.5t70.5 29.5t70.5 -29.5t29.5 -70.5t-29.5 -70.5t-70.5 -29.5t-70.5 29.5t-29.5 70.5zM238 627q0 -17 12 -28.5 t28 -11.5t28 11.5t12 28.5t-12 28.5t-28 11.5t-28 -11.5t-12 -28.5z" />
<glyph unicode="&#x16f;" horiz-adv-x="556" d="M508 500v-290q0 -95 -65.5 -158t-164.5 -63t-164.5 63t-65.5 158v290h135v-280q0 -44 27 -72.5t68 -28.5t68 28.5t27 72.5v280h135zM178 627q0 41 29.5 70.5t70.5 29.5t70.5 -29.5t29.5 -70.5t-29.5 -70.5t-70.5 -29.5t-70.5 29.5t-29.5 70.5zM238 627q0 -17 12 -28.5 t28 -11.5t28 11.5t12 28.5t-12 28.5t-28 11.5t-28 -11.5t-12 -28.5z" />
<glyph unicode="&#x170;" horiz-adv-x="556" d="M508 500v-290q0 -95 -65.5 -158t-164.5 -63t-164.5 63t-65.5 158v290h135v-280q0 -44 27 -72.5t68 -28.5t68 28.5t27 72.5v280h135zM523 712l-123 -165h-107l86 165h144zM315 712l-86 -165h-102l54 165h134z" />
<glyph unicode="&#x171;" horiz-adv-x="556" d="M508 500v-290q0 -95 -65.5 -158t-164.5 -63t-164.5 63t-65.5 158v290h135v-280q0 -44 27 -72.5t68 -28.5t68 28.5t27 72.5v280h135zM142 547l31 87l5.5 16.5t7 20t9.5 18.5t14.5 18t20 11t27.5 5q29 0 48.5 -18t19.5 -43q0 -37 -40 -63l-79 -52h-64zM319 547l31 87 l5.5 16.5t7 20t9.5 18.5t14.5 18t20 11t27.5 5q29 0 48.5 -18t19.5 -43q0 -37 -40 -63l-79 -52h-64z" />
<glyph unicode="&#x172;" horiz-adv-x="556" d="M508 500v-290q0 -60 -28 -109.5t-77 -78.5q-24 -35 -24 -73q0 -48 46 -48q28 0 45 13v-83q-32 -32 -82 -32q-41 0 -69 25.5t-28 67.5q0 44 30 101q-19 -4 -43 -4q-99 0 -164.5 63t-65.5 158v290h135v-280q0 -44 27 -72.5t68 -28.5t68 28.5t27 72.5v280h135z" />
<glyph unicode="&#x173;" horiz-adv-x="556" d="M508 500v-290q0 -66 -33.5 -118.5t-90.5 -79.5q-25 -38 -25 -74q0 -31 17.5 -45t40.5 -14q32 0 53 25v-53q-11 -24 -34.5 -38t-51.5 -14q-38 0 -65.5 26t-27.5 67q0 49 34 102q-25 -5 -47 -5q-99 0 -164.5 63t-65.5 158v290h135v-280q0 -44 27 -72.5t68 -28.5t68 28.5 t27 72.5v280h135z" />
<glyph unicode="&#x174;" horiz-adv-x="780" d="M498 -11l-108 210l-108 -210h-28l-262 511h150l130 -261l29 56q12 23 12 39q0 10 -7 32.5t-7 41.5q0 43 25 69t66 26q40 0 65.5 -26.5t25.5 -67.5q0 -18 -6.5 -41.5t-6.5 -34.5q0 -17 11 -38l29 -56l130 261h150l-262 -511h-28zM390 717q27 0 43 -10.5t33 -32.5l98 -127 h-115l-59 75l-59 -75h-115l98 127q17 22 33 32.5t43 10.5z" />
<glyph unicode="&#x175;" horiz-adv-x="780" d="M498 -11l-108 210l-108 -210h-28l-262 511h150l130 -261l29 56q12 23 12 39q0 10 -7 32.5t-7 41.5q0 43 25 69t66 26q40 0 65.5 -26.5t25.5 -67.5q0 -18 -6.5 -41.5t-6.5 -34.5q0 -17 11 -38l29 -56l130 261h150l-262 -511h-28zM216 547l98 127q17 22 33 32.5t43 10.5 t43 -10.5t33 -32.5l98 -127h-55l-119 68l-119 -68h-55z" />
<glyph unicode="&#x176;" horiz-adv-x="548" d="M558 500l-262 -501q-58 -111 -103.5 -154t-102.5 -43q-37 0 -75 19v123q27 -15 53 -15q28 0 54.5 35.5t79.5 139.5l-206 396h150l131 -253l131 253h150zM277 717q27 0 43 -10.5t33 -32.5l98 -127h-115l-59 75l-59 -75h-115l98 127q17 22 33 32.5t43 10.5z" />
<glyph unicode="&#x177;" horiz-adv-x="548" d="M257 0l-261 500h150l131 -253l131 253h150l-267 -511q-7 -13 -23 -45t-23.5 -46t-23 -36.5t-29.5 -32.5t-35 -18.5t-45 -8.5q-50 0 -73 26.5t-23 58.5q0 30 20.5 51.5t51.5 21.5q30 0 43 -18q-17 -14 -10 -34.5t32 -20.5q48 0 104 113zM103 547l98 127q17 22 33 32.5 t43 10.5t43 -10.5t33 -32.5l98 -127h-55l-119 68l-119 -68h-55z" />
<glyph unicode="&#x178;" horiz-adv-x="548" d="M558 500l-262 -501q-58 -111 -103.5 -154t-102.5 -43q-37 0 -75 19v123q27 -15 53 -15q28 0 54.5 35.5t79.5 139.5l-206 396h150l131 -253l131 253h150zM111 628q0 30 20.5 51t50.5 21t51 -21t21 -51t-21 -50.5t-51 -20.5t-50.5 20.5t-20.5 50.5zM300 628q0 30 20.5 51 t50.5 21t51 -21t21 -51t-21 -50.5t-51 -20.5t-50.5 20.5t-20.5 50.5z" />
<glyph unicode="&#x179;" horiz-adv-x="500" d="M490 500l-250 -378h240v-122h-480l249 378h-224v122h465zM390 712l-123 -165h-102l71 165h154z" />
<glyph unicode="&#x17a;" horiz-adv-x="500" d="M490 500l-250 -378h240v-122h-480l249 378h-224v122h465zM178 547l31 87l5.5 16.5t7 20t9.5 18.5t14.5 18t20 11t27.5 5q29 0 48.5 -18t19.5 -43q0 -37 -40 -63l-79 -52h-64z" />
<glyph unicode="&#x17b;" horiz-adv-x="500" d="M490 500l-250 -378h240v-122h-480l249 378h-224v122h465zM170 628q0 30 20.5 51t50.5 21t51 -21t21 -51t-21 -50.5t-51 -20.5t-50.5 20.5t-20.5 50.5z" />
<glyph unicode="&#x17c;" horiz-adv-x="500" d="M490 500l-250 -378h240v-122h-480l249 378h-224v122h465zM170 628q0 30 20.5 51t50.5 21t51 -21t21 -51t-21 -50.5t-51 -20.5t-50.5 20.5t-20.5 50.5z" />
<glyph unicode="&#x17d;" horiz-adv-x="500" d="M490 500l-250 -378h240v-122h-480l249 378h-224v122h465zM250 542q-27 0 -43 10.5t-33 32.5l-98 127h115l59 -75l59 75h115l-98 -127q-17 -22 -33 -32.5t-43 -10.5z" />
<glyph unicode="&#x17e;" horiz-adv-x="500" d="M490 500l-250 -378h240v-122h-480l249 378h-224v122h465zM174 585l-98 127h55l119 -68l119 68h55l-98 -127q-17 -22 -33 -32.5t-43 -10.5t-43 10.5t-33 32.5z" />
<glyph unicode="&#x192;" horiz-adv-x="331" d="M88 0v378h-68v122h68v15q0 88 52 142.5t125 54.5q44 0 70 -20.5t26 -53.5q0 -29 -19.5 -50t-55.5 -21q-44 0 -58 24q5 18 -7 33.5t-31 15.5q-18 0 -31 -14t-13 -37q0 -34 29 -61.5t70 -27.5h73v-122h-95v-382q0 -92 -42 -144.5t-107 -52.5q-39 0 -62.5 20.5t-23.5 50.5 q0 26 18 44.5t46 18.5q33 0 47 -22q-5 -15 2.5 -28.5t26.5 -13.5q17 0 28 12t11 35q0 27 -22 51.5t-57 32.5z" />
<glyph unicode="&#x1fa;" horiz-adv-x="548" d="M66 378v122h122q-14 23 -14 51q0 41 29.5 70.5t70.5 29.5t70.5 -29.5t29.5 -70.5q0 -28 -14 -51h135v-500h-135v48q-56 -59 -149 -59q-84 0 -133.5 43.5t-49.5 109.5q0 83 71 124q50 28 127 28q72 0 134 -22v106h-294zM234 551q0 -17 12 -28.5t28 -11.5t28 11.5t12 28.5 t-12 28.5t-28 11.5t-28 -11.5t-12 -28.5zM256 199q-87 0 -87 -48q0 -23 21 -34t50 -11q39 0 71.5 20.5t48.5 54.5v1q-54 17 -104 17zM442 842l-123 -165h-102l71 165h154z" />
<glyph unicode="&#x1fb;" horiz-adv-x="548" d="M66 378v122h122q-14 23 -14 51q0 41 29.5 70.5t70.5 29.5t70.5 -29.5t29.5 -70.5q0 -28 -14 -51h135v-500h-135v48q-56 -59 -149 -59q-84 0 -133.5 43.5t-49.5 109.5q0 83 71 124q50 28 127 28q72 0 134 -22v106h-294zM234 551q0 -17 12 -28.5t28 -11.5t28 11.5t12 28.5 t-12 28.5t-28 11.5t-28 -11.5t-12 -28.5zM256 199q-87 0 -87 -48q0 -23 21 -34t50 -11q39 0 71.5 20.5t48.5 54.5v1q-54 17 -104 17zM230 668l31 87l5.5 16.5t7 20t9.5 18.5t14.5 18t20 11t27.5 5q29 0 48.5 -18t19.5 -43q0 -37 -40 -63l-79 -52h-64z" />
<glyph unicode="&#x1fc;" horiz-adv-x="866" d="M68 378v122h429v-44q58 55 148 55q84 0 133.5 -43.5t49.5 -109.5q0 -83 -71 -124q-50 -28 -127 -28q-73 0 -132 21q5 -53 44.5 -82t104.5 -29q101 0 177 78v-147q-76 -58 -191 -58q-157 0 -228 105q-66 -105 -192 -105q-84 0 -133.5 43.5t-49.5 109.5q0 83 71 124 q50 28 127 28q72 0 134 -22v106h-294zM600 301q87 0 87 48q0 23 -21 34t-50 11q-40 0 -72 -20.5t-48 -55.5q4 -1 18.5 -4.5t24.5 -6t27 -4.5t34 -2zM258 199q-87 0 -87 -48q0 -23 21 -34t50 -11q39 0 71.5 20.5t48.5 54.5v1q-54 17 -104 17zM594 712l-123 -165h-102l71 165 h154z" />
<glyph unicode="&#x1fd;" horiz-adv-x="866" d="M68 378v122h429v-44q58 55 148 55q84 0 133.5 -43.5t49.5 -109.5q0 -83 -71 -124q-50 -28 -127 -28q-73 0 -132 21q5 -53 44.5 -82t104.5 -29q101 0 177 78v-147q-76 -58 -191 -58q-157 0 -228 105q-66 -105 -192 -105q-84 0 -133.5 43.5t-49.5 109.5q0 83 71 124 q50 28 127 28q72 0 134 -22v106h-294zM600 301q87 0 87 48q0 23 -21 34t-50 11q-40 0 -72 -20.5t-48 -55.5q4 -1 18.5 -4.5t24.5 -6t27 -4.5t34 -2zM258 199q-87 0 -87 -48q0 -23 21 -34t50 -11q39 0 71.5 20.5t48.5 54.5v1q-54 17 -104 17zM382 547l31 87l5.5 16.5t7 20 t9.5 18.5t14.5 18t20 11t27.5 5q29 0 48.5 -18t19.5 -43q0 -37 -40 -63l-79 -52h-64z" />
<glyph unicode="&#x1fe;" horiz-adv-x="592" d="M66 44l27 32q-67 73 -67 174q0 109 77.5 185t193.5 76q72 0 133 -33l29 35q13 16 33 16q17 0 31 -13.5t14 -30.5t-11 -29l-27 -32q67 -73 67 -174q0 -109 -76.5 -185t-192.5 -76q-74 0 -135 33l-29 -35q-13 -16 -33 -16q-17 0 -31 13.5t-14 30.5t11 29zM425 250 q0 36 -17 65l-158 -188q24 -8 47 -8q53 0 90.5 38.5t37.5 92.5zM168 250q0 -35 16 -65l158 188q-21 9 -45 9q-54 0 -91.5 -38.5t-37.5 -93.5zM459 712l-123 -165h-102l71 165h154z" />
<glyph unicode="&#x1ff;" horiz-adv-x="592" d="M68 16l38 46q-80 75 -80 188q0 109 77.5 185t193.5 76q83 0 150 -43l40 47q7 9 18 9q10 0 17.5 -7.5t7.5 -16.5q0 -8 -6 -16l-39 -46q81 -76 81 -188q0 -109 -76.5 -185t-192.5 -76q-85 0 -152 43l-40 -47q-7 -9 -18 -9q-10 0 -17.5 7.5t-7.5 16.5q0 8 6 16zM425 250 q0 45 -28 83l-165 -197q29 -17 65 -17q53 0 90.5 38.5t37.5 92.5zM168 250q0 -46 28 -82l165 197q-29 17 -64 17q-54 0 -91.5 -38.5t-37.5 -93.5zM247 547l31 87l5.5 16.5t7 20t9.5 18.5t14.5 18t20 11t27.5 5q29 0 48.5 -18t19.5 -43q0 -37 -40 -63l-79 -52h-64z" />
<glyph unicode="&#x218;" horiz-adv-x="455" d="M226 -11q-111 0 -187 58v143q77 -79 180 -79q63 0 63 37q0 13 -9.5 22.5t-21.5 14t-38 11.5q-36 10 -63 21.5t-55 31t-43 48t-15 65.5q0 66 47 107.5t124 41.5q29 0 75.5 -9.5t73.5 -9.5q24 0 44 5v-129q-11 -2 -33 -2q-36 0 -88 15t-68 15q-37 0 -37 -27q0 -10 10 -18.5 t20.5 -13t31.5 -11.5q37 -13 56.5 -20t48.5 -22.5t43.5 -31.5t25.5 -42t11 -58q0 -79 -55 -121t-141 -42zM154 -101q0 26 19.5 44t49.5 18q29 0 50 -18.5t21 -56.5q0 -59 -48 -108.5t-92 -62.5v29q29 38 29 70q0 15 -14 41q-15 25 -15 44z" />
<glyph unicode="&#x219;" horiz-adv-x="455" d="M226 -11q-111 0 -187 58v143q77 -79 180 -79q63 0 63 37q0 13 -9.5 22.5t-21.5 14t-38 11.5q-36 10 -63 21.5t-55 31t-43 48t-15 65.5q0 66 47 107.5t124 41.5q29 0 75.5 -9.5t73.5 -9.5q24 0 44 5v-129q-11 -2 -33 -2q-36 0 -88 15t-68 15q-37 0 -37 -27q0 -10 10 -18.5 t20.5 -13t31.5 -11.5q37 -13 56.5 -20t48.5 -22.5t43.5 -31.5t25.5 -42t11 -58q0 -79 -55 -121t-141 -42zM154 -101q0 26 19.5 44t49.5 18q29 0 50 -18.5t21 -56.5q0 -59 -48 -108.5t-92 -62.5v29q29 38 29 70q0 15 -14 41q-15 25 -15 44z" />
<glyph unicode="&#x237;" horiz-adv-x="241" d="M188 0h-135v500h135v-500zM53 0h135v-4q0 -92 -42 -144.5t-107 -52.5q-39 0 -62.5 20.5t-23.5 50.5q0 26 18 44.5t46 18.5q33 0 47 -22q-5 -15 2.5 -28.5t26.5 -13.5q17 0 28 12t11 35q0 27 -22 51.5t-57 32.5z" />
<glyph unicode="&#x259;" horiz-adv-x="535" d="M235 279q80 0 132 -16q-2 58 -41.5 89.5t-108.5 31.5q-101 0 -177 -78v147q76 58 191 58q130 0 203.5 -72.5t73.5 -184.5q0 -116 -74.5 -190.5t-195.5 -74.5q-93 0 -146.5 44t-53.5 109q0 37 18 67.5t47 45.5q45 24 132 24zM267 184q-45 0 -66.5 -8t-21.5 -30 q0 -40 65 -40q82 0 110 70q-34 8 -87 8z" />
<glyph unicode="&#x2c6;" horiz-adv-x="374" d="M13 547l98 127q17 22 33 32.5t43 10.5t43 -10.5t33 -32.5l98 -127h-55l-119 68l-119 -68h-55z" />
<glyph unicode="&#x2c7;" horiz-adv-x="374" d="M111 585l-98 127h55l119 -68l119 68h55l-98 -127q-17 -22 -33 -32.5t-43 -10.5t-43 10.5t-33 32.5z" />
<glyph unicode="&#x2d8;" horiz-adv-x="318" d="M159 552q-81 0 -120 41t-39 110v9h32q6 -32 38 -43.5t89 -11.5t88.5 11.5t38.5 43.5h32v-9q0 -69 -39 -110t-120 -41z" />
<glyph unicode="&#x2d9;" horiz-adv-x="143" d="M0 628q0 30 20.5 51t50.5 21t51 -21t21 -51t-21 -50.5t-51 -20.5t-50.5 20.5t-20.5 50.5z" />
<glyph unicode="&#x2da;" horiz-adv-x="288" d="M39 627q0 41 29.5 70.5t70.5 29.5t70.5 -29.5t29.5 -70.5t-29.5 -70.5t-70.5 -29.5t-70.5 29.5t-29.5 70.5zM99 627q0 -17 11.5 -28.5t28.5 -11.5t28.5 11.5t11.5 28.5t-11.5 28.5t-28.5 11.5t-28.5 -11.5t-11.5 -28.5z" />
<glyph unicode="&#x2db;" horiz-adv-x="245" d="M213 -96v-53q-11 -24 -34.5 -38t-50.5 -14q-39 0 -66.5 25.5t-27.5 66.5q0 52 44 109h45q-21 -31 -21 -63q0 -30 17.5 -44t40.5 -14q32 0 53 25z" />
<glyph unicode="&#x2dc;" horiz-adv-x="381" d="M36 556h-36q0 68 27 114t92 46q38 0 92 -33q37 -23 66 -23q56 0 68 52h36q0 -68 -27 -114t-92 -46q-38 0 -92 33q-37 23 -66 23q-56 0 -68 -52z" />
<glyph unicode="&#x2dd;" horiz-adv-x="394" d="M41 547l31 87l5.5 16.5t7 20t9.5 18.5t14.5 18t20 11t27.5 5q29 0 48.5 -18t19.5 -43q0 -37 -40 -63l-79 -52h-64zM218 547l31 87l5.5 16.5t7 20t9.5 18.5t14.5 18t20 11t27.5 5q29 0 48.5 -18t19.5 -43q0 -37 -40 -63l-79 -52h-64z" />
<glyph unicode="&#x1e80;" horiz-adv-x="780" d="M498 -11l-108 210l-108 -210h-28l-262 511h150l130 -261l29 56q12 23 12 39q0 10 -7 32.5t-7 41.5q0 43 25 69t66 26q40 0 65.5 -26.5t25.5 -67.5q0 -18 -6.5 -41.5t-6.5 -34.5q0 -17 11 -38l29 -56l130 261h150l-262 -511h-28zM352 547l-123 165h154l71 -165h-102z" />
<glyph unicode="&#x1e81;" horiz-adv-x="780" d="M498 -11l-108 210l-108 -210h-28l-262 511h150l130 -261l29 56q12 23 12 39q0 10 -7 32.5t-7 41.5q0 43 25 69t66 26q40 0 65.5 -26.5t25.5 -67.5q0 -18 -6.5 -41.5t-6.5 -34.5q0 -17 11 -38l29 -56l130 261h150l-262 -511h-28zM400 634l31 -87h-64l-79 52q-40 26 -40 63 q0 25 19.5 43t48.5 18q15 0 27.5 -5t20 -11t14.5 -18t9.5 -18.5t7 -20z" />
<glyph unicode="&#x1e82;" horiz-adv-x="780" d="M498 -11l-108 210l-108 -210h-28l-262 511h150l130 -261l29 56q12 23 12 39q0 10 -7 32.5t-7 41.5q0 43 25 69t66 26q40 0 65.5 -26.5t25.5 -67.5q0 -18 -6.5 -41.5t-6.5 -34.5q0 -17 11 -38l29 -56l130 261h150l-262 -511h-28zM554 712l-123 -165h-102l71 165h154z" />
<glyph unicode="&#x1e83;" horiz-adv-x="780" d="M498 -11l-108 210l-108 -210h-28l-262 511h150l130 -261l29 56q12 23 12 39q0 10 -7 32.5t-7 41.5q0 43 25 69t66 26q40 0 65.5 -26.5t25.5 -67.5q0 -18 -6.5 -41.5t-6.5 -34.5q0 -17 11 -38l29 -56l130 261h150l-262 -511h-28zM335 547l31 87l5.5 16.5t7 20t9.5 18.5 t14.5 18t20 11t27.5 5q29 0 48.5 -18t19.5 -43q0 -37 -40 -63l-79 -52h-64z" />
<glyph unicode="&#x1e84;" horiz-adv-x="780" d="M498 -11l-108 210l-108 -210h-28l-262 511h150l130 -261l29 56q12 23 12 39q0 10 -7 32.5t-7 41.5q0 43 25 69t66 26q40 0 65.5 -26.5t25.5 -67.5q0 -18 -6.5 -41.5t-6.5 -34.5q0 -17 11 -38l29 -56l130 261h150l-262 -511h-28zM224 628q0 30 20.5 51t50.5 21t51 -21 t21 -51t-21 -50.5t-51 -20.5t-50.5 20.5t-20.5 50.5zM413 628q0 30 20.5 51t50.5 21t51 -21t21 -51t-21 -50.5t-51 -20.5t-50.5 20.5t-20.5 50.5z" />
<glyph unicode="&#x1e85;" horiz-adv-x="780" d="M498 -11l-108 210l-108 -210h-28l-262 511h150l130 -261l29 56q12 23 12 39q0 10 -7 32.5t-7 41.5q0 43 25 69t66 26q40 0 65.5 -26.5t25.5 -67.5q0 -18 -6.5 -41.5t-6.5 -34.5q0 -17 11 -38l29 -56l130 261h150l-262 -511h-28zM224 628q0 30 20.5 51t50.5 21t51 -21 t21 -51t-21 -50.5t-51 -20.5t-50.5 20.5t-20.5 50.5zM413 628q0 30 20.5 51t50.5 21t51 -21t21 -51t-21 -50.5t-51 -20.5t-50.5 20.5t-20.5 50.5z" />
<glyph unicode="&#x1ef2;" horiz-adv-x="548" d="M558 500l-262 -501q-58 -111 -103.5 -154t-102.5 -43q-37 0 -75 19v123q27 -15 53 -15q28 0 54.5 35.5t79.5 139.5l-206 396h150l131 -253l131 253h150zM236 547l-123 165h154l71 -165h-102z" />
<glyph unicode="&#x1ef3;" horiz-adv-x="548" d="M257 0l-261 500h150l131 -253l131 253h150l-267 -511q-7 -13 -23 -45t-23.5 -46t-23 -36.5t-29.5 -32.5t-35 -18.5t-45 -8.5q-50 0 -73 26.5t-23 58.5q0 30 20.5 51.5t51.5 21.5q30 0 43 -18q-17 -14 -10 -34.5t32 -20.5q48 0 104 113zM294 634l31 -87h-64l-79 52 q-40 26 -40 63q0 25 19.5 43t48.5 18q15 0 27.5 -5t20 -11t14.5 -18t9.5 -18.5t7 -20z" />
<glyph unicode="&#x2013;" d="M538 225h-500v50h500v-50z" />
<glyph unicode="&#x2014;" horiz-adv-x="800" d="M762 225h-724v50h724v-50z" />
<glyph unicode="&#x2018;" horiz-adv-x="238" d="M195 489q0 -34 -24 -57.5t-58 -23.5t-58.5 24t-24.5 71q0 73 56 132t109 77v-34q-30 -44 -30 -85q0 -23 15 -53q15 -28 15 -51z" />
<glyph unicode="&#x2019;" horiz-adv-x="238" d="M43 631q0 34 24 57.5t58 23.5t58.5 -24t24.5 -71q0 -73 -56 -132t-109 -77v34q30 44 30 85q0 23 -15 53q-15 28 -15 51z" />
<glyph unicode="&#x201a;" horiz-adv-x="238" d="M43 93q0 34 24 57.5t58 23.5t58.5 -24t24.5 -71q0 -73 -56 -132t-109 -77v34q30 44 30 85q0 23 -15 53q-15 28 -15 51z" />
<glyph unicode="&#x201c;" horiz-adv-x="446" d="M403 489q0 -34 -24 -57.5t-58 -23.5t-58.5 24t-24.5 71q0 73 56 132t109 77v-34q-30 -44 -30 -85q0 -23 15 -53q15 -28 15 -51zM195 489q0 -34 -24 -57.5t-58 -23.5t-58.5 24t-24.5 71q0 73 56 132t109 77v-34q-30 -44 -30 -85q0 -23 15 -53q15 -28 15 -51z" />
<glyph unicode="&#x201d;" horiz-adv-x="446" d="M43 631q0 34 24 57.5t58 23.5t58.5 -24t24.5 -71q0 -73 -56 -132t-109 -77v34q30 44 30 85q0 23 -15 53q-15 28 -15 51zM251 631q0 34 24 57.5t58 23.5t58.5 -24t24.5 -71q0 -73 -56 -132t-109 -77v34q30 44 30 85q0 23 -15 53q-15 28 -15 51z" />
<glyph unicode="&#x201e;" horiz-adv-x="446" d="M43 93q0 34 24 57.5t58 23.5t58.5 -24t24.5 -71q0 -73 -56 -132t-109 -77v34q30 44 30 85q0 23 -15 53q-15 28 -15 51zM251 93q0 34 24 57.5t58 23.5t58.5 -24t24.5 -71q0 -73 -56 -132t-109 -77v34q30 44 30 85q0 23 -15 53q-15 28 -15 51z" />
<glyph unicode="&#x2020;" horiz-adv-x="510" d="M444 406h-159v-599h-77v599h-160v77h160v193h77v-193h159v-77z" />
<glyph unicode="&#x2021;" horiz-adv-x="510" d="M444 0h-159v-193h-77v193h-160v77h160v329h-160v77h160v193h77v-193h159v-77h-159v-329h159v-77z" />
<glyph unicode="&#x2022;" horiz-adv-x="386" d="M344 250q0 -62 -44 -107t-106 -45q-63 0 -107.5 44.5t-44.5 107.5q0 62 44.5 106.5t106.5 44.5q63 0 107 -44t44 -107z" />
<glyph unicode="&#x2025;" horiz-adv-x="506" d="M39 77q0 37 25 62t62 25q36 0 61.5 -25t25.5 -62q0 -36 -25.5 -61.5t-61.5 -25.5q-37 0 -62 25.5t-25 61.5zM292 77q0 37 25 62t62 25q36 0 61.5 -25t25.5 -62q0 -36 -25.5 -61.5t-61.5 -25.5q-37 0 -62 25.5t-25 61.5z" />
<glyph unicode="&#x2026;" horiz-adv-x="759" d="M39 77q0 37 25 62t62 25q36 0 61.5 -25t25.5 -62q0 -36 -25.5 -61.5t-61.5 -25.5q-37 0 -62 25.5t-25 61.5zM292 77q0 37 25 62t62 25q36 0 61.5 -25t25.5 -62q0 -36 -25.5 -61.5t-61.5 -25.5q-37 0 -62 25.5t-25 61.5zM545 77q0 37 25 62t62 25q36 0 61.5 -25t25.5 -62 q0 -36 -25.5 -61.5t-61.5 -25.5q-37 0 -62 25.5t-25 61.5z" />
<glyph unicode="&#x2030;" horiz-adv-x="1058" d="M646 587l-511 -587h-62l510 587h63zM30 436q0 66 46.5 112.5t112.5 46.5t112.5 -46.5t46.5 -112.5t-46.5 -112.5t-112.5 -46.5t-112.5 46.5t-46.5 112.5zM118 436q0 -29 21 -50t50 -21t50 21t21 50t-21 50t-50 21t-50 -21t-21 -50zM371 152q0 66 46.5 112.5t112.5 46.5 t112.5 -46.5t46.5 -112.5t-46.5 -112.5t-112.5 -46.5t-112.5 46.5t-46.5 112.5zM459 152q0 -29 21 -50t50 -21t50 21t21 50t-21 50t-50 21t-50 -21t-21 -50zM710 152q0 66 46.5 112.5t112.5 46.5t112.5 -46.5t46.5 -112.5t-46.5 -112.5t-112.5 -46.5t-112.5 46.5 t-46.5 112.5zM798 152q0 -29 21 -50t50 -21t50 21t21 50t-21 50t-50 21t-50 -21t-21 -50z" />
<glyph unicode="&#x2039;" horiz-adv-x="342" d="M284 -6l-257 257l257 256v-154l-101 -102l101 -101v-156z" />
<glyph unicode="&#x203a;" horiz-adv-x="342" d="M303 251l-257 -257v156l102 101l-102 102v154z" />
<glyph unicode="&#x2044;" horiz-adv-x="311" d="M491 700l-609 -700h-62l608 700h63z" />
<glyph unicode="&#x20ac;" d="M531 555l-56 -112q-43 27 -95 27q-53 0 -95 -25t-63 -70h219l-30 -60h-205q-1 -8 -1 -23q0 -22 2 -32h176l-30 -60h-127q22 -41 60 -63.5t84 -22.5q78 0 160 64v-145q-73 -44 -159 -44q-101 0 -178 57t-102 154h-81v60h71q-1 9 -1 27q0 19 1 28h-71v60h81 q27 100 106.5 160t182.5 60q81 0 151 -40z" />
<glyph unicode="&#x2113;" horiz-adv-x="541" d="M6 355q44 -40 112 -41q4 170 85 283t183 113q50 0 78 -31t28 -85q0 -88 -69.5 -173.5t-170.5 -127.5q1 -254 91 -254q29 0 46.5 22.5t17.5 59.5q0 32 -14 55q26 8 50.5 -11.5t24.5 -58.5q0 -47 -38 -81t-98 -34q-84 0 -144.5 70t-68.5 203h-4q-32 0 -56 7t-37 17.5 t-19.5 23t-5 24t8.5 19.5zM382 664q-56 0 -91 -82t-39 -236q78 39 130.5 108.5t52.5 140.5q0 69 -53 69z" />
<glyph unicode="&#x2116;" horiz-adv-x="1104" d="M143 605q21 0 42 -5t36.5 -10t37 -20.5t33 -23.5t35.5 -32.5t33 -34t37.5 -41t37.5 -41.5l102 -111v298h135v-413q0 -98 35 -146.5t90 -48.5q41 0 63 24t22 64q0 33 -18 58q27 8 53 -13t26 -63q0 -50 -40 -86t-108 -36q-66 0 -119.5 40.5t-158.5 156.5l-172 189v-310 h-135v460q0 47 -19.5 73.5t-56.5 26.5q-34 0 -53.5 -21.5t-19.5 -53.5q0 -33 18 -58q-27 -9 -53 10.5t-26 57.5q0 45 39.5 77.5t103.5 32.5zM832 424q0 -29 21 -50t50 -21t50 21t21 50t-21 50t-50 21t-50 -21t-21 -50zM732 424q0 70 50 120.5t121 50.5t121 -50.5t50 -120.5 t-50 -120.5t-121 -50.5t-121 50.5t-50 120.5z" />
<glyph unicode="&#x2117;" horiz-adv-x="721" d="M681 250q0 -132 -94 -226t-227 -94q-132 0 -226 94t-94 226q0 133 94 227t226 94q133 0 227 -94t94 -227zM535 303q0 -55 -38.5 -97t-115.5 -42q-40 0 -62 7v-105h-95v363h172q64 0 101.5 -36t37.5 -90zM319 340v-91q20 -7 56 -7q28 0 46.5 14t18.5 39q0 45 -58 45h-63z M631 250q0 112 -79.5 191.5t-191.5 79.5t-191 -79.5t-79 -191.5t79 -191t191 -79t191.5 79t79.5 191z" />
<glyph unicode="&#x2122;" horiz-adv-x="754" d="M197 378h-78v249h-81v73h240v-73h-81v-249zM627 566l-107 -188h-4l-107 188v-188h-77v322h77l109 -194l109 194h77v-322h-77v188z" />
<glyph unicode="&#x212e;" horiz-adv-x="614" d="M571 273h-417v-187q63 -61 150 -61q65 0 113 29.5t86 94.5l36 -22q-48 -75 -101.5 -107t-133.5 -32q-119 0 -192.5 81.5t-73.5 203.5t73.5 203.5t192.5 81.5t192.5 -79.5t74.5 -205.5zM154 310h301v150q-67 62 -152 62t-149 -62v-150z" />
<glyph unicode="&#x2202;" horiz-adv-x="575" d="M269 500q-71 104 -107 139t-81 35q-6 0 -18 -2v28q44 10 88 10q57 0 112 -31.5t122 -123.5l119 -162q45 -62 45 -148q0 -107 -74 -181.5t-187 -74.5t-187 74.5t-74 181.5q0 101 66.5 174t175.5 81zM168 245q0 -52 34.5 -88.5t85.5 -36.5q52 0 86 36.5t34 88.5 q0 53 -34 89.5t-86 36.5q-51 0 -85.5 -36.5t-34.5 -89.5z" />
<glyph unicode="&#x2212;" d="M538 225h-500v50h500v-50z" />
<glyph unicode="&#x2264;" d="M120 350l249 250h72l-251 -250l251 -250h-72zM538 0h-500v50h500v-50z" />
<glyph unicode="&#x2265;" d="M207 600l249 -250l-249 -250h-72l251 250l-251 250h72zM538 0h-500v50h500v-50z" />
<glyph unicode="&#x2765;" horiz-adv-x="422" d="M256 251v-2q54 0 92.5 -37.5t38.5 -90.5q0 -54 -38.5 -92.5t-92.5 -38.5t-92 38q-22 22 -62 102q-59 117 -102 117v7q43 0 102 116q40 80 62 102q37 39 92 39q54 0 92.5 -38.5t38.5 -92.5q0 -53 -38.5 -91t-92.5 -38z" />
<glyph unicode="&#xe000;" horiz-adv-x="500" d="M0 500h500v-500h-500v500z" />
<glyph unicode="&#xf6c3;" horiz-adv-x="240" d="M50 -101q0 26 19.5 44t49.5 18q29 0 50 -18.5t21 -56.5q0 -59 -48 -108.5t-92 -62.5v29q29 38 29 70q0 15 -14 41q-15 25 -15 44z" />
<glyph unicode="&#xf6c9;" horiz-adv-x="245" d="M253 712l-123 -165h-102l71 165h154z" />
<glyph unicode="&#xf6ca;" horiz-adv-x="374" d="M187 542q-27 0 -43 10.5t-33 32.5l-98 127h115l59 -75l59 75h115l-98 -127q-17 -22 -33 -32.5t-43 -10.5z" />
<glyph unicode="&#xf6cb;" horiz-adv-x="332" d="M0 628q0 30 20.5 51t50.5 21t51 -21t21 -51t-21 -50.5t-51 -20.5t-50.5 20.5t-20.5 50.5zM189 628q0 30 20.5 51t50.5 21t51 -21t21 -51t-21 -50.5t-51 -20.5t-50.5 20.5t-20.5 50.5z" />
<glyph unicode="&#xf6ce;" horiz-adv-x="245" d="M115 547l-123 165h154l71 -165h-102z" />
<glyph unicode="&#xf6cf;" horiz-adv-x="394" d="M433 712l-123 -165h-107l86 165h144zM225 712l-86 -165h-102l54 165h134z" />
<glyph unicode="&#xf6d0;" horiz-adv-x="378" d="M340 581h-297v94h297v-94z" />
<glyph unicode="&#xfb06;" horiz-adv-x="821" d="M462 712q96 0 143.5 -50.5t47.5 -118.5v-43h129v-122h-129v-213q0 -46 45 -46q48 0 85 37v-129q-48 -35 -118 -35q-65 0 -106 32t-41 104v250q-45 -15 -96 -15t-122.5 16.5t-84.5 16.5q-37 0 -37 -27q0 -10 10 -18.5t20.5 -13t31.5 -11.5q37 -13 56.5 -20t48.5 -22.5 t43.5 -31.5t25.5 -42t11 -58q0 -79 -55 -121t-141 -42q-111 0 -187 58v143q77 -79 180 -79q63 0 63 37q0 13 -9.5 22.5t-21.5 14t-38 11.5q-36 10 -63 21.5t-55 31t-43 48t-15 65.5q0 66 48 107.5t123 41.5q32 0 109.5 -11t113.5 -11q69 0 103 25t34 64t-28 64t-81 25 q-52 0 -80 -25t-28 -64q0 -32 18 -54q-25 -9 -52 10.5t-27 57.5q0 49 46.5 84.5t122.5 35.5z" />
<glyph horiz-adv-x="620" d="M567 0h-135v54q-56 -65 -151 -65q-107 0 -181 76.5t-74 184.5t74 184.5t181 76.5q95 0 151 -65v54h135v-500zM432 250q0 55 -38.5 93.5t-93.5 38.5q-54 0 -92.5 -38.5t-38.5 -93.5q0 -54 38.5 -93t92.5 -39q55 0 93.5 39t38.5 93z" />
<glyph horiz-adv-x="192" d="M30 642q0 29 20 49.5t50 20.5t51 -21.5t21 -65.5q0 -68 -48.5 -125t-93.5 -72v34q30 44 30 82q0 21 -15 46q-15 27 -15 52z" />
<glyph horiz-adv-x="620" d="M567 0h-135v54q-56 -65 -151 -65q-107 0 -181 76.5t-74 184.5t74 184.5t181 76.5q95 0 151 -65v54h135v-500zM432 250q0 55 -38.5 93.5t-93.5 38.5q-54 0 -92.5 -38.5t-38.5 -93.5q0 -54 38.5 -93t92.5 -39q55 0 93.5 39t38.5 93zM259 547l31 87l5.5 16.5t7 20t9.5 18.5 t14.5 18t20 11t27.5 5q29 0 48.5 -18t19.5 -43q0 -37 -40 -63l-79 -52h-64z" />
<glyph horiz-adv-x="620" d="M567 0h-135v54q-56 -65 -151 -65q-107 0 -181 76.5t-74 184.5t74 184.5t181 76.5q95 0 151 -65v54h135v-500zM432 250q0 55 -38.5 93.5t-93.5 38.5q-54 0 -92.5 -38.5t-38.5 -93.5q0 -54 38.5 -93t92.5 -39q55 0 93.5 39t38.5 93zM296 552q-81 0 -120 41t-39 110v9h32 q6 -32 38 -43.5t89 -11.5t88.5 11.5t38.5 43.5h32v-9q0 -69 -39 -110t-120 -41z" />
<glyph horiz-adv-x="620" d="M567 0h-135v54q-56 -65 -151 -65q-107 0 -181 76.5t-74 184.5t74 184.5t181 76.5q95 0 151 -65v54h135v-500zM432 250q0 55 -38.5 93.5t-93.5 38.5q-54 0 -92.5 -38.5t-38.5 -93.5q0 -54 38.5 -93t92.5 -39q55 0 93.5 39t38.5 93zM124 547l98 127q17 22 33 32.5t43 10.5 t43 -10.5t33 -32.5l98 -127h-55l-119 68l-119 -68h-55z" />
<glyph horiz-adv-x="620" d="M567 0h-135v54q-56 -65 -151 -65q-107 0 -181 76.5t-74 184.5t74 184.5t181 76.5q95 0 151 -65v54h135v-500zM432 250q0 55 -38.5 93.5t-93.5 38.5q-54 0 -92.5 -38.5t-38.5 -93.5q0 -54 38.5 -93t92.5 -39q55 0 93.5 39t38.5 93zM132 628q0 30 20.5 51t50.5 21t51 -21 t21 -51t-21 -50.5t-51 -20.5t-50.5 20.5t-20.5 50.5zM321 628q0 30 20.5 51t50.5 21t51 -21t21 -51t-21 -50.5t-51 -20.5t-50.5 20.5t-20.5 50.5z" />
<glyph horiz-adv-x="936" d="M281 -11q-107 0 -181 76.5t-74 184.5t74 184.5t181 76.5q95 0 151 -65v54h135v-48q62 59 148 59q84 0 133.5 -43.5t49.5 -109.5q0 -83 -71 -124q-50 -28 -127 -28q-73 0 -132 21q5 -53 44.5 -82t104.5 -29q101 0 177 78v-147q-76 -58 -191 -58q-157 0 -228 105 q-66 -105 -194 -105zM670 301q87 0 87 48q0 23 -21 34t-50 11q-40 0 -72 -20.5t-48 -55.5q4 -1 18.5 -4.5t24.5 -6t27 -4.5t34 -2zM432 250q0 55 -38.5 93.5t-93.5 38.5q-54 0 -92.5 -38.5t-38.5 -93.5q0 -54 38.5 -93t92.5 -39q55 0 93.5 39t38.5 93z" />
<glyph horiz-adv-x="936" d="M281 -11q-107 0 -181 76.5t-74 184.5t74 184.5t181 76.5q95 0 151 -65v54h135v-48q62 59 148 59q84 0 133.5 -43.5t49.5 -109.5q0 -83 -71 -124q-50 -28 -127 -28q-73 0 -132 21q5 -53 44.5 -82t104.5 -29q101 0 177 78v-147q-76 -58 -191 -58q-157 0 -228 105 q-66 -105 -194 -105zM670 301q87 0 87 48q0 23 -21 34t-50 11q-40 0 -72 -20.5t-48 -55.5q4 -1 18.5 -4.5t24.5 -6t27 -4.5t34 -2zM432 250q0 55 -38.5 93.5t-93.5 38.5q-54 0 -92.5 -38.5t-38.5 -93.5q0 -54 38.5 -93t92.5 -39q55 0 93.5 39t38.5 93z" />
<glyph horiz-adv-x="936" d="M281 -11q-107 0 -181 76.5t-74 184.5t74 184.5t181 76.5q95 0 151 -65v54h135v-48q62 59 148 59q84 0 133.5 -43.5t49.5 -109.5q0 -83 -71 -124q-50 -28 -127 -28q-73 0 -132 21q5 -53 44.5 -82t104.5 -29q101 0 177 78v-147q-76 -58 -191 -58q-157 0 -228 105 q-66 -105 -194 -105zM670 301q87 0 87 48q0 23 -21 34t-50 11q-40 0 -72 -20.5t-48 -55.5q4 -1 18.5 -4.5t24.5 -6t27 -4.5t34 -2zM432 250q0 55 -38.5 93.5t-93.5 38.5q-54 0 -92.5 -38.5t-38.5 -93.5q0 -54 38.5 -93t92.5 -39q55 0 93.5 39t38.5 93zM665 712l-123 -165 h-102l71 165h154z" />
<glyph horiz-adv-x="936" d="M281 -11q-107 0 -181 76.5t-74 184.5t74 184.5t181 76.5q95 0 151 -65v54h135v-48q62 59 148 59q84 0 133.5 -43.5t49.5 -109.5q0 -83 -71 -124q-50 -28 -127 -28q-73 0 -132 21q5 -53 44.5 -82t104.5 -29q101 0 177 78v-147q-76 -58 -191 -58q-157 0 -228 105 q-66 -105 -194 -105zM670 301q87 0 87 48q0 23 -21 34t-50 11q-40 0 -72 -20.5t-48 -55.5q4 -1 18.5 -4.5t24.5 -6t27 -4.5t34 -2zM432 250q0 55 -38.5 93.5t-93.5 38.5q-54 0 -92.5 -38.5t-38.5 -93.5q0 -54 38.5 -93t92.5 -39q55 0 93.5 39t38.5 93zM453 547l31 87 l5.5 16.5t7 20t9.5 18.5t14.5 18t20 11t27.5 5q29 0 48.5 -18t19.5 -43q0 -37 -40 -63l-79 -52h-64z" />
<glyph horiz-adv-x="620" d="M567 0h-135v54q-56 -65 -151 -65q-107 0 -181 76.5t-74 184.5t74 184.5t181 76.5q95 0 151 -65v54h135v-500zM432 250q0 55 -38.5 93.5t-93.5 38.5q-54 0 -92.5 -38.5t-38.5 -93.5q0 -54 38.5 -93t92.5 -39q55 0 93.5 39t38.5 93zM298 634l31 -87h-64l-79 52 q-40 26 -40 63q0 25 19.5 43t48.5 18q15 0 27.5 -5t20 -11t14.5 -18t9.5 -18.5t7 -20z" />
<glyph horiz-adv-x="625" d="M567 0h-135v54q-56 -65 -151 -65q-107 0 -181 76.5t-74 184.5t74 184.5t181 76.5q95 0 151 -65v54h135v-500zM432 250q0 55 -38.5 93.5t-93.5 38.5q-54 0 -92.5 -38.5t-38.5 -93.5q0 -54 38.5 -93t92.5 -39q55 0 93.5 39t38.5 93zM448 596h-297v64h297v-64z" />
<glyph horiz-adv-x="620" d="M567 -96v-53q-11 -24 -34.5 -38t-50.5 -14q-39 0 -66.5 25.5t-27.5 66.5q0 52 44 109v54q-56 -65 -151 -65q-107 0 -181 76.5t-74 184.5t74 184.5t181 76.5q95 0 151 -65v54h135v-500h-90q-21 -31 -21 -63q0 -30 17.5 -44t40.5 -14q32 0 53 25zM432 250q0 55 -38.5 93.5 t-93.5 38.5q-54 0 -92.5 -38.5t-38.5 -93.5q0 -54 38.5 -93t92.5 -39q55 0 93.5 39t38.5 93z" />
<glyph horiz-adv-x="620" d="M567 0h-135v54q-56 -65 -151 -65q-107 0 -181 76.5t-74 184.5t74 184.5t181 76.5q95 0 151 -65v54h135v-500zM432 250q0 55 -38.5 93.5t-93.5 38.5q-54 0 -92.5 -38.5t-38.5 -93.5q0 -54 38.5 -93t92.5 -39q55 0 93.5 39t38.5 93zM196 627q0 41 29.5 70.5t70.5 29.5 t70.5 -29.5t29.5 -70.5t-29.5 -70.5t-70.5 -29.5t-70.5 29.5t-29.5 70.5zM256 627q0 -17 12 -28.5t28 -11.5t28 11.5t12 28.5t-12 28.5t-28 11.5t-28 -11.5t-12 -28.5z" />
<glyph horiz-adv-x="620" d="M244 551q0 -17 12 -28.5t28 -11.5t28 11.5t12 28.5t-12 28.5t-28 11.5t-28 -11.5t-12 -28.5zM432 250q0 55 -38.5 93.5t-93.5 38.5q-54 0 -92.5 -38.5t-38.5 -93.5q0 -54 38.5 -93t92.5 -39q55 0 93.5 39t38.5 93zM567 0h-135v54q-56 -65 -151 -65q-107 0 -181 76.5 t-74 184.5q0 85 48 153t125 94q-15 24 -15 54q0 41 29.5 70.5t70.5 29.5t70.5 -29.5t29.5 -70.5q0 -31 -18 -57q36 -15 66 -48v54h135v-500zM240 668l31 87l5.5 16.5t7 20t9.5 18.5t14.5 18t20 11t27.5 5q29 0 48.5 -18t19.5 -43q0 -37 -40 -63l-79 -52h-64z" />
<glyph horiz-adv-x="620" d="M567 0h-135v54q-56 -65 -151 -65q-107 0 -181 76.5t-74 184.5t74 184.5t181 76.5q95 0 151 -65v54h135v-500zM432 250q0 55 -38.5 93.5t-93.5 38.5q-54 0 -92.5 -38.5t-38.5 -93.5q0 -54 38.5 -93t92.5 -39q55 0 93.5 39t38.5 93zM145 556h-36q0 68 27 114t92 46 q38 0 92 -33q37 -23 66 -23q56 0 68 52h36q0 -68 -27 -114t-92 -46q-38 0 -92 33q-37 23 -66 23q-56 0 -68 -52z" />
<glyph horiz-adv-x="374" d="M187 717q27 0 43 -10.5t33 -32.5l98 -127h-115l-59 75l-59 -75h-115l98 127q17 22 33 32.5t43 10.5z" />
<glyph horiz-adv-x="318" d="M159 550q-85 0 -124.5 41.5t-39.5 111.5v9h82q0 -66 82 -66t82 66h82v-9q0 -70 -39.5 -111.5t-124.5 -41.5z" />
<glyph horiz-adv-x="381" d="M90 556h-90q0 66 34.5 113t95.5 47q42 0 81 -32q22 -19 40 -19q38 0 40 47h90q0 -66 -34.5 -113t-95.5 -47q-42 0 -81 32q-22 19 -40 19q-38 0 -40 -47z" />
<glyph horiz-adv-x="143" d="M0 628q0 30 20.5 51t50.5 21t51 -21t21 -51t-21 -50.5t-51 -20.5t-50.5 20.5t-20.5 50.5z" />
<glyph horiz-adv-x="288" d="M39 627q0 41 29.5 70.5t70.5 29.5t70.5 -29.5t29.5 -70.5t-29.5 -70.5t-70.5 -29.5t-70.5 29.5t-29.5 70.5zM99 627q0 -17 11.5 -28.5t28.5 -11.5t28.5 11.5t11.5 28.5t-11.5 28.5t-28.5 11.5t-28.5 -11.5t-11.5 -28.5z" />
<glyph horiz-adv-x="240" d="M50 -101q0 26 19.5 44t49.5 18q29 0 50 -18.5t21 -56.5q0 -59 -48 -108.5t-92 -62.5v29q29 38 29 70q0 15 -14 41q-15 25 -15 44z" />
<glyph horiz-adv-x="318" d="M61 -223v66q28 -19 69 -19q30 0 49 12.5t19 30.5q-16 -9 -37 -9q-26 0 -42.5 16t-16.5 39t18 40t53 17q43 0 73.5 -25.5t30.5 -74.5q0 -53 -36.5 -84t-92.5 -31q-46 0 -87 22z" />
<glyph horiz-adv-x="245" d="M213 -86v-83q-32 -32 -82 -32q-41 0 -69 25.5t-28 66.5q0 52 44 109h65q-21 -25 -21 -53q0 -25 13.5 -35.5t32.5 -10.5q28 0 45 13z" />
<glyph horiz-adv-x="241" d="M188 0h-135v500h135v-500zM49 628q0 30 20.5 51t50.5 21t51 -21t21 -51t-21 -50.5t-51 -20.5t-50.5 20.5t-20.5 50.5z" />
<glyph horiz-adv-x="588" d="M422 250q0 55 -37.5 93.5t-90.5 38.5q-54 0 -91.5 -38.5t-37.5 -93.5q0 -54 37.5 -92.5t91.5 -38.5q53 0 90.5 38.5t37.5 92.5zM26 250q0 109 77.5 185t190.5 76t190.5 -76t77.5 -185t-77.5 -185t-190.5 -76t-190.5 76t-77.5 185z" />
<glyph horiz-adv-x="377" d="M317 0h-135v378h-152v122h287v-500z" />
<glyph d="M346 128h199v-128h-519v43q302 152 302 271q0 32 -18.5 51t-46.5 19q-27 0 -45 -18.5t-18 -48.5q0 -11 1 -16h-132q0 2 -0.5 7t-0.5 11q0 79 58 135.5t142 56.5q83 0 140 -56t57 -138q0 -76 -52 -134q-13 -15 -30 -29t-27 -20z" />
<glyph horiz-adv-x="539" d="M513 28q0 -97 -71 -163t-186 -66q-135 0 -226 95v163q101 -127 219 -127q58 0 90.5 29.5t32.5 77.5q0 47 -31 77t-81 30q-42 0 -72 -22l-24 20l134 236h-253v122h466l-149 -261q74 -28 112.5 -84t38.5 -127z" />
<glyph d="M226 500h145q0 -124 -38 -220t-92 -158h145v164h137v-476h-137v190h-362v43q96 94 149 198t53 259z" />
<glyph horiz-adv-x="554" d="M381 40q0 52 -37.5 87t-106.5 35q-48 0 -88.5 -16t-62.5 -35l-31 19q40 124 40 370h401v-122h-275q-2 -63 -16 -123q39 22 94 22q95 0 159.5 -66.5t64.5 -165.5q0 -103 -70.5 -174.5t-184.5 -71.5q-111 0 -180 67.5t-70 168.5h141q1 -45 29.5 -75.5t78.5 -30.5 q52 0 83 32t31 79z" />
<glyph d="M27 245q0 75 44 147l187 308h151l-121 -200q113 0 187 -74t74 -181t-74 -181.5t-187 -74.5t-187 74.5t-74 181.5zM408 245q0 53 -34.5 89.5t-85.5 36.5q-52 0 -86 -36.5t-34 -89.5q0 -52 34 -88.5t86 -36.5q51 0 85.5 36.5t34.5 88.5z" />
<glyph horiz-adv-x="537" d="M536 500l-392 -690h-152l323 568h-291v122h512z" />
<glyph d="M288 712q87 0 144.5 -58t57.5 -140q0 -68 -47 -116q43 -23 71 -72t28 -108q0 -95 -70.5 -162t-183.5 -67t-183.5 67t-70.5 162q0 59 28 108t71 72q-47 48 -47 116q0 82 57.5 140t144.5 58zM273 429h30l36 44q18 21 18 47q0 30 -19.5 50.5t-49.5 20.5t-49.5 -20.5 t-19.5 -50.5q0 -26 18 -47zM288 120q60 0 86.5 32.5t26.5 73.5q0 52 -32 81h-162q-32 -29 -32 -81q0 -41 26.5 -73.5t86.5 -32.5z" />
<glyph d="M549 255q0 -75 -44 -147l-181 -298h-151l115 190q-113 0 -187 74t-74 181t74 181.5t187 74.5t187 -74.5t74 -181.5zM168 255q0 -53 34.5 -89.5t85.5 -36.5q52 0 86 36.5t34 89.5q0 52 -34 88.5t-86 36.5q-51 0 -85.5 -36.5t-34.5 -88.5z" />
<glyph horiz-adv-x="241" d="M188 -190h-135v690h135v-690zM43 635q0 32 23 54.5t55 22.5q31 0 54 -23t23 -54q0 -32 -22.5 -55t-54.5 -23t-55 23t-23 55z" />
<glyph horiz-adv-x="542" d="M203 0l-208 500h145l131 -329l131 329h145l-208 -500q-40 -99 -75.5 -148.5t-88.5 -49.5q-37 0 -58 20.5t-21 49.5q0 28 18.5 48t54.5 20q16 0 21 -5q-2 -13 7.5 -23t24.5 -10q20 0 32.5 12t12.5 32q0 23 -19 38t-45 16z" />
<glyph horiz-adv-x="542" d="M203 0l-208 500h145l131 -329l131 329h145l-208 -500q-40 -99 -75.5 -148.5t-88.5 -49.5q-37 0 -58 20.5t-21 49.5q0 28 18.5 48t54.5 20q16 0 21 -5q-2 -13 7.5 -23t24.5 -10q20 0 32.5 12t12.5 32q0 23 -19 38t-45 16zM221 547l31 87l5.5 16.5t7 20t9.5 18.5t14.5 18 t20 11t27.5 5q29 0 48.5 -18t19.5 -43q0 -37 -40 -63l-79 -52h-64z" />
<glyph horiz-adv-x="542" d="M203 0l-208 500h145l131 -329l131 329h145l-208 -500q-40 -99 -75.5 -148.5t-88.5 -49.5q-37 0 -58 20.5t-21 49.5q0 28 18.5 48t54.5 20q16 0 21 -5q-2 -13 7.5 -23t24.5 -10q20 0 32.5 12t12.5 32q0 23 -19 38t-45 16zM97 547l98 127q17 22 33 32.5t43 10.5t43 -10.5 t33 -32.5l98 -127h-55l-119 68l-119 -68h-55z" />
<glyph horiz-adv-x="542" d="M203 0l-208 500h145l131 -329l131 329h145l-208 -500q-40 -99 -75.5 -148.5t-88.5 -49.5q-37 0 -58 20.5t-21 49.5q0 28 18.5 48t54.5 20q16 0 21 -5q-2 -13 7.5 -23t24.5 -10q20 0 32.5 12t12.5 32q0 23 -19 38t-45 16zM105 628q0 30 20.5 51t50.5 21t51 -21t21 -51 t-21 -50.5t-51 -20.5t-50.5 20.5t-20.5 50.5zM294 628q0 30 20.5 51t50.5 21t51 -21t21 -51t-21 -50.5t-51 -20.5t-50.5 20.5t-20.5 50.5z" />
<glyph horiz-adv-x="542" d="M203 0l-208 500h145l131 -329l131 329h145l-208 -500q-40 -99 -75.5 -148.5t-88.5 -49.5q-37 0 -58 20.5t-21 49.5q0 28 18.5 48t54.5 20q16 0 21 -5q-2 -13 7.5 -23t24.5 -10q20 0 32.5 12t12.5 32q0 23 -19 38t-45 16zM294 634l31 -87h-64l-79 52q-40 26 -40 63 q0 25 19.5 43t48.5 18q15 0 27.5 -5t20 -11t14.5 -18t9.5 -18.5t7 -20z" />
<glyph horiz-adv-x="241" d="M188 -190h-135v690h135v-690zM121 717q27 0 43 -10.5t33 -32.5l98 -127h-115l-59 75l-59 -75h-115l98 127q17 22 33 32.5t43 10.5z" />
<glyph horiz-adv-x="876" d="M708 500h129v-122h-129v-213q0 -46 45 -46q48 0 85 37v-129q-48 -35 -118 -35q-65 0 -106 32t-41 104v250q-45 -15 -95 -15q-35 0 -95 10t-83 10q-59 0 -95 -34t-36 -93q0 -61 38.5 -98.5t98.5 -37.5q45 0 90 20t79 52v-145q-71 -58 -179 -58q-116 0 -193 71t-77 191 q0 119 75 189.5t192 70.5q30 0 105 -11t109 -11q64 0 95.5 25t31.5 64t-28 64t-81 25q-52 0 -80 -25t-28 -64q0 -32 18 -54q-25 -9 -52 10.5t-27 57.5q0 50 46.5 85t124.5 35q91 0 136 -50t45 -119v-43z" />
<glyph horiz-adv-x="1084" d="M916 251q0 55 -38.5 93.5t-92.5 38.5q-55 0 -93.5 -38.5t-38.5 -93.5q0 -54 38.5 -92.5t93.5 -38.5q54 0 92.5 38.5t38.5 92.5zM362 524q-25 -9 -52 10.5t-27 57.5q0 49 46.5 84.5t122.5 35.5q100 0 150.5 -62t50.5 -150v-53q56 65 151 65q107 0 180.5 -76.5t73.5 -184.5 t-73.5 -184.5t-180.5 -76.5q-95 0 -151 65v-245h-135v568q-45 -15 -96 -15t-122.5 16.5t-84.5 16.5q-37 0 -37 -27q0 -10 10 -18.5t20.5 -13t31.5 -11.5q37 -13 56.5 -20t48.5 -22.5t43.5 -31.5t25.5 -42t11 -58q0 -79 -55 -121t-141 -42q-111 0 -187 58v143q77 -79 180 -79 q63 0 63 37q0 13 -9.5 22.5t-21.5 14t-38 11.5q-36 10 -63 21.5t-55 31t-43 48t-15 65.5q0 66 47 107.5t124 41.5q30 0 104 -11t111 -11q68 0 101.5 25t33.5 65q0 38 -28.5 63t-80.5 25t-80 -25t-28 -64q0 -32 18 -54z" />
<glyph horiz-adv-x="241" />
<glyph horiz-adv-x="620" d="M567 0h-135v54q-56 -65 -151 -65q-107 0 -181 76.5t-74 184.5t74 184.5t181 76.5q95 0 151 -65v54h135v-500zM432 250q0 55 -38.5 93.5t-93.5 38.5q-54 0 -92.5 -38.5t-38.5 -93.5q0 -54 38.5 -93t92.5 -39q55 0 93.5 39t38.5 93z" />
<glyph horiz-adv-x="620" d="M567 0h-135v54q-56 -65 -151 -65q-107 0 -181 76.5t-74 184.5t74 184.5t181 76.5q95 0 151 -65v54h135v-500zM432 250q0 55 -38.5 93.5t-93.5 38.5q-54 0 -92.5 -38.5t-38.5 -93.5q0 -54 38.5 -93t92.5 -39q55 0 93.5 39t38.5 93zM471 712l-123 -165h-102l71 165h154z " />
<glyph horiz-adv-x="620" d="M567 0h-135v54q-56 -65 -151 -65q-107 0 -181 76.5t-74 184.5t74 184.5t181 76.5q95 0 151 -65v54h135v-500zM432 250q0 55 -38.5 93.5t-93.5 38.5q-54 0 -92.5 -38.5t-38.5 -93.5q0 -54 38.5 -93t92.5 -39q55 0 93.5 39t38.5 93zM296 550q-85 0 -124.5 41.5t-39.5 111.5 v9h82q0 -66 82 -66t82 66h82v-9q0 -70 -39.5 -111.5t-124.5 -41.5z" />
<glyph horiz-adv-x="620" d="M567 0h-135v54q-56 -65 -151 -65q-107 0 -181 76.5t-74 184.5t74 184.5t181 76.5q95 0 151 -65v54h135v-500zM432 250q0 55 -38.5 93.5t-93.5 38.5q-54 0 -92.5 -38.5t-38.5 -93.5q0 -54 38.5 -93t92.5 -39q55 0 93.5 39t38.5 93zM298 717q27 0 43 -10.5t33 -32.5 l98 -127h-115l-59 75l-59 -75h-115l98 127q17 22 33 32.5t43 10.5z" />
<glyph horiz-adv-x="620" d="M567 0h-135v54q-56 -65 -151 -65q-107 0 -181 76.5t-74 184.5t74 184.5t181 76.5q95 0 151 -65v54h135v-500zM432 250q0 55 -38.5 93.5t-93.5 38.5q-54 0 -92.5 -38.5t-38.5 -93.5q0 -54 38.5 -93t92.5 -39q55 0 93.5 39t38.5 93zM132 628q0 30 20.5 51t50.5 21t51 -21 t21 -51t-21 -50.5t-51 -20.5t-50.5 20.5t-20.5 50.5zM321 628q0 30 20.5 51t50.5 21t51 -21t21 -51t-21 -50.5t-51 -20.5t-50.5 20.5t-20.5 50.5z" />
<glyph horiz-adv-x="620" d="M567 0h-135v54q-56 -65 -151 -65q-107 0 -181 76.5t-74 184.5t74 184.5t181 76.5q95 0 151 -65v54h135v-500zM432 250q0 55 -38.5 93.5t-93.5 38.5q-54 0 -92.5 -38.5t-38.5 -93.5q0 -54 38.5 -93t92.5 -39q55 0 93.5 39t38.5 93zM240 547l-123 165h154l71 -165h-102z " />
<glyph horiz-adv-x="625" d="M567 0h-135v54q-56 -65 -151 -65q-107 0 -181 76.5t-74 184.5t74 184.5t181 76.5q95 0 151 -65v54h135v-500zM432 250q0 55 -38.5 93.5t-93.5 38.5q-54 0 -92.5 -38.5t-38.5 -93.5q0 -54 38.5 -93t92.5 -39q55 0 93.5 39t38.5 93zM448 581h-297v94h297v-94z" />
<glyph horiz-adv-x="620" d="M567 -86v-83q-32 -32 -82 -32q-41 0 -69 25.5t-28 66.5q0 52 44 109v54q-56 -65 -151 -65q-107 0 -181 76.5t-74 184.5t74 184.5t181 76.5q95 0 151 -65v54h135v-500h-70q-21 -25 -21 -53q0 -25 13.5 -35.5t32.5 -10.5q28 0 45 13zM432 250q0 55 -38.5 93.5t-93.5 38.5 q-54 0 -92.5 -38.5t-38.5 -93.5q0 -54 38.5 -93t92.5 -39q55 0 93.5 39t38.5 93z" />
<glyph horiz-adv-x="620" d="M567 0h-135v54q-56 -65 -151 -65q-107 0 -181 76.5t-74 184.5t74 184.5t181 76.5q95 0 151 -65v54h135v-500zM432 250q0 55 -38.5 93.5t-93.5 38.5q-54 0 -92.5 -38.5t-38.5 -93.5q0 -54 38.5 -93t92.5 -39q55 0 93.5 39t38.5 93zM196 627q0 41 29.5 70.5t70.5 29.5 t70.5 -29.5t29.5 -70.5t-29.5 -70.5t-70.5 -29.5t-70.5 29.5t-29.5 70.5zM256 627q0 -17 12 -28.5t28 -11.5t28 11.5t12 28.5t-12 28.5t-28 11.5t-28 -11.5t-12 -28.5z" />
<glyph horiz-adv-x="620" d="M244 551q0 -17 12 -28.5t28 -11.5t28 11.5t12 28.5t-12 28.5t-28 11.5t-28 -11.5t-12 -28.5zM432 250q0 55 -38.5 93.5t-93.5 38.5q-54 0 -92.5 -38.5t-38.5 -93.5q0 -54 38.5 -93t92.5 -39q55 0 93.5 39t38.5 93zM567 0h-135v54q-56 -65 -151 -65q-107 0 -181 76.5 t-74 184.5q0 85 48 153t125 94q-15 24 -15 54q0 41 29.5 70.5t70.5 29.5t70.5 -29.5t29.5 -70.5q0 -31 -18 -57q36 -15 66 -48v54h135v-500zM452 842l-123 -165h-102l71 165h154z" />
<glyph horiz-adv-x="620" d="M567 0h-135v54q-56 -65 -151 -65q-107 0 -181 76.5t-74 184.5t74 184.5t181 76.5q95 0 151 -65v54h135v-500zM432 250q0 55 -38.5 93.5t-93.5 38.5q-54 0 -92.5 -38.5t-38.5 -93.5q0 -54 38.5 -93t92.5 -39q55 0 93.5 39t38.5 93zM199 556h-90q0 66 34.5 113t95.5 47 q42 0 81 -32q22 -19 40 -19q38 0 40 47h90q0 -66 -34.5 -113t-95.5 -47q-42 0 -81 32q-22 19 -40 19q-38 0 -40 -47z" />
<glyph horiz-adv-x="575" d="M555 209q-15 -95 -86.5 -157.5t-175.5 -62.5q-116 0 -191.5 76t-75.5 185t75.5 185t191.5 76q98 0 168.5 -56.5t90.5 -143.5h-145q-16 32 -45.5 51.5t-66.5 19.5q-54 0 -90.5 -38.5t-36.5 -93.5t36.5 -93.5t90.5 -38.5q42 0 74.5 25.5t44.5 65.5h141z" />
<glyph horiz-adv-x="570" d="M452 712l-123 -165h-102l71 165h154zM555 209q-15 -95 -86.5 -157.5t-175.5 -62.5q-116 0 -191.5 76t-75.5 185t75.5 185t191.5 76q98 0 168.5 -56.5t90.5 -143.5h-145q-16 32 -45.5 51.5t-66.5 19.5q-54 0 -90.5 -38.5t-36.5 -93.5t36.5 -93.5t90.5 -38.5 q42 0 74.5 25.5t44.5 65.5h141z" />
<glyph horiz-adv-x="570" d="M293 542q-27 0 -43 10.5t-33 32.5l-98 127h115l59 -75l59 75h115l-98 -127q-17 -22 -33 -32.5t-43 -10.5zM555 209q-15 -95 -86.5 -157.5t-175.5 -62.5q-116 0 -191.5 76t-75.5 185t75.5 185t191.5 76q98 0 168.5 -56.5t90.5 -143.5h-145q-16 32 -45.5 51.5t-66.5 19.5 q-54 0 -90.5 -38.5t-36.5 -93.5t36.5 -93.5t90.5 -38.5q42 0 74.5 25.5t44.5 65.5h141z" />
<glyph horiz-adv-x="570" d="M555 209q-15 -95 -86.5 -157.5t-175.5 -62.5q-116 0 -191.5 76t-75.5 185t75.5 185t191.5 76q98 0 168.5 -56.5t90.5 -143.5h-145q-16 32 -45.5 51.5t-66.5 19.5q-54 0 -90.5 -38.5t-36.5 -93.5t36.5 -93.5t90.5 -38.5q42 0 74.5 25.5t44.5 65.5h141zM171 -223v66 q28 -19 69 -19q30 0 49 12.5t19 30.5q-16 -9 -37 -9q-26 0 -42.5 16t-16.5 39t18 40t53 17q43 0 73.5 -25.5t30.5 -74.5q0 -53 -36.5 -84t-92.5 -31q-46 0 -87 22z" />
<glyph horiz-adv-x="570" d="M222 628q0 30 20.5 51t50.5 21t51 -21t21 -51t-21 -50.5t-51 -20.5t-50.5 20.5t-20.5 50.5zM555 209q-15 -95 -86.5 -157.5t-175.5 -62.5q-116 0 -191.5 76t-75.5 185t75.5 185t191.5 76q98 0 168.5 -56.5t90.5 -143.5h-145q-16 32 -45.5 51.5t-66.5 19.5 q-54 0 -90.5 -38.5t-36.5 -93.5t36.5 -93.5t90.5 -38.5q42 0 74.5 25.5t44.5 65.5h141z" />
<glyph horiz-adv-x="570" d="M293 717q27 0 43 -10.5t33 -32.5l98 -127h-115l-59 75l-59 -75h-115l98 127q17 22 33 32.5t43 10.5zM555 209q-15 -95 -86.5 -157.5t-175.5 -62.5q-116 0 -191.5 76t-75.5 185t75.5 185t191.5 76q98 0 168.5 -56.5t90.5 -143.5h-145q-16 32 -45.5 51.5t-66.5 19.5 q-54 0 -90.5 -38.5t-36.5 -93.5t36.5 -93.5t90.5 -38.5q42 0 74.5 25.5t44.5 65.5h141z" />
<glyph horiz-adv-x="575" d="M555 209q-15 -95 -86.5 -157.5t-175.5 -62.5q-116 0 -191.5 76t-75.5 185t75.5 185t191.5 76q98 0 168.5 -56.5t90.5 -143.5h-145q-16 32 -45.5 51.5t-66.5 19.5q-54 0 -90.5 -38.5t-36.5 -93.5t36.5 -93.5t90.5 -38.5q42 0 74.5 25.5t44.5 65.5h141z" />
<glyph horiz-adv-x="570" d="M555 209q-15 -95 -86.5 -157.5t-175.5 -62.5q-116 0 -191.5 76t-75.5 185t75.5 185t191.5 76q98 0 168.5 -56.5t90.5 -143.5h-145q-16 32 -45.5 51.5t-66.5 19.5q-54 0 -90.5 -38.5t-36.5 -93.5t36.5 -93.5t90.5 -38.5q42 0 74.5 25.5t44.5 65.5h141zM240 547l31 87 l5.5 16.5t7 20t9.5 18.5t14.5 18t20 11t27.5 5q29 0 48.5 -18t19.5 -43q0 -37 -40 -63l-79 -52h-64z" />
<glyph horiz-adv-x="570" d="M217 585l-98 127h55l119 -68l119 68h55l-98 -127q-17 -22 -33 -32.5t-43 -10.5t-43 10.5t-33 32.5zM555 209q-15 -95 -86.5 -157.5t-175.5 -62.5q-116 0 -191.5 76t-75.5 185t75.5 185t191.5 76q98 0 168.5 -56.5t90.5 -143.5h-145q-16 32 -45.5 51.5t-66.5 19.5 q-54 0 -90.5 -38.5t-36.5 -93.5t36.5 -93.5t90.5 -38.5q42 0 74.5 25.5t44.5 65.5h141z" />
<glyph horiz-adv-x="570" d="M555 209q-15 -95 -86.5 -157.5t-175.5 -62.5q-116 0 -191.5 76t-75.5 185t75.5 185t191.5 76q98 0 168.5 -56.5t90.5 -143.5h-145q-16 32 -45.5 51.5t-66.5 19.5q-54 0 -90.5 -38.5t-36.5 -93.5t36.5 -93.5t90.5 -38.5q42 0 74.5 25.5t44.5 65.5h141zM171 -213v42 q38 -19 75 -19q34 0 55.5 19.5t15.5 50.5q-13 -17 -41 -17t-46 16.5t-18 37.5q0 22 18 37.5t52 15.5q43 0 74 -25t31 -70q0 -48 -36.5 -79t-92.5 -31q-46 0 -87 22z" />
<glyph horiz-adv-x="570" d="M222 628q0 30 20.5 51t50.5 21t51 -21t21 -51t-21 -50.5t-51 -20.5t-50.5 20.5t-20.5 50.5zM555 209q-15 -95 -86.5 -157.5t-175.5 -62.5q-116 0 -191.5 76t-75.5 185t75.5 185t191.5 76q98 0 168.5 -56.5t90.5 -143.5h-145q-16 32 -45.5 51.5t-66.5 19.5 q-54 0 -90.5 -38.5t-36.5 -93.5t36.5 -93.5t90.5 -38.5q42 0 74.5 25.5t44.5 65.5h141z" />
<glyph horiz-adv-x="570" d="M119 547l98 127q17 22 33 32.5t43 10.5t43 -10.5t33 -32.5l98 -127h-55l-119 68l-119 -68h-55zM555 209q-15 -95 -86.5 -157.5t-175.5 -62.5q-116 0 -191.5 76t-75.5 185t75.5 185t191.5 76q98 0 168.5 -56.5t90.5 -143.5h-145q-16 32 -45.5 51.5t-66.5 19.5 q-54 0 -90.5 -38.5t-36.5 -93.5t36.5 -93.5t90.5 -38.5q42 0 74.5 25.5t44.5 65.5h141z" />
<glyph horiz-adv-x="615" d="M562 500v-444q0 -113 -77 -185t-216 -72q-126 0 -209 58v147q84 -78 200 -78q76 0 121.5 32t45.5 89v20q-56 -63 -150 -63q-106 0 -178.5 72t-72.5 181t72.5 181.5t178.5 72.5q94 0 150 -63v52h135zM427 258q0 56 -37 90t-92 34t-92 -34t-37 -90t37 -90.5t92 -34.5 t92 34.5t37 90.5z" />
<glyph horiz-adv-x="615" d="M562 500v-444q0 -113 -77 -185t-216 -72q-126 0 -209 58v147q84 -78 200 -78q76 0 121.5 32t45.5 89v20q-56 -63 -150 -63q-106 0 -178.5 72t-72.5 181t72.5 181.5t178.5 72.5q94 0 150 -63v52h135zM427 258q0 56 -37 90t-92 34t-92 -34t-37 -90t37 -90.5t92 -34.5 t92 34.5t37 90.5zM293 550q-85 0 -124.5 41.5t-39.5 111.5v9h82q0 -66 82 -66t82 66h82v-9q0 -70 -39.5 -111.5t-124.5 -41.5z" />
<glyph horiz-adv-x="615" d="M356 601q0 -26 -19.5 -44t-49.5 -18q-29 0 -50 18.5t-21 56.5q0 59 48 108.5t92 62.5v-29q-29 -38 -29 -70q0 -15 14 -41q15 -25 15 -44zM562 500v-444q0 -113 -77 -185t-216 -72q-126 0 -209 58v147q84 -78 200 -78q76 0 121.5 32t45.5 89v20q-56 -63 -150 -63 q-106 0 -178.5 72t-72.5 181t72.5 181.5t178.5 72.5q94 0 150 -63v52h135zM427 258q0 56 -37 90t-92 34t-92 -34t-37 -90t37 -90.5t92 -34.5t92 34.5t37 90.5z" />
<glyph horiz-adv-x="615" d="M562 500v-444q0 -113 -77 -185t-216 -72q-126 0 -209 58v147q84 -78 200 -78q76 0 121.5 32t45.5 89v20q-56 -63 -150 -63q-106 0 -178.5 72t-72.5 181t72.5 181.5t178.5 72.5q94 0 150 -63v52h135zM427 258q0 56 -37 90t-92 34t-92 -34t-37 -90t37 -90.5t92 -34.5 t92 34.5t37 90.5zM225 628q0 30 20.5 51t50.5 21t51 -21t21 -51t-21 -50.5t-51 -20.5t-50.5 20.5t-20.5 50.5z" />
<glyph horiz-adv-x="615" d="M562 500v-444q0 -113 -77 -185t-216 -72q-126 0 -209 58v147q84 -78 200 -78q76 0 121.5 32t45.5 89v20q-56 -63 -150 -63q-106 0 -178.5 72t-72.5 181t72.5 181.5t178.5 72.5q94 0 150 -63v52h135zM427 258q0 56 -37 90t-92 34t-92 -34t-37 -90t37 -90.5t92 -34.5 t92 34.5t37 90.5zM291 717q27 0 43 -10.5t33 -32.5l98 -127h-115l-59 75l-59 -75h-115l98 127q17 22 33 32.5t43 10.5z" />
<glyph horiz-adv-x="615" d="M427 258q0 56 -37 90t-92 34t-92 -34t-37 -90t37 -90.5t92 -34.5t92 34.5t37 90.5zM282 -201q-98 0 -161 36t-63 90q0 28 18 47t51 19q48 0 69 -31q-10 -16 -10 -36q0 -34 30 -56t79 -22q64 0 98 37.5t34 88.5v95q-56 -63 -150 -63q-106 0 -178.5 72t-72.5 181 t72.5 181.5t178.5 72.5q94 0 150 -63v52h135v-444q0 -114 -71.5 -185.5t-208.5 -71.5z" />
<glyph horiz-adv-x="615" d="M427 258q0 56 -37 90t-92 34t-92 -34t-37 -90t37 -90.5t92 -34.5t92 34.5t37 90.5zM282 -201q-98 0 -161 36t-63 90q0 28 18 47t51 19q48 0 69 -31q-10 -16 -10 -36q0 -34 30 -56t79 -22q64 0 98 37.5t34 88.5v95q-56 -63 -150 -63q-106 0 -178.5 72t-72.5 181 t72.5 181.5t178.5 72.5q94 0 150 -63v52h135v-444q0 -114 -71.5 -185.5t-208.5 -71.5zM293 552q-81 0 -120 41t-39 110v9h32q6 -32 38 -43.5t89 -11.5t88.5 11.5t38.5 43.5h32v-9q0 -69 -39 -110t-120 -41z" />
<glyph horiz-adv-x="615" d="M356 601q0 -26 -19.5 -44t-49.5 -18q-29 0 -50 18.5t-21 56.5q0 59 48 108.5t92 62.5v-29q-29 -38 -29 -70q0 -15 14 -41q15 -25 15 -44zM427 258q0 56 -37 90t-92 34t-92 -34t-37 -90t37 -90.5t92 -34.5t92 34.5t37 90.5zM282 -201q-98 0 -161 36t-63 90q0 28 18 47 t51 19q48 0 69 -31q-10 -16 -10 -36q0 -34 30 -56t79 -22q64 0 98 37.5t34 88.5v95q-56 -63 -150 -63q-106 0 -178.5 72t-72.5 181t72.5 181.5t178.5 72.5q94 0 150 -63v52h135v-444q0 -114 -71.5 -185.5t-208.5 -71.5z" />
<glyph horiz-adv-x="615" d="M427 258q0 56 -37 90t-92 34t-92 -34t-37 -90t37 -90.5t92 -34.5t92 34.5t37 90.5zM282 -201q-98 0 -161 36t-63 90q0 28 18 47t51 19q48 0 69 -31q-10 -16 -10 -36q0 -34 30 -56t79 -22q64 0 98 37.5t34 88.5v95q-56 -63 -150 -63q-106 0 -178.5 72t-72.5 181 t72.5 181.5t178.5 72.5q94 0 150 -63v52h135v-444q0 -114 -71.5 -185.5t-208.5 -71.5zM225 628q0 30 20.5 51t50.5 21t51 -21t21 -51t-21 -50.5t-51 -20.5t-50.5 20.5t-20.5 50.5z" />
<glyph horiz-adv-x="615" d="M427 258q0 56 -37 90t-92 34t-92 -34t-37 -90t37 -90.5t92 -34.5t92 34.5t37 90.5zM282 -201q-98 0 -161 36t-63 90q0 28 18 47t51 19q48 0 69 -31q-10 -16 -10 -36q0 -34 30 -56t79 -22q64 0 98 37.5t34 88.5v95q-56 -63 -150 -63q-106 0 -178.5 72t-72.5 181 t72.5 181.5t178.5 72.5q94 0 150 -63v52h135v-444q0 -114 -71.5 -185.5t-208.5 -71.5zM117 547l98 127q17 22 33 32.5t43 10.5t43 -10.5t33 -32.5l98 -127h-55l-119 68l-119 -68h-55z" />
<glyph horiz-adv-x="352" d="M20 378v122h75v150h135v-150h102v-122h-102v-378h-135v378h-75z" />
<glyph horiz-adv-x="352" d="M20 378v122h75v150h135v-150h102v-122h-102v-378h-135v378h-75zM271 711q0 23 17.5 39t43.5 16q25 0 43.5 -16.5t18.5 -49.5q0 -52 -42 -95t-81 -56v26q26 33 26 61q0 13 -13 36q-13 22 -13 39z" />
<glyph horiz-adv-x="352" d="M20 378v122h75v150h135v-150h102v-122h-102v-378h-135v378h-75zM85 -101q0 26 19.5 44t49.5 18q29 0 50 -18.5t21 -56.5q0 -59 -48 -108.5t-92 -62.5v29q29 38 29 70q0 15 -14 41q-15 25 -15 44z" />
<glyph horiz-adv-x="372" d="M327 226h-87v-226h-135v226h-75v84h75v68h-75v122h75v150h135v-150h102v-122h-102v-68h87v-84z" />
<glyph horiz-adv-x="352" d="M20 378v122h28q68 0 104.5 38t55.5 112h22v-150h102v-122h-102v-378h-135v378h-75z" />
<glyph horiz-adv-x="352" d="M20 378v122h28q68 0 104.5 38t55.5 112h22v-150h102v-122h-102v-378h-135v378h-75zM271 711q0 23 17.5 39t43.5 16q25 0 43.5 -16.5t18.5 -49.5q0 -52 -42 -95t-81 -56v26q26 33 26 61q0 13 -13 36q-13 22 -13 39z" />
<glyph horiz-adv-x="352" d="M20 378v122h28q68 0 104.5 38t55.5 112h22v-150h102v-122h-102v-378h-135v378h-75zM85 -101q0 26 19.5 44t49.5 18q29 0 50 -18.5t21 -56.5q0 -59 -48 -108.5t-92 -62.5v29q29 38 29 70q0 15 -14 41q-15 25 -15 44z" />
<glyph horiz-adv-x="372" d="M30 500h28q68 0 104.5 38t55.5 112h22v-150h102v-122h-102v-68h87v-84h-87v-226h-135v226h-75v84h75v68h-75v122z" />
<glyph horiz-adv-x="756" d="M527 -11q-88 0 -149 69q-61 -69 -149 -69q-83 0 -131 54t-48 136v321h135v-309q0 -78 67 -78q43 0 68 41q-34 82 -34 159q0 55 24 91t68 36t68 -36t24 -91q0 -77 -34 -159q25 -41 67 -41q68 0 68 78v309h135v-321q0 -82 -48 -136t-131 -54z" />
<glyph horiz-adv-x="756" d="M527 -11q-88 0 -149 69q-61 -69 -149 -69q-83 0 -131 54t-48 136v321h135v-309q0 -78 67 -78q43 0 68 41q-34 82 -34 159q0 55 24 91t68 36t68 -36t24 -91q0 -77 -34 -159q25 -41 67 -41q68 0 68 78v309h135v-321q0 -82 -48 -136t-131 -54zM541 712l-123 -165h-102 l71 165h154z" />
<glyph horiz-adv-x="756" d="M527 -11q-88 0 -149 69q-61 -69 -149 -69q-83 0 -131 54t-48 136v321h135v-309q0 -78 67 -78q43 0 68 41q-34 82 -34 159q0 55 24 91t68 36t68 -36t24 -91q0 -77 -34 -159q25 -41 67 -41q68 0 68 78v309h135v-321q0 -82 -48 -136t-131 -54zM377 717q27 0 43 -10.5 t33 -32.5l98 -127h-115l-59 75l-59 -75h-115l98 127q17 22 33 32.5t43 10.5z" />
<glyph horiz-adv-x="756" d="M527 -11q-88 0 -149 69q-61 -69 -149 -69q-83 0 -131 54t-48 136v321h135v-309q0 -78 67 -78q43 0 68 41q-34 82 -34 159q0 55 24 91t68 36t68 -36t24 -91q0 -77 -34 -159q25 -41 67 -41q68 0 68 78v309h135v-321q0 -82 -48 -136t-131 -54zM211 628q0 30 20.5 51t50.5 21 t51 -21t21 -51t-21 -50.5t-51 -20.5t-50.5 20.5t-20.5 50.5zM400 628q0 30 20.5 51t50.5 21t51 -21t21 -51t-21 -50.5t-51 -20.5t-50.5 20.5t-20.5 50.5z" />
<glyph horiz-adv-x="756" d="M527 -11q-88 0 -149 69q-61 -69 -149 -69q-83 0 -131 54t-48 136v321h135v-309q0 -78 67 -78q43 0 68 41q-34 82 -34 159q0 55 24 91t68 36t68 -36t24 -91q0 -77 -34 -159q25 -41 67 -41q68 0 68 78v309h135v-321q0 -82 -48 -136t-131 -54zM339 547l-123 165h154l71 -165 h-102z" />
<glyph horiz-adv-x="756" d="M527 -11q-88 0 -149 69q-61 -69 -149 -69q-83 0 -131 54t-48 136v321h135v-309q0 -78 67 -78q43 0 68 41q-34 82 -34 159q0 55 24 91t68 36t68 -36t24 -91q0 -77 -34 -159q25 -41 67 -41q68 0 68 78v309h135v-321q0 -82 -48 -136t-131 -54z" />
<glyph horiz-adv-x="756" d="M527 -11q-88 0 -149 69q-61 -69 -149 -69q-83 0 -131 54t-48 136v321h135v-309q0 -78 67 -78q43 0 68 41q-34 82 -34 159q0 55 24 91t68 36t68 -36t24 -91q0 -77 -34 -159q25 -41 67 -41q68 0 68 78v309h135v-321q0 -82 -48 -136t-131 -54zM340 547l31 87l5.5 16.5t7 20 t9.5 18.5t14.5 18t20 11t27.5 5q29 0 48.5 -18t19.5 -43q0 -37 -40 -63l-79 -52h-64z" />
<glyph horiz-adv-x="756" d="M527 -11q-88 0 -149 69q-61 -69 -149 -69q-83 0 -131 54t-48 136v321h135v-309q0 -78 67 -78q43 0 68 41q-34 82 -34 159q0 55 24 91t68 36t68 -36t24 -91q0 -77 -34 -159q25 -41 67 -41q68 0 68 78v309h135v-321q0 -82 -48 -136t-131 -54zM204 547l98 127q17 22 33 32.5 t43 10.5t43 -10.5t33 -32.5l98 -127h-55l-119 68l-119 -68h-55z" />
<glyph horiz-adv-x="756" d="M527 -11q-88 0 -149 69q-61 -69 -149 -69q-83 0 -131 54t-48 136v321h135v-309q0 -78 67 -78q43 0 68 41q-34 82 -34 159q0 55 24 91t68 36t68 -36t24 -91q0 -77 -34 -159q25 -41 67 -41q68 0 68 78v309h135v-321q0 -82 -48 -136t-131 -54zM212 628q0 30 20.5 51t50.5 21 t51 -21t21 -51t-21 -50.5t-51 -20.5t-50.5 20.5t-20.5 50.5zM401 628q0 30 20.5 51t50.5 21t51 -21t21 -51t-21 -50.5t-51 -20.5t-50.5 20.5t-20.5 50.5z" />
<glyph horiz-adv-x="756" d="M527 -11q-88 0 -149 69q-61 -69 -149 -69q-83 0 -131 54t-48 136v321h135v-309q0 -78 67 -78q43 0 68 41q-34 82 -34 159q0 55 24 91t68 36t68 -36t24 -91q0 -77 -34 -159q25 -41 67 -41q68 0 68 78v309h135v-321q0 -82 -48 -136t-131 -54zM388 634l31 -87h-64l-79 52 q-40 26 -40 63q0 25 19.5 43t48.5 18q15 0 27.5 -5t20 -11t14.5 -18t9.5 -18.5t7 -20z" />
<glyph horiz-adv-x="542" d="M260 -190h-138l81 190l-208 500h145l131 -329l131 329h145z" />
<glyph horiz-adv-x="542" d="M260 -190h-138l81 190l-208 500h145l131 -329l131 329h145zM430 712l-123 -165h-102l71 165h154z" />
<glyph horiz-adv-x="542" d="M260 -190h-138l81 190l-208 500h145l131 -329l131 329h145zM271 717q27 0 43 -10.5t33 -32.5l98 -127h-115l-59 75l-59 -75h-115l98 127q17 22 33 32.5t43 10.5z" />
<glyph horiz-adv-x="542" d="M260 -190h-138l81 190l-208 500h145l131 -329l131 329h145zM105 628q0 30 20.5 51t50.5 21t51 -21t21 -51t-21 -50.5t-51 -20.5t-50.5 20.5t-20.5 50.5zM294 628q0 30 20.5 51t50.5 21t51 -21t21 -51t-21 -50.5t-51 -20.5t-50.5 20.5t-20.5 50.5z" />
<glyph horiz-adv-x="542" d="M260 -190h-138l81 190l-208 500h145l131 -329l131 329h145zM229 547l-123 165h154l71 -165h-102z" />
<glyph horiz-adv-x="708" d="M246 511q0 -29 17 -49t47.5 -35t64.5 -30t76.5 -43.5t75.5 -65.5q9 21 9 61q0 86 -53 151h153q30 -71 30 -150q0 -103 -47 -186q47 -83 47 -164h-132q0 30 -11 60q-92 -71 -222 -71q-128 0 -201.5 67t-73.5 163q0 58 31 108t96 77q-43 50 -43 115q0 80 57.5 136.5 t153.5 56.5q52 0 94 -16v-135q-48 23 -87 23q-36 0 -59 -19t-23 -54zM309 120q93 0 153 57q-41 50 -98.5 83t-109.5 33q-41 0 -64 -21t-23 -54q0 -42 38.5 -70t103.5 -28z" />
<glyph horiz-adv-x="442" d="M94 77q0 37 25 62t62 25q36 0 61.5 -25t25.5 -62q0 -36 -25.5 -61.5t-61.5 -25.5q-37 0 -62 25.5t-25 61.5zM157 224h-5q-24 45 -24 80q0 30 15.5 54t37.5 40.5t44.5 32.5t38 37.5t15.5 47.5q0 31 -18.5 49.5t-46.5 18.5q-27 0 -45 -18t-18 -47q0 -7 2 -17h-133 q0 2 -0.5 6.5t-0.5 10.5q0 80 58 136.5t142 56.5q83 0 140 -57t57 -141q0 -64 -37 -113.5t-115 -101.5q-1 -1 -19 -12t-35 -21.5t-33.5 -23t-19.5 -18.5z" />
<glyph horiz-adv-x="442" d="M348 424q0 -37 -25 -62t-62 -25q-36 0 -61.5 25t-25.5 62q0 36 25.5 61.5t61.5 25.5q37 0 62 -25.5t25 -61.5zM285 287h5q24 -45 24 -80q0 -30 -15.5 -54t-37.5 -40.5t-44.5 -32.5t-38 -37.5t-15.5 -47.5q0 -31 18.5 -49.5t46.5 -18.5q27 0 45 18t18 47q0 7 -2 17h133 q0 -2 0.5 -6.5t0.5 -10.5q0 -80 -58 -136.5t-142 -56.5q-83 0 -140 57t-57 141q0 64 37 113.5t115 101.5q1 1 19 12t35 21.5t33.5 23t19.5 18.5z" />
<glyph horiz-adv-x="613" d="M402 -11q-92 0 -158 48v143q26 -27 66 -48t81 -21q56 0 56 38q0 17 -12 27t-37 20q-30 12 -47 20.5t-41.5 26.5t-36 44t-11.5 61q0 107 118 152q20 7 20 30q0 30 -27 51t-70 21q-55 0 -85 -35.5t-30 -90.5v-476h-135v464q0 113 71.5 180.5t186.5 67.5q105 0 165 -57 t60 -155v-122h-107q-35 0 -35 -24q0 -4 1 -7t3 -6t4.5 -5t6.5 -4.5t7 -4.5t9.5 -4.5t10 -4t11 -4.5t11.5 -4q64 -25 96.5 -59.5t32.5 -95.5q0 -81 -53.5 -123.5t-131.5 -42.5z" />
<glyph horiz-adv-x="567" d="M223 543v-43h95v-122h-95v-378h-135v378h-68v122h68v52q0 83 47 121.5t112 38.5q31 0 71 -12v-126q-22 14 -49 14q-46 0 -46 -45zM514 -190h-135v690h135v-690zM369 635q0 32 23 54.5t55 22.5q31 0 54 -23t23 -54q0 -32 -22.5 -55t-54.5 -23t-55 23t-23 55z" />
<glyph horiz-adv-x="858" d="M514 500h95v-122h-95v-378h-135v378h-156v-378h-135v378h-68v122h68v52q0 83 47 121.5t112 38.5q31 0 71 -12v-126q-22 14 -49 14q-46 0 -46 -45v-43h156v52q0 83 47 121.5t112 38.5q31 0 71 -12v-126q-22 14 -49 14q-46 0 -46 -45v-43zM805 -190h-135v690h135v-690z M660 635q0 32 23 54.5t55 22.5t54.5 -23t22.5 -54q0 -32 -22.5 -55t-54.5 -23t-55 23t-23 55z" />
<glyph d="M550 250q0 -109 -74.5 -185t-187.5 -76q-114 0 -188 76t-74 185t74 185t188 76q113 0 187.5 -76t74.5 -185zM408 250q0 58 -32.5 94.5t-87.5 36.5q-56 0 -88 -36.5t-32 -94.5q0 -57 32 -93.5t88 -36.5q55 0 87.5 36.5t32.5 93.5z" />
<glyph d="M551 0h-514v128h219v244h-152v128h287v-372h160v-128z" />
<glyph d="M346 128h199v-128h-519v43q302 152 302 271q0 32 -18.5 51t-46.5 19q-27 0 -45 -18.5t-18 -48.5q0 -11 1 -16h-132q0 2 -0.5 7t-0.5 11q0 79 58 135.5t142 56.5q83 0 140 -56t57 -138q0 -76 -52 -134q-13 -15 -30 -29t-27 -20z" />
<glyph d="M526 28q0 -97 -71 -163t-186 -66q-135 0 -226 95v163q101 -127 219 -127q58 0 90.5 29.5t32.5 77.5q0 47 -31 77t-81 30q-42 0 -72 -22l-24 20l134 236h-253v122h466l-149 -261q74 -28 112.5 -84t38.5 -127z" />
<glyph d="M219 500h145q0 -124 -38 -220t-92 -158h145v164h137v-476h-137v190h-362v43q96 94 149 198t53 259z" />
<glyph d="M391 40q0 52 -37.5 87t-106.5 35q-48 0 -88.5 -16t-62.5 -35l-31 19q40 124 40 370h401v-122h-275q-2 -63 -16 -123q38 22 94 22q95 0 159.5 -66.5t64.5 -165.5q0 -103 -70.5 -174.5t-184.5 -71.5q-111 0 -180 67.5t-70 168.5h141q1 -45 29.5 -75.5t78.5 -30.5 q52 0 83 32t31 79z" />
<glyph d="M27 245q0 75 44 147l187 308h151l-121 -200q113 0 187 -74t74 -181t-74 -181.5t-187 -74.5t-187 74.5t-74 181.5zM408 245q0 53 -34.5 89.5t-85.5 36.5q-52 0 -86 -36.5t-34 -89.5q0 -52 34 -88.5t86 -36.5q51 0 85.5 36.5t34.5 88.5z" />
<glyph d="M577 500l-392 -690h-152l323 568h-311v122h532z" />
<glyph d="M288 712q87 0 144.5 -58t57.5 -140q0 -68 -47 -116q43 -23 71 -72t28 -108q0 -95 -70.5 -162t-183.5 -67t-183.5 67t-70.5 162q0 59 28 108t71 72q-47 48 -47 116q0 82 57.5 140t144.5 58zM273 429h30l36 44q18 21 18 47q0 30 -19.5 50.5t-49.5 20.5t-49.5 -20.5 t-19.5 -50.5q0 -26 18 -47zM288 120q60 0 86.5 32.5t26.5 73.5q0 52 -32 81h-162q-32 -29 -32 -81q0 -41 26.5 -73.5t86.5 -32.5z" />
<glyph d="M549 255q0 -75 -44 -147l-181 -298h-151l115 190q-113 0 -187 74t-74 181t74 181.5t187 74.5t187 -74.5t74 -181.5zM168 255q0 -53 34.5 -89.5t85.5 -36.5q52 0 86 36.5t34 89.5q0 52 -34 88.5t-86 36.5q-51 0 -85.5 -36.5t-34.5 -88.5z" />
<glyph d="M538 190h-500v120h500v-120z" />
<glyph horiz-adv-x="800" d="M762 190h-724v120h724v-120z" />
<glyph horiz-adv-x="516" d="M137 -190h-123l365 890h123z" />
<glyph horiz-adv-x="360" d="M240 -190h-120v890h120v-890z" />
<glyph horiz-adv-x="516" d="M502 -190h-123l-365 890h123z" />
<glyph horiz-adv-x="379" d="M353 -145l-80 -81q-96 69 -164.5 196.5t-68.5 284.5t68.5 284.5t164.5 196.5l80 -81q-81 -59 -137 -162.5t-56 -237.5t56.5 -238t136.5 -162z" />
<glyph horiz-adv-x="379" d="M106 -226l-80 81q80 58 136.5 162t56.5 238t-56 237.5t-137 162.5l80 81q96 -69 164.5 -196.5t68.5 -284.5t-68.5 -284.5t-164.5 -196.5z" />
<glyph d="M550 250q0 -109 -74.5 -185t-187.5 -76q-114 0 -188 76t-74 185t74 185t188 76q113 0 187.5 -76t74.5 -185zM408 250q0 58 -32.5 94.5t-87.5 36.5q-56 0 -88 -36.5t-32 -94.5q0 -57 32 -93.5t88 -36.5q55 0 87.5 36.5t32.5 93.5z" />
<glyph d="M551 0h-514v128h219v244h-152v128h287v-372h160v-128z" />
<glyph d="M346 128h199v-128h-519v43q302 152 302 271q0 32 -18.5 51t-46.5 19q-27 0 -45 -18.5t-18 -48.5q0 -11 1 -16h-132q0 2 -0.5 7t-0.5 11q0 79 58 135.5t142 56.5q83 0 140 -56t57 -138q0 -76 -52 -134q-13 -15 -30 -29t-27 -20z" />
<glyph d="M392 -14q0 76 -55 122.5t-137 51.5v18l113 200h-256v122h469l-149 -262q76 -29 115 -84t39 -125q0 -96 -68 -163t-198 -67q-111 0 -173 49t-62 116q0 40 22 63t55 23q43 0 61 -31q-18 -28 -18 -65q0 -45 30 -78.5t85 -33.5q63 0 95 43.5t32 100.5z" />
<glyph d="M226 500h145q0 -124 -38 -220t-92 -158h145v164h137v-476h-137v190h-362v43q96 94 149 198t53 259z" />
<glyph d="M230 162q-79 0 -138 -51l-31 19q40 124 40 370h401v-122h-275q-2 -63 -16 -123q38 22 94 22q95 0 159.5 -66.5t64.5 -163.5q0 -99 -70 -173.5t-201 -74.5q-106 0 -166 49t-60 116q0 41 22 63.5t56 22.5q42 0 60 -31q-17 -29 -17 -63q0 -46 28 -80t85 -34q66 0 99 45.5 t33 106.5q0 72 -45 120t-123 48z" />
<glyph d="M71 392l66 108q12 19 33.5 58.5t34.5 59t32 44t40 35t46 10.5q33 0 53 -20t20 -49t-19.5 -49t-52.5 -20q-17 0 -22 5q1 10 -9.5 22t-29.5 12q-20 0 -33 -14t-13 -35q0 -26 20.5 -42.5t50.5 -16.5q113 0 187 -74t74 -181t-74 -181.5t-187 -74.5t-187 74.5t-74 181.5 q0 75 44 147zM408 245q0 53 -34.5 89.5t-85.5 36.5q-52 0 -86 -36.5t-34 -89.5q0 -52 34 -88.5t86 -36.5q51 0 85.5 36.5t34.5 88.5z" />
<glyph d="M569 500l-284 -500q-71 0 -108 -29t-37 -63q0 -17 10.5 -28t26.5 -11q20 0 27 15t-1 27q14 22 47 22q28 0 46 -18.5t18 -44.5q0 -30 -24 -50.5t-63 -20.5q-50 0 -86 32t-36 81q0 39 28 88l215 378h-311v122h532z" />
<glyph d="M288 712q87 0 144.5 -58t57.5 -140q0 -68 -47 -116q43 -23 71 -72t28 -108q0 -95 -70.5 -162t-183.5 -67t-183.5 67t-70.5 162q0 59 28 108t71 72q-47 48 -47 116q0 82 57.5 140t144.5 58zM303 429l36 44q39 48 39 96q0 42 -23.5 70t-66.5 28t-66.5 -28t-23.5 -70 q0 -48 39 -96l36 -44h30zM288 120q60 0 86.5 32.5t26.5 73.5q0 52 -32 81h-162q-32 -29 -32 -81q0 -41 26.5 -73.5t86.5 -32.5z" />
<glyph d="M288 0q-113 0 -187 74t-74 181t74 181.5t187 74.5t187 -74.5t74 -181.5q0 -75 -44 -147l-66 -108q-11 -18 -32 -55.5t-32.5 -56t-30 -41.5t-38.5 -33t-43 -10q-33 0 -53 20t-20 50q0 28 18.5 48t50.5 20q20 0 25 -5q-2 -13 8 -24t28 -11q17 0 28.5 12.5t11.5 29.5 q0 25 -18.5 40.5t-53.5 15.5zM168 255q0 -53 34.5 -89.5t85.5 -36.5q52 0 86 36.5t34 89.5q0 52 -34 88.5t-86 36.5q-51 0 -85.5 -36.5t-34.5 -88.5z" />
<glyph horiz-adv-x="320" d="M284 -226h-231v962h231v-112h-111v-738h111v-112z" />
<glyph horiz-adv-x="320" d="M267 -226h-231v112h111v738h-111v112h231v-962z" />
<glyph horiz-adv-x="397" d="M18 309h39q42 0 67.5 22.5t25.5 58.5q0 20 -16 71.5t-16 88.5q0 91 69.5 138.5t189.5 47.5v-106q-9 1 -25 1q-60 0 -87 -27.5t-27 -66.5q0 -23 14.5 -76.5t14.5 -80.5q0 -44 -26.5 -78t-85.5 -45v-4q59 -11 85.5 -45t26.5 -78q0 -27 -14.5 -80.5t-14.5 -76.5 q0 -39 27 -66.5t87 -27.5q16 0 25 1v-106q-120 0 -189.5 47.5t-69.5 138.5q0 37 16 88.5t16 71.5q0 36 -25.5 58.5t-67.5 22.5h-39v108z" />
<glyph horiz-adv-x="397" d="M340 309h39v-108h-39q-42 0 -67.5 -22.5t-25.5 -58.5q0 -20 16 -71.5t16 -88.5q0 -91 -69.5 -138.5t-189.5 -47.5v106q9 -1 25 -1q59 0 86.5 27.5t27.5 66.5q0 23 -14.5 76.5t-14.5 80.5q0 44 26.5 78t85.5 45v4q-59 11 -85.5 45t-26.5 78q0 27 14.5 80.5t14.5 76.5 q0 39 -27.5 66.5t-86.5 27.5q-16 0 -25 -1v106q120 0 189.5 -47.5t69.5 -138.5q0 -37 -16 -88.5t-16 -71.5q0 -36 25.5 -58.5t67.5 -22.5z" />
<glyph horiz-adv-x="545" d="M250 309q-77 50 -114.5 99t-37.5 112q0 80 54.5 136t133.5 56q78 0 133 -53.5t55 -126.5q0 -20 -3 -30h-133q5 18 5 29q0 28 -16 45.5t-42 17.5q-27 0 -43.5 -18.5t-16.5 -49.5q0 -51 58 -91l94 -65q24 -17 39.5 -29.5t38 -37.5t34.5 -57.5t12 -70.5q0 -61 -22 -99h-5 q-1 22 -9 43.5t-24.5 41.5t-30.5 34.5t-40 33.5t-39.5 28.5t-43 28t-37.5 23.5zM295 202q77 -50 114.5 -99t37.5 -112q0 -80 -54.5 -136t-133.5 -56q-78 0 -133 53.5t-55 126.5q0 19 3 30h133q-5 -17 -5 -29q0 -28 16 -45.5t42 -17.5q27 0 43.5 18.5t16.5 49.5q0 51 -58 91 l-94 65q-24 17 -39.5 29.5t-38 37.5t-34.5 57.5t-12 70.5q0 61 22 99h5q1 -22 9 -43.5t24.5 -41.5t30.5 -34.5t40 -33.5t39.5 -28.5t43 -28t37.5 -23.5z" />
<glyph horiz-adv-x="721" d="M681 250q0 -132 -94 -226t-227 -94q-132 0 -226 94t-94 226q0 133 94 227t226 94q133 0 227 -94t94 -227zM535 322q0 -41 -24 -73.5t-75 -42.5l92 -137h-107l-112 175v-175h-95v363h193q57 0 92.5 -31t35.5 -79zM309 343v-83q26 -7 61 -7q37 0 53.5 14t16.5 34 q0 19 -15 30.5t-39 11.5h-77zM631 250q0 112 -79.5 191.5t-191.5 79.5t-191 -79.5t-79 -191.5t79 -191t191 -79t191.5 79t79.5 191z" />
<glyph horiz-adv-x="762" d="M381 119q-43 0 -65 29.5t-22 74.5q0 59 25 106q-33 49 -120 49h-11v-378h-135v500h153q117 0 175 -65q58 65 175 65h153v-500h-135v378h-11q-87 0 -120 -49q25 -47 25 -106q0 -45 -22 -74.5t-65 -29.5z" />
<glyph horiz-adv-x="762" d="M381 119q-43 0 -65 29.5t-22 74.5q0 59 25 106q-33 49 -120 49h-11v-378h-135v500h153q117 0 175 -65q58 65 175 65h153v-500h-135v378h-11q-87 0 -120 -49q25 -47 25 -106q0 -45 -22 -74.5t-65 -29.5z" />
<glyph horiz-adv-x="542" d="M339 0h-136l-208 500h145l131 -329l131 329h145z" />
<glyph horiz-adv-x="542" d="M339 0h-136l-208 500h145l131 -329l131 329h145z" />
<glyph horiz-adv-x="902" d="M168 254q0 -58 36 -97t90 -39q42 0 74.5 25t45.5 66h141q-15 -97 -87 -158.5t-176 -61.5q-116 0 -191 76t-75 190q0 115 78.5 185.5t198.5 70.5q36 0 128.5 -11t132.5 -11q75 0 111 24.5t36 65.5q0 37 -28.5 62.5t-80.5 25.5t-80 -25t-28 -63q0 -30 18 -55 q-25 -9 -52 10.5t-27 57.5q0 49 47 84.5t124 35.5q92 0 136.5 -50t44.5 -119v-43h102v-122h-102v-378h-135v378q-53 -15 -115 -15q-44 0 -120.5 10t-101.5 10q-67 0 -106 -34.5t-39 -94.5z" />
<glyph horiz-adv-x="777" d="M471 712q94 0 141.5 -50.5t47.5 -118.5v-43h102v-122h-102v-378h-135v378q-45 -15 -96 -15t-126 16.5t-88 16.5q-37 0 -37 -27q0 -10 10 -18.5t20.5 -13t31.5 -11.5q37 -13 56.5 -20t48.5 -22.5t43.5 -31.5t25.5 -42t11 -58q0 -79 -55 -121t-141 -42q-111 0 -187 58v143 q77 -79 180 -79q63 0 63 37q0 13 -9.5 22.5t-21.5 14t-38 11.5q-36 10 -63 21.5t-55 31t-43 48t-15 65.5q0 66 48 107.5t124 41.5q30 0 111.5 -11t118.5 -11q68 0 102 25t34 65q0 38 -28.5 63t-80.5 25t-80 -25t-28 -64q0 -32 18 -54q-25 -9 -52 10.5t-27 57.5q0 50 46.5 85 t124.5 35z" />
<glyph horiz-adv-x="588" d="M422 250q0 55 -37.5 93.5t-90.5 38.5q-54 0 -91.5 -38.5t-37.5 -93.5q0 -54 37.5 -92.5t91.5 -38.5q53 0 90.5 38.5t37.5 92.5zM26 250q0 109 77.5 185t190.5 76t190.5 -76t77.5 -185t-77.5 -185t-190.5 -76t-190.5 76t-77.5 185zM254 250q0 16 12 28t28 12t28 -12 t12 -28t-12 -28t-28 -12t-28 12t-12 28z" />
<glyph d="M550 250q0 -109 -74.5 -185t-187.5 -76q-114 0 -188 76t-74 185t74 185t188 76q113 0 187.5 -76t74.5 -185zM408 250q0 58 -32.5 94.5t-87.5 36.5q-56 0 -88 -36.5t-32 -94.5q0 -57 32 -93.5t88 -36.5q55 0 87.5 36.5t32.5 93.5zM248 250q0 16 12 28t28 12t28 -12t12 -28 t-12 -28t-28 -12t-28 12t-12 28z" />
<glyph horiz-adv-x="786" d="M393 153l-66 -153h-124l-208 500h145l131 -329l40 95q10 25 10 38q0 12 -9.5 41t-9.5 54q0 46 25.5 75t65.5 29t65.5 -29t25.5 -75q0 -25 -9.5 -54t-9.5 -41q0 -13 10 -38l40 -95l131 329h145l-208 -500h-124z" />
<glyph horiz-adv-x="786" d="M393 153l-66 -153h-124l-208 500h145l131 -329l40 95q10 25 10 38q0 12 -9.5 41t-9.5 54q0 46 25.5 75t65.5 29t65.5 -29t25.5 -75q0 -25 -9.5 -54t-9.5 -41q0 -13 10 -38l40 -95l131 329h145l-208 -500h-124zM557 712l-123 -165h-102l71 165h154z" />
<glyph horiz-adv-x="786" d="M393 717q27 0 43 -10.5t33 -32.5l98 -127h-115l-59 75l-59 -75h-115l98 127q17 22 33 32.5t43 10.5zM393 153l-66 -153h-124l-208 500h145l131 -329l40 95q10 25 10 38q0 12 -9.5 41t-9.5 54q0 46 25.5 75t65.5 29t65.5 -29t25.5 -75q0 -25 -9.5 -54t-9.5 -41 q0 -13 10 -38l40 -95l131 329h145l-208 -500h-124z" />
<glyph horiz-adv-x="786" d="M227 628q0 30 20.5 51t50.5 21t51 -21t21 -51t-21 -50.5t-51 -20.5t-50.5 20.5t-20.5 50.5zM416 628q0 30 20.5 51t50.5 21t51 -21t21 -51t-21 -50.5t-51 -20.5t-50.5 20.5t-20.5 50.5zM393 153l-66 -153h-124l-208 500h145l131 -329l40 95q10 25 10 38q0 12 -9.5 41 t-9.5 54q0 46 25.5 75t65.5 29t65.5 -29t25.5 -75q0 -25 -9.5 -54t-9.5 -41q0 -13 10 -38l40 -95l131 329h145l-208 -500h-124z" />
<glyph horiz-adv-x="786" d="M351 547l-123 165h154l71 -165h-102zM393 153l-66 -153h-124l-208 500h145l131 -329l40 95q10 25 10 38q0 12 -9.5 41t-9.5 54q0 46 25.5 75t65.5 29t65.5 -29t25.5 -75q0 -25 -9.5 -54t-9.5 -41q0 -13 10 -38l40 -95l131 329h145l-208 -500h-124z" />
<glyph horiz-adv-x="786" d="M393 153l-66 -153h-124l-208 500h145l131 -329l40 95q10 25 10 38q0 12 -9.5 41t-9.5 54q0 46 25.5 75t65.5 29t65.5 -29t25.5 -75q0 -25 -9.5 -54t-9.5 -41q0 -13 10 -38l40 -95l131 329h145l-208 -500h-124z" />
<glyph horiz-adv-x="786" d="M393 153l-66 -153h-124l-208 500h145l131 -329l40 95q10 25 10 38q0 12 -9.5 41t-9.5 54q0 46 25.5 75t65.5 29t65.5 -29t25.5 -75q0 -25 -9.5 -54t-9.5 -41q0 -13 10 -38l40 -95l131 329h145l-208 -500h-124zM345 547l31 87l5.5 16.5t7 20t9.5 18.5t14.5 18t20 11 t27.5 5q29 0 48.5 -18t19.5 -43q0 -37 -40 -63l-79 -52h-64z" />
<glyph horiz-adv-x="786" d="M219 547l98 127q17 22 33 32.5t43 10.5t43 -10.5t33 -32.5l98 -127h-55l-119 68l-119 -68h-55zM393 153l-66 -153h-124l-208 500h145l131 -329l40 95q10 25 10 38q0 12 -9.5 41t-9.5 54q0 46 25.5 75t65.5 29t65.5 -29t25.5 -75q0 -25 -9.5 -54t-9.5 -41q0 -13 10 -38 l40 -95l131 329h145l-208 -500h-124z" />
<glyph horiz-adv-x="786" d="M227 628q0 30 20.5 51t50.5 21t51 -21t21 -51t-21 -50.5t-51 -20.5t-50.5 20.5t-20.5 50.5zM416 628q0 30 20.5 51t50.5 21t51 -21t21 -51t-21 -50.5t-51 -20.5t-50.5 20.5t-20.5 50.5zM393 153l-66 -153h-124l-208 500h145l131 -329l40 95q10 25 10 38q0 12 -9.5 41 t-9.5 54q0 46 25.5 75t65.5 29t65.5 -29t25.5 -75q0 -25 -9.5 -54t-9.5 -41q0 -13 10 -38l40 -95l131 329h145l-208 -500h-124z" />
<glyph horiz-adv-x="786" d="M409 634l31 -87h-64l-79 52q-40 26 -40 63q0 25 19.5 43t48.5 18q15 0 27.5 -5t20 -11t14.5 -18t9.5 -18.5t7 -20zM393 153l-66 -153h-124l-208 500h145l131 -329l40 95q10 25 10 38q0 12 -9.5 41t-9.5 54q0 46 25.5 75t65.5 29t65.5 -29t25.5 -75q0 -25 -9.5 -54 t-9.5 -41q0 -13 10 -38l40 -95l131 329h145l-208 -500h-124z" />
<glyph d="M348 500v-190h190v-120h-190v-190h-120v190h-190v120h190v190h120z" />
<glyph d="M38 310h500v-120h-500v120z" />
<glyph d="M217 428q0 30 20.5 51t50.5 21t51 -21t21 -51t-21 -50.5t-51 -20.5t-50.5 20.5t-20.5 50.5zM217 71q0 30 20.5 51t50.5 21t51 -21t21 -51t-21 -50.5t-51 -20.5t-50.5 20.5t-20.5 50.5zM38 310h500v-120h-500v120z" />
<glyph horiz-adv-x="600" d="M38 410h500v-120h-500v120zM38 210h500v-120h-500v120z" />
<glyph d="M118 505l170 -170l170 170l85 -85l-170 -170l170 -170l-85 -85l-170 170l-170 -170l-85 85l170 170l-170 170z" />
<glyph d="M75 250l249 250h162l-251 -250l251 -250h-162z" />
<glyph d="M252 500l249 -250l-249 -250h-162l251 250l-251 250h162z" />
<glyph horiz-adv-x="939" d="M284 227q17 0 17 -16t-22 -16q-12 0 -16 1v31h21zM165 176l15 50l15 -50h-30zM662 227q18 0 18 -16q0 -17 -22 -17q-10 0 -14 1v32h18zM470 254q-2 21 -13 37q2 1 6.5 4t6.5 5l12 -9q-12 -19 -12 -37zM455 369q5 0 8 -3q-4 -8 -4 -15q0 -15 11 -15q10 0 10 15q0 7 -4 15 q3 3 8 3q12 0 12 -12q0 -20 -26 -44q-26 23 -26 44q0 12 11 12zM546 299q0 -13 -20 -13q-12 0 -30 8q13 16 32 16q18 0 18 -11zM470 725q210 -106 319.5 -232t109.5 -262q0 -111 -64 -177t-169 -66q-79 0 -133 45.5t-54 111.5v105q0 19 11 36q18 -9 36 -9q13 0 21.5 6 t8.5 16q0 9 -8 15t-20 6q-22 0 -40 -21q-1 1 -5 3.5t-6 4.5q28 26 28 50q0 10 -6 16t-15 6q-8 0 -14 -6q-8 6 -15 6q-9 0 -15 -6t-6 -16q0 -24 28 -50q-2 -1 -5.5 -3.5t-4.5 -4.5q-19 21 -40 21q-28 0 -28 -21q0 -22 29 -22q18 0 36 9q11 -17 11 -36v-105q0 -68 -52 -112 q-53 -45 -135 -45q-104 0 -168 66q-65 67 -65 177q0 136 109.5 262t320.5 232zM206 140h20l-35 103h-23l-35 -103h20l7 20h40zM302 140h22q-21 38 -24 43q21 6 21 28q0 32 -36 32h-41v-103h19v39h18zM415 226q-14 19 -38 19q-15 0 -25 -8t-10 -21q0 -11 6.5 -17.5t11.5 -8.5 t17 -5q23 -7 23 -16q0 -14 -19 -14q-18 0 -31 16l-14 -11q13 -21 46 -21q16 0 26 8.5t10 22.5q0 11 -6 18t-12 9t-17 5q-23 5 -23 15q0 12 16 12t26 -13zM569 184l39 59h-21l-27 -41l-27 41h-22q38 -58 39 -59v-44h19v44zM663 178q16 0 26 9t10 24q0 32 -36 32h-38v-103h19 v38h19zM795 140v18h-56v27h35v17h-35v24h54v17h-73v-103h75zM393 299q0 11 19 11q18 0 31 -16q-18 -8 -30 -8q-20 0 -20 13z" />
<glyph d="M385 174q-41 0 -115.5 19.5t-120.5 19.5q-76 0 -112 -39h-17q4 76 51.5 114t115.5 38q37 0 114.5 -19.5t124.5 -19.5q78 0 113 39h17q-4 -76 -51.5 -114t-119.5 -38z" />
<glyph d="M545 455l-77 -77l-179 178l-179 -178l-78 77l257 257z" />
<glyph d="M348 600v-150h190v-120h-190v-150h-120v150h-190v120h190v150h120zM38 120h500v-120h-500v120z" />
<glyph d="M38 120h500v-120h-500v120zM73 390l244 210h176l-251 -210l251 -210h-176z" />
<glyph horiz-adv-x="600" d="M38 120h500v-120h-500v120zM259 600l244 -210l-244 -210h-176l251 210l-251 210h176z" />
<glyph horiz-adv-x="543" d="M378 -8q0 69 -39 103h-164v122h30q61 0 92 26.5t31 68.5q0 35 -19 53.5t-46 18.5t-45 -18.5t-18 -48.5q0 -11 1 -16h-132q0 2 -0.5 7t-0.5 11q0 79 58 135.5t141 56.5t140.5 -56t57.5 -135q0 -75 -54 -123q106 -59 106 -174q0 -90 -69 -157t-198 -67q-111 0 -172.5 49 t-61.5 116q0 40 22 63t55 23q43 0 61 -31q-18 -28 -18 -65q0 -45 29.5 -78.5t85.5 -33.5q64 0 95.5 44.5t31.5 105.5z" />
<glyph horiz-adv-x="549" d="M181 217h30q61 0 92 26.5t31 68.5q0 35 -19 53.5t-46 18.5t-45 -18.5t-18 -48.5q0 -11 1 -16h-132q0 2 -0.5 7t-0.5 11q0 79 58 135.5t141 56.5t140.5 -56t57.5 -135q0 -75 -54 -123q106 -59 106 -176q0 -95 -69.5 -158.5t-183.5 -63.5t-184.5 64t-70.5 155q0 7 0.5 12 t0.5 8h142q-2 -12 -2 -18q0 -35 26.5 -62.5t86.5 -27.5t86.5 27t26.5 63q0 48 -37 75h-164v122z" />
<glyph d="M390 -8q0 69 -39 103h-164v122h30q61 0 92 26.5t31 68.5q0 35 -19 53.5t-46 18.5t-45 -18.5t-18 -48.5q0 -11 1 -16h-132q0 2 -0.5 7t-0.5 11q0 79 58 135.5t141 56.5t140.5 -56t57.5 -135q0 -75 -54 -123q106 -59 106 -174q0 -90 -69 -157t-198 -67q-111 0 -172.5 49 t-61.5 116q0 40 22 63t55 23q43 0 61 -31q-18 -28 -18 -65q0 -45 29.5 -78.5t85.5 -33.5q64 0 95.5 44.5t31.5 105.5z" />
<glyph d="M187 217h30q61 0 92 26.5t31 68.5q0 35 -19 53.5t-46 18.5t-45 -18.5t-18 -48.5q0 -11 1 -16h-132q0 2 -0.5 7t-0.5 11q0 79 58 135.5t141 56.5t140.5 -56t57.5 -135q0 -75 -54 -123q106 -59 106 -176q0 -95 -69.5 -158.5t-183.5 -63.5t-184.5 64t-70.5 155q0 7 0.5 12 t0.5 8h142q-2 -12 -2 -18q0 -35 26.5 -62.5t86.5 -27.5t86.5 27t26.5 63q0 48 -37 75h-164v122z" />
<glyph horiz-adv-x="295" d="M52 700h135v-542q0 -46 43 -46q33 0 52 17v-121q-34 -17 -81 -17q-63 0 -106 33t-43 105v571z" />
<glyph horiz-adv-x="295" d="M52 700h135v-542q0 -46 43 -46q33 0 52 17v-121q-34 -17 -81 -17q-63 0 -106 33t-43 105v571zM72 728l25 60q1 2 4.5 11.5t6 14t8 13t11 12.5t15.5 7.5t22 3.5q24 0 39.5 -12.5t15.5 -30.5q0 -25 -32 -43l-64 -36h-51z" />
<glyph horiz-adv-x="370" d="M52 700h135v-542q0 -46 43 -46q33 0 52 17v-121q-34 -17 -81 -17q-63 0 -106 33t-43 105v571zM238 642q0 29 20 49.5t50 20.5t51 -21.5t21 -65.5q0 -68 -48.5 -125t-93.5 -72v34q30 44 30 82q0 21 -15 46q-15 27 -15 52z" />
<glyph horiz-adv-x="295" d="M52 700h135v-542q0 -46 43 -46q33 0 52 17v-121q-34 -17 -81 -17q-63 0 -106 33t-43 105v571zM84 -101q0 26 19.5 44t49.5 18q29 0 50 -18.5t21 -56.5q0 -59 -48 -108.5t-92 -62.5v29q29 38 29 70q0 15 -14 41q-15 25 -15 44z" />
<glyph horiz-adv-x="471" d="M52 700h135v-542q0 -46 43 -46q33 0 52 17v-121q-34 -17 -81 -17q-63 0 -106 33t-43 105v571zM273 250q0 37 25 62t62 25q36 0 61.5 -25t25.5 -62q0 -36 -25.5 -61.5t-61.5 -25.5q-37 0 -62 25.5t-25 61.5z" />
<glyph horiz-adv-x="318" d="M73 700h135v-222l74 33v-57l-74 -33v-265q0 -46 43 -46q33 0 52 17v-121q-34 -17 -81 -17q-63 0 -106 33t-43 105v233l-53 -23v57l53 23v283z" />
<glyph horiz-adv-x="295" d="M52 700h135v-542q0 -46 43 -46q33 0 52 17v-121q-34 -17 -81 -17q-63 0 -106 33t-43 105v571z" />
<glyph horiz-adv-x="295" d="M52 700h135v-542q0 -46 43 -46q33 0 52 17v-121q-34 -17 -81 -17q-63 0 -106 33t-43 105v571zM243 845l-99 -114h-82l57 114h124z" />
<glyph horiz-adv-x="365" d="M52 700h135v-542q0 -46 43 -46q33 0 52 17v-121q-34 -17 -81 -17q-63 0 -106 33t-43 105v571zM238 642q0 29 20 49.5t50 20.5t51 -21.5t21 -65.5q0 -68 -48.5 -125t-93.5 -72v34q30 44 30 82q0 21 -15 46q-15 27 -15 52z" />
<glyph horiz-adv-x="295" d="M52 700h135v-542q0 -46 43 -46q33 0 52 17v-121q-34 -17 -81 -17q-63 0 -106 33t-43 105v571zM50 -101q0 26 19.5 44t49.5 18q29 0 50 -18.5t21 -56.5q0 -59 -48 -108.5t-92 -62.5v29q29 38 29 70q0 15 -14 41q-15 25 -15 44z" />
<glyph horiz-adv-x="471" d="M52 700h135v-542q0 -46 43 -46q33 0 52 17v-121q-34 -17 -81 -17q-63 0 -106 33t-43 105v571zM273 250q0 37 25 62t62 25q36 0 61.5 -25t25.5 -62q0 -36 -25.5 -61.5t-61.5 -25.5q-37 0 -62 25.5t-25 61.5z" />
<glyph horiz-adv-x="318" d="M73 700h135v-222l74 33v-109l-74 -33v-213q0 -46 43 -46q33 0 52 17v-121q-34 -17 -81 -17q-63 0 -106 33t-43 105v181l-53 -23v109l53 23v283z" />
</font>
</defs>
</svg>
