<?xml version="1.0" standalone="no"?>
<!DOCTYPE svg PUBLIC "-//W3C//DTD SVG 1.1//EN" "http://www.w3.org/Graphics/SVG/1.1/DTD/svg11.dtd" >
<svg xmlns="http://www.w3.org/2000/svg">
<metadata></metadata>
<defs>
<font id="gyoshobold" horiz-adv-x="728" >
<font-face units-per-em="1000" ascent="800" descent="-200" />
<missing-glyph horiz-adv-x="187" />
<glyph unicode="&#xd;" horiz-adv-x="149" />
<glyph unicode=" "  horiz-adv-x="187" />
<glyph unicode="&#x09;" horiz-adv-x="187" />
<glyph unicode="&#xa0;" horiz-adv-x="187" />
<glyph unicode="!" horiz-adv-x="296" d="M204 602q14 -81 24 -153q4 -31 8 -63t6 -61t3 -54.5t-1 -42.5q-2 -13 -8.5 -27.5t-23.5 -25t-47 -14t-78 6.5q22 50 28 118q5 58 -4 141t-49 190q-8 5 -11 16q-2 9 2 23t21 35q23 28 47.5 42.5t44 7t30.5 -40t8 -98.5zM98 126q26 6 45 6t33 -5t23 -13.5t15 -18.5 q13 -23 13 -57q-12 -26 -34 -32t-45.5 1.5t-44.5 24t-31.5 35t-6 35.5t32.5 24z" />
<glyph unicode="&#x22;" horiz-adv-x="833" />
<glyph unicode="#" horiz-adv-x="694" d="M588 294q29 -23 44.5 -46t9 -41t-39 -27t-98.5 -3h-2q-2 0 -3.5 -0.5t-3.5 -0.5q1 -26 0.5 -49t-2.5 -40q-2 -16 -7.5 -34t-19 -31.5t-36.5 -19t-60 5.5q5 17 10 41q5 20 9.5 49.5t7.5 67.5q-28 -2 -58.5 -4.5t-62.5 -4.5v-38.5t-2 -31.5q-2 -16 -7.5 -34t-19 -31.5 t-36.5 -19t-60 5.5q5 15 10 37q4 19 8.5 46t7.5 63q-29 0 -48 3q-13 1 -28.5 8t-26.5 23.5t-15.5 44.5t4.5 72q12 -6 30 -12q15 -5 37 -10.5t51 -9.5q0 22 -1.5 45t-3.5 48q-33 0 -54 3q-13 2 -28.5 8.5t-26.5 23t-15.5 44.5t4.5 72q11 -5 27 -10q14 -5 32.5 -10t44.5 -9 q-5 30 -12 63q-7 7 -8 19q-2 11 2 28t18 43q19 35 38 53.5t34 10.5t22.5 -47t2.5 -119q0 -7 1 -16q1 -14 3 -43q26 1 56 3t62 7l-6 30t-6 31q-7 7 -8 19q-2 11 2 28t18 43q19 35 38 53.5t34 10.5t22.5 -47t2.5 -119q1 -3 1 -7v-8.5t1 -10.5q12 3 28 8q5 7 16 9 q9 2 23.5 -2.5t35.5 -20.5q29 -23 44.5 -46t9 -41t-39 -27t-98.5 -3q-1 -1 -3 -1h-8q2 -21 3 -43l2 -44q5 2 11 3.5t11 3.5q5 7 16 9q9 2 23 -2.5t36 -21.5zM394 379q-29 -3 -61 -5.5t-64 -4.5q1 -24 2 -49.5t3 -51.5q57 0 126 12q0 46 -6 99z" />
<glyph unicode="$" horiz-adv-x="661" d="M529 528q-74 6 -131 2q-25 -2 -48.5 -6t-42 -12t-30 -20.5t-11.5 -30.5q0 -20 19 -41.5t49 -44.5t67.5 -46.5t74 -48.5t67.5 -50.5t49 -51.5t18.5 -53t-24.5 -55q-32 -36 -81.5 -57t-116 -17.5t-151 37t-187.5 107.5q112 -24 199 -32q37 -3 72 -3.5t62 5t43 17t14 31.5 q-2 17 -19.5 35.5t-43.5 38t-58 39t-62 37.5t-54.5 33.5t-36.5 27.5t-33.5 32t-38 43.5t-21 48.5t17.5 48q24 24 57 44t70 36t75 28t72 20.5t62 13.5t43 7q23 3 41 -15.5t27.5 -45.5t8 -55.5t-17.5 -45.5zM421 57q10 -27 8 -47t-9 -33t-14.5 -19t-8.5 -4q-15 16 -35 50 t-37 84.5t-27 116.5t-5 145.5t29 171.5t75 194q12 24 24.5 25t22 -8.5t14.5 -23.5t2 -20q-34 -83 -54.5 -149.5t-30.5 -122.5t-10 -102.5t7 -89.5t20 -83.5t29 -84.5z" />
<glyph unicode="%" horiz-adv-x="694" d="M483 704q42 15 70.5 13.5t47 -13.5t28 -32t13 -41.5t2 -42.5t-3.5 -34q-6 -35 -22 -49.5t-36 -13.5t-42.5 14.5t-42 34t-34 45.5t-18.5 48t4 42.5t34 28.5zM604 97q28 -18 29 -35.5t-9.5 -32t-25 -23t-16.5 -8.5q-24 4 -67 41t-94.5 93.5t-107 127t-105 142t-89 138.5 t-58.5 117q-12 30 -4 42t23.5 13t32.5 -5t23 -11q36 -31 71.5 -79.5t72 -105t74.5 -117.5t78 -117t82.5 -103.5t89.5 -76.5zM90 219q42 15 70.5 13.5t46.5 -13.5t27.5 -32t13 -41.5t2.5 -42t-3 -33.5q-6 -35 -22 -49.5t-36.5 -13.5t-42.5 14.5t-42 34t-34 45t-18.5 48 t4 42.5t34.5 28z" />
<glyph unicode="&#x26;" horiz-adv-x="671" d="M616 30q11 -13 -5.5 -19.5t-40.5 -9.5q-28 -4 -68 -3q-14 4 -34 19t-46 38q24 14 45.5 30.5t39.5 36.5q40 -33 69 -57t40 -35zM158 382q-1 -1 -1.5 -2t-1.5 -2q-17 27 -27.5 50t-14.5 40q-3 17 -1 41.5t9 52t19.5 55t29.5 50t39.5 37t49.5 17.5q19 2 43 -6t44.5 -30 t33.5 -60t11 -96q0 -12 -8.5 -15.5t-19.5 -0.5t-21.5 11t-15.5 18q-11 26 -26 42t-32 11q-8 -2 -16.5 -14t-15.5 -28t-11 -33t-2 -30q5 -37 23 -74.5t44.5 -74t59 -71.5t66.5 -67q-17 -17 -38.5 -31.5t-44.5 -25.5q-30 33 -59.5 69t-55.5 71q1 2 4 5zM507 122 q-18 -20 -39.5 -36.5t-45.5 -30.5q-53 -30 -112.5 -43.5t-112 -9t-91.5 29t-51 70.5t9.5 114.5t90.5 161.5q1 1 1.5 2t1.5 2l64 -91q-3 -3 -4 -5q-30 -46 -41 -77.5t-7 -51.5t19.5 -29t38.5 -9.5t50.5 7t54.5 20.5q23 11 44.5 25.5t38.5 31.5q26 26 35 54.5t-10 55.5 q-13 18 0 37.5t35.5 31.5t45.5 13t31 -18q29 -78 13.5 -142.5t-59.5 -112.5z" />
<glyph unicode="'" horiz-adv-x="206" d="M142 375q-19 -1 -36 17t-29.5 46t-19.5 61t-6.5 62.5t10 50.5t29.5 25q30 5 45 2t19 -16.5t0.5 -39.5t-9.5 -67q-6 -42 -7 -68t0 -43q1 -19 4 -30z" />
<glyph unicode="(" horiz-adv-x="464" d="M404 596q-3 -1 -9 -1.5l-12 -1t-11 -0.5h-6q-14 0 -33.5 -11t-40 -31.5t-38.5 -50.5t-29 -70q-38 -144 -38 -282q0 -91 35 -172q8 -18 22.5 -31.5t31 -23.5t31.5 -16.5t24 -9.5q11 -5 19 -6t13 -3q7 -2 12 -13t3 -16q-4 -8 -20 -9.5t-35 -1.5q-273 0 -273 306 q0 198 92 355q94 157 210 157q15 0 35 -5q8 -2 11.5 -2.5t5.5 -2.5q4 -4 6.5 -12.5t3 -18t-1.5 -17t-8 -10.5z" />
<glyph unicode=")" horiz-adv-x="464" d="M60 648q2 2 5.5 3t11.5 3q17 4 35 4q117 0 210 -156q92 -157 92 -356q0 -306 -273 -306q-19 0 -34.5 1.5t-20.5 9.5q-2 6 3 16.5t12 13.5q5 2 13 3t19 5q9 3 24.5 9.5t32 16t31 22.5t22.5 31q35 77 35 172q0 138 -38 282q-11 40 -29.5 70.5t-38.5 51.5t-40 32.5t-34 11.5 h-6h-11t-12 0.5t-9 2.5q-6 2 -8 10t-1.5 17t3 17.5t6.5 12.5z" />
<glyph unicode="*" horiz-adv-x="391" d="M308 488q6 -1 13.5 -4.5t12.5 -10.5t6.5 -19.5t-3.5 -31.5q-8 3 -19 7q-20 6 -54 11q8 -9 15 -17t13 -15q7 -8 13 -15q17 -12 22.5 -22t3 -18t-11.5 -13t-21 -7q-9 -2 -13.5 -0.5t-6.5 3.5q-2 3 -1 7q-17 33 -34.5 52t-33.5 29q-7 -4 -16 -1q-17 -8 -36.5 -25.5 t-39.5 -50.5q1 -3 -2 -6q-6 -6 -20 -2q-12 3 -20.5 9t-10.5 14.5t4.5 18t24.5 19.5l10 10l10.5 10.5t13.5 12.5q-10 -2 -14 -3q-3 -3 -8 -4t-12 1.5t-17 10.5q-14 10 -21 20.5t-3 18t20 11t49 -0.5h11q-14 14 -26 29t-17 25q-2 3 -2 8.5t4 11.5t14 12.5t29 13.5q0 -15 7 -31 q6 -14 18.5 -31t36.5 -35q4 0 7.5 0.5t6.5 0.5q28 16 43.5 33t23.5 31q9 16 11 31q18 -9 27.5 -16.5t13 -14t3 -11.5t-2.5 -8q-5 -8 -17 -20.5t-26 -25.5q6 0 11.5 -0.5t10.5 -1.5z" />
<glyph unicode="," horiz-adv-x="281" d="M50 -85q21 32 35 63q12 26 20 53t0 44q-9 20 1 31.5t29 15t41.5 0.5t37.5 -13.5t17 -27t-20 -38.5q-32 -34 -61.5 -57.5t-51.5 -39.5q-26 -18 -48 -31z" />
<glyph unicode="-" horiz-adv-x="367" d="M51 251q-1 19 17 36t46 29.5t61 19.5t62.5 6.5t50.5 -10t25 -29.5q5 -30 2 -45t-16.5 -19t-39.5 -0.5t-67 9.5q-42 5 -68 6.5t-43 0.5q-19 -1 -30 -4z" />
<glyph unicode="." horiz-adv-x="258" d="M79 125q23 13 41 16t31.5 -1t23 -13t15.5 -20q15 -26 18 -69q-12 -27 -33 -34.5t-43.5 -2.5t-42.5 20t-30.5 33.5t-7.5 37.5t28 33z" />
<glyph unicode="/" horiz-adv-x="504" d="M78 73q5 3 12 7.5t15 12.5t17 21.5t18 33.5q15 35 38 86t48.5 108.5t51.5 115.5t47 107t35.5 84t16.5 46q1 7 13 13.5t26.5 9.5t26 1.5t11.5 -10.5q0 -54 -22 -127t-55.5 -151t-73.5 -154t-77.5 -137.5t-66.5 -101t-40 -43.5q-2 -1 -11 1.5t-20 7.5t-21 12t-14 16t1 19.5 t24 21.5z" />
<glyph unicode="0" horiz-adv-x="506" d="M414 527q14 -22 23.5 -56t14 -74t4 -83.5t-6 -84t-17 -75t-29.5 -56.5q-36 -44 -71 -66.5t-67.5 -27.5t-61.5 4t-52.5 27t-41 43t-26.5 51l-3 8q-8 23 -15.5 56t-11.5 72.5t-3 83t9 88t24.5 87.5t43.5 80q47 65 94 94.5t88 31.5t72.5 -19.5t47.5 -57.5q17 -40 5.5 -68 t-32.5 -46q-25 -21 -61 -36q-9 20 -24 34t-34.5 15t-42.5 -14.5t-48 -53.5q-19 -29 -26 -64.5t-6.5 -70.5t6.5 -65t13 -49l2 -4q15 -33 33.5 -53t38.5 -25.5t40.5 4.5t38.5 39q8 13 16 34.5t15.5 47.5t14 54.5t12.5 56.5q13 65 24 138z" />
<glyph unicode="1" horiz-adv-x="448" d="M279 693q32 -18 54.5 -55t36.5 -85t20.5 -104t7 -112.5t-4 -110t-12 -96t-18 -71t-22.5 -35.5q-23 -14 -43 -19.5t-32.5 -2.5t-17 14.5t3.5 32.5q5 15 7 60t1.5 104t-2.5 124.5t-3 122.5q-16 -26 -35 -48t-38 -37.5t-36 -23.5t-28 -6q-21 4 -36.5 9.5t-23.5 12t-7.5 13 t11.5 12.5q7 4 20 19t28 37t31.5 47t31.5 48.5t26.5 42.5t18.5 28q13 18 4.5 36t-18.5 29q-14 7 -24 11q-5 2 -10 3q9 8 27 9t36 -1q21 -3 46 -8z" />
<glyph unicode="2" horiz-adv-x="675" d="M219 126q19 -16 42.5 -18t50.5 1.5t56.5 10.5t60 9.5t61.5 -3t61 -24.5q8 -5 23 -13.5t28.5 -17t20 -15t-2.5 -7.5q-61 -5 -124 -18t-120.5 -23.5t-106.5 -13t-82 13.5q-72 35 -103.5 75.5t-33.5 82.5t20 83.5t55 79.5q78 89 227 179q43 27 46 47q1 9 -6.5 16.5t-28.5 13 t-58.5 8t-95.5 0.5q-51 -2 -78.5 -14t-41.5 -26q-16 -16 -20 -35q-18 61 -8.5 101t37.5 63.5t69.5 31.5t89 4.5t96 -17.5t90 -34.5t71 -46t39 -52t-5.5 -53t-63 -49.5q-83 -39 -146 -88t-99 -97t-42.5 -89.5t22.5 -65.5z" />
<glyph unicode="3" horiz-adv-x="623" d="M443 464q57 -20 87.5 -61.5t38.5 -91.5t-3.5 -102t-39.5 -93q-34 -52 -66.5 -77.5t-63 -34t-60 -2t-58 19t-57 27.5t-56.5 25t-57 11t-58 -14q12 45 35 74q10 12 23 21.5t30 14t38.5 1.5t48.5 -16q53 -37 100 -49q20 -5 40.5 -6t39 6.5t34 24.5t25.5 47q16 51 15.5 86.5 t-11 58.5t-28.5 35.5t-37 18t-36 6t-25 0.5q23 12 49.5 29.5t51.5 40.5zM534 622q-8 -50 -33.5 -89.5t-57.5 -68.5q-25 -23 -51.5 -40.5t-49.5 -29.5q-15 -8 -28 -13.5t-23 -9.5q-11 -4 -20 -8q42 25 70.5 63t44 75t19 66t-3.5 36q-10 10 -26.5 9t-36.5 -8.5t-42.5 -19 t-45.5 -21.5t-44.5 -17t-39.5 -5q-30 3 -45.5 15t-21.5 26q-7 16 -6 35q1 10 22.5 22.5t54.5 25.5t74.5 24.5t84 18t82 7t69 -8.5t45 -29.5t9.5 -54.5z" />
<glyph unicode="4" horiz-adv-x="651" d="M600 576q2 1 -0.5 -0.5t-4.5 -3.5q-96 -85 -175 -145q-8 -62 -13.5 -125t-7.5 -119t1 -101.5t14 -71.5q-51 -7 -79 26q-12 14 -21 39t-10.5 64t6.5 95t28 132q-83 -58 -138.5 -82.5t-89 -24t-47 22t-12.5 56t14 78t33 88t44.5 85.5t48.5 70q20 24 35.5 34.5t28 10.5 t21.5 -8t15 -20q15 -28 20 -81q-8 10 -16 15q-7 4 -14.5 3.5t-13.5 -11.5q-3 -5 -13 -23.5t-21.5 -42.5t-22 -50.5t-15 -49t0 -38t23 -16.5t53.5 15t92 56q18 59 43.5 127.5t59.5 149.5q-6 -31 -12 -68q-5 -32 -11.5 -74.5t-13.5 -91.5q19 12 42 25t46.5 24.5t45 20 t36.5 10.5z" />
<glyph unicode="5" horiz-adv-x="668" d="M423 448q42 -9 84.5 -33.5t71.5 -60.5t37 -82t-19 -99q-37 -71 -82 -112t-93 -58.5t-96 -14t-90.5 20t-76.5 44t-54.5 58t-24.5 61.5t15 56q8 10 35.5 11.5t56 -4t47 -15.5t8.5 -23q-12 -15 -7.5 -26.5t19 -20.5t35.5 -14.5t42.5 -8t39.5 -0.5t26 8q17 13 32 37.5 t16.5 53t-15 58t-62.5 51.5q-14 6 -33 9.5t-40.5 5.5t-45 3.5t-44.5 3.5q-9 -8 -19.5 -17.5t-19.5 -23.5q-6 -10 -12 -8.5t-10.5 11t-8.5 26.5t-6 38q-16 12 -30 29t-25 32q-13 18 -24 37q10 0 21 -1q18 -1 55 -3q2 48 11 90.5t29 61.5q17 16 51.5 30t77 23.5t89 14t87 3 t70.5 -10t40 -24.5q11 -19 -2 -38t-36 -33.5t-49.5 -23.5t-42.5 -9q-15 0 -32.5 3.5t-37 5.5t-38.5 0t-36.5 -12t-33 -31.5t-25.5 -57.5q50 -4 96.5 -9t78.5 -12z" />
<glyph unicode="6" horiz-adv-x="738" d="M498 461q46 -11 92.5 -44t73.5 -83t23 -114t-59 -138q-25 -33 -61.5 -51.5t-77.5 -24t-84.5 0.5t-81.5 20t-68 35.5t-45 48.5q-35 62 -40 133q-10 -5 -14 -5q-14 -3 -26 1.5t-22 13.5t-18.5 21.5t-14.5 25.5q-15 31 -25 71q40 2 74.5 7.5t65.5 13.5q23 73 65.5 137.5 t90.5 111.5t95 71t79 16t42 -53.5t-16 -138.5q10 35 4.5 47.5t-20 10t-35.5 -17t-43 -33.5t-42.5 -39t-32.5 -34q-5 -5 -8.5 -10t-8.5 -10q35 11 68 14.5t70 -4.5zM518 160q30 28 33 56t-10 51t-35 40t-42 24q-38 13 -83 3t-88 -28q-9 -57 10 -106q12 -29 35 -50.5t52 -29 t62.5 1t65.5 38.5z" />
<glyph unicode="7" horiz-adv-x="688" d="M638 250q-16 10 -39 21q-20 8 -49 17.5t-68 16.5q-29 -67 -66 -121t-69 -92q-38 -45 -77 -81q-24 -6 -39.5 0t-24.5 16.5t-12 22t-1 16.5q1 2 16.5 24t39 56.5t51.5 78.5t54 91q-49 0 -105.5 -6.5t-122.5 -22.5q40 21 85 40q38 17 85.5 34t96.5 30q23 49 35.5 92.5t6 73 t-35.5 41t-89 -3.5q-64 -16 -105.5 -30t-66 -26t-35 -22t-11.5 -18q-3 -19 37 -33q-56 9 -70.5 30t0 48t52.5 55.5t87 53t102.5 41t100.5 19t80.5 -12.5t41.5 -54q13 -63 10.5 -122.5t-16.5 -115.5q23 0 41 -6q13 1 26 -14q11 -13 25.5 -44t28.5 -93z" />
<glyph unicode="8" horiz-adv-x="672" d="M620 254q7 -30 -17 -70t-63 -77.5t-85 -65t-83 -32.5q-25 -3 -59 6.5t-70 27t-71 41t-62.5 49t-44 51t-14.5 46.5q2 23 21.5 49.5t49 54t65.5 55t72 52.5q-29 19 -54.5 35.5t-45.5 27.5q-23 13 -42 24q36 -9 84 -23.5t101 -34.5q38 26 65.5 45.5t33.5 29.5q9 15 1 29 t-24.5 22t-39.5 7.5t-44 -14.5q-22 -14 -23 -26.5t7 -23.5q9 -12 27 -23q-63 31 -87.5 63t-22 59.5t28.5 48.5t64 31.5t84 7.5t89 -24t66 -45t31.5 -49.5t4 -50t-15 -45.5t-25.5 -38t-29 -26q-11 -8 -26 -16.5t-32 -18.5q35 -17 66 -36t56 -39t41.5 -41t21.5 -43zM360 137 q19 3 41 15.5t39.5 29.5t26 36t0.5 34q-15 28 -45 58.5t-67 59.5q-29 -17 -56.5 -34.5t-48.5 -36t-33.5 -38t-12.5 -39.5q1 -18 17.5 -35t40 -29t50.5 -18t48 -3z" />
<glyph unicode="9" horiz-adv-x="737" d="M192 197q-10 -35 -4.5 -47.5t20 -10t35.5 17t43 33.5t42.5 39t32.5 34q64 74 80 144.5t-7 126.5q-11 29 -34 50.5t-52 29t-62.5 -1t-66.5 -38.5q-30 -29 -32.5 -56.5t10 -50.5t35 -40t42.5 -24q27 -9 57.5 -6.5t61.5 12.5t61 24t55.5 27.5t44.5 23t28 11.5q13 2 25 -2.5 t22 -13.5t18.5 -21t14.5 -25q15 -31 25 -71q-55 -3 -100.5 -12.5t-84 -22t-71.5 -25.5t-64.5 -22t-62.5 -12t-64 5q-46 11 -92.5 44t-73.5 83t-23 114t59 138q25 33 61 51.5t77.5 24t84.5 -0.5t81.5 -20t68.5 -36t45 -48q32 -56 38.5 -115.5t-5.5 -118t-38.5 -114t-61 -103 t-73.5 -84.5t-75.5 -59t-68 -26t-49.5 15t-20.5 62.5t17.5 116.5z" />
<glyph unicode=":" horiz-adv-x="206" d="M76 437q13 7 24 8t19 -2t14 -8.5t10 -12.5q10 -17 13 -41q-4 -21 -15.5 -27t-25.5 -2t-27 15t-21 24t-7 25.5t16 20.5zM71 106q13 7 24 8t19 -2t14 -8.5t10 -12.5q10 -17 13 -41q-4 -21 -15.5 -27t-25.5 -2t-27 15t-21 24t-7 25.5t16 20.5z" />
<glyph unicode=";" horiz-adv-x="281" d="M50 -86q21 32 35 63q12 26 20 53t0 44q-9 20 1 31.5t29 15t41.5 0.5t37.5 -13.5t17 -27t-20 -38.5q-32 -34 -61.5 -57.5t-51.5 -39.5q-26 -18 -48 -31zM115 435q13 7 24 8t19 -2t14 -8.5t10 -12.5q10 -17 13 -41q-4 -21 -15.5 -27t-25.5 -2t-27 15t-21 24t-7 25.5 t16 20.5z" />
<glyph unicode="?" horiz-adv-x="584" d="M532 608q5 -44 -6.5 -73.5t-33.5 -53t-50.5 -45.5t-57.5 -50t-55.5 -67t-44.5 -96q-9 -30 -33 -45.5t-49 -19t-44.5 1.5t-19.5 16q-1 53 14.5 99t40.5 84.5t55.5 70.5t59 58t51.5 47t32.5 36.5t2.5 26.5t-38 19q-25 6 -53 3.5t-55.5 -10t-52.5 -18t-43 -20.5 q-15 -9 -32.5 0t-32.5 24t-25.5 32t-10.5 25q-1 24 33 42t86 27.5t113 9t115 -13.5t91.5 -40t42.5 -70zM139 106q49 20 76.5 12.5t41.5 -25.5q16 -21 21 -55q-8 -28 -28.5 -37t-45 -5t-48 17.5t-36 30t-10.5 34t29 28.5z" />
<glyph unicode="@" horiz-adv-x="712" d="M594 89q5 3 17 3.5t23 -0.5q13 -1 28 -3q-17 -41 -43 -71q-14 -15 -29 -28t-33 -24t-37.5 -19t-42.5 -13q-22 -6 -45.5 -8.5t-49.5 -2.5q-77 0 -141 23q-62 24 -105 69q-43 46 -64 107q-22 62 -22 138q0 81 22 147q22 69 65 119q41 49 103 79q63 29 135 29q60 0 110 -21 q51 -21 86 -59q35 -36 55 -91q19 -55 19 -116q0 -51 -15 -97q-17 -49 -44 -86q-29 -38 -67 -60q-39 -22 -82 -22q-26 0 -40 11q-6 3 -11 10q-6 -1 -13.5 -2t-16.5 -2q-26 -3 -48.5 2t-39 21t-27 43t-11.5 66q-2 57 12.5 82.5t38 34.5t50.5 8.5t51 4.5q6 4 13.5 8t18.5 7l3 3 v-2q16 5 33 8q-13 -30 -18 -63q-5 -29 -4 -66.5t16 -79.5l1 1v-5l2 -4l2 -4q2 -5 8 -5q16 0 45 26q14 13 25 30.5t22 40.5q20 46 20 98q0 43 -15 84q-6 17 -10 23t-12 15q-29 29 -68 45q-38 16 -90 16t-95 -15q-22 -8 -43.5 -22t-32.5 -23q-8 -8 -16 -15.5t-19 -29.5 q-20 -39 -29 -83q-5 -23 -8 -46.5t-3 -47.5q0 -61 22 -116q6 -13 9.5 -22t7.5 -16t10 -14t17 -16q40 -36 100 -51q58 -15 132 -6q60 9 99 31q21 12 34 22t35 22zM305 221q0 -14 5.5 -22t14.5 -13t19.5 -6.5t20.5 -1.5q-3 21 -6 48t-4 52q-20 -2 -30 -8t-14.5 -14.5t-5 -18 t-0.5 -16.5z" />
<glyph unicode="A" d="M416 333q31 -48 64.5 -95.5t67 -87t67 -69t63.5 -42.5q0 -1 -14.5 -12.5t-39.5 -20t-58.5 -7t-72.5 27.5t-81.5 83t-85.5 160q-40 -23 -79 -38.5t-64 -18.5q-14 -71 -24 -125.5t-12 -73.5q-1 -14 -13.5 -16t-27.5 3.5t-29.5 14.5t-18.5 16q-8 12 -7.5 46.5t7.5 82.5 t19.5 106t28 117t34 115.5t37.5 101.5t37.5 74.5t35.5 35.5q8 5 16 6q7 1 14.5 -2.5t14.5 -15.5q-3 2 -7 -6q-4 -7 -8.5 -24.5t-12.5 -53.5q-1 -3 -1.5 -7t-1.5 -8q13 -26 37.5 -71.5t57.5 -102.5h1q23 12 36 24.5t21 23.5q9 12 13 25q17 -35 17.5 -64.5t-6.5 -51.5 q-8 -26 -23 -47q-1 -1 -1 -1.5t-1 -1.5zM213 359q16 5 33.5 12.5t35.5 15.5q-9 29 -18.5 59.5t-18.5 65.5q-7 -34 -15 -72.5t-17 -80.5z" />
<glyph unicode="B" horiz-adv-x="668" d="M476 487q18 -4 41 -13.5t44.5 -24.5t37 -36t18.5 -46.5t-9.5 -56t-47.5 -65.5q-88 -86 -155.5 -136.5t-117.5 -75.5t-84.5 -29.5t-57 1.5t-35 16l-17.5 14q-15 12 -24 26.5t-13 31t-4.5 33t1.5 32.5q4 37 20 76q5 -39 17 -69q11 -26 31 -45.5t55 -14.5q34 5 68 17 t69 34.5t73 56t82 80.5q22 25 27 43t-1.5 30.5t-22 20t-33 12t-34.5 6t-27 2.5q-35 -17 -68 -23.5t-60 -8.5q-6 -11 -14 -16t-25.5 -7.5t-35 0t-29 11t-8.5 23.5q3 12 4 35.5t1 53.5t-1.5 64t-2.5 68q-1 0 -1.5 -0.5t-1.5 -0.5q-29 -5 -41 6.5t-16 28.5q-4 19 0 45 q3 7 17 13t37 11v9t-1 9q-2 21 3.5 34t12.5 20q8 8 19 11q5 -9 11 -20q5 -10 12 -23t15 -30q38 3 80.5 2.5t83 -6t76 -16.5t59 -28t31.5 -41t-5 -56q-22 -50 -53 -88zM430 600q-24 6 -52 10q-25 4 -58 6t-74 1q15 -45 22.5 -90.5t-1.5 -83.5q83 11 122 48t41 109z" />
<glyph unicode="C" horiz-adv-x="665" d="M415 531q10 34 4.5 47t-21.5 11t-38 -15.5t-44 -32t-41 -39t-28 -37.5q-9 -16 -24.5 -49.5t-29 -74.5t-21 -84t-1 -77.5t31 -54.5t76 -16t133.5 38t203 108q-128 -134 -239 -198q-47 -27 -95 -42t-91 -7t-77 45.5t-53 115.5q-17 67 -4.5 138t43 137.5t74 124.5t87.5 98.5 t84.5 58.5t65.5 5.5t29 -60.5t-24 -140z" />
<glyph unicode="D" horiz-adv-x="698" d="M187 706q48 6 104.5 7t111.5 -10.5t104.5 -37.5t84 -74.5t49 -122t0.5 -178.5q-8 -61 -35.5 -112.5t-88.5 -90t-163 -60.5t-261 -23q4 5 9.5 15.5t17 21.5t31 21.5t52.5 15.5q157 26 242 84.5t85 152.5v57t-6 67t-22 64t-47 49t-81 22t-125 -17q12 -40 17.5 -79.5 t-1.5 -73.5q-4 -19 -6 -32.5t-4.5 -23t-6.5 -16t-10 -10.5q-8 -6 -24.5 -8.5t-33 -0.5t-28.5 10t-9 23q3 12 3.5 35.5t-0.5 53.5t-3 64t-4 69q-23 13 -39.5 32t-27.5 36q-13 20 -22 42q9 3 21 6q11 2 25.5 5t32.5 7q-1 19 4 30t11 18q7 7 16 11q4 -6 8 -13t8.5 -16t10.5 -20 z" />
<glyph unicode="E" horiz-adv-x="768" d="M694 154q7 -5 13 -11t8.5 -15.5t0.5 -22.5t-11 -32q-6 -13 -29 -18t-58.5 -7t-80.5 -2.5t-94.5 -3t-101 -10t-99.5 -22.5q-72 -23 -111 -13.5t-57 31.5q-21 25 -24 65q42 1 98.5 10.5t120.5 22.5q-5 -22 -9 -38.5t-8 -27.5q-4 -13 -8 -23q43 -2 72.5 5t49 19.5t29 28.5 t11.5 33q1 7 1 14.5t1 15.5q45 8 87.5 13.5t80 7t68 -3t50.5 -16.5zM256 726q22 35 45 55t42 17t31 -32.5t12 -93.5q-42 -11 -81 -17t-74 -11q-2 11 1.5 30.5t23.5 51.5zM406 123q-2 -17 -11.5 -33t-29 -28.5t-49 -19.5t-72.5 -5q4 10 8 23q4 11 8 27.5t9 38.5 q4 21 7.5 46.5t5.5 54.5q-36 -5 -53.5 -3t-28.5 13q-7 6 -13 22t-8 32.5t2.5 29.5t19.5 13q13 1 34 5t49 11q-2 44 -7.5 92t-16.5 102q32 -6 65 -7.5t65 3.5q3 -32 6 -72t6 -84q30 9 58.5 18t51.5 16q19 6 32 4.5t21 -6.5q10 -5 15 -14q-23 -23 -50 -46q-23 -20 -54.5 -42.5 t-68.5 -42.5q2 -33 2 -63.5t-1 -54.5q-1 -8 -1 -15.5t-1 -14.5zM390 540q-32 -5 -65 -3.5t-65 7.5q-57 11 -110 34.5t-100 56.5q23 -1 51 0q24 1 57 2.5t73 6.5q35 5 74 11t81 17q37 9 75 21t76 28q7 3 21 1t27 -9t22 -19t6.5 -27.5t-20 -35t-56.5 -42.5q-35 -21 -72 -32.5 t-75 -16.5z" />
<glyph unicode="F" horiz-adv-x="665" d="M379 583q2 20 2 37.5v32.5q38 9 77.5 21t78.5 29q8 3 22 1t27 -9t21.5 -18.5t6 -27t-20 -35.5t-56.5 -43q-36 -21 -74.5 -33t-78.5 -17q-2 14 -2.5 25.5t-1.5 19.5q-1 10 -1 17zM225 626q0 -15 5 -23q3 -4 6 -7q5 -17 8.5 -34t7.5 -34q-54 11 -105.5 34t-96.5 55 q22 -1 49 0q23 1 55 2.5t71 6.5zM531 422q19 6 32 4t21 -7q9 -5 14 -14q-28 -28 -60 -54q-27 -23 -62.5 -47.5t-73.5 -42.5q2 -51 2 -95.5t-3 -73.5q-2 -17 -9.5 -37t-25 -34.5t-48 -20t-78.5 5.5q10 26 18 59q7 29 13 70.5t8 96.5q-26 0 -39 1t-23 10q-7 6 -13 22 t-7.5 32.5t3 29.5t19.5 13q9 0 24 2.5t34 7.5q-2 41 -8 85.5t-17 92.5q-4 17 -7.5 34t-8.5 34q-3 3 -6 7q-5 8 -5 23q1 11 6.5 28t20.5 41q21 34 43.5 53.5t41 18t31 -28.5t13.5 -85v-32.5t-2 -37.5q0 -7 1 -17q1 -8 1.5 -19.5t2.5 -25.5q2 -28 5.5 -63.5t5.5 -76.5 q37 11 72.5 21.5t63.5 19.5z" />
<glyph unicode="G" horiz-adv-x="597" d="M546 152q0 -11 -0.5 -25.5t-2 -30t-5 -30t-8.5 -24.5q-7 -14 -25 -20.5t-37 -9.5q-23 -4 -49 -3q8 13 15 24q5 10 10 21t5 19q0 5 -0.5 14t-1.5 19q-28 -25 -63.5 -49t-73 -40t-75 -20.5t-71 11t-60.5 54t-44 107.5v6q-17 64 -5 133t42.5 134t73.5 121t87.5 95.5t85 57 t65.5 5.5t29.5 -58.5t-23.5 -135.5q10 33 4 45.5t-21.5 11t-38 -14t-44.5 -31t-41 -39t-28 -37.5q-16 -22 -30 -47q-12 -22 -25.5 -49.5t-21.5 -58.5q28 0 58 1t59 3.5t56 6t48 9.5q39 11 68 -7t48.5 -48t29.5 -64t10 -56zM189 151q19 -19 52 -25q29 -5 77 1.5t123 40.5 q-3 24 -15 32.5t-32 8t-46 -5.5t-56.5 -8t-63.5 0t-67 19q3 -17 9.5 -33t18.5 -30z" />
<glyph unicode="H" horiz-adv-x="586" d="M518 108q1 -33 4 -52t6 -29q4 -11 8 -16q-8 -8 -17.5 -9.5t-17.5 0.5q-10 2 -19 7q-22 15 -38.5 42.5t-28.5 64.5t-19.5 80.5t-11.5 89.5q-38 -23 -79 -41.5t-74 -27.5q-2 34 -4 70.5t-5 71.5q36 9 79 28.5t80 38.5q1 43 5 81.5t9.5 68.5t13 49.5t15.5 25.5 q20 14 37.5 20t28.5 3.5t15.5 -14t-1.5 -31.5q-4 -13 -4.5 -51t0.5 -89t4 -108.5t5.5 -111t5 -97t3.5 -64.5zM204 555q2 -27 6 -59q2 -27 5.5 -62.5t6.5 -74.5q3 -35 5 -71.5t4 -70.5q2 -40 1.5 -73t-2.5 -56q-2 -16 -9 -35t-25 -32.5t-48.5 -19t-78.5 5.5q23 64 33 149 q4 36 5 80.5t-3 96t-14 110.5t-29 125q-8 7 -10 20q-2 11 2.5 29t22.5 44q24 36 49 54.5t44.5 10.5t30 -48.5t4.5 -122.5z" />
<glyph unicode="I" horiz-adv-x="283" d="M230 94q-2 -16 -9 -35t-25 -32.5t-48.5 -19t-78.5 5.5q23 64 33 149q4 36 5 80.5t-3 96t-14 110.5t-29 125q-8 7 -10 20q-2 11 2.5 29t22.5 44q24 36 49 54.5t44.5 10.5t30 -48.5t4.5 -122.5q11 -100 18 -190q3 -38 5.5 -78t4 -77t1 -68.5t-2.5 -53.5z" />
<glyph unicode="J" horiz-adv-x="573" d="M491 726q17 -55 25 -127t6 -149.5t-14 -154t-34.5 -138.5t-57 -104t-81.5 -51q-53 -10 -98.5 11t-82 62t-63 97.5t-41.5 117.5q60 -1 91 -14.5t45.5 -33t18.5 -42t10 -42t20 -33t48 -14.5q42 -2 67.5 29t37.5 84.5t10.5 123.5t-14.5 145q-5 56 11.5 99t37.5 73 q25 35 58 61z" />
<glyph unicode="K" horiz-adv-x="653" d="M578 572q-40 -52 -95 -95.5t-111 -77.5q-11 14 -19.5 26.5t-15.5 21.5q-8 11 -14 18l-65 -128q-10 -5 -18.5 -9t-16.5 -8q-2 32 -4 61.5t-4 57.5q30 18 69.5 46t78.5 65t72.5 82.5t51.5 97.5q3 8 17 7.5t31 -9t34 -24t26 -35.5t6.5 -45t-23.5 -52zM204 574q1 -18 3 -39 q2 -18 4 -42.5t4 -53.5q2 -28 4 -57.5t4 -61.5q2 -35 3.5 -69t2.5 -65t0 -57.5t-3 -45.5q-2 -17 -9.5 -37t-25 -34.5t-48 -20.5t-78.5 5q24 67 34 157q8 77 3 186t-41 248q-8 8 -10 21q-2 11 3 30t23 47q24 38 49.5 58t45 11.5t29 -51t3.5 -129.5zM323 465q6 -7 14 -18 q7 -9 15.5 -21.5t19.5 -26.5q18 -25 40 -56t44.5 -64.5t44 -66.5t38.5 -62.5t27.5 -53t11.5 -37.5q2 -29 -17 -43.5t-43 -20.5q-28 -7 -65 -7q3 17 -10 49t-34 70t-47 78t-48.5 73t-38.5 55t-17 24z" />
<glyph unicode="L" horiz-adv-x="585" d="M475 21q-16 -10 -42.5 -17.5t-58 -11t-65.5 -3.5t-66 4.5t-59.5 15t-44.5 26.5q-31 29 -50 86t-28 127.5t-10 145t4 138t15.5 108t24.5 53.5q21 14 43.5 18.5t39.5 0t25 -17.5t-1 -32q-9 -21 -17.5 -67t-12 -103.5t-0.5 -120.5t16.5 -118.5t39 -97.5t67.5 -58 q29 -11 69.5 -7.5t78.5 11.5q44 10 91 26q1 -41 -15 -64.5t-44 -41.5z" />
<glyph unicode="M" horiz-adv-x="848" d="M292 256q3 -91 -21 -155q-10 -27 -27 -52t-43.5 -41t-63.5 -20.5t-87 7.5q55 49 92 126q15 33 28 75.5t19.5 96t5 117.5t-15.5 139q-20 18 -24 40q-4 19 5.5 43.5t48.5 53.5q38 28 68.5 38t50 -7t26 -67t-2.5 -141l96 -411q19 87 36 171q7 36 13.5 75t12.5 78t10 76t5 69 q1 43 15 70.5t33.5 42t40.5 17t37 -4.5t23.5 -23t-0.5 -39q35 -83 62 -181q23 -84 43 -195t20 -238q-18 0 -34 4q-14 3 -28.5 9t-25.5 19q-19 22 -29 57.5t-14.5 77.5t-7 86.5t-6.5 84.5t-12 72.5t-25 49.5q-10 -147 -33 -258q-10 -47 -23.5 -91.5t-31.5 -76.5t-41 -48 t-51 -7q-16 4 -27.5 15t-20.5 27.5t-17 38.5t-17 48q-10 29 -19 57.5t-17 49t-14.5 29t-11.5 -3.5z" />
<glyph unicode="N" horiz-adv-x="656" d="M165 480q5 -87 9 -162q2 -32 4 -64.5t4 -61t4 -51.5t4 -35q3 -21 -1 -37.5t-19.5 -30t-44.5 -24t-75 -19.5q8 177 12 324q1 63 2 125t0.5 114.5t-3 91t-7.5 53.5q28 19 59 15q13 -2 28 -9.5t30.5 -23.5t31.5 -41.5t31 -63.5q31 -77 74.5 -134.5t84.5 -95.5q48 -45 97 -76 q-2 73 -8 142q-6 59 -17.5 122t-31.5 107q-7 16 -4 29.5t11 23t18 14t18 2.5q12 -3 25 -15t25.5 -27.5t22 -32t13.5 -27.5q22 -60 33 -127t11 -132.5t-11 -125.5t-32 -105.5t-52 -73t-72 -27.5q14 24 15 54q1 25 -11.5 59t-50.5 73q-69 70 -112 121.5t-69 85.5 q-30 40 -46 66z" />
<glyph unicode="O" horiz-adv-x="663" d="M388 695q53 29 95 19.5t70.5 -46.5t44 -95.5t15.5 -126.5t-15.5 -140t-48.5 -136t-66.5 -100t-65.5 -51.5t-62 -13.5t-56 13.5t-47 29t-35 33.5q-18 21 -38 55.5t-31 74.5t-8.5 81.5t29.5 75.5q14 19 31 23t31 2q17 -3 33 -13q8 -12 7 -23.5t-5.5 -21t-9.5 -16t-6 -8.5 q0 -2 -0.5 -11t3.5 -25.5t15 -38.5t32 -49t40 -36.5t33 -9.5q17 0 30 9q22 22 40 55.5t31 72t20 79.5t7.5 79t-5.5 70t-20 53q-21 31 -45 40t-56.5 -2t-77 -39.5t-105.5 -72.5q-31 -22 -53 -30t-37.5 -5.5t-25 13t-15.5 25.5q-13 33 -9 92q23 -12 59 -6t80.5 23.5t94.5 43.5 t102 54z" />
<glyph unicode="P" horiz-adv-x="635" d="M236 704q41 4 86.5 4.5t88 -4t78.5 -15.5t60 -29.5t32.5 -45t-5.5 -63.5q-17 -46 -46 -80.5t-64.5 -59t-75 -40.5t-78.5 -26q3 -75 4 -144t-4 -111q-2 -18 -9 -39t-23.5 -37t-45 -22.5t-73.5 4.5q12 37 21 86q8 42 14 103t4 140q-38 -3 -59 -3h-23q-16 1 -29.5 11t-23 22 t-13.5 21.5t0 9.5q34 0 70.5 2.5t74.5 8.5q-4 45 -10 93t-17 101q-11 -2 -20.5 -4.5t-18.5 -5.5q-27 -8 -38.5 3.5t-15.5 28.5q-4 19 0 47q3 8 18.5 15t40.5 13q-4 19 4 32.5t38 11.5q14 -1 29 -8.5t29 -19.5zM308 424q31 12 59.5 28t52 37t40 48t25.5 61q-26 2 -57 4 q-26 2 -60 2.5t-71 -0.5q2 -20 5 -68.5t6 -111.5z" />
<glyph unicode="Q" horiz-adv-x="658" d="M546 169q26 -35 34.5 -75t-17.5 -79q-13 -5 -25 -9q-11 -3 -21.5 -5t-15.5 0q-5 1 -11.5 19t-16.5 45q-40 -41 -79 -50t-72.5 0t-61 30t-44.5 41q-18 21 -37.5 55.5t-30.5 74.5t-8.5 81.5t29.5 75.5q14 19 31 23t31 2q17 -3 33 -13q8 -12 7 -23.5t-5.5 -21t-9.5 -16 t-6 -8.5q0 -2 -0.5 -11t3.5 -25.5t14.5 -38.5t32.5 -49q21 -27 40 -36.5t33 -9.5q17 0 30 9q6 6 11.5 12.5t10.5 13.5q-17 33 -36 56q-17 20 -19.5 34.5t0.5 24.5q4 11 14 18q8 3 17 7q8 4 16 9.5t16 13.5q-11 -14 -16 -25q-5 -10 -5.5 -20.5t10.5 -16.5q5 -2 16 -10t25 -19 q16 40 26 85t12 88t-4 79t-21 59q-21 31 -45 40t-57 -2t-77 -39.5t-105 -72.5q-31 -22 -53 -30t-37.5 -5.5t-25 13t-15.5 25.5q-13 33 -9 92q46 -4 81 4.5t69.5 26.5t72.5 43t89 53q53 30 97 19.5t75.5 -49t49.5 -98.5t21 -129.5t-11 -142.5t-47 -137z" />
<glyph unicode="R" horiz-adv-x="662" d="M611 89q2 -29 -17.5 -44t-43.5 -22q-28 -8 -64 -8q3 14 -5.5 39t-24 55.5t-35 63.5t-40 64.5t-39 58t-30.5 44.5q1 -35 2.5 -70t1.5 -66.5t-1 -58.5t-3 -46q-2 -18 -9 -39.5t-23.5 -37.5t-45 -22.5t-73.5 4.5q12 37 21 87q8 42 14 103.5t4 140.5q-19 -2 -33.5 -2.5 t-25.5 -0.5h-23q-16 1 -29.5 11t-23 22t-13.5 21.5t0 9.5q34 0 70.5 2.5t74.5 8.5q-6 88 -27 195q-11 -2 -20.5 -4.5t-18.5 -5.5q-27 -8 -38.5 3.5t-15.5 28.5q-4 19 0 47q3 8 18.5 15t40.5 13q-3 19 4.5 32.5t37.5 11.5q14 -1 29 -8.5t29 -18.5q41 4 86.5 4.5t88 -4.5 t78.5 -15.5t60 -29.5t32.5 -46t-5.5 -64q-23 -63 -68 -104.5t-98 -67.5q26 -32 60 -75t65 -86t52.5 -80.5t23.5 -58.5zM297 615q2 -20 5 -69t6 -112q31 12 59.5 28t52 37.5t40 48.5t25.5 61q-26 2 -57 4q-26 2 -60 2.5t-71 -0.5z" />
<glyph unicode="S" horiz-adv-x="682" d="M550 528q-74 6 -131 2q-25 -2 -48.5 -6t-42 -12t-30 -20.5t-11.5 -30.5q0 -20 19 -41.5t49 -44.5t67.5 -46.5t74 -48.5t67.5 -50.5t49 -51.5t18.5 -53t-24.5 -55q-32 -36 -84.5 -57t-123.5 -17.5t-158.5 37t-190.5 107.5q109 -23 193 -30q36 -3 70 -3t60.5 5t41.5 17 t13 32q-2 17 -17 35.5t-37.5 37.5t-50 38t-54 36.5t-48.5 33t-34 27.5t-33.5 32t-38 43.5t-21 48.5t17.5 48q24 24 57 44t70 36t75 28t72 20.5t62 13.5t43 7q23 3 41 -15.5t27.5 -45.5t8 -55.5t-17.5 -45.5z" />
<glyph unicode="T" horiz-adv-x="716" d="M552 712q46 0 70.5 -12.5t34.5 -28.5t8.5 -31.5t-6.5 -20.5q-3 -3 -25.5 -9.5t-55.5 -15.5t-72.5 -19t-76.5 -20q3 -49 5 -106t2.5 -114t-1.5 -111.5t-7 -99t-14 -75.5t-23 -42q-2 -1 -15 -3.5t-30.5 -4t-35 -1t-29 5.5t-12 15.5t17.5 28.5q4 5 10 12t11.5 18t8.5 26.5 t3 37.5q0 32 -0.5 77.5t-0.5 97v105v101.5q-2 0 -2.5 -0.5t-2.5 -0.5q-21 -8 -55 -17.5t-71.5 -7t-74.5 22t-63 69.5q38 2 82 6q38 4 85.5 11.5t101.5 19.5v77q-6 41 2 59q3 8 10 12t18.5 0t28.5 -17t41 -38q0 -7 1 -17q1 -16 3 -47q35 11 67.5 25.5t61.5 31.5z" />
<glyph unicode="U" horiz-adv-x="637" d="M563 671q26 -165 24 -278.5t-21.5 -187t-52.5 -114t-70 -59t-72.5 -22.5t-60.5 -4q-62 -1 -106.5 26.5t-74.5 73t-47 105t-24.5 122t-7 123.5t5 111t11.5 83t14 40q9 9 21 6t25.5 -13.5t27 -26t24.5 -32t18 -32t9 -25.5q4 -23 0 -64.5t-7.5 -90.5t-4.5 -100t9.5 -92 t34.5 -66.5t70 -24.5q54 1 86 32.5t49 80.5t21 109t2.5 118t-7 108.5t-7.5 79.5t4.5 43.5t18 18t26 -1t27.5 -13t23 -18t12 -15.5z" />
<glyph unicode="V" horiz-adv-x="691" d="M482 659q7 17 19.5 35t31.5 27.5t45.5 6.5t62.5 -28q-51 -127 -91 -241q-17 -49 -34 -100t-30.5 -99t-22 -89.5t-9.5 -70.5q0 -13 -1 -28.5t-11.5 -29.5t-35 -23.5t-71.5 -9.5v52q-6 10 -29 47.5t-53.5 90t-65 113.5t-64 119.5t-50 107.5t-22.5 77q-2 22 2 38.5t13 27.5 t20.5 18.5t24.5 11.5q30 10 69 8q-2 -19 6.5 -51.5t23 -72.5t34 -85t40 -89.5t41 -86.5t37.5 -76q12 45 27 101.5t31.5 112.5t32.5 106t29 80z" />
<glyph unicode="W" horiz-adv-x="812" d="M632 711q40 -60 70 -132q26 -62 45 -146t14 -181q-2 -35 -19 -78.5t-43 -82t-58 -64.5t-64 -26q-16 0 -35 11.5t-38.5 31t-39 44t-37.5 50.5q-42 61 -86 138q7 -53 0 -97.5t-23 -78.5t-39 -57t-47 -33q-39 -17 -68 0.5t-49.5 57.5t-33.5 97.5t-20 120t-9 125.5 t-0.5 114.5t5 86t8.5 41.5q9 13 28 10t38.5 -14.5t34.5 -28t17 -30.5q3 -22 -3 -64t-14 -92.5t-14.5 -102.5t-5 -94.5t15 -69t45.5 -25.5q28 1 45.5 22t26 56t11 81t0 95.5t-7.5 100.5t-10.5 96.5t-9.5 82t-5 57.5q0 8 11.5 4t26 -13.5t27.5 -22t15 -21.5q38 -156 70 -262 t61.5 -170t57.5 -90t59 -22q19 2 36 15.5t22 27.5q19 65 23 113t-1 85.5t-17 67t-25 57t-25.5 55.5t-17.5 63q-3 23 2.5 38.5t15 26t19.5 17t15 9.5z" />
<glyph unicode="X" horiz-adv-x="712" d="M627 639q6 -21 8 -62t-8.5 -95t-37.5 -118.5t-79 -133.5q-16 19 -35.5 42t-42.5 48q41 71 60 138t26 120q8 62 4 116q7 20 21.5 24t31 -5t31 -28.5t21.5 -45.5zM50 8q107 42 183 96.5t129 116.5q16 -20 31.5 -41t31.5 -44l-24 -21q-68 -60 -131 -84t-112 -29 q-57 -6 -108 6zM556 176q64 -56 87.5 -92.5t17 -57t-37 -25t-72.5 3.5q-32 6 -48 16t-23 19q-8 11 -8 22q-12 20 -24 38.5t-23 35.5q-16 23 -31.5 44t-31.5 41q-60 74 -113.5 122.5t-95.5 77.5q-48 34 -91 53q24 43 47.5 61.5t45.5 21.5t40.5 -5.5t31.5 -18.5 q18 -14 42.5 -37.5t51.5 -52.5t55.5 -60.5t55.5 -62.5q23 -25 42.5 -48t35.5 -42q11 -12 19 -22t14 -17q7 -9 13 -15z" />
<glyph unicode="Y" horiz-adv-x="679" d="M619 638q-10 -11 -29.5 -46t-43 -83.5t-49.5 -104.5t-49 -108t-40.5 -95.5t-25.5 -65.5q-11 -33 -9.5 -57.5t8.5 -41.5q8 -19 21 -33q-28 -1 -50 1q-20 2 -36.5 6.5t-20.5 13.5q-16 40 -11.5 104.5t22 138t44.5 148t55.5 135.5t54.5 100t43 41q25 3 51.5 1.5t46 -8.5 t26.5 -18.5t-8 -27.5zM50 615q76 74 134 78q24 1 47 -12.5t40 -52t25.5 -105.5t4.5 -172q-34 55 -74 105q-35 43 -80.5 87.5t-96.5 71.5z" />
<glyph unicode="Z" horiz-adv-x="743" d="M449 265q55 26 97.5 27t73 -14.5t48 -43.5t22.5 -61t-2.5 -66.5t-27.5 -60.5q-29 -16 -57 -18q-12 -1 -25 1t-26.5 9t-26 19t-22.5 32q-14 26 -41.5 35t-60 6t-67.5 -14.5t-65 -25.5t-52 -28t-29 -22t-17.5 -18t-23 -16t-26 -5.5t-25.5 14t-22 43.5t-15 82q51 7 113 23 q53 14 123.5 38.5t153.5 63.5zM560 720q43 -127 8 -240q-15 -48 -48.5 -97.5t-94 -95t-152.5 -83.5t-223 -63q117 101 219 203q43 43 87.5 91t83.5 97t70.5 96.5t49.5 91.5zM274 648q-20 -86 -47 -131q-12 -19 -26 -31.5t-31 -11t-36.5 20t-41.5 61.5q-29 57 -33.5 84t8 35 t37.5 2t55 -14.5t60.5 -15t54.5 0.5z" />
<glyph unicode="^" horiz-adv-x="462" d="M50 571q35 16 68 40q29 20 59 49t52 67q16 2 27 -2q10 -3 17 -10.5t4 -23.5q15 -26 35 -51q17 -21 42.5 -43.5t57.5 -38.5q-8 -9 -18 -16q-8 -6 -20 -10.5t-27 -2.5q-19 8 -38 22q-17 12 -36 32t-36 50q-42 -46 -79 -72q-16 -11 -32 -18.5t-30.5 -8t-26.5 8t-19 28.5z " />
<glyph unicode="_" horiz-adv-x="621" d="M41 -219q-1 14 21.5 27.5t59 24t84 19t97 13.5t97.5 6t86.5 -3t63 -13t27.5 -24q5 -30 2.5 -45t-15.5 -19t-38.5 -0.5t-66.5 9.5q-21 3 -49.5 4.5t-62 2.5t-69 1h-69.5q-80 -1 -168 -3z" />
<glyph unicode="`" horiz-adv-x="234" d="M184 502q-5 7 -18.5 21.5t-30 33t-34 39t-30 39t-18.5 34t1 24.5q10 13 23 15.5t26 -2t24.5 -13.5t18.5 -18q12 -16 19 -44.5t12 -57.5q4 -33 7 -71z" />
<glyph unicode="a" horiz-adv-x="555" d="M505 14q-43 -5 -82 -7q-33 -2 -65.5 0t-47.5 11q-19 -6 -42 -8.5t-54 -3.5q-55 -2 -87.5 8.5t-49.5 27.5t-22 37.5t-5 39.5q0 24 13.5 56t44 61t79 51t119.5 26q0 28 -11 32t-27 -2t-35.5 -14t-35.5 -5q-31 6 -44 23t-18 35q-5 21 -2 45q8 0 34.5 4t60 7t70 2t65 -11.5 t44.5 -33.5t9 -63q-3 -18 -11.5 -53.5t-15 -75t-6.5 -75.5t14 -55q10 -17 25 -30q13 -11 33.5 -20t49.5 -9zM145 123q0 -26 24.5 -27t65.5 8q26 6 44 21q0 25 2.5 51.5t6.5 49.5q-31 -6 -57.5 -15.5t-45.5 -22t-29.5 -29t-10.5 -36.5z" />
<glyph unicode="b" horiz-adv-x="520" d="M469 202q1 -35 -9.5 -70.5t-34.5 -64t-62 -46.5t-91 -18h-112.5t-55.5 1q-16 -1 -26 3.5t-16 12.5t-8.5 18t-2.5 21q0 26 10 58q22 101 30 190q-26 15 -31.5 37.5t-1.5 43.5q4 25 19 51q5 -2 10 -3.5t10 -3.5q0 71 -6 125.5t-14 92.5q-9 44 -21 77q45 10 73.5 4t45 -21.5 t24 -36t9.5 -38.5q5 -37 4.5 -98t-2.5 -128q51 -8 97 -16t81 -28.5t56.5 -58t24.5 -104.5zM193 115q24 0 49.5 -1.5t45.5 3t33 19t13 48.5q0 39 -15 60.5t-35.5 32t-42.5 12t-37 0.5q-2 -34 -3.5 -63t-3.5 -51q-2 -26 -3 -47q0 -3 -0.5 -6.5t-0.5 -6.5z" />
<glyph unicode="c" horiz-adv-x="529" d="M186 187q0 -40 12 -52.5t33 -13.5t49 2.5t60.5 -3.5t68 -31.5t70.5 -82.5h-231q-53 0 -90.5 18t-61 46.5t-34.5 64t-11 70.5q0 62 16 101t44.5 62t66.5 33.5t81.5 16.5t90.5 11.5t93 17.5q30 -52 31 -90q0 -16 -6 -31t-21.5 -25.5t-43.5 -14.5t-71 2q-16 2 -41 5t-48 -4 t-40 -30t-17 -72z" />
<glyph unicode="d" horiz-adv-x="521" d="M429 304q5 -44 12 -91t19 -98q10 -32 10 -58q0 -22 -11.5 -39.5t-42.5 -15.5q-14 0 -55 -0.5t-113 -0.5q-53 0 -90.5 18t-61.5 46.5t-34.5 64t-10.5 70.5q1 64 24.5 102t60.5 58.5t83 28.5t92 13q-2 68 -2.5 131t4.5 101q2 18 9 38.5t23.5 35.5t45 21.5t73.5 -4.5 q-12 -34 -21 -80q-8 -39 -14.5 -96t-5.5 -130q19 5 32 12q12 -25 15 -49q2 -20 -5.5 -42t-35.5 -36zM186 182q0 -33 13 -48t33.5 -19.5t45.5 -2.5t50 1q-1 4 -1 7t-1 7q-1 20 -3 46q-2 22 -3.5 51t-3.5 64q-14 1 -36 -1t-43 -12.5t-36 -32t-15 -60.5z" />
<glyph unicode="e" horiz-adv-x="573" d="M240 118q22 -12 46 -16.5t48 -3t47.5 6.5t44.5 13q49 18 97 49q-52 -57 -97 -92t-84.5 -51.5t-72.5 -18.5t-59.5 5.5t-47.5 22t-36 30.5q-16 -11 -29 -22t-24 -19q-12 -10 -23 -19q0 40 9.5 71t25.5 54q-11 30 -12 63.5t5 65.5t16.5 60.5t24.5 49.5q18 28 57 47t85.5 24 t93 -7.5t79.5 -46.5q25 -25 31 -49.5t0.5 -46.5t-21 -41.5t-34 -35.5t-37 -28.5t-31.5 -20.5q-23 -14 -51 -25t-51 -19zM214 304q-30 -23 -36 -52t-4 -50q27 14 52.5 24t45.5 19q10 4 25.5 10t30.5 13t26 15.5t12 18.5q1 11 -14 19.5t-38 10.5t-50 -4t-50 -24z" />
<glyph unicode="f" horiz-adv-x="499" d="M370 619q-21 4 -38 -7t-29 -28t-19.5 -36.5t-10.5 -32.5q-5 -23 -9.5 -52.5t-6.5 -64.5q-30 2 -60 4.5t-57 7.5q6 45 16 87.5t24 79t31.5 66t40.5 48.5q10 9 30 16.5t43 9t47 -6t43 -28.5q16 -18 25 -38.5t8 -61.5q-10 8 -21 15q-10 6 -24.5 12t-32.5 10zM130 307 q16 -11 35 -19.5t43 -15.5q5 2 11 6q5 2 13 5.5t19 5.5q-1 -36 0 -70.5t4 -65.5t7.5 -56.5t12.5 -42.5q9 -20 0.5 -32.5t-26 -17t-40.5 0t-44 18.5q-10 7 -18 32.5t-12.5 64t-6 86.5t1.5 101zM50 442q16 -12 39 -19.5t51 -12.5q27 -5 57 -7.5t60 -4.5q14 -1 27 -1.5t26 -1.5 q36 -2 55.5 -21.5t27.5 -41.5q10 -26 10 -58q-50 20 -88.5 21t-63.5 -6q-11 -2 -19 -5.5t-13 -5.5q-6 -4 -11 -6q-24 7 -43 15.5t-35 19.5q-30 20 -46 44t-24 44q-9 24 -10 47z" />
<glyph unicode="g" horiz-adv-x="522" d="M447 464q14 -27 20 -53q5 -22 3.5 -44t-19.5 -35q10 -65 15 -136.5t3 -142t-11.5 -135.5t-27 -116.5t-44 -86t-62.5 -42.5q-48 -11 -89.5 12.5t-75 70t-57.5 110.5t-38 133q55 -1 83.5 -15.5t41.5 -36t16.5 -46.5t9 -47t18.5 -38.5t44 -19.5q29 -3 48.5 15.5t32 52t18 80 t5.5 99.5q-26 1 -57.5 1h-66.5q-54 0 -93.5 17.5t-65 45t-37 62.5t-10.5 71q2 62 19.5 99t46 58t66 29.5t81 13t90 8.5t93.5 16zM190 231q0 -40 18 -53t45.5 -14t61 2.5t63.5 -3.5q-3 42 -7.5 81.5t-9.5 77.5q-5 2 -10.5 2.5t-11.5 2.5q-42 8 -75 2q-28 -5 -51 -26.5 t-23 -71.5z" />
<glyph unicode="h" horiz-adv-x="535" d="M276 431q39 9 69.5 -3t53.5 -39t38.5 -64t25.5 -78t15 -82t6 -74t-1.5 -55t-7.5 -26q-9 -8 -29 -7t-40.5 6.5t-37 14.5t-17.5 17q-3 12 1.5 38t10 57.5t9 64t-1 59.5t-19.5 43t-47 15q-48 -3 -73 -31q-2 -51 -6.5 -97t-10.5 -81q-3 -20 -15.5 -39.5t-29 -35.5 t-35.5 -26.5t-37 -11.5q-33 -2 -41 10t-4 29.5t14.5 35.5t13.5 27q25 66 38.5 127.5t18 117t2 104t-9.5 89.5q-16 95 -53 171q45 11 73.5 4.5t45 -21.5t24 -35.5t9.5 -38.5q5 -38 6.5 -90.5t0.5 -110.5q11 5 21 9t20 7z" />
<glyph unicode="i" horiz-adv-x="276" d="M209 378q4 -15 7 -38t5 -50t3 -57t1 -59q1 -68 0 -143q-5 -12 -16 -18.5t-26.5 -9.5t-33.5 -3.5t-35 -0.5q-32 0 -40.5 6.5t-5 16t12.5 20.5t11 21q18 74 14.5 142.5t-15.5 121.5q-14 62 -38 116q44 4 72.5 -1.5t46 -16t26 -23.5t11.5 -24zM180 596q-21 -1 -37.5 4.5 t-29 15.5t-22.5 22.5t-17 26.5q-17 32 -24 72q24 -8 46 -13q19 -5 38.5 -9t32.5 -6q23 -3 32 -21t8 -38t-9 -37t-18 -17z" />
<glyph unicode="j" horiz-adv-x="515" d="M447 518q8 -163 10 -306.5t-11 -254t-46 -180t-95 -83.5q-48 -11 -88.5 11.5t-73 67t-56 105t-37.5 125.5q54 -1 81.5 -15t40.5 -35t17 -45t9 -45t17.5 -36t43.5 -16q37 -2 55.5 30.5t24 88.5t1.5 130t-13 155q-7 60 11.5 114.5t42.5 96.5q28 49 66 92zM438 618 q-21 -1 -37.5 4.5t-29 15.5t-22.5 22.5t-17 26.5q-17 32 -24 72q24 -8 46 -13q19 -5 38.5 -9t32.5 -6q23 -3 32 -21t8 -38t-9 -37t-18 -17z" />
<glyph unicode="k" horiz-adv-x="522" d="M461 379q-21 -30 -42.5 -56t-45.5 -48.5t-51.5 -41.5t-61.5 -36q-12 9 -15 19q-3 5 -3 10q-8 -4 -15.5 -5.5t-13.5 -3.5q-7 -2 -13 -3q-1 -5 -1 -11q0 -5 2 -12.5t8 -16.5q-8 -3 -15 -6t-15 -5q2 20 2 39t1 38q24 15 52.5 33.5t54.5 41t45.5 48.5t26.5 58q1 4 12.5 8 t26.5 5t31 -0.5t27 -8t13 -17.5t-10 -29zM182 240q-1 -19 -1 -38t-2 -39q-1 -29 -3 -55t-6 -43q-2 -10 -4.5 -21.5t-13 -21t-33 -13.5t-63.5 1q20 80 29 164q3 35 4.5 74.5t-1.5 80.5t-11 81.5t-23 78.5q-4 21 -3 42q1 18 6.5 37.5t21.5 36.5q21 21 40.5 9.5t33.5 -43 t22 -77.5t7 -94v-160zM242 226q0 -5 3 -10q3 -10 15 -19q8 -6 13 -8q7 -3 25 -15t38.5 -29t39.5 -37t29.5 -39t7.5 -34.5t-27 -24.5q-11 -4 -31 -4t-31 3q-6 1 -14 15.5t-19 35.5t-27 45.5t-38 46.5q-10 10 -17 22q-6 9 -8 16.5t-2 12.5q0 6 1 11q6 1 13 3q6 2 13.5 3.5 t15.5 5.5z" />
<glyph unicode="l" horiz-adv-x="273" d="M219 613q2 -24 2.5 -58t0 -74.5t-2.5 -83.5t-4 -85q-5 -98 -14 -206q-5 -20 -17 -39.5t-27 -35.5t-32.5 -27t-33.5 -12q-31 -2 -37 13.5t-1 35.5q5 23 23 53q16 71 24 135t11 120t2 104.5t-5 87.5q-9 92 -30 162q42 11 68.5 5t42 -21t22 -35.5t8.5 -38.5z" />
<glyph unicode="m" horiz-adv-x="821" d="M567 455q43 7 75.5 -7t55 -43t37.5 -68t23 -81.5t10.5 -84.5t1.5 -76t-5 -56.5t-8 -26.5q-9 -8 -28 -10.5t-38.5 -1t-34.5 7t-16 13.5q-3 13 3.5 40.5t14.5 60.5t15 68.5t5.5 64.5t-15 47t-45.5 18q-38 -1 -60 -19t-34 -46t-15 -62t-2 -67.5t4 -62t4 -45.5q0 -5 -11.5 -6 t-26.5 0.5t-28.5 5t-15.5 8.5q-38 91 -61 147t-41.5 87t-38 43t-52.5 15q-7 1 -17 -1t-20 -6t-19 -9t-13 -10q-32 -40 -31 -105.5t44 -166.5q-19 -7 -36 -10q-14 -2 -29.5 -0.5t-23.5 12.5q-14 18 -23.5 48.5t-15 67.5t-6 76.5t4.5 74.5q6 46 27 76t48.5 48.5t56.5 27 t51 11.5q32 4 58 -1t46.5 -16t36 -27t26.5 -34q26 -41 39 -97q-7 31 2 61t28 55t43.5 41.5t49.5 20.5z" />
<glyph unicode="n" horiz-adv-x="581" d="M327 458q36 9 64.5 -4.5t50.5 -42.5t38 -69t26.5 -83.5t16 -87t7 -78.5t0 -58.5t-5.5 -27.5q-9 -8 -29 -9.5t-41 0.5t-37.5 8t-17.5 14q-3 13 -1 40.5t4 61.5t1.5 70t-7.5 65.5t-23.5 48t-45.5 18.5q-35 -1 -52 -19.5t-23 -47t-3 -63.5t9.5 -69t12.5 -63t7 -45 q0 -5 -18 -7.5t-39.5 -2.5t-40 2.5t-18.5 7.5q0 91 -6 154t-19 101.5t-33.5 55.5t-48.5 17q-8 0 -3 17t16 38.5t24.5 41t22.5 23.5q21 9 35.5 -6.5t24.5 -42t15.5 -57t7.5 -50.5q1 24 14 48.5t32 45t41 35.5t42 20z" />
<glyph unicode="o" horiz-adv-x="516" d="M291 471q39 19 71 10.5t54.5 -35t35 -67.5t14 -87.5t-9 -95t-34.5 -89.5q-36 -62 -73 -84t-70 -21t-59.5 17t-41.5 32q-13 13 -27.5 35t-22.5 47.5t-6.5 52t21.5 48.5q11 12 18 15.5t11 3.5q4 -1 7 -5q12 -15 18.5 -31.5t5.5 -18.5v-2.5t3 -6.5t11 -15t24 -27t29 -22 t23 -3q11 2 21 10q24 21 41.5 51.5t25.5 62t5.5 61.5t-17.5 50t-33 25.5t-42 -1.5t-56.5 -25.5t-77.5 -46.5q-23 -14 -39.5 -17.5t-28 0.5t-19.5 14.5t-12 23.5q-11 30 -10 79q17 -8 42.5 -6t57 11t67 24t73.5 33z" />
<glyph unicode="p" horiz-adv-x="530" d="M207 422q36 4 70.5 10.5t65 8t55.5 -6.5t43 -33.5t28 -72.5t10 -123q0 -35 -11 -70.5t-34.5 -64t-61 -46.5t-90.5 -18h-51q2 -36 3 -70t1.5 -65t0 -56t-2.5 -43q-2 -17 -9.5 -37t-25 -34.5t-48 -20.5t-78.5 5q15 39 26 88q10 42 18.5 101t10.5 132h-77q19 31 38 51.5 t38 34.5q-3 51 -10.5 106t-21.5 115q-26 15 -33.5 36.5t-5.5 41.5q2 23 12 47q28 -12 57 -15q26 25 49 26.5t34 -27.5zM382 189q8 43 2 69.5t-21 40t-36 16.5t-42.5 0.5t-41 -8.5t-31.5 -11q2 -20 5 -66t8 -104q29 1 54.5 -1.5t46.5 0.5t35.5 16.5t20.5 47.5z" />
<glyph unicode="q" horiz-adv-x="530" d="M403 29q2 -74 10 -133t19 -101q11 -49 27 -87q-48 -11 -78.5 -5.5t-48.5 20.5t-25.5 34.5t-9.5 36.5q-2 18 -2.5 43.5t0 56.5t1.5 65t3 70h-51q-53 0 -90.5 18t-61 46.5t-34.5 63.5t-11 70q0 76 10 123.5t28 73t43 33.5t55.5 6.5t64.5 -8t71 -10.5q11 29 34 27t49 -27 q30 5 57 16q10 -25 12 -48q2 -20 -6 -41.5t-33 -36.5q-14 -59 -21.5 -114t-10.5 -106q39 -27 76 -86h-77zM148 212q6 -35 20.5 -48.5t35.5 -16.5t47 0t55 1q4 59 7 105t5 66q-12 5 -31.5 11t-41 8.5t-42.5 -0.5t-36 -16.5t-21 -40t2 -69.5z" />
<glyph unicode="r" horiz-adv-x="524" d="M397 429q24 -2 39.5 -18t23.5 -35q10 -22 14 -49q-70 3 -110.5 -14.5t-60.5 -47t-23.5 -66t0.5 -72.5t10.5 -66t7.5 -46q0 -5 -20 -7.5t-44 -3t-44.5 2t-20.5 8.5q1 91 -6 154.5t-21.5 102.5t-37.5 55.5t-54 14.5q13 23 25 42q11 17 22.5 31.5t22.5 19.5q23 12 38.5 0 t26 -35t16 -50.5t8.5 -47.5q0 27 13 51.5t37.5 42.5t59 27.5t78.5 5.5z" />
<glyph unicode="s" horiz-adv-x="513" d="M454 297q-2 9 -13 17q-10 7 -30 14t-55 12q-52 6 -77.5 5t-33.5 -6.5t-2.5 -14.5t16 -17.5t22 -16t16.5 -9.5q22 -11 51.5 -37t55 -57.5t39.5 -63.5t4 -54q-10 -23 -42 -39.5t-75 -24.5t-90.5 -7.5t-88 12t-68.5 35t-31 59.5q-3 24 0 44q2 17 11 33.5t29 24.5 q7 3 26.5 -3t37.5 -16t28.5 -22.5t-0.5 -24.5q-13 -13 -4.5 -24t26 -18t36.5 -9t27 2q16 9 18.5 18.5t-10.5 27.5t-43 47t-78 77q-44 43 -51 77t11 58t54.5 38t79.5 17.5t86.5 -4t75 -26.5t45 -50t-2.5 -74z" />
<glyph unicode="t" horiz-adv-x="552" d="M423 529q33 -8 50 -25.5t23.5 -36t5.5 -34.5t-5 -22q-3 -4 -20 -11t-42 -15.5t-55 -18t-58 -18.5q-3 -59 -7.5 -117.5t-11.5 -107t-17.5 -83t-23.5 -44.5q-1 -1 -11 -1.5t-23 0.5t-26 4t-21 9t-7 16.5t16 26.5q8 8 19 25t13 58q1 32 3 79t5 99q-18 -8 -42.5 -14.5t-50 1 t-49 34t-38.5 83.5q20 -10 48 -14q23 -3 57.5 -0.5t79.5 19.5q2 45 3.5 85.5t3.5 71.5q2 36 4 67q-3 37 4 54q3 7 8.5 10t15 -1t23 -16.5t32.5 -37.5v-80q13 -11 36 -24t58 -21zM327 468q14 9 28.5 19.5t29.5 22.5l-57 34v-36.5t-1 -39.5z" />
<glyph unicode="u" horiz-adv-x="524" d="M474 16q-20 -1 -39 2q-17 2 -34.5 7t-28.5 15q-36 -23 -74 -26t-62 -1q-60 4 -97 34.5t-57 74t-26.5 94t-4.5 95t9 75t14 35.5q10 7 28 0.5t36 -18.5t32 -26t15 -22q2 -13 -3 -35t-10.5 -47.5t-9 -52.5t1 -48.5t20.5 -36.5t49 -16q39 -2 62.5 15.5t35.5 46t15.5 64 t2.5 70t-4 63.5t-4 45t7 19.5t20 -1t26.5 -14.5t27 -21t21.5 -21t10 -13q13 -88 8 -148t-21 -100q1 -19 3 -37t6 -33t10 -25t15 -13z" />
<glyph unicode="v" horiz-adv-x="532" d="M366 391q5 10 14 21t23 17t33.5 4t45.5 -17q-37 -76 -67 -145q-13 -29 -25 -60t-22 -59.5t-16 -53t-7 -42.5q0 -8 -0.5 -17t-8 -17.5t-25.5 -14t-52 -5.5v31q-5 6 -21.5 28.5t-39 53.5t-47.5 68t-46.5 71.5t-36.5 64t-17 46.5q-3 26 11.5 39.5t33.5 18.5q22 6 50 5 q-2 -17 11.5 -51t34 -74t44.5 -81t42 -71q9 27 20 61t23 67.5t24 63.5t21 48z" />
<glyph unicode="w" horiz-adv-x="815" d="M725 410q14 -18 22 -48.5t11.5 -67t4.5 -76t1 -75.5q0 -45 -20 -72.5t-49 -43t-60.5 -22t-53.5 -9.5q-32 -5 -59 -0.5t-49.5 15t-41 25.5t-32.5 31q-33 38 -54 90q6 -31 -1 -57t-23 -46t-38.5 -33.5t-46.5 -19.5q-39 -10 -68 2.5t-50 39t-34.5 63.5t-21 78t-10 81.5 t-1.5 73.5t4 55t8 26q9 8 28 10.5t38.5 1t34 -6.5t16.5 -14q3 -13 -2.5 -43t-13 -67t-13 -76.5t-3 -72t16.5 -53.5t46 -20q37 1 55.5 22t24.5 54t2.5 73t-10.5 78.5t-14 70t-8 48.5q0 4 18.5 4t42 -3.5t43.5 -8.5t22 -10q38 -92 61 -148t41.5 -87t38 -42.5t52.5 -15.5 q7 -1 17 1t20 6t18.5 9t13.5 10q32 40 31 105.5t-44 166.5q19 7 36 10q14 2 29 0.5t24 -12.5z" />
<glyph unicode="x" horiz-adv-x="520" d="M455 409q4 -13 5.5 -37.5t-5 -56.5t-23 -70.5t-48.5 -79.5q-14 16 -33 36.5t-40 43.5q21 40 31 75t14 62q4 31 3 58q5 13 18.5 15.5t29.5 -2.5t29.5 -16.5t18.5 -27.5zM255 161q7 -7 15 -17.5t16 -20t16 -17.5t17 -10q-5 -5 -11 -9.5t-11 -9.5q-48 -38 -92 -53t-79 -18 q-40 -4 -76 4q71 33 120.5 71.5t84.5 79.5zM416 128q31 -35 44 -62q6 -12 8 -23t-1.5 -19.5t-15 -13.5t-33.5 -5q-18 0 -29 5.5t-17 13.5q-7 9 -10 20q-20 26 -43 52q-17 19 -33 35t-31 30q-38 35 -70 57t-55 35q-27 14 -48 21q1 32 15 51.5t31.5 29t35 10.5t26.5 -5 q20 -14 53.5 -46.5t67.5 -68.5q21 -23 40 -43.5t33 -36.5q8 -8 13 -15t10 -12q4 -6 9 -10z" />
<glyph unicode="y" horiz-adv-x="635" d="M566 472q-8 -10 -25 -45.5t-38 -85t-44 -108.5t-43.5 -115.5t-36.5 -105.5t-23 -79q-9 -38 -22.5 -81t-26.5 -81q-15 -44 -30 -87q-10 -5 -22.5 1t-24.5 17t-22 24t-14 24q-9 20 -2 61.5t20.5 89.5t28.5 96.5t23 83.5q-14 38 -36 80t-50 81.5t-61 73.5t-67 56 q39 70 82 82q18 5 39 -1.5t43.5 -33t46.5 -76t48 -130.5q22 67 50.5 124t56.5 99t52.5 66t39.5 25q52 5 70 -7.5t-12 -47.5z" />
<glyph unicode="z" horiz-adv-x="621" d="M75 45q34 5 75 17q35 11 82.5 29.5t103.5 49.5q54 30 101.5 29t80 -20t46.5 -50t1 -61q-21 -17 -43 -25q-19 -7 -43 -6t-47 21t-48 26.5t-48 5t-43 -9t-33 -14.5q-9 -5 -21.5 -16.5t-33.5 -16.5t-52.5 2t-77.5 39zM481 476q39 -68 10 -138q-12 -30 -40.5 -64t-80 -69.5 t-130 -72t-190.5 -70.5q97 74 181 148q36 31 73 65.5t70.5 69t61.5 68t45 63.5zM249 412q-6 -59 -19 -90q-6 -13 -13.5 -21t-17.5 -6.5t-22.5 15.5t-28.5 45q-32 61 -38 87t9 27.5t49 -15.5t81 -42z" />
<glyph unicode="~" horiz-adv-x="438" d="M125 711q27 18 49.5 14.5t41.5 -16t35.5 -29t32.5 -24.5q17 -9 36 -5t34 12q18 10 34 24q-17 -60 -35.5 -88t-36.5 -35.5t-35 0.5t-32 21t-26.5 26t-18.5 16q-12 5 -22 -5.5t-19 -27t-17.5 -33.5t-16.5 -24q-9 -8 -22 -12.5t-26 1t-21.5 23t-8.5 55.5q0 14 9 30.5t21 32 t24.5 27.5t19.5 17z" />
<glyph unicode="&#xa1;" horiz-adv-x="296" d="M91 -110q-13 77 -23 147q-4 30 -8 60.5t-6 59t-3 52.5t1 41q1 12 7.5 26.5t23.5 24.5t47.5 13t78.5 -7q-23 -49 -29 -114q-6 -56 3.5 -135.5t50.5 -181.5q7 -6 10 -16q2 -8 -1.5 -21.5t-20.5 -33.5q-23 -27 -48 -41t-44.5 -7t-30.5 38.5t-8 94.5zM194 362q-26 -6 -45 -6 t-33 4.5t-23 13t-15 17.5q-13 22 -13 55q12 26 34 31.5t45.5 -1.5t44.5 -23t31.5 -34t6 -34t-32.5 -23z" />
<glyph unicode="&#xa8;" horiz-adv-x="366" d="M67 625q27 13 42.5 6t23.5 -20q10 -16 13 -41q-4 -21 -15.5 -27t-25 -2t-27 14.5t-21 23.5t-6.5 26t16 20zM236 631q13 7 24 8t19 -2t14 -8.5t10 -12.5q10 -17 13 -41q-4 -20 -15.5 -26t-25.5 -2.5t-27 14.5t-21 24t-7 25.5t16 20.5z" />
<glyph unicode="&#xb4;" horiz-adv-x="234" d="M50 518q2 38 7 71q4 29 11.5 57.5t19.5 43.5q7 10 18.5 19t24.5 13.5t26 2t23 -15.5q6 -9 0.5 -24.5t-18 -34.5t-30 -39t-34 -38.5t-30 -33t-18.5 -21.5z" />
<glyph unicode="&#xbf;" horiz-adv-x="584" d="M52 -91q-5 42 7 70.5t33.5 51t50 43.5t58 48t56 64.5t44.5 92.5q9 29 33 43.5t48.5 18t44 -1.5t19.5 -15q2 -68 -25 -123.5t-65 -99.5t-78.5 -77.5t-65 -57.5t-25 -40.5t41.5 -25.5q25 -6 53 -3.5t55 9.5t52 17t43 20q15 8 32.5 0t32.5 -23t25.5 -31t10.5 -24 q1 -23 -33 -40t-86 -26t-113 -9t-115 12.5t-91.5 38.5t-42.5 68zM442 403q-24 -10 -43 -12.5t-33.5 0.5t-24.5 9.5t-17 15.5q-17 20 -21 52q8 27 28.5 35.5t45 5t48 -16t36 -29t10.5 -33t-29 -27.5z" />
<glyph unicode="&#xc0;" d="M416 333q31 -48 64.5 -95.5t67 -87t67 -69t63.5 -42.5q0 -1 -14.5 -12.5t-39.5 -20t-58.5 -7t-72.5 27.5t-81.5 83t-85.5 160q-40 -23 -79 -38.5t-64 -18.5q-14 -71 -24 -125.5t-12 -73.5q-1 -14 -13.5 -16t-27.5 3.5t-29.5 14.5t-18.5 16q-8 12 -7.5 46.5t7.5 82.5 t19.5 106t28 117t34 115.5t37.5 101.5t37.5 74.5t35.5 35.5q8 5 16 6q7 1 14.5 -2.5t14.5 -15.5q-3 2 -7 -6q-4 -7 -8.5 -24.5t-12.5 -53.5q-1 -3 -1.5 -7t-1.5 -8q13 -26 37.5 -71.5t57.5 -102.5h1q23 12 36 24.5t21 23.5q9 12 13 25q17 -35 17.5 -64.5t-6.5 -51.5 q-8 -26 -23 -47q-1 -1 -1 -1.5t-1 -1.5zM213 359q16 5 33.5 12.5t35.5 15.5q-9 29 -18.5 59.5t-18.5 65.5q-7 -34 -15 -72.5t-17 -80.5zM248 775q-5 7 -18.5 21.5t-30 33t-34 39t-30 39t-18.5 34t1 24.5q10 13 23 15.5t26 -2t24.5 -13.5t18.5 -18q12 -16 19 -44.5t12 -57.5 q4 -33 7 -71z" />
<glyph unicode="&#xc1;" d="M250 762q2 38 7 71q4 29 11.5 57.5t19.5 43.5q7 10 18.5 19t24.5 13.5t26 2t23 -15.5q6 -9 0.5 -24.5t-18 -34.5t-30 -39t-34 -38.5t-30 -33t-18.5 -21.5zM416 333q1 1 1 1.5t1 1.5q15 21 23 47q7 22 6.5 51.5t-17.5 64.5q-4 -13 -13 -25q-8 -11 -21 -23.5t-36 -24.5h-1 q-33 57 -57.5 102.5t-37.5 71.5q1 4 1.5 8t1.5 7q8 36 12.5 53.5t8.5 24.5q4 8 7 6q-7 12 -14.5 15.5t-14.5 2.5q-8 -1 -16 -6q-17 -6 -35.5 -35.5t-37.5 -74.5t-37.5 -101.5t-34 -115.5t-28 -117t-19.5 -106t-7.5 -82.5t7.5 -46.5q4 -7 18.5 -16t29.5 -14.5t27.5 -3.5 t13.5 16q2 19 12 73.5t24 125.5q25 3 64 18.5t79 38.5q43 -103 85.5 -160t81.5 -83t72.5 -27.5t58.5 7t39.5 20t14.5 12.5q-30 13 -63.5 42.5t-67 69t-67 87t-64.5 95.5zM213 359q9 42 17 80.5t15 72.5q9 -35 18.5 -65.5t18.5 -59.5q-18 -8 -35.5 -15.5t-33.5 -12.5z" />
<glyph unicode="&#xc2;" d="M416 333q31 -48 64.5 -95.5t67 -87t67 -69t63.5 -42.5q0 -1 -14.5 -12.5t-39.5 -20t-58.5 -7t-72.5 27.5t-81.5 83t-85.5 160q-40 -23 -79 -38.5t-64 -18.5q-14 -71 -24 -125.5t-12 -73.5q-1 -14 -13.5 -16t-27.5 3.5t-29.5 14.5t-18.5 16q-8 12 -7.5 46.5t7.5 82.5 t19.5 106t28 117t34 115.5t37.5 101.5t37.5 74.5t35.5 35.5q8 5 16 6q7 1 14.5 -2.5t14.5 -15.5q-3 2 -7 -6q-4 -7 -8.5 -24.5t-12.5 -53.5q-1 -3 -1.5 -7t-1.5 -8q13 -26 37.5 -71.5t57.5 -102.5h1q23 12 36 24.5t21 23.5q9 12 13 25q17 -35 17.5 -64.5t-6.5 -51.5 q-8 -26 -23 -47q-1 -1 -1 -1.5t-1 -1.5zM213 359q16 5 33.5 12.5t35.5 15.5q-9 29 -18.5 59.5t-18.5 65.5q-7 -34 -15 -72.5t-17 -80.5zM86 802q35 16 68 40q29 20 59 49t52 67q16 2 27 -2q10 -3 17 -10.5t4 -23.5q15 -26 35 -51q17 -21 42.5 -43.5t57.5 -38.5 q-8 -9 -18 -16q-8 -6 -20 -10.5t-27 -2.5q-19 8 -38 22q-17 12 -36 32t-36 50q-42 -46 -79 -72q-16 -11 -32 -18.5t-30.5 -8t-26.5 8t-19 28.5z" />
<glyph unicode="&#xc3;" d="M416 333q31 -48 64.5 -95.5t67 -87t67 -69t63.5 -42.5q0 -1 -14.5 -12.5t-39.5 -20t-58.5 -7t-72.5 27.5t-81.5 83t-85.5 160q-40 -23 -79 -38.5t-64 -18.5q-14 -71 -24 -125.5t-12 -73.5q-1 -14 -13.5 -16t-27.5 3.5t-29.5 14.5t-18.5 16q-8 12 -7.5 46.5t7.5 82.5 t19.5 106t28 117t34 115.5t37.5 101.5t37.5 74.5t35.5 35.5q8 5 16 6q7 1 14.5 -2.5t14.5 -15.5q-3 2 -7 -6q-4 -7 -8.5 -24.5t-12.5 -53.5q-1 -3 -1.5 -7t-1.5 -8q13 -26 37.5 -71.5t57.5 -102.5h1q23 12 36 24.5t21 23.5q9 12 13 25q17 -35 17.5 -64.5t-6.5 -51.5 q-8 -26 -23 -47q-1 -1 -1 -1.5t-1 -1.5zM213 359q16 5 33.5 12.5t35.5 15.5q-9 29 -18.5 59.5t-18.5 65.5q-7 -34 -15 -72.5t-17 -80.5zM168 951q27 18 44 27.5t32.5 5.5t34 -24.5t48.5 -63.5q6 -8 13.5 -11t15.5 -2.5t17 4t17 8.5q19 11 41 32q-17 -59 -35.5 -87.5 t-36.5 -36t-35 0.5t-32 21t-26.5 26t-18.5 16q-12 5 -22 -5.5t-19 -27t-17.5 -33.5t-16.5 -24q-9 -8 -22 -12.5t-26 1t-21.5 23t-8.5 55.5q0 14 9 30.5t21 32t24.5 27.5t19.5 17z" />
<glyph unicode="&#xc4;" d="M107 846q27 13 42.5 6t23.5 -20q10 -16 13 -41q-4 -21 -15.5 -27t-25 -2t-27 14.5t-21 23.5t-6.5 26t16 20zM317 852q13 7 24 8t19 -2t14 -8.5t10 -12.5q10 -17 13 -41q-4 -21 -15.5 -26.5t-25.5 -2t-27 14.5t-21 24t-7 25.5t16 20.5zM416 333q31 -48 64.5 -95.5t67 -87 t67 -69t63.5 -42.5q0 -1 -14.5 -12.5t-39.5 -20t-58.5 -7t-72.5 27.5t-81.5 83t-85.5 160q-40 -23 -79 -38.5t-64 -18.5q-14 -71 -24 -125.5t-12 -73.5q-1 -14 -13.5 -16t-27.5 3.5t-29.5 14.5t-18.5 16q-8 12 -7.5 46.5t7.5 82.5t19.5 106t28 117t34 115.5t37.5 101.5 t37.5 74.5t35.5 35.5q8 5 16 6q7 1 14.5 -2.5t14.5 -15.5q-3 2 -7 -6q-4 -7 -8.5 -24.5t-12.5 -53.5q-1 -3 -1.5 -7t-1.5 -8q13 -26 37.5 -71.5t57.5 -102.5h1q23 12 36 24.5t21 23.5q9 12 13 25q17 -35 17.5 -64.5t-6.5 -51.5q-8 -26 -23 -47q-1 -1 -1 -1.5t-1 -1.5z M213 359q16 5 33.5 12.5t35.5 15.5q-9 29 -18.5 59.5t-18.5 65.5q-7 -34 -15 -72.5t-17 -80.5z" />
<glyph unicode="&#xc7;" horiz-adv-x="665" d="M342 -27q2 7 4 19.5t2 25t-2.5 23t-9.5 14.5q-8 4 -19 0t-22 -12.5t-19.5 -18.5t-11.5 -16q-4 -8 0.5 -18.5t9.5 -22t7 -23t-5 -20.5q-11 -12 -20 -13.5t-16.5 2.5t-14.5 11t-13 10q-13 7 -22.5 3.5t-16.5 -9.5q-8 -8 -15 -19q30 -29 54.5 -39t44 -6.5t34 16.5t25 30 t17 34t9.5 29zM415 531q10 34 4.5 47t-21.5 11t-38 -15.5t-44 -32t-41 -39t-28 -37.5q-9 -16 -24.5 -49.5t-29 -74.5t-21 -84t-1 -77.5t31 -54.5t76 -16t133.5 38t203 108q-128 -134 -239 -198q-47 -27 -95 -42t-91 -7t-77 45.5t-53 115.5q-17 67 -4.5 138t43 137.5 t74 124.5t87.5 98.5t84.5 58.5t65.5 5.5t29 -60.5t-24 -140z" />
<glyph unicode="&#xc8;" horiz-adv-x="768" d="M694 154q7 -5 13 -11t8.5 -15.5t0.5 -22.5t-11 -32q-6 -13 -29 -18t-58.5 -7t-80.5 -2.5t-94.5 -3t-101 -10t-99.5 -22.5q-72 -23 -111 -13.5t-57 31.5q-21 25 -24 65q42 1 98.5 10.5t120.5 22.5q-5 -22 -9 -38.5t-8 -27.5q-4 -13 -8 -23q43 -2 72.5 5t49 19.5t29 28.5 t11.5 33q1 7 1 14.5t1 15.5q45 8 87.5 13.5t80 7t68 -3t50.5 -16.5zM256 726q22 35 45 55t42 17t31 -32.5t12 -93.5q-42 -11 -81 -17t-74 -11q-2 11 1.5 30.5t23.5 51.5zM406 123q-2 -17 -11.5 -33t-29 -28.5t-49 -19.5t-72.5 -5q4 10 8 23q4 11 8 27.5t9 38.5 q4 21 7.5 46.5t5.5 54.5q-36 -5 -53.5 -3t-28.5 13q-7 6 -13 22t-8 32.5t2.5 29.5t19.5 13q13 1 34 5t49 11q-2 44 -7.5 92t-16.5 102q32 -6 65 -7.5t65 3.5q3 -32 6 -72t6 -84q30 9 58.5 18t51.5 16q19 6 32 4.5t21 -6.5q10 -5 15 -14q-23 -23 -50 -46q-23 -20 -54.5 -42.5 t-68.5 -42.5q2 -33 2 -63.5t-1 -54.5q-1 -8 -1 -15.5t-1 -14.5zM390 540q-32 -5 -65 -3.5t-65 7.5q-57 11 -110 34.5t-100 56.5q23 -1 51 0q24 1 57 2.5t73 6.5q35 5 74 11t81 17q37 9 75 21t76 28q7 3 21 1t27 -9t22 -19t6.5 -27.5t-20 -35t-56.5 -42.5q-35 -21 -72 -32.5 t-75 -16.5zM462 775q-5 7 -18.5 21.5t-30 33t-34 39t-30 39t-18.5 34t1 24.5q10 13 23 15.5t26 -2t24.5 -13.5t18.5 -18q12 -16 19 -44.5t12 -57.5q4 -33 7 -71z" />
<glyph unicode="&#xc9;" horiz-adv-x="768" d="M399 762q2 38 7 71q4 29 11.5 57.5t19.5 43.5q7 10 18.5 19t24.5 13.5t26 2t23 -15.5q6 -9 0.5 -24.5t-18 -34.5t-30 -39t-34 -38.5t-30 -33t-18.5 -21.5zM694 154q-20 12 -50.5 16.5t-68 3t-80 -7t-87.5 -13.5q-1 -8 -1 -15.5t-1 -14.5q-2 -17 -11.5 -33t-29 -28.5 t-49 -19.5t-72.5 -5q4 10 8 23q4 11 8 27.5t9 38.5q-64 -13 -120.5 -22.5t-98.5 -10.5q3 -40 24 -65q18 -22 57 -31.5t111 13.5q48 15 99.5 22.5t101 10t94.5 3t80.5 2.5t58.5 7t29 18q9 19 11 32t-0.5 22.5t-8.5 15.5t-13 11zM256 726q-20 -32 -23.5 -51.5t-1.5 -30.5 q35 5 74 11t81 17q0 64 -12 93.5t-31 32.5t-42 -17t-45 -55zM406 123q1 7 1 14.5t1 15.5q1 24 1 54.5t-2 63.5q37 20 68.5 42.5t54.5 42.5q27 23 50 46q-5 9 -15 14q-8 5 -21 6.5t-32 -4.5q-23 -7 -51.5 -16t-58.5 -18q-3 44 -6 84t-6 72q-32 -5 -65 -3.5t-65 7.5 q11 -54 16.5 -102t7.5 -92q-28 -7 -49 -11t-34 -5q-15 0 -19.5 -13t-2.5 -29.5t8 -32.5t13 -22q11 -11 28.5 -13t53.5 3q-2 -29 -5.5 -54.5t-7.5 -46.5q-5 -22 -9 -38.5t-8 -27.5q-4 -13 -8 -23q43 -2 72.5 5t49 19.5t29 28.5t11.5 33zM390 540q38 5 75 16.5t72 32.5 q39 23 56.5 42.5t20 35t-6.5 27.5t-22 19t-27 9t-21 -1q-38 -16 -76 -28t-75 -21q-42 -11 -81 -17t-74 -11q-40 -5 -73 -6.5t-57 -2.5q-28 -1 -51 0q47 -33 100 -56.5t110 -34.5q32 -6 65 -7.5t65 3.5z" />
<glyph unicode="&#xca;" horiz-adv-x="768" d="M694 154q7 -5 13 -11t8.5 -15.5t0.5 -22.5t-11 -32q-6 -13 -29 -18t-58.5 -7t-80.5 -2.5t-94.5 -3t-101 -10t-99.5 -22.5q-72 -23 -111 -13.5t-57 31.5q-21 25 -24 65q42 1 98.5 10.5t120.5 22.5q-5 -22 -9 -38.5t-8 -27.5q-4 -13 -8 -23q43 -2 72.5 5t49 19.5t29 28.5 t11.5 33q1 7 1 14.5t1 15.5q45 8 87.5 13.5t80 7t68 -3t50.5 -16.5zM256 726q22 35 45 55t42 17t31 -32.5t12 -93.5q-42 -11 -81 -17t-74 -11q-2 11 1.5 30.5t23.5 51.5zM406 123q-2 -17 -11.5 -33t-29 -28.5t-49 -19.5t-72.5 -5q4 10 8 23q4 11 8 27.5t9 38.5 q4 21 7.5 46.5t5.5 54.5q-36 -5 -53.5 -3t-28.5 13q-7 6 -13 22t-8 32.5t2.5 29.5t19.5 13q13 1 34 5t49 11q-2 44 -7.5 92t-16.5 102q32 -6 65 -7.5t65 3.5q3 -32 6 -72t6 -84q30 9 58.5 18t51.5 16q19 6 32 4.5t21 -6.5q10 -5 15 -14q-23 -23 -50 -46q-23 -20 -54.5 -42.5 t-68.5 -42.5q2 -33 2 -63.5t-1 -54.5q-1 -8 -1 -15.5t-1 -14.5zM390 540q-32 -5 -65 -3.5t-65 7.5q-57 11 -110 34.5t-100 56.5q23 -1 51 0q24 1 57 2.5t73 6.5q35 5 74 11t81 17q37 9 75 21t76 28q7 3 21 1t27 -9t22 -19t6.5 -27.5t-20 -35t-56.5 -42.5q-35 -21 -72 -32.5 t-75 -16.5zM203 833q35 16 68 40q29 20 59 49t52 67q16 2 27 -2q10 -3 17 -10.5t4 -23.5q15 -26 35 -51q17 -21 42.5 -43.5t57.5 -38.5q-8 -9 -18 -16q-8 -6 -20 -10.5t-27 -2.5q-19 8 -38 22q-17 12 -36 32t-36 50q-42 -46 -79 -72q-16 -11 -32 -18.5t-30.5 -8t-26.5 8 t-19 28.5z" />
<glyph unicode="&#xcb;" horiz-adv-x="768" d="M694 154q7 -5 13 -11t8.5 -15.5t0.5 -22.5t-11 -32q-6 -13 -29 -18t-58.5 -7t-80.5 -2.5t-94.5 -3t-101 -10t-99.5 -22.5q-72 -23 -111 -13.5t-57 31.5q-21 25 -24 65q42 1 98.5 10.5t120.5 22.5q-5 -22 -9 -38.5t-8 -27.5q-4 -13 -8 -23q43 -2 72.5 5t49 19.5t29 28.5 t11.5 33q1 7 1 14.5t1 15.5q45 8 87.5 13.5t80 7t68 -3t50.5 -16.5zM256 726q22 35 45 55t42 17t31 -32.5t12 -93.5q-42 -11 -81 -17t-74 -11q-2 11 1.5 30.5t23.5 51.5zM406 123q-2 -17 -11.5 -33t-29 -28.5t-49 -19.5t-72.5 -5q4 10 8 23q4 11 8 27.5t9 38.5 q4 21 7.5 46.5t5.5 54.5q-36 -5 -53.5 -3t-28.5 13q-7 6 -13 22t-8 32.5t2.5 29.5t19.5 13q13 1 34 5t49 11q-2 44 -7.5 92t-16.5 102q32 -6 65 -7.5t65 3.5q3 -32 6 -72t6 -84q30 9 58.5 18t51.5 16q19 6 32 4.5t21 -6.5q10 -5 15 -14q-23 -23 -50 -46q-23 -20 -54.5 -42.5 t-68.5 -42.5q2 -33 2 -63.5t-1 -54.5q-1 -8 -1 -15.5t-1 -14.5zM390 540q-32 -5 -65 -3.5t-65 7.5q-57 11 -110 34.5t-100 56.5q23 -1 51 0q24 1 57 2.5t73 6.5q35 5 74 11t81 17q37 9 75 21t76 28q7 3 21 1t27 -9t22 -19t6.5 -27.5t-20 -35t-56.5 -42.5q-35 -21 -72 -32.5 t-75 -16.5z" />
<glyph unicode="&#xcc;" horiz-adv-x="346" d="M293 94q-2 -16 -9 -35t-25 -32.5t-48.5 -19t-78.5 5.5q23 64 33 149q4 36 5 80.5t-3 96t-14 110.5t-29 125q-8 7 -10 20q-2 11 2.5 29t22.5 44q24 36 49 54.5t44.5 10.5t30 -48.5t4.5 -122.5q11 -100 18 -190q3 -38 5.5 -78t4 -77t1 -68.5t-2.5 -53.5zM184 792 q-5 7 -18.5 21.5t-30 33t-34 39t-30 39t-18.5 34t1 24.5q10 13 23 15.5t26 -2t24.5 -13.5t18.5 -18q12 -16 19 -44.5t12 -57.5q4 -33 7 -71z" />
<glyph unicode="&#xcd;" horiz-adv-x="333" d="M149 760q2 38 7 71q4 29 11.5 57.5t19.5 43.5q7 10 18.5 19t24.5 13.5t26 2t23 -15.5q6 -9 0.5 -24.5t-18 -34.5t-30 -39t-34 -38.5t-30 -33t-18.5 -21.5zM230 94q-2 -16 -9 -35t-25 -32.5t-48.5 -19t-78.5 5.5q23 64 33 149q4 36 5 80.5t-3 96t-14 110.5t-29 125 q-8 7 -10 20q-2 11 2.5 29t22.5 44q24 36 49 54.5t44.5 10.5t30 -48.5t4.5 -122.5q11 -100 18 -190q3 -38 5.5 -78t4 -77t1 -68.5t-2.5 -53.5z" />
<glyph unicode="&#xce;" horiz-adv-x="462" d="M319 94q-2 -16 -9 -35t-25 -32.5t-48.5 -19t-78.5 5.5q23 64 33 149q4 36 5 80.5t-3 96t-14 110.5t-29 125q-8 7 -10 20q-2 11 2.5 29t22.5 44q24 36 49 54.5t44.5 10.5t30 -48.5t4.5 -122.5q11 -100 18 -190q3 -38 5.5 -78t4 -77t1 -68.5t-2.5 -53.5zM50 833 q35 16 68 40q29 20 59 49t52 67q16 2 27 -2q10 -3 17 -10.5t4 -23.5q15 -26 35 -51q17 -21 42.5 -43.5t57.5 -38.5q-8 -9 -18 -16q-8 -6 -20 -10.5t-27 -2.5q-19 8 -38 22q-17 12 -36 32t-36 50q-42 -46 -79 -72q-16 -11 -32 -18.5t-30.5 -8t-26.5 8t-19 28.5z" />
<glyph unicode="&#xcf;" horiz-adv-x="360" d="M67 851q29 13 44.5 6t23.5 -21q9 -16 11 -40q-4 -21 -15.5 -27t-25 -2t-27 14.5t-21 23.5t-6.5 26t16 20zM230 854q13 7 24 8t19 -2t14 -8.5t10 -12.5q10 -17 13 -41q-4 -21 -15.5 -26.5t-25.5 -2t-27 14.5t-21 24t-7 25.5t16 20.5zM273 89q-2 -16 -9 -35t-25 -32.5 t-48.5 -19t-78.5 5.5q23 64 33 149q4 36 5 80.5t-3 96t-14 110.5t-29 125q-8 7 -10 20q-2 11 2.5 29t22.5 44q24 36 49 54.5t44.5 10.5t30 -48.5t4.5 -122.5q11 -100 18 -190q3 -38 5.5 -78t4 -77t1 -68.5t-2.5 -53.5z" />
<glyph unicode="&#xd1;" horiz-adv-x="656" d="M165 480q5 -87 9 -162q2 -32 4 -64.5t4 -61t4 -51.5t4 -35q3 -21 -1 -37.5t-19.5 -30t-44.5 -24t-75 -19.5q8 177 12 324q1 63 2 125t0.5 114.5t-3 91t-7.5 53.5q28 19 59 15q13 -2 28 -9.5t30.5 -23.5t31.5 -41.5t31 -63.5q31 -77 74.5 -134.5t84.5 -95.5q48 -45 97 -76 q-2 73 -8 142q-6 59 -17.5 122t-31.5 107q-7 16 -4 29.5t11 23t18 14t18 2.5q12 -3 25 -15t25.5 -27.5t22 -32t13.5 -27.5q22 -60 33 -127t11 -132.5t-11 -125.5t-32 -105.5t-52 -73t-72 -27.5q14 24 15 54q1 25 -11.5 59t-50.5 73q-69 70 -112 121.5t-69 85.5 q-30 40 -46 66zM234 951q27 18 44 27.5t32.5 5.5t34 -24.5t48.5 -63.5q6 -8 13.5 -11t15.5 -2.5t17 4t17 8.5q19 11 41 32q-17 -59 -35.5 -87.5t-36.5 -36t-35 0.5t-32 21t-26.5 26t-18.5 16q-12 5 -22 -5.5t-19 -27t-17.5 -33.5t-16.5 -24q-9 -8 -22 -12.5t-26 1t-21.5 23 t-8.5 55.5q0 14 9 30.5t21 32t24.5 27.5t19.5 17z" />
<glyph unicode="&#xd2;" horiz-adv-x="663" d="M388 695q53 29 95 19.5t70.5 -46.5t44 -95.5t15.5 -126.5t-15.5 -140t-48.5 -136t-66.5 -100t-65.5 -51.5t-62 -13.5t-56 13.5t-47 29t-35 33.5q-18 21 -38 55.5t-31 74.5t-8.5 81.5t29.5 75.5q14 19 31 23t31 2q17 -3 33 -13q8 -12 7 -23.5t-5.5 -21t-9.5 -16t-6 -8.5 q0 -2 -0.5 -11t3.5 -25.5t15 -38.5t32 -49t40 -36.5t33 -9.5q17 0 30 9q22 22 40 55.5t31 72t20 79.5t7.5 79t-5.5 70t-20 53q-21 31 -45 40t-56.5 -2t-77 -39.5t-105.5 -72.5q-31 -22 -53 -30t-37.5 -5.5t-25 13t-15.5 25.5q-13 33 -9 92q23 -12 59 -6t80.5 23.5t94.5 43.5 t102 54zM409 775q-5 7 -18.5 21.5t-30 33t-34 39t-30 39t-18.5 34t1 24.5q10 13 23 15.5t26 -2t24.5 -13.5t18.5 -18q12 -16 19 -44.5t12 -57.5q4 -33 7 -71z" />
<glyph unicode="&#xd3;" horiz-adv-x="663" d="M299 762q2 38 7 71q4 29 11.5 57.5t19.5 43.5q7 10 18.5 19t24.5 13.5t26 2t23 -15.5q6 -9 0.5 -24.5t-18 -34.5t-30 -39t-34 -38.5t-30 -33t-18.5 -21.5zM388 695q-52 -28 -102 -54t-94.5 -43.5t-80.5 -23.5t-59 6q-4 -59 9 -92q6 -15 15.5 -25.5t25 -13t37.5 5.5t53 30 q61 44 105.5 72.5t77 39.5t56.5 2t45 -40q14 -21 20 -53t5.5 -70t-7.5 -79t-20 -79.5t-31 -72t-40 -55.5q-13 -9 -30 -9q-14 0 -33 9.5t-40 36.5t-32 49t-15 38.5t-3.5 25.5t0.5 11q1 2 6 8.5t9.5 16t5.5 21t-7 23.5q-16 10 -33 13q-14 2 -31 -2t-31 -23 q-27 -34 -29.5 -75.5t8.5 -81.5t31 -74.5t38 -55.5q14 -16 35 -33.5t47 -29t56 -13.5t62 13.5t65.5 51.5t66.5 100t48.5 136t15.5 140t-15.5 126.5t-44 95.5t-70.5 46.5t-95 -19.5z" />
<glyph unicode="&#xd4;" horiz-adv-x="663" d="M388 695q53 29 95 19.5t70.5 -46.5t44 -95.5t15.5 -126.5t-15.5 -140t-48.5 -136t-66.5 -100t-65.5 -51.5t-62 -13.5t-56 13.5t-47 29t-35 33.5q-18 21 -38 55.5t-31 74.5t-8.5 81.5t29.5 75.5q14 19 31 23t31 2q17 -3 33 -13q8 -12 7 -23.5t-5.5 -21t-9.5 -16t-6 -8.5 q0 -2 -0.5 -11t3.5 -25.5t15 -38.5t32 -49t40 -36.5t33 -9.5q17 0 30 9q22 22 40 55.5t31 72t20 79.5t7.5 79t-5.5 70t-20 53q-21 31 -45 40t-56.5 -2t-77 -39.5t-105.5 -72.5q-31 -22 -53 -30t-37.5 -5.5t-25 13t-15.5 25.5q-13 33 -9 92q23 -12 59 -6t80.5 23.5t94.5 43.5 t102 54zM150 833q35 16 68 40q29 20 59 49t52 67q16 2 27 -2q10 -3 17 -10.5t4 -23.5q15 -26 35 -51q17 -21 42.5 -43.5t57.5 -38.5q-8 -9 -18 -16q-8 -6 -20 -10.5t-27 -2.5q-19 8 -38 22q-17 12 -36 32t-36 50q-42 -46 -79 -72q-16 -11 -32 -18.5t-30.5 -8t-26.5 8 t-19 28.5z" />
<glyph unicode="&#xd5;" horiz-adv-x="663" d="M388 695q53 29 95 19.5t70.5 -46.5t44 -95.5t15.5 -126.5t-15.5 -140t-48.5 -136t-66.5 -100t-65.5 -51.5t-62 -13.5t-56 13.5t-47 29t-35 33.5q-18 21 -38 55.5t-31 74.5t-8.5 81.5t29.5 75.5q14 19 31 23t31 2q17 -3 33 -13q8 -12 7 -23.5t-5.5 -21t-9.5 -16t-6 -8.5 q0 -2 -0.5 -11t3.5 -25.5t15 -38.5t32 -49t40 -36.5t33 -9.5q17 0 30 9q22 22 40 55.5t31 72t20 79.5t7.5 79t-5.5 70t-20 53q-21 31 -45 40t-56.5 -2t-77 -39.5t-105.5 -72.5q-31 -22 -53 -30t-37.5 -5.5t-25 13t-15.5 25.5q-13 33 -9 92q23 -12 59 -6t80.5 23.5t94.5 43.5 t102 54zM237 951q27 18 44 27.5t32.5 5.5t34 -24.5t48.5 -63.5q6 -8 13.5 -11t15.5 -2.5t17 4t17 8.5q19 11 41 32q-17 -59 -35.5 -87.5t-36.5 -36t-35 0.5t-32 21t-26.5 26t-18.5 16q-12 5 -22 -5.5t-19 -27t-17.5 -33.5t-16.5 -24q-9 -8 -22 -12.5t-26 1t-21.5 23 t-8.5 55.5q0 14 9 30.5t21 32t24.5 27.5t19.5 17z" />
<glyph unicode="&#xd6;" horiz-adv-x="663" d="M388 695q53 29 95 19.5t70.5 -46.5t44 -95.5t15.5 -126.5t-15.5 -140t-48.5 -136t-66.5 -100t-65.5 -51.5t-62 -13.5t-56 13.5t-47 29t-35 33.5q-18 21 -38 55.5t-31 74.5t-8.5 81.5t29.5 75.5q14 19 31 23t31 2q17 -3 33 -13q8 -12 7 -23.5t-5.5 -21t-9.5 -16t-6 -8.5 q0 -2 -0.5 -11t3.5 -25.5t15 -38.5t32 -49t40 -36.5t33 -9.5q17 0 30 9q22 22 40 55.5t31 72t20 79.5t7.5 79t-5.5 70t-20 53q-21 31 -45 40t-56.5 -2t-77 -39.5t-105.5 -72.5q-31 -22 -53 -30t-37.5 -5.5t-25 13t-15.5 25.5q-13 33 -9 92q23 -12 59 -6t80.5 23.5t94.5 43.5 t102 54z" />
<glyph unicode="&#xd9;" horiz-adv-x="637" d="M563 671q26 -165 24 -278.5t-21.5 -187t-52.5 -114t-70 -59t-72.5 -22.5t-60.5 -4q-62 -1 -106.5 26.5t-74.5 73t-47 105t-24.5 122t-7 123.5t5 111t11.5 83t14 40q9 9 21 6t25.5 -13.5t27 -26t24.5 -32t18 -32t9 -25.5q4 -23 0 -64.5t-7.5 -90.5t-4.5 -100t9.5 -92 t34.5 -66.5t70 -24.5q54 1 86 32.5t49 80.5t21 109t2.5 118t-7 108.5t-7.5 79.5t4.5 43.5t18 18t26 -1t27.5 -13t23 -18t12 -15.5zM396 775q-5 7 -18.5 21.5t-30 33t-34 39t-30 39t-18.5 34t1 24.5q10 13 23 15.5t26 -2t24.5 -13.5t18.5 -18q12 -16 19 -44.5t12 -57.5 q4 -33 7 -71z" />
<glyph unicode="&#xda;" horiz-adv-x="637" d="M288 762q2 38 7 71q4 29 11.5 57.5t19.5 43.5q7 10 18.5 19t24.5 13.5t26 2t23 -15.5q6 -9 0.5 -24.5t-18 -34.5t-30 -39t-34 -38.5t-30 -33t-18.5 -21.5zM563 671q-2 6 -12 15.5t-23 18t-27.5 13t-26 1t-18 -18t-4.5 -43.5t7.5 -79.5t7 -108.5t-2.5 -118t-21 -109 t-49 -80.5t-86 -32.5q-46 -1 -70 24.5t-34.5 66.5t-9.5 92t4.5 100t7.5 90.5t0 64.5q-2 10 -9 25.5t-18 32t-24.5 32t-27 26t-25.5 13.5t-21 -6q-7 -7 -14 -40t-11.5 -83t-5 -111t7 -123.5t24.5 -122t47 -105t74.5 -73t106.5 -26.5q25 0 60.5 4t72.5 22.5t70 59t52.5 114 t21.5 187t-24 278.5z" />
<glyph unicode="&#xdb;" horiz-adv-x="637" d="M563 671q26 -165 24 -278.5t-21.5 -187t-52.5 -114t-70 -59t-72.5 -22.5t-60.5 -4q-62 -1 -106.5 26.5t-74.5 73t-47 105t-24.5 122t-7 123.5t5 111t11.5 83t14 40q9 9 21 6t25.5 -13.5t27 -26t24.5 -32t18 -32t9 -25.5q4 -23 0 -64.5t-7.5 -90.5t-4.5 -100t9.5 -92 t34.5 -66.5t70 -24.5q54 1 86 32.5t49 80.5t21 109t2.5 118t-7 108.5t-7.5 79.5t4.5 43.5t18 18t26 -1t27.5 -13t23 -18t12 -15.5zM137 833q35 16 68 40q29 20 59 49t52 67q16 2 27 -2q10 -3 17 -10.5t4 -23.5q15 -26 35 -51q17 -21 42.5 -43.5t57.5 -38.5q-8 -9 -18 -16 q-8 -6 -20 -10.5t-27 -2.5q-19 8 -38 22q-17 12 -36 32t-36 50q-42 -46 -79 -72q-16 -11 -32 -18.5t-30.5 -8t-26.5 8t-19 28.5z" />
<glyph unicode="&#xdc;" horiz-adv-x="637" d="M198 846q29 13 44.5 6t23.5 -21q9 -16 11 -40q-4 -21 -15.5 -27t-25 -2t-27 14.5t-21 23.5t-6.5 26t16 20zM361 849q13 7 24 8t19 -2t14 -8.5t10 -12.5q10 -17 13 -41q-4 -20 -15.5 -26t-25.5 -2.5t-27 14.5t-21 24t-7 25.5t16 20.5zM563 671q26 -165 24 -278.5 t-21.5 -187t-52.5 -114t-70 -59t-72.5 -22.5t-60.5 -4q-62 -1 -106.5 26.5t-74.5 73t-47 105t-24.5 122t-7 123.5t5 111t11.5 83t14 40q9 9 21 6t25.5 -13.5t27 -26t24.5 -32t18 -32t9 -25.5q4 -23 0 -64.5t-7.5 -90.5t-4.5 -100t9.5 -92t34.5 -66.5t70 -24.5q54 1 86 32.5 t49 80.5t21 109t2.5 118t-7 108.5t-7.5 79.5t4.5 43.5t18 18t26 -1t27.5 -13t23 -18t12 -15.5z" />
<glyph unicode="&#xe0;" horiz-adv-x="555" d="M505 14q-43 -5 -82 -7q-33 -2 -65.5 0t-47.5 11q-19 -6 -42 -8.5t-54 -3.5q-55 -2 -87.5 8.5t-49.5 27.5t-22 37.5t-5 39.5q0 24 13.5 56t44 61t79 51t119.5 26q0 28 -11 32t-27 -2t-35.5 -14t-35.5 -5q-31 6 -44 23t-18 35q-5 21 -2 45q8 0 34.5 4t60 7t70 2t65 -11.5 t44.5 -33.5t9 -63q-3 -18 -11.5 -53.5t-15 -75t-6.5 -75.5t14 -55q10 -17 25 -30q13 -11 33.5 -20t49.5 -9zM145 123q0 -26 24.5 -27t65.5 8q26 6 44 21q0 25 2.5 51.5t6.5 49.5q-31 -6 -57.5 -15.5t-45.5 -22t-29.5 -29t-10.5 -36.5zM356 502q-5 7 -18.5 21.5t-30 33 t-34 39t-30 39t-18.5 34t1 24.5q10 13 23 15.5t26 -2t24.5 -13.5t18.5 -18q12 -16 19 -44.5t12 -57.5q4 -33 7 -71z" />
<glyph unicode="&#xe1;" horiz-adv-x="555" d="M278 534q2 38 7 71q4 29 11.5 57.5t19.5 43.5q7 10 18.5 19t24.5 13.5t26 2t23 -15.5q6 -9 0.5 -24.5t-18 -34.5t-30 -39t-34 -38.5t-30 -33t-18.5 -21.5zM505 14q-29 0 -49.5 9t-33.5 20q-15 13 -25 30q-14 19 -14 55t6.5 75.5t15 75t11.5 53.5q7 40 -9 63t-44.5 33.5 t-65 11.5t-70 -2t-60 -7t-34.5 -4q-3 -24 2 -45q5 -18 18 -35t44 -23q16 -3 35.5 5t35.5 14t27 2t11 -32q-71 -4 -119.5 -26t-79 -51t-44 -61t-13.5 -56q0 -19 5 -39.5t22 -37.5t49.5 -27.5t87.5 -8.5q31 1 54 3.5t42 8.5q15 -9 47.5 -11t65.5 0q39 2 82 7zM145 123 q0 20 10.5 36.5t29.5 29t45.5 22t57.5 15.5q-4 -23 -6.5 -49.5t-2.5 -51.5q-18 -15 -44 -21q-41 -9 -65.5 -8t-24.5 27z" />
<glyph unicode="&#xe2;" horiz-adv-x="555" d="M505 14q-43 -5 -82 -7q-33 -2 -65.5 0t-47.5 11q-19 -6 -42 -8.5t-54 -3.5q-55 -2 -87.5 8.5t-49.5 27.5t-22 37.5t-5 39.5q0 24 13.5 56t44 61t79 51t119.5 26q0 28 -11 32t-27 -2t-35.5 -14t-35.5 -5q-31 6 -44 23t-18 35q-5 21 -2 45q8 0 34.5 4t60 7t70 2t65 -11.5 t44.5 -33.5t9 -63q-3 -18 -11.5 -53.5t-15 -75t-6.5 -75.5t14 -55q10 -17 25 -30q13 -11 33.5 -20t49.5 -9zM145 123q0 -26 24.5 -27t65.5 8q26 6 44 21q0 25 2.5 51.5t6.5 49.5q-31 -6 -57.5 -15.5t-45.5 -22t-29.5 -29t-10.5 -36.5zM97 560q35 16 68 40q29 20 59 49t52 67 q16 2 27 -2q10 -3 17 -10.5t4 -23.5q15 -26 35 -51q17 -21 42.5 -43.5t57.5 -38.5q-8 -9 -18 -16q-8 -6 -20 -10.5t-27 -2.5q-19 8 -38 22q-17 12 -36 32t-36 50q-42 -46 -79 -72q-16 -11 -32 -18.5t-30.5 -8t-26.5 8t-19 28.5z" />
<glyph unicode="&#xe3;" horiz-adv-x="555" d="M505 14q-43 -5 -82 -7q-33 -2 -65.5 0t-47.5 11q-19 -6 -42 -8.5t-54 -3.5q-55 -2 -87.5 8.5t-49.5 27.5t-22 37.5t-5 39.5q0 24 13.5 56t44 61t79 51t119.5 26q0 28 -11 32t-27 -2t-35.5 -14t-35.5 -5q-31 6 -44 23t-18 35q-5 21 -2 45q8 0 34.5 4t60 7t70 2t65 -11.5 t44.5 -33.5t9 -63q-3 -18 -11.5 -53.5t-15 -75t-6.5 -75.5t14 -55q10 -17 25 -30q13 -11 33.5 -20t49.5 -9zM145 123q0 -26 24.5 -27t65.5 8q26 6 44 21q0 25 2.5 51.5t6.5 49.5q-31 -6 -57.5 -15.5t-45.5 -22t-29.5 -29t-10.5 -36.5zM184 678q27 18 44 27.5t32.5 5.5 t34 -24.5t48.5 -63.5q6 -8 13.5 -11t15.5 -2.5t17 4t17 8.5q19 11 41 32q-17 -59 -35.5 -87.5t-36.5 -36t-35 0.5t-32 21t-26.5 26t-18.5 16q-12 5 -22 -5.5t-19 -27t-17.5 -33.5t-16.5 -24q-9 -8 -22 -12.5t-26 1t-21.5 23t-8.5 55.5q0 14 9 30.5t21 32t24.5 27.5t19.5 17z " />
<glyph unicode="&#xe4;" horiz-adv-x="555" d="M151 632q29 13 44.5 6t23.5 -21q9 -16 11 -40q-4 -21 -15.5 -27t-25 -2t-27 14.5t-21 23.5t-6.5 26t16 20zM335 638q13 7 24 8t19 -2t14 -8.5t10 -12.5q10 -17 13 -41q-4 -21 -15.5 -26.5t-25.5 -2t-27 14.5t-21 24t-7 25.5t16 20.5zM505 14q-43 -5 -82 -7 q-33 -2 -65.5 0t-47.5 11q-19 -6 -42 -8.5t-54 -3.5q-55 -2 -87.5 8.5t-49.5 27.5t-22 37.5t-5 39.5q0 24 13.5 56t44 61t79 51t119.5 26q0 28 -11 32t-27 -2t-35.5 -14t-35.5 -5q-31 6 -44 23t-18 35q-5 21 -2 45q8 0 34.5 4t60 7t70 2t65 -11.5t44.5 -33.5t9 -63 q-3 -18 -11.5 -53.5t-15 -75t-6.5 -75.5t14 -55q10 -17 25 -30q13 -11 33.5 -20t49.5 -9zM145 123q0 -26 24.5 -27t65.5 8q26 6 44 21q0 25 2.5 51.5t6.5 49.5q-31 -6 -57.5 -15.5t-45.5 -22t-29.5 -29t-10.5 -36.5z" />
<glyph unicode="&#xe7;" horiz-adv-x="529" d="M365 -24q-3 -12 -9.5 -29t-17 -34t-25 -30t-34 -16.5t-44 6.5t-54.5 39q7 11 15 19q7 6 16.5 9.5t22.5 -3.5q6 -3 13 -10t14.5 -11t16.5 -2.5t20 13.5q7 9 5 20.5t-7 23t-9.5 22t-0.5 18.5q3 6 11.5 16t19.5 18.5t22 12.5t19 0q7 -4 9.5 -14.5t2.5 -23t-2 -25t-4 -19.5z M186 187q0 -40 12 -52.5t33 -13.5t49 2.5t60.5 -3.5t68 -31.5t70.5 -82.5h-231q-53 0 -90.5 18t-61 46.5t-34.5 64t-11 70.5q0 62 16 101t44.5 62t66.5 33.5t81.5 16.5t90.5 11.5t93 17.5q30 -52 31 -90q0 -16 -6 -31t-21.5 -25.5t-43.5 -14.5t-71 2q-16 2 -41 5t-48 -4 t-40 -30t-17 -72z" />
<glyph unicode="&#xe8;" horiz-adv-x="573" d="M240 118q22 -12 46 -16.5t48 -3t47.5 6.5t44.5 13q49 18 97 49q-52 -57 -97 -92t-84.5 -51.5t-72.5 -18.5t-59.5 5.5t-47.5 22t-36 30.5q-16 -11 -29 -22t-24 -19q-12 -10 -23 -19q0 40 9.5 71t25.5 54q-11 30 -12 63.5t5 65.5t16.5 60.5t24.5 49.5q18 28 57 47t85.5 24 t93 -7.5t79.5 -46.5q25 -25 31 -49.5t0.5 -46.5t-21 -41.5t-34 -35.5t-37 -28.5t-31.5 -20.5q-23 -14 -51 -25t-51 -19zM214 304q-30 -23 -36 -52t-4 -50q27 14 52.5 24t45.5 19q10 4 25.5 10t30.5 13t26 15.5t12 18.5q1 11 -14 19.5t-38 10.5t-50 -4t-50 -24zM365 502 q-5 7 -18.5 21.5t-30 33t-34 39t-30 39t-18.5 34t1 24.5q10 13 23 15.5t26 -2t24.5 -13.5t18.5 -18q12 -16 19 -44.5t12 -57.5q4 -33 7 -71z" />
<glyph unicode="&#xe9;" horiz-adv-x="573" d="M285 528q2 38 7 71q4 29 11.5 57.5t19.5 43.5q7 10 18.5 19t24.5 13.5t26 2t23 -15.5q6 -9 0.5 -24.5t-18 -34.5t-30 -39t-34 -38.5t-30 -33t-18.5 -21.5zM240 118q23 8 51 19t51 25q13 8 31.5 20.5t37 28.5t34 35.5t21 41.5t-0.5 46.5t-31 49.5q-33 34 -79.5 46.5 t-93 7.5t-85.5 -24t-57 -47q-14 -21 -24.5 -49.5t-16.5 -60.5t-5 -65.5t12 -63.5q-16 -23 -25.5 -54t-9.5 -71q11 9 23 19q11 8 24 19t29 22q15 -16 36 -30.5t47.5 -22t59.5 -5.5t72.5 18.5t84.5 51.5t97 92q-48 -31 -97 -49q-21 -8 -44.5 -13t-47.5 -6.5t-48 3t-46 16.5z M214 304q23 18 50 24t50 4t38 -10.5t14 -19.5q-1 -10 -12 -18.5t-26 -15.5t-30.5 -13t-25.5 -10q-20 -9 -45.5 -19t-52.5 -24q-2 21 4 50t36 52z" />
<glyph unicode="&#xea;" horiz-adv-x="573" d="M240 118q22 -12 46 -16.5t48 -3t47.5 6.5t44.5 13q49 18 97 49q-52 -57 -97 -92t-84.5 -51.5t-72.5 -18.5t-59.5 5.5t-47.5 22t-36 30.5q-16 -11 -29 -22t-24 -19q-12 -10 -23 -19q0 40 9.5 71t25.5 54q-11 30 -12 63.5t5 65.5t16.5 60.5t24.5 49.5q18 28 57 47t85.5 24 t93 -7.5t79.5 -46.5q25 -25 31 -49.5t0.5 -46.5t-21 -41.5t-34 -35.5t-37 -28.5t-31.5 -20.5q-23 -14 -51 -25t-51 -19zM214 304q-30 -23 -36 -52t-4 -50q27 14 52.5 24t45.5 19q10 4 25.5 10t30.5 13t26 15.5t12 18.5q1 11 -14 19.5t-38 10.5t-50 -4t-50 -24zM106 560 q35 16 68 40q29 20 59 49t52 67q16 2 27 -2q10 -3 17 -10.5t4 -23.5q15 -26 35 -51q17 -21 42.5 -43.5t57.5 -38.5q-8 -9 -18 -16q-8 -6 -20 -10.5t-27 -2.5q-19 8 -38 22q-17 12 -36 32t-36 50q-42 -46 -79 -72q-16 -11 -32 -18.5t-30.5 -8t-26.5 8t-19 28.5z" />
<glyph unicode="&#xeb;" horiz-adv-x="573" d="M151 632q29 13 44.5 6t23.5 -21q9 -16 11 -40q-4 -21 -15.5 -27t-25 -2t-27 14.5t-21 23.5t-6.5 26t16 20zM335 638q13 7 24 8t19 -2t14 -8.5t10 -12.5q10 -17 13 -41q-4 -21 -15.5 -26.5t-25.5 -2t-27 14.5t-21 24t-7 25.5t16 20.5zM240 118q22 -12 46 -16.5t48 -3 t47.5 6.5t44.5 13q49 18 97 49q-52 -57 -97 -92t-84.5 -51.5t-72.5 -18.5t-59.5 5.5t-47.5 22t-36 30.5q-16 -11 -29 -22t-24 -19q-12 -10 -23 -19q0 40 9.5 71t25.5 54q-11 30 -12 63.5t5 65.5t16.5 60.5t24.5 49.5q18 28 57 47t85.5 24t93 -7.5t79.5 -46.5 q25 -25 31 -49.5t0.5 -46.5t-21 -41.5t-34 -35.5t-37 -28.5t-31.5 -20.5q-23 -14 -51 -25t-51 -19zM214 304q-30 -23 -36 -52t-4 -50q27 14 52.5 24t45.5 19q10 4 25.5 10t30.5 13t26 15.5t12 18.5q1 11 -14 19.5t-38 10.5t-50 -4t-50 -24z" />
<glyph unicode="&#xec;" horiz-adv-x="301" d="M235 377q2 -8 3.5 -17t2.5 -20q2 -11 3 -23t2 -26q3 -27 3 -56q1 -14 1 -28.5v-28.5q1 -67 0 -140q-5 -12 -15 -18q-13 -6 -26 -9q-8 -2 -16 -2.5t-17 -1.5h-34q-31 0 -40 6q-8 7 -5 16q2 5 5 10t8 10q9 12 10 20q18 73 15 140q-2 33 -6 62.5t-10 55.5q-14 62 -37 113 q45 5 71 -1q30 -6 45 -16q18 -10 25 -23q9 -12 12 -23zM184 533q-5 7 -18.5 21.5t-30 33t-34 39t-30 39t-18.5 34t1 24.5q10 13 23 15.5t26 -2t24.5 -13.5t18.5 -18q12 -16 19 -44.5t12 -57.5q4 -33 7 -71z" />
<glyph unicode="&#xed;" horiz-adv-x="364" d="M180 532q2 38 7 71q4 29 11.5 57.5t19.5 43.5q7 10 18.5 19t24.5 13.5t26 2t23 -15.5q6 -9 0.5 -24.5t-18 -34.5t-30 -39t-34 -38.5t-30 -33t-18.5 -21.5zM203 370q2 -8 3.5 -17t2.5 -20q2 -11 3 -23t2 -26q3 -27 3 -56q1 -14 1 -28.5v-28.5q1 -67 0 -140q-5 -12 -15 -18 q-13 -6 -26 -9q-8 -2 -16 -2.5t-17 -1.5h-34q-31 0 -40 6q-8 7 -5 16q2 5 5 10t8 10q9 12 10 20q18 73 15 140q-2 33 -6 62.5t-10 55.5q-14 62 -37 113q45 5 71 -1q30 -6 45 -16q18 -10 25 -23q9 -12 12 -23z" />
<glyph unicode="&#xee;" horiz-adv-x="462" d="M317 370q2 -8 3.5 -17t2.5 -20q2 -11 3 -23t2 -26q3 -27 3 -56q1 -14 1 -28.5v-28.5q1 -67 0 -140q-5 -12 -15 -18q-13 -6 -26 -9q-8 -2 -16 -2.5t-17 -1.5h-34q-31 0 -40 6q-8 7 -5 16q2 5 5 10t8 10q9 12 10 20q18 73 15 140q-2 33 -6 62.5t-10 55.5q-14 62 -37 113 q45 5 71 -1q30 -6 45 -16q18 -10 25 -23q9 -12 12 -23zM50 562q35 16 68 40q29 20 59 49t52 67q16 2 27 -2q10 -3 17 -10.5t4 -23.5q15 -26 35 -51q17 -21 42.5 -43.5t57.5 -38.5q-8 -9 -18 -16q-8 -6 -20 -10.5t-27 -2.5q-19 8 -38 22q-17 12 -36 32t-36 50 q-42 -46 -79 -72q-16 -11 -32 -18.5t-30.5 -8t-26.5 8t-19 28.5z" />
<glyph unicode="&#xef;" horiz-adv-x="368" d="M67 625q29 13 44.5 6t23.5 -21q9 -16 11 -40q-4 -21 -15.5 -27t-25 -2t-27 14.5t-21 23.5t-6.5 26t16 20zM230 628q13 7 24 8t19 -2t14 -8.5t10 -12.5q10 -17 13 -41q-4 -21 -15.5 -26.5t-25.5 -2t-27 14.5t-21 24t-7 25.5t16 20.5zM245 371q2 -8 3.5 -17t2.5 -20 q2 -11 3 -23t2 -26q3 -27 3 -56q1 -14 1 -28.5v-28.5q1 -67 0 -140q-5 -12 -15 -18q-13 -6 -26 -9q-8 -2 -16 -2.5t-17 -1.5h-34q-31 0 -40 6q-8 7 -5 16q2 5 5 10t8 10q9 12 10 20q18 73 15 140q-2 33 -6 62.5t-10 55.5q-14 62 -37 113q45 5 71 -1q30 -6 45 -16 q18 -10 25 -23q9 -12 12 -23z" />
<glyph unicode="&#xf1;" horiz-adv-x="581" d="M327 458q36 9 64.5 -4.5t50.5 -42.5t38 -69t26.5 -83.5t16 -87t7 -78.5t0 -58.5t-5.5 -27.5q-9 -8 -29 -9.5t-41 0.5t-37.5 8t-17.5 14q-3 13 -1 40.5t4 61.5t1.5 70t-7.5 65.5t-23.5 48t-45.5 18.5q-35 -1 -52 -19.5t-23 -47t-3 -63.5t9.5 -69t12.5 -63t7 -45 q0 -5 -18 -7.5t-39.5 -2.5t-40 2.5t-18.5 7.5q0 91 -6 154t-19 101.5t-33.5 55.5t-48.5 17q-8 0 -3 17t16 38.5t24.5 41t22.5 23.5q21 9 35.5 -6.5t24.5 -42t15.5 -57t7.5 -50.5q1 24 14 48.5t32 45t41 35.5t42 20zM184 678q27 18 44 27.5t32.5 5.5t34 -24.5t48.5 -63.5 q6 -8 13.5 -11t15.5 -2.5t17 4t17 8.5q19 11 41 32q-17 -59 -35.5 -87.5t-36.5 -36t-35 0.5t-32 21t-26.5 26t-18.5 16q-12 5 -22 -5.5t-19 -27t-17.5 -33.5t-16.5 -24q-9 -8 -22 -12.5t-26 1t-21.5 23t-8.5 55.5q0 14 9 30.5t21 32t24.5 27.5t19.5 17z" />
<glyph unicode="&#xf2;" horiz-adv-x="516" d="M291 471q39 19 71 10.5t54.5 -35t35 -67.5t14 -87.5t-9 -95t-34.5 -89.5q-36 -62 -73 -84t-70 -21t-59.5 17t-41.5 32q-13 13 -27.5 35t-22.5 47.5t-6.5 52t21.5 48.5q11 12 18 15.5t11 3.5q4 -1 7 -5q12 -15 18.5 -31.5t5.5 -18.5v-2.5t3 -6.5t11 -15t24 -27t29 -22 t23 -3q11 2 21 10q24 21 41.5 51.5t25.5 62t5.5 61.5t-17.5 50t-33 25.5t-42 -1.5t-56.5 -25.5t-77.5 -46.5q-23 -14 -39.5 -17.5t-28 0.5t-19.5 14.5t-12 23.5q-11 30 -10 79q17 -8 42.5 -6t57 11t67 24t73.5 33zM336 502q-5 7 -18.5 21.5t-30 33t-34 39t-30 39t-18.5 34 t1 24.5q10 13 23 15.5t26 -2t24.5 -13.5t18.5 -18q12 -16 19 -44.5t12 -57.5q4 -33 7 -71z" />
<glyph unicode="&#xf3;" horiz-adv-x="516" d="M291 533q2 38 7 71q4 29 11.5 57.5t19.5 43.5q7 10 18.5 19t24.5 13.5t26 2t23 -15.5q6 -9 0.5 -24.5t-18 -34.5t-30 -39t-34 -38.5t-30 -33t-18.5 -21.5zM291 471q-38 -18 -73.5 -33t-67 -24t-57 -11t-42.5 6q-1 -49 10 -79q4 -13 12 -23.5t19.5 -14.5t28 -0.5 t39.5 17.5q45 28 77.5 46.5t56.5 25.5t42 1.5t33 -25.5t17.5 -50t-5.5 -61.5t-25.5 -62t-41.5 -51.5q-10 -8 -21 -10q-10 -2 -23 3t-29 22t-24 27t-11 15t-3 6.5v2.5q1 2 -5.5 18.5t-18.5 31.5q-3 4 -7 5q-4 0 -11 -3.5t-18 -15.5q-20 -22 -21.5 -48.5t6.5 -52t22.5 -47.5 t27.5 -35q15 -16 41.5 -32t59.5 -17t70 21t73 84q24 41 34.5 89.5t9 95t-14 87.5t-35 67.5t-54.5 35t-71 -10.5z" />
<glyph unicode="&#xf4;" horiz-adv-x="516" d="M291 471q39 19 71 10.5t54.5 -35t35 -67.5t14 -87.5t-9 -95t-34.5 -89.5q-36 -62 -73 -84t-70 -21t-59.5 17t-41.5 32q-13 13 -27.5 35t-22.5 47.5t-6.5 52t21.5 48.5q11 12 18 15.5t11 3.5q4 -1 7 -5q12 -15 18.5 -31.5t5.5 -18.5v-2.5t3 -6.5t11 -15t24 -27t29 -22 t23 -3q11 2 21 10q24 21 41.5 51.5t25.5 62t5.5 61.5t-17.5 50t-33 25.5t-42 -1.5t-56.5 -25.5t-77.5 -46.5q-23 -14 -39.5 -17.5t-28 0.5t-19.5 14.5t-12 23.5q-11 30 -10 79q17 -8 42.5 -6t57 11t67 24t73.5 33zM77 560q35 16 68 40q29 20 59 49t52 67q16 2 27 -2 q10 -3 17 -10.5t4 -23.5q15 -26 35 -51q17 -21 42.5 -43.5t57.5 -38.5q-8 -9 -18 -16q-8 -6 -20 -10.5t-27 -2.5q-19 8 -38 22q-17 12 -36 32t-36 50q-42 -46 -79 -72q-16 -11 -32 -18.5t-30.5 -8t-26.5 8t-19 28.5z" />
<glyph unicode="&#xf5;" horiz-adv-x="516" d="M291 471q39 19 71 10.5t54.5 -35t35 -67.5t14 -87.5t-9 -95t-34.5 -89.5q-36 -62 -73 -84t-70 -21t-59.5 17t-41.5 32q-13 13 -27.5 35t-22.5 47.5t-6.5 52t21.5 48.5q11 12 18 15.5t11 3.5q4 -1 7 -5q12 -15 18.5 -31.5t5.5 -18.5v-2.5t3 -6.5t11 -15t24 -27t29 -22 t23 -3q11 2 21 10q24 21 41.5 51.5t25.5 62t5.5 61.5t-17.5 50t-33 25.5t-42 -1.5t-56.5 -25.5t-77.5 -46.5q-23 -14 -39.5 -17.5t-28 0.5t-19.5 14.5t-12 23.5q-11 30 -10 79q17 -8 42.5 -6t57 11t67 24t73.5 33zM164 678q27 18 44 27.5t32.5 5.5t34 -24.5t48.5 -63.5 q6 -8 13.5 -11t15.5 -2.5t17 4t17 8.5q19 11 41 32q-17 -59 -35.5 -87.5t-36.5 -36t-35 0.5t-32 21t-26.5 26t-18.5 16q-12 5 -22 -5.5t-19 -27t-17.5 -33.5t-16.5 -24q-9 -8 -22 -12.5t-26 1t-21.5 23t-8.5 55.5q0 14 9 30.5t21 32t24.5 27.5t19.5 17z" />
<glyph unicode="&#xf6;" horiz-adv-x="516" d="M191 629q29 13 44.5 6t23.5 -21q9 -16 11 -40q-4 -21 -15.5 -27t-25 -2t-27 14.5t-21 23.5t-6.5 26t16 20zM354 632q13 7 24 8t19 -2t14 -8.5t10 -12.5q10 -17 13 -41q-4 -21 -15.5 -26.5t-25.5 -2t-27 14.5t-21 24t-7 25.5t16 20.5zM291 471q39 19 71 10.5t54.5 -35 t35 -67.5t14 -87.5t-9 -95t-34.5 -89.5q-36 -62 -73 -84t-70 -21t-59.5 17t-41.5 32q-13 13 -27.5 35t-22.5 47.5t-6.5 52t21.5 48.5q11 12 18 15.5t11 3.5q4 -1 7 -5q12 -15 18.5 -31.5t5.5 -18.5v-2.5t3 -6.5t11 -15t24 -27t29 -22t23 -3q11 2 21 10q24 21 41.5 51.5 t25.5 62t5.5 61.5t-17.5 50t-33 25.5t-42 -1.5t-56.5 -25.5t-77.5 -46.5q-23 -14 -39.5 -17.5t-28 0.5t-19.5 14.5t-12 23.5q-11 30 -10 79q17 -8 42.5 -6t57 11t67 24t73.5 33z" />
<glyph unicode="&#xf9;" horiz-adv-x="524" d="M474 16q-20 -1 -39 2q-17 2 -34.5 7t-28.5 15q-36 -23 -74 -26t-62 -1q-60 4 -97 34.5t-57 74t-26.5 94t-4.5 95t9 75t14 35.5q10 7 28 0.5t36 -18.5t32 -26t15 -22q2 -13 -3 -35t-10.5 -47.5t-9 -52.5t1 -48.5t20.5 -36.5t49 -16q39 -2 62.5 15.5t35.5 46t15.5 64 t2.5 70t-4 63.5t-4 45t7 19.5t20 -1t26.5 -14.5t27 -21t21.5 -21t10 -13q13 -88 8 -148t-21 -100q1 -19 3 -37t6 -33t10 -25t15 -13zM340 502q-5 7 -18.5 21.5t-30 33t-34 39t-30 39t-18.5 34t1 24.5q10 13 23 15.5t26 -2t24.5 -13.5t18.5 -18q12 -16 19 -44.5t12 -57.5 q4 -33 7 -71z" />
<glyph unicode="&#xfa;" horiz-adv-x="524" d="M282 546q2 38 7 71q4 29 11.5 57.5t19.5 43.5q7 10 18.5 19t24.5 13.5t26 2t23 -15.5q6 -9 0.5 -24.5t-18 -34.5t-30 -39t-34 -38.5t-30 -33t-18.5 -21.5zM474 16q-9 3 -15 13t-10 25t-6 33t-3 37q16 40 21 100t-8 148q-1 3 -10 13t-21.5 21t-27 21t-26.5 14.5t-20 1 t-7 -19.5t4 -45t4 -63.5t-2.5 -70t-15.5 -64t-35.5 -46t-62.5 -15.5q-33 1 -49 16t-20.5 36.5t-1 48.5t9 52.5t10.5 47.5t3 35q-1 8 -15 22t-32 26t-36 18.5t-28 -0.5q-7 -5 -14 -35.5t-9 -75t4.5 -95t26.5 -94t57 -74t97 -34.5q24 -2 62 1t74 26q11 -10 28.5 -15t34.5 -7 q19 -3 39 -2z" />
<glyph unicode="&#xfb;" horiz-adv-x="524" d="M474 16q-20 -1 -39 2q-17 2 -34.5 7t-28.5 15q-36 -23 -74 -26t-62 -1q-60 4 -97 34.5t-57 74t-26.5 94t-4.5 95t9 75t14 35.5q10 7 28 0.5t36 -18.5t32 -26t15 -22q2 -13 -3 -35t-10.5 -47.5t-9 -52.5t1 -48.5t20.5 -36.5t49 -16q39 -2 62.5 15.5t35.5 46t15.5 64 t2.5 70t-4 63.5t-4 45t7 19.5t20 -1t26.5 -14.5t27 -21t21.5 -21t10 -13q13 -88 8 -148t-21 -100q1 -19 3 -37t6 -33t10 -25t15 -13zM81 560q35 16 68 40q29 20 59 49t52 67q16 2 27 -2q10 -3 17 -10.5t4 -23.5q15 -26 35 -51q17 -21 42.5 -43.5t57.5 -38.5q-8 -9 -18 -16 q-8 -6 -20 -10.5t-27 -2.5q-19 8 -38 22q-17 12 -36 32t-36 50q-42 -46 -79 -72q-16 -11 -32 -18.5t-30.5 -8t-26.5 8t-19 28.5z" />
<glyph unicode="&#xfc;" horiz-adv-x="524" d="M143 625q29 13 44.5 6t23.5 -21q9 -16 11 -40q-4 -21 -15.5 -27t-25 -2t-27 14.5t-21 23.5t-6.5 26t16 20zM306 628q13 7 24 8t19 -2t14 -8.5t10 -12.5q10 -17 13 -41q-4 -21 -15.5 -26.5t-25.5 -2t-27 14.5t-21 24t-7 25.5t16 20.5zM474 16q-20 -1 -39 2q-17 2 -34.5 7 t-28.5 15q-36 -23 -74 -26t-62 -1q-60 4 -97 34.5t-57 74t-26.5 94t-4.5 95t9 75t14 35.5q10 7 28 0.5t36 -18.5t32 -26t15 -22q2 -13 -3 -35t-10.5 -47.5t-9 -52.5t1 -48.5t20.5 -36.5t49 -16q39 -2 62.5 15.5t35.5 46t15.5 64t2.5 70t-4 63.5t-4 45t7 19.5t20 -1 t26.5 -14.5t27 -21t21.5 -21t10 -13q13 -88 8 -148t-21 -100q1 -19 3 -37t6 -33t10 -25t15 -13z" />
<glyph unicode="&#x2c6;" horiz-adv-x="462" d="M50 560q35 16 68 40q29 20 59 49t52 67q16 2 27 -2q10 -3 17 -10.5t4 -23.5q15 -26 35 -51q17 -21 42.5 -43.5t57.5 -38.5q-8 -9 -18 -16q-8 -6 -20 -10.5t-27 -2.5q-19 8 -38 22q-17 12 -36 32t-36 50q-42 -46 -79 -72q-16 -11 -32 -18.5t-30.5 -8t-26.5 8t-19 28.5z " />
<glyph unicode="&#x2d9;" horiz-adv-x="196" d="M66 627q13 7 24 8t19 -2t14 -8.5t10 -12.5q10 -17 13 -41q-4 -21 -15.5 -26.5t-25.5 -2t-27 14.5t-21 24t-7 25.5t16 20.5z" />
<glyph unicode="&#x2dc;" horiz-adv-x="438" d="M125 678q27 18 44 27.5t32.5 5.5t34 -24.5t48.5 -63.5q6 -8 13.5 -11t15.5 -2.5t17 4t17 8.5q19 11 41 32q-17 -59 -35.5 -87.5t-36.5 -36t-35 0.5t-32 21t-26.5 26t-18.5 16q-12 5 -22 -5.5t-19 -27t-17.5 -33.5t-16.5 -24q-9 -8 -22 -12.5t-26 1t-21.5 23t-8.5 55.5 q0 14 9 30.5t21 32t24.5 27.5t19.5 17z" />
<glyph unicode="&#x2dd;" horiz-adv-x="401" d="M50 541q2 38 7 71q4 29 11.5 57.5t19.5 43.5q7 10 18.5 19t24.5 13.5t26 2t23 -15.5q6 -9 0.5 -24.5t-18 -34.5t-30 -39t-34 -38.5t-30 -33t-18.5 -21.5zM217 547q2 38 7 71q5 29 12 57.5t19 43.5q7 10 19 19t25 13.5t25.5 2t22.5 -15.5q6 -9 0.5 -24.5t-18 -34.5 t-29.5 -39t-33.5 -38.5t-30.5 -33t-19 -21.5z" />
<glyph unicode="&#x2013;" horiz-adv-x="476" d="M51 244q-1 19 25.5 35.5t66 28.5t87 18.5t89 5.5t70.5 -10.5t33 -29.5q5 -30 2 -45t-16.5 -19t-39.5 -0.5t-67 9.5q-42 5 -85.5 7t-80.5 2q-43 0 -84 -2z" />
<glyph unicode="&#x2014;" horiz-adv-x="656" d="M51 235q-1 14 22 27.5t60.5 24t86.5 19t100 13.5t100.5 6t89 -3t64.5 -13t28 -24q5 -30 2 -45t-16.5 -19t-39.5 -0.5t-67 9.5q-21 3 -50 4.5t-63 2.5t-71 1h-72q-83 -1 -174 -3z" />
<glyph unicode="&#x2018;" horiz-adv-x="220" d="M74 663q9 -38 20 -70q10 -27 23.5 -52t30.5 -31q20 -7 21 -22.5t-9.5 -31.5t-28.5 -29.5t-35.5 -16.5t-31 7t-13.5 41q-1 47 2.5 84.5t8.5 64.5q5 32 12 56z" />
<glyph unicode="&#x2019;" horiz-adv-x="220" d="M145 399q-9 38 -20 70q-10 27 -23 52t-30 31q-21 7 -21.5 22.5t10 31.5t28.5 29.5t35.5 16.5t31 -7t13.5 -41q1 -48 -2.5 -85t-8.5 -64q-5 -32 -13 -56z" />
<glyph unicode="&#x201a;" horiz-adv-x="281" d="M50 -85q21 32 35 63q12 26 20 53t0 44q-9 20 1 31.5t29 15t41.5 0.5t37.5 -13.5t17 -27t-20 -38.5q-32 -34 -61.5 -57.5t-51.5 -39.5q-26 -18 -48 -31z" />
<glyph unicode="&#x201c;" horiz-adv-x="379" d="M74 675q9 -38 20 -70q10 -27 23.5 -52t30.5 -31q20 -7 21 -22.5t-9.5 -31.5t-28.5 -29.5t-35.5 -16.5t-31 7t-13.5 41q-1 47 2.5 84.5t8.5 64.5q5 32 12 56zM234 674q8 -39 19 -71q9 -27 23 -51.5t31 -30.5q20 -7 21 -22.5t-9.5 -31.5t-28.5 -29.5t-35.5 -16.5t-31 7 t-13.5 41q-1 47 2.5 84.5t8.5 64.5q5 32 13 56z" />
<glyph unicode="&#x201d;" horiz-adv-x="379" d="M304 380q-9 38 -20 70q-10 27 -23 52t-30 31q-21 7 -21.5 22.5t10 31.5t28.5 29.5t35.5 16.5t31 -7t13.5 -41q1 -48 -2.5 -85t-8.5 -64q-5 -32 -13 -56zM145 381q-9 38 -20 70q-10 27 -23 52t-30 31q-21 7 -21.5 22.5t10 31.5t28.5 29.5t35.5 16.5t31 -7t13.5 -41 q1 -47 -2.5 -84.5t-8.5 -64.5q-5 -32 -13 -56z" />
<glyph unicode="&#xe000;" horiz-adv-x="455" d="M0 455h455v-455h-455v455z" />
</font>
</defs>
</svg>
