<?xml version="1.0" standalone="no"?>
<!DOCTYPE svg PUBLIC "-//W3C//DTD SVG 1.1//EN" "http://www.w3.org/Graphics/SVG/1.1/DTD/svg11.dtd" >
<svg xmlns="http://www.w3.org/2000/svg">
<metadata></metadata>
<defs>
<font id="indento_boldbold" horiz-adv-x="603" >
<font-face units-per-em="1000" ascent="750" descent="-250" />
<missing-glyph horiz-adv-x="250" />
<glyph unicode="ffj" horiz-adv-x="913" d="M95 0v329q0 24 -17 45t-43 27v75h60v39q0 29 23 56l108 118h169v-99h-115q-31 0 -52 -20t-21 -50v-44h209v39q0 28 22 56l108 118h218v-99h-164q-31 0 -52 -20t-21 -50v-44h269q22 0 35.5 -14t13.5 -35v-458q0 -30 -23 -55l-103 -115h-113v99h58q30 0 50 19.5t20 48.5 v411h-245v-34q17 -4 27.5 -17.5t10.5 -30.5v-295h-111v311q0 59 -57 66h-190v-34q17 -4 27.5 -17.5t10.5 -30.5v-295h-112z" />
<glyph unicode="fj" horiz-adv-x="594" d="M288 -102h57q31 0 50.5 19.5t19.5 48.5v411h-245v-34q17 -4 27.5 -17.5t10.5 -30.5v-295h-111v311q0 29 -16 46.5t-43 19.5v99h59v39q0 29 23 56l108 118h217v-99h-164q-30 0 -51.5 -20t-21.5 -50v-44h270q21 0 34.5 -14t13.5 -35v-458q0 -31 -22 -55l-104 -115h-112v99z " />
<glyph unicode="ff" horiz-adv-x="651" d="M96 0v329q0 26 -17.5 45.5t-43.5 26.5v75h61v39q0 30 22 56l107 118h165v-99h-110q-31 0 -52 -20t-21 -50v-44h209v39q0 29 23 56l107 118h134v-99h-80q-31 0 -52 -20t-21 -50v-44h103v-99h-141v-34q17 -5 27.5 -18.5t10.5 -29.5v-295h-111v317q0 27 -21.5 43.5 t-49.5 16.5h-176v-34q17 -4 27.5 -17.5t10.5 -30.5v-295h-111z" />
<glyph unicode="fi" horiz-adv-x="620" d="M98 0v323q0 23 -17.5 38.5t-43.5 15.5v99h61v29q0 33 22 57l118 127h208v-99h-153q-32 0 -58 -24.5t-26 -55.5v-34h268q21 0 35.5 -14.5t14.5 -36.5v-246q0 -37 -37 -46v-33h100v-100h-234v73q60 21 60 73v231h-245v-34q18 -4 28 -17.5t10 -30.5v-295h-111z" />
<glyph unicode="fl" horiz-adv-x="624" d="M98 0v323q0 23 -17.5 38.5t-43.5 15.5v99h61v29q0 33 22 57l118 127h241q20 0 34.5 -15t14.5 -34v-461q0 -15 -10 -28.5t-27 -17.5v-33h101v-100h-237v75q27 8 44.5 27.5t17.5 43.5v444h-124q-32 0 -58 -24.5t-26 -55.5v-34h94v-99h-132v-34q18 -4 28 -17.5t10 -30.5 v-295h-111z" />
<glyph unicode="ffi" horiz-adv-x="939" d="M96 0v329q0 23 -17.5 44t-43.5 28v75h61v39q0 29 23 56l107 118h170v-99h-116q-31 0 -52 -20t-21 -50v-44h210v25q0 34 23 61l117 127h208v-99h-154q-31 0 -57 -24.5t-26 -55.5v-34h268q21 0 35.5 -14.5t14.5 -36.5v-246q0 -37 -37 -46v-33h100v-100h-235v73q27 9 44 29 t17 44v231h-245v-34q17 -4 27.5 -17.5t10.5 -30.5v-295h-111v317q0 26 -16.5 43t-41.5 17h-190v-34q17 -4 27.5 -17.5t10.5 -30.5v-295h-111z" />
<glyph unicode="ffl" horiz-adv-x="942" d="M96 0v329q0 26 -17.5 45.5t-43.5 26.5v75h61v39q0 30 22 56l107 118h181v-99h-125q-32 0 -53 -20t-21 -50v-44h210v29q0 30 23 57l116 127h241q20 0 35 -15t15 -34v-461q0 -15 -9.5 -28.5t-26.5 -17.5v-33h99v-100h-236v75q27 8 44.5 27.5t17.5 43.5v444h-125 q-31 0 -57 -24.5t-26 -55.5v-34h94v-99h-132v-34q17 -4 27.5 -17.5t10.5 -30.5v-295h-111v323q0 22 -16 37t-40 17h-192v-34q18 -4 28 -17.5t10 -30.5v-295h-111z" />
<glyph unicode=" "  horiz-adv-x="250" />
<glyph unicode="&#x09;" horiz-adv-x="250" />
<glyph unicode="&#xa0;" horiz-adv-x="250" />
<glyph unicode="!" horiz-adv-x="269" d="M79 181v508h111v-508h-111zM79 0v117h111v-117h-111z" />
<glyph unicode="&#x22;" horiz-adv-x="362" d="M202 455v204h101v-204h-101zM59 455v204h100v-204h-100z" />
<glyph unicode="#" horiz-adv-x="686" d="M108 0l35 162h-112l18 94h111l31 149h-107l19 96h109l35 159h101l-33 -159h128l36 159h103l-35 -159h110l-19 -96h-114l-31 -149h108l-17 -94h-110l-34 -162h-103l35 162h-130l-35 -162h-99zM262 256h128l33 149h-129z" />
<glyph unicode="$" horiz-adv-x="551" d="M47 49v106h110v-55h238v89l-313 214q-35 25 -35 65v142q0 19 15 34.5t37 15.5h121v64h104v-64h120q20 0 36 -15t16 -35v-104h-110v54h-228v-82l313 -211q35 -25 35 -67v-150q0 -21 -16 -35.5t-36 -14.5h-130v-64h-104v64h-121q-21 0 -36.5 14t-15.5 35z" />
<glyph unicode="%" horiz-adv-x="851" d="M125 0l489 660h113l-487 -660h-115zM280 291h-208q-17 0 -29 11t-12 27v293q0 15 12 26.5t29 11.5h208q16 0 28 -11.5t12 -26.5v-293q0 -16 -11.5 -27t-28.5 -11zM118 369h113v213h-113v-213zM531 38v293q0 15 12 26.5t29 11.5h208q16 0 28 -11.5t12 -26.5v-293 q0 -16 -11.5 -27t-28.5 -11h-208q-17 0 -29 11t-12 27zM618 78h113v213h-113v-213z" />
<glyph unicode="&#x26;" horiz-adv-x="655" d="M71 52v259q0 21 13.5 36.5t35.5 15.5h18v2l-67 70v173q0 21 14.5 36.5t36.5 15.5h285v-100h-225v-104q0 -28 21 -48t51 -20h204v41h111v-41h69v-100h-69v-288h-447q-21 0 -36 15t-15 37zM182 100h276v188h-276v-188z" />
<glyph unicode="'" horiz-adv-x="218" d="M59 455v204h100v-204h-100z" />
<glyph unicode="(" horiz-adv-x="313" d="M189 -110q-6 6 -15.5 17t-33.5 50t-42.5 84t-33.5 118.5t-15 153.5q0 76 14.5 147t35.5 118t42.5 82.5t36.5 51.5l14 17h101q-6 -6 -15.5 -18t-34 -53t-43 -86t-34 -115.5t-15.5 -143.5q0 -75 14.5 -146t35.5 -119t42 -85.5t35 -54.5l15 -18h-104z" />
<glyph unicode=")" horiz-adv-x="313" d="M20 -110q6 6 15.5 18.5t34 53.5t43 87t34 117.5t15.5 146.5q0 73 -14.5 142.5t-35.5 117t-42 84.5t-36 55l-14 17h101q6 -6 15.5 -17t34 -50.5t43.5 -84t34.5 -116.5t15.5 -148q0 -80 -14.5 -152.5t-35 -119.5t-41 -83t-35.5 -52l-14 -16h-104z" />
<glyph unicode="*" horiz-adv-x="395" d="M142 346l-74 52l58 81l-94 31l28 83l95 -30v97h87v-97l95 30l25 -83l-93 -30l58 -82l-70 -53l-58 80z" />
<glyph unicode="+" horiz-adv-x="565" d="M39 190v98h192v188h99v-188h196v-98h-196v-190h-99v190h-192z" />
<glyph unicode="," horiz-adv-x="271" d="M69 0v126h133v-134q0 -89 -98 -90v98h-35z" />
<glyph unicode="-" horiz-adv-x="415" d="M81 197v107h253v-107h-253z" />
<glyph unicode="." horiz-adv-x="266" d="M69 0v127h128v-127h-128z" />
<glyph unicode="/" horiz-adv-x="368" d="M-5 -64l266 793h111l-266 -793h-111z" />
<glyph unicode="0" horiz-adv-x="651" d="M82 50v561q0 19 15.5 34t36.5 15h385q20 0 35 -15.5t15 -33.5v-561q0 -21 -14.5 -35.5t-35.5 -14.5h-385q-22 0 -37 14t-15 36zM193 100h265v460h-265v-460z" />
<glyph unicode="1" horiz-adv-x="455" d="M39 0v100h149v460h-149v100h260v-560h140v-100h-400z" />
<glyph unicode="2" horiz-adv-x="571" d="M35 0v69q0 28 10 47.5t34 43.5l326 347v53h-236v-55h-112v105q0 20 16 35t37 15h356q20 0 35 -15.5t15 -33.5v-107q0 -35 -39 -76l-303 -326v-2h231v55h111v-105q0 -21 -14.5 -35.5t-35.5 -14.5h-431z" />
<glyph unicode="3" horiz-adv-x="604" d="M49 49v106h111v-55h254v231h-185v90l148 137v2h-217v-55h-111v105q0 20 15 35t35 15h425v-91l-144 -135v-2h95q20 0 35 -15.5t15 -35.5v-331q0 -21 -14 -35.5t-33 -14.5h-377q-21 0 -36.5 14t-15.5 35z" />
<glyph unicode="4" horiz-adv-x="580" d="M15 115v82l353 463h105v-446h59v-99h-59v-115h-111v115h-347zM152 214h210v277h-2l-208 -275v-2z" />
<glyph unicode="5" horiz-adv-x="614" d="M63 49v106h111v-55h259v231h-194q-21 0 -40.5 -16t-27.5 -39h-108v384h431q19 0 35 -15t16 -35v-105h-111v55h-260v-184h2l37 56h281q20 0 35.5 -15.5t15.5 -35.5v-331q0 -21 -14.5 -35.5t-34.5 -14.5h-381q-20 0 -36 14t-16 35z" />
<glyph unicode="6" horiz-adv-x="640" d="M82 50v560q0 19 16 34.5t36 15.5h387q20 0 35 -15t15 -35v-105h-111v55h-267v-186h2l37 58h287q21 0 36.5 -15t15.5 -36v-331q0 -21 -15 -35.5t-35 -14.5h-389q-21 0 -35.5 14.5t-14.5 35.5zM193 100h267v233h-201q-26 0 -46 -19t-20 -44v-170z" />
<glyph unicode="7" horiz-adv-x="533" d="M137 0l259 560h-266v-55h-111v105q0 21 14 35.5t35 14.5h444v-94l-261 -566h-114z" />
<glyph unicode="8" horiz-adv-x="647" d="M78 49v216l67 54v2h-21q-21 0 -33.5 14t-12.5 38v237q0 20 15 35t35 15h390q21 0 35.5 -15.5t14.5 -34.5v-187l-65 -55v-2h18q47 0 47 -50v-267q0 -19 -16 -34t-36 -15h-388q-20 0 -35 14.5t-15 34.5zM189 394h200q28 0 47.5 18.5t19.5 45.5v102h-267v-166zM189 100h267 v195h-207q-22 0 -41 -18t-19 -40v-137z" />
<glyph unicode="9" horiz-adv-x="637" d="M66 50v105h111v-55h267v203h-2l-37 -55h-287q-22 0 -37.5 14.5t-15.5 34.5v313q0 19 14.5 34.5t35.5 15.5h389q20 0 35.5 -15.5t15.5 -34.5v-559q0 -21 -16 -36t-36 -15h-386q-21 0 -36 14.5t-15 35.5zM176 347h202q28 0 47 18t19 44v151h-268v-213z" />
<glyph unicode=":" horiz-adv-x="284" d="M84 351v125h116v-125h-116zM84 0v126h116v-126h-116z" />
<glyph unicode=";" horiz-adv-x="300" d="M86 350v126h130v-126h-130zM82 0v127h134v-111q0 -114 -99 -114v98h-35z" />
<glyph unicode="&#x3c;" horiz-adv-x="520" d="M19 222v124l455 223v-111l-358 -174l358 -167v-109z" />
<glyph unicode="=" horiz-adv-x="619" d="M86 124v98h447v-98h-447zM86 334v99h447v-99h-447z" />
<glyph unicode="&#x3e;" horiz-adv-x="520" d="M46 9v108l358 167l-358 174v111l455 -223v-123z" />
<glyph unicode="?" horiz-adv-x="486" d="M145 181v76q0 51 33 79l167 140v113h-220v-55h-111v106q0 20 14.5 34.5t35.5 14.5h344q20 0 34 -15t14 -34v-162q0 -52 -37 -83l-164 -135v-79h-110zM145 0v117h110v-117h-110z" />
<glyph unicode="@" horiz-adv-x="795" d="M75 50v560q0 19 14.5 34.5t35.5 15.5h556q19 0 35 -15.5t16 -34.5v-405q0 -21 -15.5 -36.5t-35.5 -15.5h-167q-16 0 -27.5 9.5t-11.5 24.5v18l-42 -52h-157q-15 0 -27 12t-12 27v274q0 15 12 28t27 13h295v-256h54v309h-441v-460h548v-100h-607q-22 0 -36 14t-14 36z M340 251h84q18 0 31 11.5t13 29.5v118h-128v-159z" />
<glyph unicode="A" horiz-adv-x="682" d="M14 0v100h55l172 460h-51v100h187q41 0 55 -37l190 -523h55v-100h-137l-55 155h-282l-44 -118q-13 -37 -56 -37h-89zM238 259h213l-93 248l-12 37h-2q-6 -18 -13 -37z" />
<glyph unicode="B" horiz-adv-x="697" d="M54 0v78q26 7 41.5 24.5t15.5 41.5v416h-57v100h108q20 0 35.5 -15t15.5 -33v-20h2l43 68h308q21 0 37.5 -15.5t16.5 -36.5v-172l-67 -70v-2h19q48 0 48 -54v-258q0 -23 -13.5 -37.5t-38.5 -14.5h-514zM222 376h218q29 0 48.5 19.5t19.5 49.5v115h-217q-29 0 -49 -18.5 t-20 -48.5v-117zM222 100h286v174h-286v-174z" />
<glyph unicode="C" horiz-adv-x="664" d="M81 52v556q0 21 14.5 36.5t35.5 15.5h321l42 -66h2v17q0 19 15 34t36 15h59v-157h-111q-18 57 -62 57h-241v-460h303v55h111v-103q0 -22 -15.5 -37t-36.5 -15h-423q-21 0 -35.5 15t-14.5 37z" />
<glyph unicode="D" horiz-adv-x="731" d="M54 0v78q57 14 57 66v416h-57v100h112q20 0 35 -15t15 -33v-20h2l44 68h340q22 0 37.5 -15.5t15.5 -36.5v-434q0 -31 -25 -57l-106 -117h-470zM222 100h256q26 0 46 19t20 44v397h-254q-28 0 -48 -19t-20 -49v-392z" />
<glyph unicode="E" horiz-adv-x="643" d="M54 0v78q24 3 40.5 21.5t16.5 44.5v416h-57v100h381l40 -66h2v17q0 19 15.5 34t35.5 15h58v-157h-111q-18 57 -70 57h-183v-182h215v-100h-215v-178h253v55h111v-103q0 -22 -14.5 -37t-36.5 -15h-481z" />
<glyph unicode="F" horiz-adv-x="575" d="M55 0v78q24 6 40.5 24.5t16.5 41.5v416h-57v100h345l40 -66h2v17q0 17 15 33t38 16h58v-157h-110q-22 57 -68 57h-152v-196h219v-99h-219v-89q0 -38 -36 -48v-28h97v-100h-229z" />
<glyph unicode="G" horiz-adv-x="689" d="M81 52v556q0 21 14 36.5t35 15.5h336l42 -66h3v18q0 19 15 33.5t37 14.5h58v-157h-111q-20 57 -70 57h-248v-460h250q28 0 48 18.5t20 43.5v81h-61v100h172v-343h-57q-24 0 -39 14t-15 34v16h-2l-40 -64h-338q-21 0 -35 15t-14 37z" />
<glyph unicode="H" horiz-adv-x="762" d="M54 0v78q25 6 41 24.5t16 41.5v416h-57v100h118q22 0 36 -15t14 -37v-264h35q4 15 18 24t31 9h232v231q0 21 14.5 36.5t36.5 15.5h118v-100h-57v-460h57v-100h-118q-22 0 -36.5 14.5t-14.5 37.5v225h-316v-101q0 -39 -35 -48v-28h96v-100h-229z" />
<glyph unicode="I" horiz-adv-x="337" d="M55 0v77q57 16 57 67v416h-57v100h230v-80q-62 -10 -62 -64v-340q0 -38 -36 -48v-28h98v-100h-230z" />
<glyph unicode="J" horiz-adv-x="312" d="M-45 -28h77q28 0 47.5 18t19.5 44v526h-57v100h229v-80q-28 -5 -44.5 -21t-16.5 -43v-478q0 -28 -22 -55l-101 -110h-132v99z" />
<glyph unicode="K" horiz-adv-x="684" d="M54 0v78q26 6 41.5 23.5t15.5 42.5v416h-57v100h230v-80q-62 -12 -62 -65v-143h64l204 266q20 22 49 22h82v-100h-60l-170 -227l210 -233h62v-100h-89q-30 0 -47 20l-225 249h-80v-93q0 -39 -33 -48v-28h95v-100h-230z" />
<glyph unicode="L" horiz-adv-x="569" d="M55 0v77q25 8 41 25.5t16 41.5v416h-57v100h228v-80q-60 -12 -60 -65v-415h221v55h110v-103q0 -23 -14 -37.5t-36 -14.5h-449z" />
<glyph unicode="M" horiz-adv-x="859" d="M54 0v78q25 6 42.5 25t17.5 41v416h-60v100h139q35 0 49 -26l187 -340l191 340q15 26 52 26h133v-100h-60v-384q0 -38 -33 -48v-28h93v-100h-232v78q26 7 43.5 25.5t17.5 40.5v309h-3q-8 -24 -24 -53l-109 -202h-139l-109 203l-23 52h-2v-277q0 -38 -36 -48v-28h98v-100 h-233z" />
<glyph unicode="N" horiz-adv-x="766" d="M54 0v78q25 5 42.5 23.5t17.5 42.5v416h-60v100h128q35 0 58 -36l273 -424l38 -66h2v426h-59v100h231v-80q-28 -5 -44.5 -22.5t-16.5 -42.5v-515h-149l-254 391q-9 14 -17.5 30t-12.5 25l-4 8h-2v-278q0 -39 -35 -48v-28h96v-100h-232z" />
<glyph unicode="O" horiz-adv-x="710" d="M81 52v556q0 21 14 36.5t35 15.5h447q20 0 36.5 -15.5t16.5 -36.5v-556q0 -22 -16.5 -37t-36.5 -15h-447q-21 0 -35 15t-14 37zM192 100h327v460h-327v-460z" />
<glyph unicode="P" horiz-adv-x="660" d="M55 0v77q25 7 41 25t16 42v416h-57v100h108q19 0 35 -15.5t16 -32.5v-20h2l43 68h307q19 0 36 -16t17 -36v-223q0 -33 -24 -58l-107 -115h-265v-36q0 -38 -36 -48v-28h94v-100h-226zM223 312h217q28 0 48 19t20 48v181h-216q-29 0 -49 -18.5t-20 -48.5v-181z" />
<glyph unicode="Q" horiz-adv-x="730" d="M80 52v556q0 21 16 36.5t36 15.5h447q19 0 35 -15.5t16 -36.5v-430q0 -40 -36 -50v-28h95v-100h-557q-21 0 -36.5 15t-15.5 37zM191 100h261q27 0 46.5 18.5t19.5 44.5v397h-327v-460z" />
<glyph unicode="R" horiz-adv-x="711" d="M55 0v77q25 7 41 26t16 41v416h-57v100h110q19 0 34.5 -15t15.5 -33v-20h2l43 68h308q20 0 35.5 -15.5t15.5 -36.5v-193q0 -31 -24 -57l-67 -73l102 -185h60v-100h-95q-40 0 -57 33l-117 214h-197v-67q0 -42 -36 -52v-28h95v-100h-228zM224 346h215q29 0 49 20t20 49v145 h-215q-29 0 -49 -18t-20 -48v-148z" />
<glyph unicode="S" horiz-adv-x="604" d="M60 50v105h111v-55h264v81l-340 222q-35 30 -35 70v135q0 22 13.5 37t36.5 15h273l42 -66h2v17q0 19 15 34t38 15h57v-157h-112q-18 57 -65 57h-189v-78l331 -218q16 -13 23.5 -20.5t14 -22t6.5 -32.5v-137q0 -21 -16 -36.5t-38 -15.5h-382q-19 0 -34.5 15t-15.5 35z" />
<glyph unicode="T" horiz-adv-x="577" d="M169 0v78q27 6 45.5 25t18.5 41v416h-223v100h557v-100h-223v-383q0 -41 -38 -49v-28h100v-100h-237z" />
<glyph unicode="U" horiz-adv-x="731" d="M94 146v414h-57v100h168v-497q0 -26 20 -44.5t47 -18.5h184q28 0 49 19t21 44v445q0 21 14 36.5t35 15.5h119v-100h-57v-386q0 -29 -24 -57l-106 -117h-244q-40 0 -63 26z" />
<glyph unicode="V" horiz-adv-x="662" d="M240 40l-174 520h-56v100h139l167 -508l14 -45h2q6 20 14 45l156 470q5 15 19.5 26.5t33.5 11.5h98v-100h-59l-185 -560h-113q-26 0 -37.5 10t-18.5 30z" />
<glyph unicode="W" horiz-adv-x="1008" d="M199 41l-132 519h-54v100h142l124 -488l14 -69h2q5 33 16 69l112 388h-47v100h187l134 -488l16 -69h2q5 31 15 70l115 447q10 40 53 40h97v-100h-55l-141 -560h-123q-44 0 -55 38l-117 426l-130 -464h-120q-48 0 -55 41z" />
<glyph unicode="X" horiz-adv-x="670" d="M39 0v100h57l172 228l-168 232h-59v100h123l172 -244l149 211q22 33 56 33h87v-100h-61l-164 -232l171 -228h58v-100h-88q-32 0 -47 21l-161 215l-160 -216q-15 -20 -50 -20h-87z" />
<glyph unicode="Y" horiz-adv-x="638" d="M204 0v78q25 5 43 23.5t18 42.5v100l-201 316h-56v100h117l196 -302l168 265q24 37 65 37h79v-100h-61l-196 -316v-68q0 -38 -38 -48v-28h97v-100h-231z" />
<glyph unicode="Z" horiz-adv-x="617" d="M41 0v90l370 470h-160q-23 0 -43.5 -16t-30.5 -41h-113v157h61q21 0 36 -15t15 -34v-17h2l41 66h331v-95l-367 -465h281v55h112v-103q0 -22 -15.5 -37t-34.5 -15h-485z" />
<glyph unicode="[" horiz-adv-x="299" d="M73 -60v741q0 19 15.5 35t36.5 16h125v-99h-67v-644h67v-99h-125q-22 0 -37 14.5t-15 35.5z" />
<glyph unicode="\" horiz-adv-x="369" d="M263 -64l-268 793h111l269 -793h-112z" />
<glyph unicode="]" horiz-adv-x="300" d="M49 -11h67v644h-67v99h126q20 0 36 -16t16 -35v-741q0 -21 -15.5 -35.5t-36.5 -14.5h-126v99z" />
<glyph unicode="^" horiz-adv-x="660" d="M50 210l220 450h130l210 -450h-109l-168 354l-174 -354h-109z" />
<glyph unicode="_" horiz-adv-x="624" d="M16 -16h592v-99h-592v99z" />
<glyph unicode="`" horiz-adv-x="306" d="M256 540h-88q-22 0 -38 13t-33 39l-47 68h123z" />
<glyph unicode="a" horiz-adv-x="595" d="M54 50v173q0 19 14.5 34.5t34.5 15.5h198q38 0 48 -33h39v137h-149q-57 0 -75 -59h-98v158h48q21 0 35.5 -14.5t14.5 -36.5v-20h2l45 71h237q20 0 35.5 -15t15.5 -36v-325h62v-100h-112q-20 0 -35 13t-15 31v24h-2l-43 -68h-251q-20 0 -34.5 15.5t-14.5 34.5zM165 100 h152q29 0 50 17t21 44v15h-223v-76z" />
<glyph unicode="b" horiz-adv-x="633" d="M35 0v100h62v490h-62v99h122q21 0 36 -15t15 -34v-200h41q3 36 47 36h218q21 0 36 -15t15 -36v-375q0 -21 -15 -35.5t-36 -14.5h-270l-42 69h-2v-24q0 -18 -15.5 -31.5t-36.5 -13.5h-113zM208 377v-209q0 -28 21.5 -48t52.5 -20h172v277h-246z" />
<glyph unicode="c" horiz-adv-x="554" d="M68 50v375q0 22 14.5 36.5t36.5 14.5h234l43 -71h2v20q0 21 15 36t36 15h49v-161h-101q-8 27 -29 44.5t-44 17.5h-145v-277h211v55h108v-105q0 -22 -14.5 -36t-35.5 -14h-329q-22 0 -36.5 14t-14.5 36z" />
<glyph unicode="d" horiz-adv-x="632" d="M68 50v375q0 22 14 36.5t34 14.5h214q47 0 54 -36h40v150h-61v99h121q20 0 35.5 -15.5t15.5 -33.5v-540h62v-100h-113q-25 0 -38 12.5t-13 32.5v24h-2l-44 -69h-271q-20 0 -34 14t-14 36zM179 100h170q31 0 53 20t22 48v209h-245v-277z" />
<glyph unicode="e" horiz-adv-x="564" d="M67 50v375q0 21 15.5 36t35.5 15h342q22 0 36 -14.5t14 -36.5v-196q0 -22 -14 -36t-36 -14h-194q-41 0 -48 35h-40v-114h320v-100h-380q-20 0 -35.5 14.5t-15.5 35.5zM178 278h221v99h-221v-99z" />
<glyph unicode="f" horiz-adv-x="331" d="M95 0v329q0 24 -17 45t-43 27v75h60v39q0 29 23 56l108 118h134v-99h-80q-31 0 -52 -20t-21 -50v-44h103v-99h-141v-34q17 -4 27.5 -17.5t10.5 -30.5v-295h-112z" />
<glyph unicode="g" horiz-adv-x="604" d="M68 90l74 53v2h-27q-20 0 -33.5 14t-13.5 37v229q0 21 15.5 36t35.5 15h235l46 -74h2v23q0 21 15.5 36t36.5 15h112v-99h-62v-182q0 -24 -14 -37t-36 -13h-192q-29 0 -53 -13.5t-30 -33.5h330q19 0 33.5 -16t14.5 -36v-197q0 -19 -14.5 -35t-33.5 -16h-390 q-20 0 -35.5 15.5t-15.5 35.5v241zM179 242h214v63q0 31 -21.5 51.5t-53.5 20.5h-139v-135zM179 34v-137h267v103h-182q-22 0 -32.5 7t-13.5 27h-39z" />
<glyph unicode="h" horiz-adv-x="647" d="M35 0v73q28 7 45 27t17 46v444h-62v99h122q21 0 36 -15t15 -34v-205h41q5 41 51 41h201q20 0 34.5 -14.5t14.5 -36.5v-325h62v-100h-123q-21 0 -35.5 14.5t-14.5 35.5v327h-157q-31 0 -52.5 -20.5t-21.5 -51.5v-125q0 -38 -38 -47v-33h100v-100h-235z" />
<glyph unicode="i" horiz-adv-x="315" d="M110 537v122h111v-122h-111zM48 0v73q28 7 45 27t17 46v231h-62v99h124q20 0 34.5 -14.5t14.5 -36.5v-246q0 -37 -37 -46v-33h99v-100h-235z" />
<glyph unicode="j" horiz-adv-x="278" d="M97 538v122h111v-122h-111zM-30 -102h57q31 0 50.5 19.5t19.5 48.5v411h-61v99h123q21 0 35 -14t14 -35v-458q0 -30 -23 -55l-102 -115h-113v99z" />
<glyph unicode="k" horiz-adv-x="578" d="M36 0v100h62v489h-61v100h123q20 0 34.5 -15t14.5 -34v-344h23l147 161q19 19 49 19h83v-99h-68l-115 -123l149 -154h65v-100h-86q-29 0 -48 18l-170 184h-29v-152q0 -22 -14 -36t-35 -14h-124z" />
<glyph unicode="l" horiz-adv-x="303" d="M35 0v73q28 7 45 27t17 46v444h-62v99h124q20 0 34.5 -15t14.5 -34v-461q0 -16 -10 -29t-27 -17v-33h100v-100h-236z" />
<glyph unicode="m" horiz-adv-x="953" d="M48 0v73q27 7 44.5 27.5t17.5 45.5v231h-62v99h113q22 0 36.5 -14.5t14.5 -34.5v-25h2l47 74h213q22 0 36.5 -14.5t14.5 -36.5v-24h2l48 75h229q20 0 36 -15t16 -36v-325h61v-100h-121q-21 0 -36.5 14.5t-15.5 35.5v327h-136q-31 0 -53 -20.5t-22 -51.5v-205h64v-100 h-126q-19 0 -34 14.5t-15 35.5v327h-128q-30 0 -51.5 -20.5t-21.5 -51.5v-126q0 -41 -37 -46v-33h100v-100h-236z" />
<glyph unicode="n" horiz-adv-x="656" d="M48 0v73q28 7 45 27t17 46v231h-62v99h113q25 0 38.5 -16t13.5 -34v-24h2l45 74h246q21 0 37 -15t16 -36v-325h62v-100h-123q-21 0 -35.5 14.5t-14.5 35.5v327h-152q-32 0 -53.5 -20.5t-21.5 -51.5v-126q0 -37 -37 -46v-33h100v-100h-236z" />
<glyph unicode="o" horiz-adv-x="579" d="M67 50v375q0 21 15.5 36t36.5 15h341q22 0 36.5 -14.5t14.5 -36.5v-375q0 -22 -14.5 -36t-36.5 -14h-341q-21 0 -36.5 14.5t-15.5 35.5zM178 100h222v277h-222v-277z" />
<glyph unicode="p" horiz-adv-x="632" d="M36 -103h62v480h-62v99h114q21 0 36 -14.5t15 -35.5v-24h2l46 74h266q22 0 35.5 -14.5t13.5 -36.5v-375q0 -22 -13.5 -36t-35.5 -14h-221q-38 0 -44 34h-41v-184q0 -22 -14 -37t-36 -15h-123v99zM209 100h243v277h-168q-31 0 -53 -20.5t-22 -52.5v-204z" />
<glyph unicode="q" horiz-adv-x="629" d="M68 50v375q0 22 14 36.5t36 14.5h261l46 -74h2v23q0 21 15.5 36t36.5 15h114v-99h-62v-398q0 -39 -34 -49v-33h96v-99h-237v74q28 8 45.5 28t17.5 44v90h-41q-4 -34 -45 -34h-215q-22 0 -36 14t-14 36zM179 100h240v205q0 31 -22 51.5t-53 20.5h-165v-277z" />
<glyph unicode="r" horiz-adv-x="430" d="M48 0v73q29 8 45.5 27.5t16.5 45.5v231h-62v99h114q20 0 35 -15t15 -36v-23h2l47 74h151v-99h-116q-32 0 -53.5 -20.5t-21.5 -51.5v-126q0 -39 -37 -46v-33h98v-100h-234z" />
<glyph unicode="s" horiz-adv-x="529" d="M56 50v105h111v-55h197v41l-274 122q-34 19 -34 56v107q0 23 15 36.5t34 13.5h215l45 -71h2v20q0 24 14.5 37.5t37.5 13.5h49v-162h-100q-5 28 -27 45.5t-46 17.5h-128v-39l271 -122q37 -20 37 -59v-107q0 -22 -14 -36t-36 -14h-320q-22 0 -35.5 14.5t-13.5 35.5z" />
<glyph unicode="t" horiz-adv-x="417" d="M95 50v279q0 26 -17 46t-44 26v75h61v110h111v-110h174v-99h-211v-34q37 -11 37 -56v-187h174v-100h-236q-19 0 -34 14.5t-15 35.5z" />
<glyph unicode="u" horiz-adv-x="648" d="M97 50v327h-62v99h123q19 0 34.5 -15t15.5 -36v-325h157q31 0 52.5 19.5t21.5 48.5v209h-62v99h173v-376h63v-100h-113q-21 0 -35 13t-14 32v24h-2l-43 -69h-257q-23 0 -37.5 14t-14.5 36z" />
<glyph unicode="v" horiz-adv-x="559" d="M192 36l-119 341h-56v99h130l119 -337l12 -39h2q4 17 12 39l105 298q4 12 9 19.5t16.5 13.5t29.5 6h90v-99h-56l-134 -377h-108q-38 0 -52 36z" />
<glyph unicode="w" horiz-adv-x="850" d="M172 36l-98 341h-56v99h133l91 -319l15 -57h2q7 22 19 55l80 222h-41v99h155l100 -321l16 -55h2q6 21 16 55l80 282q11 39 54 39h92v-99h-56l-110 -377h-108q-21 0 -33 6.5t-20 28.5l-78 234l-98 -269h-105q-42 0 -52 36z" />
<glyph unicode="x" horiz-adv-x="579" d="M42 0v100h53l125 144l-109 133h-56v99h111l123 -155l113 136q17 19 49 19h74v-99h-55l-113 -132l120 -145h59v-100h-78q-32 0 -48 20l-123 145l-125 -145q-15 -20 -47 -20h-73z" />
<glyph unicode="y" horiz-adv-x="568" d="M124 -103h87l39 103q-40 0 -53 35l-124 342h-56v99h134l114 -322l18 -57h2q6 24 18 57l104 283q15 39 54 39h90v-99h-56l-191 -523q-19 -56 -66 -56h-114v99z" />
<glyph unicode="z" horiz-adv-x="526" d="M45 0v88l278 289h-89q-24 0 -45.5 -17.5t-29.5 -44.5h-99v161h48q21 0 36 -15t15 -36v-20h2l44 71h260v-85l-281 -291h186v55h111v-105q0 -21 -15 -35.5t-36 -14.5h-385z" />
<glyph unicode="{" horiz-adv-x="336" d="M111 -60v296h-79v90q37 5 58 23.5t21 47.5v284q0 19 15.5 35t36.5 16h127v-99h-68v-226q0 -32 -30 -55l-41 -32v-2h22q24 0 36.5 -13t12.5 -34v-282h68v-99h-127q-21 0 -36.5 14.5t-15.5 35.5z" />
<glyph unicode="|" horiz-adv-x="248" d="M74 -167v953h100v-953h-100z" />
<glyph unicode="}" horiz-adv-x="335" d="M45 -11h69v220q0 39 27 59l43 34v2h-21q-24 0 -36.5 13t-12.5 34v282h-69v99h128q21 0 36 -15t15 -35v-296h79v-90q-36 -5 -57.5 -23.5t-21.5 -47.5v-284q0 -19 -15 -35t-36 -16h-128v99z" />
<glyph unicode="~" horiz-adv-x="634" d="M57 192q0 83 43.5 130.5t118.5 47.5q38 0 74.5 -22t67.5 -44t57 -22q51 0 52 68h110q0 -85 -46 -130t-114 -45q-32 0 -63 14t-51 31.5t-44 31.5t-43 14q-52 0 -52 -74h-110z" />
<glyph unicode="&#xa1;" horiz-adv-x="281" d="M85 359v117h111v-117h-111zM85 -210v508h111v-508h-111z" />
<glyph unicode="&#xa2;" horiz-adv-x="548" d="M235 69h-124q-22 0 -36.5 14t-14.5 36v424q0 21 14.5 35.5t36.5 14.5h124v67h100v-67h119q21 0 35 -14t14 -35v-112h-112v62h-220v-326h220v61h112v-110q0 -22 -14 -36t-35 -14h-119v-69h-100v69z" />
<glyph unicode="&#xa3;" horiz-adv-x="545" d="M47 0v74q25 7 41 25t16 39v110h-56v92h56v150q0 23 28 57l106 113h163q19 0 35 -15t16 -35v-106h-111v56h-59q-27 0 -46.5 -18.5t-19.5 -43.5v-158h102v-92h-102v-70q0 -36 -37 -48v-30h235v55h111v-107q0 -21 -16.5 -34.5t-32.5 -13.5h-429z" />
<glyph unicode="&#xa5;" horiz-adv-x="609" d="M81 200v91h151l-26 44h-125v90h70l-80 135h-57v100h112l179 -296l160 260q22 36 65 36h67v-100h-59l-83 -135h69v-90h-124l-26 -44h150v-91h-163v-200h-111v200h-169z" />
<glyph unicode="&#xa7;" horiz-adv-x="536" d="M78 -22h107v-55h166v43l-282 193q-26 17 -26 52v104q0 33 27 52l74 56l-36 26q-17 11 -23.5 23.5t-6.5 36.5v99q0 23 13 37.5t37 14.5h280q21 0 36 -15.5t15 -36.5v-103h-108v55h-166v-44l281 -194q27 -17 27 -50v-101q0 -19 -5.5 -29t-21.5 -23l-78 -64l52 -38 q19 -13 19 -48v-96q0 -21 -14 -35.5t-37 -14.5h-280q-22 0 -36 15t-14 35v105zM145 227l167 -113l77 67v74l-166 111l-78 -58v-81z" />
<glyph unicode="&#xa8;" horiz-adv-x="434" d="M272 548v113h112v-113h-112zM50 548v113h111v-113h-111z" />
<glyph unicode="&#xa9;" horiz-adv-x="774" d="M37 329q0 143 101 243t249 100t249 -100t101 -243q0 -141 -101 -240.5t-249 -99.5t-249 99.5t-101 240.5zM123 329q0 -108 75.5 -182t188.5 -74q114 0 188.5 74t74.5 182q0 109 -74.5 183.5t-188.5 74.5q-113 0 -188.5 -74.5t-75.5 -183.5zM225 197v269q0 17 13 30t31 13 h227q18 0 30.5 -13t12.5 -30v-73h-89v35h-136v-193h137v33h88v-71q0 -18 -12.5 -31t-30.5 -13h-227q-19 0 -31.5 13t-12.5 31z" />
<glyph unicode="&#xaa;" horiz-adv-x="464" d="M96 325q-16 0 -26.5 11.5t-10.5 25.5v127q0 15 11 26.5t26 11.5h190v57h-218v75h264q16 0 27 -11.5t11 -27.5v-220h41v-75h-85q-13 0 -22.5 8.5t-9.5 19.5v14l-29 -42h-169zM142 400h100q17 0 30.5 12t13.5 28v11h-144v-51z" />
<glyph unicode="&#xab;" horiz-adv-x="499" d="M207 253l131 189h105l-129 -187l131 -193h-107zM173 62l-128 191l128 189h110l-133 -189l134 -191h-111z" />
<glyph unicode="&#xae;" horiz-adv-x="774" d="M37 329q0 143 101 243t249 100t249 -100t101 -243q0 -141 -101 -240.5t-249 -99.5t-249 99.5t-101 240.5zM123 329q0 -108 75.5 -182t188.5 -74q114 0 188.5 74t74.5 182q0 109 -74.5 183.5t-188.5 74.5q-113 0 -188.5 -74.5t-75.5 -183.5zM230 153v60q32 5 32 34v181 h-28v81h257q18 0 28.5 -12.5t10.5 -29.5v-90q0 -22 -17 -39l-37 -38l47 -72h22v-75h-38q-37 0 -53 27l-55 88h-54v-41h23v-74h-138zM345 351h58q40 0 40 37v40h-98v-77z" />
<glyph unicode="&#xaf;" horiz-adv-x="397" d="M50 563v78h297v-78h-297z" />
<glyph unicode="&#xb0;" horiz-adv-x="411" d="M205 339q-69 0 -117.5 47.5t-48.5 112.5q0 67 48.5 114t117.5 47t118.5 -47.5t49.5 -113.5q0 -65 -50 -112.5t-118 -47.5zM205 431q31 0 53.5 20.5t22.5 47.5q0 29 -22.5 49.5t-53.5 20.5t-53.5 -20.5t-22.5 -49.5q0 -27 22.5 -47.5t53.5 -20.5z" />
<glyph unicode="&#xb1;" horiz-adv-x="577" d="M235 138v120h-170v98h170v120h106v-120h172v-98h-172v-120h-106zM63 0v100h450v-100h-450z" />
<glyph unicode="&#xb2;" horiz-adv-x="376" d="M42 291v50q0 28 27 57l167 170v14h-94v-26h-89v66q0 16 12 27t29 11h193q16 0 27.5 -11.5t11.5 -26.5v-53q0 -20 -26 -48l-151 -152h91v26h86v-66q0 -16 -12 -27t-29 -11h-243z" />
<glyph unicode="&#xb3;" horiz-adv-x="392" d="M293 291h-202q-16 0 -28.5 10.5t-12.5 27.5v66h87v-26h108v93h-79v64l61 56h-90v-26h-87v66q0 15 12 26.5t27 11.5h243v-59l-64 -59h24q16 0 28 -12.5t12 -27.5v-173q0 -15 -12 -26.5t-27 -11.5z" />
<glyph unicode="&#xb4;" horiz-adv-x="306" d="M50 540l84 120h122l-65 -91q-21 -29 -55 -29h-86z" />
<glyph unicode="&#xb6;" horiz-adv-x="608" d="M228 -202v461q-86 0 -148 60t-62 140q0 83 63.5 142t153.5 59h328v-82h-61v-780h-79v780h-116v-780h-79z" />
<glyph unicode="&#xb7;" horiz-adv-x="268" d="M80 233v106h108v-106h-108z" />
<glyph unicode="&#xb8;" horiz-adv-x="270" d="M102 22h72l-14 -57q26 -5 43 -22.5t17 -44.5q0 -37 -26.5 -58t-63.5 -21q-44 0 -80 27l18 55q27 -16 49 -16q23 0 23 16q0 11 -16.5 19.5t-47.5 9.5z" />
<glyph unicode="&#xb9;" horiz-adv-x="321" d="M47 291v78h82v213h-82v78h171v-291h76v-78h-247z" />
<glyph unicode="&#xba;" horiz-adv-x="453" d="M353 324h-252q-17 0 -28 10.5t-11 26.5v261q0 14 11.5 26t27.5 12h252q16 0 27 -12t11 -26v-261q0 -16 -10.5 -26.5t-27.5 -10.5zM146 400h162v182h-162v-182z" />
<glyph unicode="&#xbb;" horiz-adv-x="499" d="M217 62l131 191l-129 189h106l129 -189l-129 -191h-108zM54 62l131 191l-130 189h106l130 -189l-130 -191h-107z" />
<glyph unicode="&#xbc;" horiz-adv-x="718" d="M90 0l496 660h102l-495 -660h-103zM33 291v78h82v213h-82v78h171v-291h76v-78h-247zM389 57v56l199 256h73v-235h32v-77h-32v-57h-87v57h-185zM499 134h75v97z" />
<glyph unicode="&#xbd;" horiz-adv-x="781" d="M89 0l496 660h102l-495 -660h-103zM32 291v78h82v213h-82v78h171v-291h76v-78h-247zM464 0v50q0 29 28 57l166 170v14h-93v-26h-89v66q0 16 11.5 27t28.5 11h193q17 0 28 -11.5t11 -26.5v-53q0 -21 -25 -48l-151 -152h91v26h85v-66q0 -16 -12 -27t-29 -11h-243z" />
<glyph unicode="&#xbe;" horiz-adv-x="755" d="M125 0l496 660h102l-494 -660h-104zM274 291h-202q-16 0 -28.5 10.5t-12.5 27.5v66h87v-26h108v93h-79v64l61 56h-90v-26h-87v66q0 15 12 26.5t27 11.5h243v-59l-64 -59h24q16 0 28 -12.5t12 -27.5v-173q0 -15 -12 -26.5t-27 -11.5zM431 57v56l199 256h73v-235h32v-77 h-32v-57h-88v57h-184zM540 134h75v97z" />
<glyph unicode="&#xbf;" horiz-adv-x="423" d="M215 359v117h111v-117h-111zM14 0q0 52 38 84l163 134v80h111v-77q0 -54 -33 -80l-168 -136v-115h220v55h111v-106q0 -19 -14.5 -34t-34.5 -15h-344q-20 0 -34.5 15t-14.5 34v161z" />
<glyph unicode="&#xc0;" horiz-adv-x="682" d="M414 703h-87q-34 0 -55 27l-65 83h122zM14 0v100h55l172 460h-51v100h187q41 0 55 -37l190 -523h55v-100h-137l-55 155h-282l-44 -118q-13 -37 -56 -37h-89zM238 259h213l-93 248l-12 37h-2q-6 -18 -13 -37z" />
<glyph unicode="&#xc1;" horiz-adv-x="682" d="M249 703l85 110h121l-65 -83q-21 -27 -55 -27h-86zM14 0v100h55l172 460h-51v100h187q41 0 55 -37l190 -523h55v-100h-137l-55 155h-282l-44 -118q-13 -37 -56 -37h-89zM238 259h213l-93 248l-12 37h-2q-6 -18 -13 -37z" />
<glyph unicode="&#xc2;" horiz-adv-x="682" d="M166 703l81 82q26 28 65 28h84l101 -110h-106l-59 63l-59 -63h-107zM14 0v100h55l172 460h-51v100h187q41 0 55 -37l190 -523h55v-100h-137l-55 155h-282l-44 -118q-13 -37 -56 -37h-89zM238 259h213l-93 248l-12 37h-2q-6 -18 -13 -37z" />
<glyph unicode="&#xc3;" horiz-adv-x="682" d="M145 705q0 42 31 78.5t78 36.5q37 0 74.5 -23t54.5 -23q16 0 28.5 11t14.5 25h76q-4 -47 -33.5 -81t-77.5 -34q-34 0 -73 22.5t-54 22.5q-16 0 -28.5 -10t-14.5 -25h-76zM14 0v100h55l172 460h-51v100h187q41 0 55 -37l190 -523h55v-100h-137l-55 155h-282l-44 -118 q-13 -37 -56 -37h-89zM238 259h213l-93 248l-12 37h-2q-6 -18 -13 -37z" />
<glyph unicode="&#xc4;" horiz-adv-x="682" d="M376 716v113h111v-113h-111zM154 716v113h111v-113h-111zM14 0v100h55l172 460h-51v100h187q41 0 55 -37l190 -523h55v-100h-137l-55 155h-282l-44 -118q-13 -37 -56 -37h-89zM238 259h213l-93 248l-12 37h-2q-6 -18 -13 -37z" />
<glyph unicode="&#xc5;" horiz-adv-x="682" d="M326 696q-37 0 -61.5 24.5t-24.5 60.5q0 34 24.5 59t61.5 25q36 0 61.5 -25t25.5 -59q0 -35 -25.5 -60t-61.5 -25zM326 754q11 0 19 7.5t8 19.5q0 11 -8 19t-19 8q-12 0 -20 -8t-8 -19q0 -27 28 -27zM14 0v100h55l172 460h-51v100h187q41 0 55 -37l190 -523h55v-100h-137 l-55 155h-282l-44 -118q-13 -37 -56 -37h-89zM238 259h213l-93 248l-12 37h-2q-6 -18 -13 -37z" />
<glyph unicode="&#xc6;" horiz-adv-x="934" d="M6 0v100h58l240 460h-50v100h468l41 -66h2v18q0 18 15 33t34 15h63v-156h-113q-18 56 -74 56h-145v-189h189v-99h-189v-172h220v55h112v-103q0 -22 -15.5 -37t-37.5 -15h-338q-22 0 -37 15t-15 37v220h-163l-120 -237q-8 -18 -19 -26.5t-36 -8.5h-90zM325 371h109v189 h-11z" />
<glyph unicode="&#xc7;" horiz-adv-x="664" d="M81 52v556q0 21 14.5 36.5t35.5 15.5h321l42 -66h2v17q0 19 15 34t36 15h59v-157h-111q-8 25 -28 41t-41 16h-234v-460h303v55h111v-103q0 -22 -15 -37t-37 -15h-173l-11 -45q26 -5 43 -22.5t17 -44.5q0 -37 -26.5 -58.5t-63.5 -21.5q-45 0 -80 28l18 55q29 -17 49 -17 q23 0 23 17q0 11 -16.5 20t-47.5 9l23 80h-178q-22 0 -36 14.5t-14 37.5z" />
<glyph unicode="&#xc8;" horiz-adv-x="643" d="M392 703h-86q-34 0 -55 27l-65 83h122zM54 0v78q24 3 40.5 21.5t16.5 44.5v416h-57v100h381l40 -66h2v17q0 19 15.5 34t35.5 15h58v-157h-111q-18 57 -75 57h-178v-182h215v-100h-215v-178h253v55h111v-103q0 -22 -14.5 -37t-36.5 -15h-481z" />
<glyph unicode="&#xc9;" horiz-adv-x="643" d="M240 703l84 110h122l-65 -83q-24 -27 -55 -27h-86zM54 0v78q24 3 40.5 21.5t16.5 44.5v416h-57v100h381l40 -66h2v17q0 19 15.5 34t35.5 15h58v-157h-111q-8 25 -29.5 41t-45.5 16h-178v-182h215v-100h-215v-178h253v55h111v-103q0 -22 -14.5 -37t-36.5 -15h-481z" />
<glyph unicode="&#xca;" horiz-adv-x="643" d="M146 703l81 82q28 28 66 28h84l101 -110h-107l-59 63l-58 -63h-108zM54 0v78q24 3 40.5 21.5t16.5 44.5v416h-57v100h381l40 -66h2v17q0 19 15.5 34t35.5 15h58v-157h-111q-8 25 -29.5 41t-45.5 16h-178v-182h215v-100h-215v-178h253v55h111v-103q0 -22 -14.5 -37 t-36.5 -15h-481z" />
<glyph unicode="&#xcb;" horiz-adv-x="643" d="M372 716v113h111v-113h-111zM150 716v113h111v-113h-111zM54 0v78q24 3 40.5 21.5t16.5 44.5v416h-57v100h381l40 -66h2v17q0 19 15.5 34t35.5 15h58v-157h-111q-8 25 -29.5 41t-45.5 16h-178v-182h215v-100h-215v-178h253v55h111v-103q0 -22 -14.5 -37t-36.5 -15h-481z " />
<glyph unicode="&#xcc;" horiz-adv-x="336" d="M247 703h-86q-32 0 -56 27l-64 83h122zM55 0v77q57 16 57 67v416h-57v100h229v-80q-61 -9 -61 -64v-340q0 -38 -36 -48v-28h97v-100h-229z" />
<glyph unicode="&#xcd;" horiz-adv-x="337" d="M95 703l84 110h122l-66 -83q-23 -27 -55 -27h-85zM55 0v77q57 16 57 67v416h-57v100h230v-80q-62 -10 -62 -64v-340q0 -38 -36 -48v-28h98v-100h-230z" />
<glyph unicode="&#xce;" horiz-adv-x="337" d="M8 703l81 82q26 28 65 28h85l101 -110h-107l-59 63l-59 -63h-107zM55 0v77q57 16 57 67v416h-57v100h230v-80q-62 -9 -62 -64v-340q0 -38 -36 -48v-28h98v-100h-230z" />
<glyph unicode="&#xcf;" horiz-adv-x="337" d="M225 716v113h112v-113h-112zM3 716v113h111v-113h-111zM55 0v77q57 16 57 67v416h-57v100h230v-80q-62 -10 -62 -64v-340q0 -38 -36 -48v-28h98v-100h-230z" />
<glyph unicode="&#xd1;" horiz-adv-x="766" d="M216 705q0 42 31 78.5t78 36.5q37 0 74.5 -23t54.5 -23q16 0 28.5 11t14.5 25h76q-4 -47 -33.5 -81t-77.5 -34q-34 0 -73 22.5t-54 22.5q-16 0 -28.5 -10t-14.5 -25h-76zM54 0v78q25 5 42.5 23.5t17.5 42.5v416h-60v100h128q35 0 58 -36l273 -424l38 -66h2v426h-59v100 h231v-80q-28 -5 -44.5 -22.5t-16.5 -42.5v-515h-149l-254 391q-9 14 -17.5 30t-12.5 25l-4 8h-2v-278q0 -39 -35 -48v-28h96v-100h-232z" />
<glyph unicode="&#xd2;" horiz-adv-x="710" d="M441 703h-87q-34 0 -55 27l-65 83h122zM81 52v556q0 21 14 36.5t35 15.5h447q20 0 36.5 -15.5t16.5 -36.5v-556q0 -22 -16.5 -37t-36.5 -15h-447q-21 0 -35 15t-14 37zM192 100h327v460h-327v-460z" />
<glyph unicode="&#xd3;" horiz-adv-x="710" d="M276 703l84 110h122l-65 -83q-21 -27 -55 -27h-86zM81 52v556q0 21 14 36.5t35 15.5h447q20 0 36.5 -15.5t16.5 -36.5v-556q0 -22 -16.5 -37t-36.5 -15h-447q-21 0 -35 15t-14 37zM192 100h327v460h-327v-460z" />
<glyph unicode="&#xd4;" horiz-adv-x="710" d="M188 703l81 82q26 28 65 28h85l101 -110h-107l-59 63l-59 -63h-107zM81 52v556q0 21 14 36.5t35 15.5h447q20 0 36.5 -15.5t16.5 -36.5v-556q0 -22 -16.5 -37t-36.5 -15h-447q-21 0 -35 15t-14 37zM192 100h327v460h-327v-460z" />
<glyph unicode="&#xd5;" horiz-adv-x="710" d="M181 705q0 42 31 78.5t78 36.5q37 0 74.5 -23t54.5 -23q16 0 28.5 11t14.5 25h76q-4 -47 -33.5 -81t-77.5 -34q-34 0 -73 22.5t-54 22.5q-16 0 -28.5 -10t-14.5 -25h-76zM81 52v556q0 21 14 36.5t35 15.5h447q20 0 36.5 -15.5t16.5 -36.5v-556q0 -22 -16.5 -37t-36.5 -15 h-447q-21 0 -35 15t-14 37zM192 100h327v460h-327v-460z" />
<glyph unicode="&#xd6;" horiz-adv-x="710" d="M410 716v113h112v-113h-112zM188 716v113h112v-113h-112zM81 52v556q0 21 14 36.5t35 15.5h447q20 0 36.5 -15.5t16.5 -36.5v-556q0 -22 -16.5 -37t-36.5 -15h-447q-21 0 -35 15t-14 37zM192 100h327v460h-327v-460z" />
<glyph unicode="&#xd8;" horiz-adv-x="701" d="M81 52v556q0 21 14.5 36.5t34.5 15.5h377l48 69h85l-53 -79q13 -4 23.5 -16.5t10.5 -25.5v-556q0 -22 -16.5 -37t-36.5 -15h-373l-40 -64h-83l42 71q-13 3 -23 16.5t-10 28.5zM192 133l253 427h-253v-427zM256 100h253v423z" />
<glyph unicode="&#xd9;" horiz-adv-x="731" d="M446 703h-86q-32 0 -56 27l-64 83h121zM94 146v414h-57v100h168v-497q0 -26 20 -44.5t47 -18.5h184q28 0 49 19t21 44v445q0 21 14 36.5t35 15.5h119v-100h-57v-386q0 -29 -24 -57l-106 -117h-244q-40 0 -63 26z" />
<glyph unicode="&#xda;" horiz-adv-x="731" d="M286 703l85 110h122l-66 -83q-23 -27 -55 -27h-86zM94 146v414h-57v100h168v-497q0 -26 20 -44.5t47 -18.5h184q28 0 49 19t21 44v445q0 21 14 36.5t35 15.5h119v-100h-57v-386q0 -29 -24 -57l-106 -117h-244q-40 0 -63 26z" />
<glyph unicode="&#xdb;" horiz-adv-x="731" d="M208 703l82 82q26 28 65 28h84l101 -110h-106l-59 63l-59 -63h-108zM94 146v414h-57v100h168v-497q0 -26 20 -44.5t47 -18.5h184q28 0 49 19t21 44v445q0 21 14 36.5t35 15.5h119v-100h-57v-386q0 -29 -24 -57l-106 -117h-244q-40 0 -63 26z" />
<glyph unicode="&#xdc;" horiz-adv-x="731" d="M422 716v113h111v-113h-111zM200 716v113h111v-113h-111zM94 146v414h-57v100h168v-497q0 -26 20 -44.5t47 -18.5h184q28 0 49 19t21 44v445q0 21 14 36.5t35 15.5h119v-100h-57v-386q0 -29 -24 -57l-106 -117h-244q-40 0 -63 26z" />
<glyph unicode="&#xdd;" horiz-adv-x="638" d="M239 703l84 110h122l-66 -83q-23 -27 -55 -27h-85zM204 0v78q25 5 43 23.5t18 42.5v100l-201 316h-56v100h117l196 -302l168 265q24 37 65 37h79v-100h-61l-196 -316v-68q0 -38 -38 -48v-28h97v-100h-231z" />
<glyph unicode="&#xdf;" horiz-adv-x="620" d="M38 0v101h57v380q0 25 27 56l113 123h217q20 0 35.5 -15t15.5 -35v-76q0 -40 -26 -69l-92 -103l157 -110q42 -29 42 -67v-135q0 -21 -14.5 -35.5t-34.5 -14.5h-270v101h207v73l-190 134q-22 16 -22 41q0 22 15 41l117 133v37h-117q-30 0 -49.5 -18t-19.5 -43v-449 q0 -21 -15 -35.5t-36 -14.5h-117z" />
<glyph unicode="&#xe0;" horiz-adv-x="595" d="M363 540h-88q-36 0 -71 52l-47 68h123zM54 50v173q0 19 14.5 34.5t34.5 15.5h198q38 0 48 -33h39v137h-149q-57 0 -75 -59h-98v158h48q21 0 35.5 -14.5t14.5 -36.5v-20h2l45 71h237q20 0 35.5 -15t15.5 -36v-325h62v-100h-112q-20 0 -35 13t-15 31v24h-2l-43 -68h-251 q-20 0 -34.5 15.5t-14.5 34.5zM165 100h152q29 0 50 17.5t21 44.5v14h-223v-76z" />
<glyph unicode="&#xe1;" horiz-adv-x="595" d="M231 540l84 120h122l-66 -91q-21 -29 -55 -29h-85zM54 50v173q0 19 14.5 34.5t34.5 15.5h198q38 0 48 -33h39v137h-149q-57 0 -75 -59h-98v158h48q21 0 35.5 -14.5t14.5 -36.5v-20h2l45 71h237q20 0 35.5 -15t15.5 -36v-325h62v-100h-112q-20 0 -35 13t-15 31v24h-2 l-43 -68h-251q-20 0 -34.5 15.5t-14.5 34.5zM165 100h152q29 0 50 17.5t21 44.5v14h-223v-76z" />
<glyph unicode="&#xe2;" horiz-adv-x="595" d="M119 540l76 90q25 30 65 30h89l102 -120h-107l-59 69l-59 -69h-107zM54 50v173q0 19 14.5 34.5t34.5 15.5h198q38 0 48 -33h39v137h-149q-57 0 -75 -59h-98v158h48q21 0 35.5 -14.5t14.5 -36.5v-20h2l45 71h237q20 0 35.5 -15t15.5 -36v-325h62v-100h-112q-20 0 -35 13 t-15 31v24h-2l-43 -68h-251q-20 0 -34.5 15.5t-14.5 34.5zM165 100h152q29 0 50 17.5t21 44.5v14h-223v-76z" />
<glyph unicode="&#xe3;" horiz-adv-x="595" d="M114 554q0 47 30.5 82t78.5 35q37 0 74.5 -25.5t54.5 -25.5q14 0 28 12t15 28h76q-4 -51 -34.5 -84t-76.5 -33q-34 0 -73 25.5t-54 25.5q-14 0 -27.5 -11.5t-15.5 -28.5h-76zM54 50v173q0 19 14.5 34.5t34.5 15.5h198q38 0 48 -33h39v137h-149q-57 0 -75 -59h-98v158h48 q21 0 35.5 -14.5t14.5 -36.5v-20h2l45 71h237q20 0 35.5 -15t15.5 -36v-325h62v-100h-112q-20 0 -35 13t-15 31v24h-2l-43 -68h-251q-20 0 -34.5 15.5t-14.5 34.5zM165 100h152q29 0 50 17.5t21 44.5v14h-223v-76z" />
<glyph unicode="&#xe4;" horiz-adv-x="595" d="M344 548v113h111v-113h-111zM121 548v113h112v-113h-112zM54 50v173q0 19 14.5 34.5t34.5 15.5h198q38 0 48 -33h39v137h-149q-57 0 -75 -59h-98v158h48q21 0 35.5 -14.5t14.5 -36.5v-20h2l45 71h237q20 0 35.5 -15t15.5 -36v-325h62v-100h-112q-20 0 -35 13t-15 31v24 h-2l-43 -68h-251q-20 0 -34.5 15.5t-14.5 34.5zM165 100h152q29 0 50 17.5t21 44.5v14h-223v-76z" />
<glyph unicode="&#xe5;" horiz-adv-x="595" d="M301 515q-37 0 -62.5 25t-25.5 60q0 34 25.5 59t62.5 25q36 0 61.5 -25t25.5 -59q0 -35 -25.5 -60t-61.5 -25zM301 573q11 0 18.5 7.5t7.5 19.5q0 11 -7.5 19t-18.5 8q-13 0 -20.5 -7.5t-7.5 -19.5q0 -27 28 -27zM54 50v173q0 19 14.5 34.5t34.5 15.5h198q38 0 48 -33h39 v137h-149q-57 0 -75 -59h-98v158h48q21 0 35.5 -14.5t14.5 -36.5v-20h2l45 71h237q20 0 35.5 -15t15.5 -36v-325h62v-100h-112q-20 0 -35 13t-15 31v24h-2l-43 -68h-251q-20 0 -34.5 15.5t-14.5 34.5zM165 100h152q29 0 50 17.5t21 44.5v14h-223v-76z" />
<glyph unicode="&#xe6;" horiz-adv-x="860" d="M53 50v176q0 19 14.5 34t34.5 15h280v102h-142q-55 0 -74 -58h-99v157h49q21 0 34.5 -14.5t13.5 -35.5v-21h2l47 71h541q21 0 36 -15t15 -36v-200q0 -21 -15 -35t-36 -14h-189q-30 0 -33 29h-38v-107h302v-98h-354q-20 0 -35 13t-15 31v25h-2l-44 -69h-244q-21 0 -35 14 t-14 36zM494 275h199v102h-199v-102zM164 98h145q35 0 54 16.5t19 44.5v17h-218v-78z" />
<glyph unicode="&#xe7;" horiz-adv-x="554" d="M68 50v375q0 22 14.5 36.5t36.5 14.5h234l43 -71h2v20q0 22 15 36.5t36 14.5h49v-161h-101q-8 27 -29 44.5t-44 17.5h-145v-277h211v55h108v-105q0 -21 -14.5 -35.5t-35.5 -14.5h-134l-9 -35q26 -5 43 -22.5t17 -44.5q0 -37 -26.5 -58t-62.5 -21q-45 0 -81 27l18 55 q28 -16 49 -16q23 0 23 16q0 11 -16 19.5t-47 9.5l19 70h-122q-22 0 -36.5 14t-14.5 36z" />
<glyph unicode="&#xe8;" horiz-adv-x="564" d="M363 540h-88q-22 0 -38 13t-33 39l-47 68h123zM67 50v375q0 21 15.5 36t35.5 15h342q22 0 36 -14.5t14 -36.5v-196q0 -22 -14 -36t-36 -14h-194q-41 0 -48 35h-40v-114h320v-100h-380q-20 0 -35.5 14.5t-15.5 35.5zM178 278h221v99h-221v-99z" />
<glyph unicode="&#xe9;" horiz-adv-x="564" d="M213 540l85 120h121l-65 -91q-21 -29 -55 -29h-86zM67 50v375q0 21 15.5 36t35.5 15h342q22 0 36 -14.5t14 -36.5v-196q0 -22 -14 -36t-36 -14h-194q-41 0 -48 35h-40v-114h320v-100h-380q-20 0 -35.5 14.5t-15.5 35.5zM178 278h221v99h-221v-99z" />
<glyph unicode="&#xea;" horiz-adv-x="564" d="M122 540l76 90q25 30 65 30h89l101 -120h-106l-59 69l-59 -69h-107zM67 50v375q0 21 15.5 36t35.5 15h342q22 0 36 -14.5t14 -36.5v-196q0 -22 -14 -36t-36 -14h-194q-41 0 -48 35h-40v-114h320v-100h-380q-20 0 -35.5 14.5t-15.5 35.5zM178 278h221v99h-221v-99z" />
<glyph unicode="&#xeb;" horiz-adv-x="564" d="M342 548v113h111v-113h-111zM120 548v113h111v-113h-111zM67 50v375q0 21 15.5 36t35.5 15h342q22 0 36 -14.5t14 -36.5v-196q0 -22 -14 -36t-36 -14h-194q-41 0 -48 35h-40v-114h320v-100h-380q-20 0 -35.5 14.5t-15.5 35.5zM178 278h221v99h-221v-99z" />
<glyph unicode="&#xec;" horiz-adv-x="315" d="M246 540h-88q-22 0 -38 13t-33 39l-47 68h123zM49 0v73q60 20 60 73v231h-60v99h121q21 0 36 -14.5t15 -35.5v-249q0 -37 -39 -47v-30h99v-100h-232z" />
<glyph unicode="&#xed;" horiz-adv-x="315" d="M62 540l85 120h121l-65 -91q-21 -29 -55 -29h-86zM49 0v73q60 20 60 73v231h-60v99h121q21 0 36 -14.5t15 -35.5v-249q0 -37 -39 -47v-30h99v-100h-232z" />
<glyph unicode="&#xee;" horiz-adv-x="314" d="M-12 540l76 90q25 30 65 30h90l101 -120h-107l-59 69l-59 -69h-107zM49 0v73q60 20 60 73v231h-60v99h121q20 0 35 -14.5t15 -35.5v-249q0 -37 -39 -47v-30h100v-100h-232z" />
<glyph unicode="&#xef;" horiz-adv-x="315" d="M202 548v113h112v-113h-112zM-20 548v113h111v-113h-111zM49 0v73q60 20 60 73v231h-60v99h121q21 0 36 -14.5t15 -35.5v-249q0 -37 -39 -47v-30h99v-100h-232z" />
<glyph unicode="&#xf1;" horiz-adv-x="656" d="M149 554q0 46 30 81.5t78 35.5q37 0 75 -25.5t55 -25.5q14 0 27.5 11.5t14.5 28.5h76q-4 -51 -34 -84t-76 -33q-34 0 -73 25.5t-54 25.5t-28 -11.5t-15 -28.5h-76zM48 0v73q28 7 45 27t17 46v231h-62v99h113q25 0 38.5 -16t13.5 -34v-24h2l45 74h246q21 0 37 -15t16 -36 v-325h62v-100h-123q-21 0 -35.5 14.5t-14.5 35.5v327h-152q-32 0 -53.5 -20.5t-21.5 -51.5v-126q0 -37 -37 -46v-33h100v-100h-236z" />
<glyph unicode="&#xf2;" horiz-adv-x="579" d="M371 540h-88q-36 0 -72 52l-46 68h122zM67 50v375q0 21 15.5 36t36.5 15h341q22 0 36.5 -14.5t14.5 -36.5v-375q0 -22 -14.5 -36t-36.5 -14h-341q-21 0 -36.5 14.5t-15.5 35.5zM178 100h222v277h-222v-277z" />
<glyph unicode="&#xf3;" horiz-adv-x="579" d="M214 540l85 120h121l-65 -91q-21 -29 -55 -29h-86zM67 50v375q0 21 15.5 36t36.5 15h341q22 0 36.5 -14.5t14.5 -36.5v-375q0 -22 -14.5 -36t-36.5 -14h-341q-21 0 -36.5 14.5t-15.5 35.5zM178 100h222v277h-222v-277z" />
<glyph unicode="&#xf4;" horiz-adv-x="579" d="M120 540l76 90q27 30 66 30h89l101 -120h-107l-59 69l-58 -69h-108zM67 50v375q0 21 15.5 36t36.5 15h341q22 0 36.5 -14.5t14.5 -36.5v-375q0 -22 -14.5 -36t-36.5 -14h-341q-21 0 -36.5 14.5t-15.5 35.5zM178 100h222v277h-222v-277z" />
<glyph unicode="&#xf5;" horiz-adv-x="579" d="M113 554q0 47 30.5 82t78.5 35q37 0 74.5 -25.5t54.5 -25.5q14 0 28 12t15 28h76q-4 -51 -34.5 -84t-76.5 -33q-34 0 -72.5 25.5t-53.5 25.5t-28.5 -11.5t-15.5 -28.5h-76zM67 50v375q0 21 15.5 36t36.5 15h341q22 0 36.5 -14.5t14.5 -36.5v-375q0 -22 -14.5 -36 t-36.5 -14h-341q-21 0 -36.5 14.5t-15.5 35.5zM178 100h222v277h-222v-277z" />
<glyph unicode="&#xf6;" horiz-adv-x="579" d="M346 548v113h111v-113h-111zM124 548v113h111v-113h-111zM67 50v375q0 21 15.5 36t36.5 15h341q22 0 36.5 -14.5t14.5 -36.5v-375q0 -22 -14.5 -36t-36.5 -14h-341q-21 0 -36.5 14.5t-15.5 35.5zM178 100h222v277h-222v-277z" />
<glyph unicode="&#xf7;" horiz-adv-x="611" d="M251 0v108h107v-108h-107zM29 240v97h553v-97h-553zM251 456v107h107v-107h-107z" />
<glyph unicode="&#xf8;" horiz-adv-x="579" d="M45 -53l46 66q-24 8 -24 37v375q0 21 16 36t37 15h290l43 54h85l-49 -68q22 -11 22 -37v-375q0 -22 -14.5 -36t-35.5 -14h-292l-41 -53h-83zM178 138l162 239h-162v-239zM240 100h160v236z" />
<glyph unicode="&#xf9;" horiz-adv-x="648" d="M373 540h-88q-22 0 -38 13t-33 39l-47 68h123zM97 50v327h-62v99h123q19 0 34.5 -15t15.5 -36v-325h157q31 0 52.5 19.5t21.5 48.5v209h-62v99h173v-376h63v-100h-113q-21 0 -35 13t-14 32v24h-2l-43 -69h-257q-23 0 -37.5 14t-14.5 36z" />
<glyph unicode="&#xfa;" horiz-adv-x="648" d="M232 540l84 120h122l-66 -91q-21 -29 -55 -29h-85zM97 50v327h-62v99h123q19 0 34.5 -15t15.5 -36v-325h157q31 0 52.5 19.5t21.5 48.5v209h-62v99h173v-376h63v-100h-113q-21 0 -35 13t-14 32v24h-2l-43 -69h-257q-23 0 -37.5 14t-14.5 36z" />
<glyph unicode="&#xfb;" horiz-adv-x="648" d="M135 540l76 90q25 30 65 30h89l101 -120h-106l-59 69l-59 -69h-107zM97 50v327h-62v99h123q19 0 34.5 -15t15.5 -36v-325h157q31 0 52.5 19.5t21.5 48.5v209h-62v99h173v-376h63v-100h-113q-21 0 -35 13t-14 32v24h-2l-43 -69h-257q-23 0 -37.5 14t-14.5 36z" />
<glyph unicode="&#xfc;" horiz-adv-x="648" d="M367 548v113h111v-113h-111zM145 548v113h111v-113h-111zM97 50v327h-62v99h123q19 0 34.5 -15t15.5 -36v-325h157q31 0 52.5 19.5t21.5 48.5v209h-62v99h173v-376h63v-100h-113q-21 0 -35 13t-14 32v24h-2l-43 -69h-257q-23 0 -37.5 14t-14.5 36z" />
<glyph unicode="&#xfd;" horiz-adv-x="568" d="M203 540l85 120h121l-65 -91q-21 -29 -55 -29h-86zM124 -103h87l39 103q-40 0 -53 35l-124 342h-56v99h134l114 -322l18 -57h2q6 24 18 57l104 283q15 39 54 39h90v-99h-56l-191 -523q-19 -56 -66 -56h-114v99z" />
<glyph unicode="&#xff;" horiz-adv-x="568" d="M338 548v113h111v-113h-111zM116 548v113h111v-113h-111zM124 -103h87l39 103q-40 0 -53 35l-124 342h-56v99h134l114 -322l18 -57h2q6 24 18 57l104 283q15 39 54 39h90v-99h-56l-191 -523q-19 -56 -66 -56h-114v99z" />
<glyph unicode="&#x100;" horiz-adv-x="682" d="M176 712v79h297v-79h-297zM14 0v100h55l172 460h-51v100h187q41 0 55 -37l190 -523h55v-100h-137l-55 155h-282l-44 -118q-13 -37 -56 -37h-89zM238 259h213l-93 248l-12 37h-2q-6 -18 -13 -37z" />
<glyph unicode="&#x101;" horiz-adv-x="595" d="M146 563v78h298v-78h-298zM54 50v173q0 19 14.5 34.5t34.5 15.5h198q38 0 48 -33h39v137h-149q-57 0 -75 -59h-98v158h48q21 0 35.5 -14.5t14.5 -36.5v-20h2l45 71h237q20 0 35.5 -15t15.5 -36v-325h62v-100h-112q-20 0 -35 13t-15 31v24h-2l-43 -68h-251 q-20 0 -34.5 15.5t-14.5 34.5zM165 100h152q29 0 50 17.5t21 44.5v14h-223v-76z" />
<glyph unicode="&#x102;" horiz-adv-x="682" d="M338 700q-64 0 -104.5 33.5t-42.5 84.5h95q1 -20 16 -32t36 -12t37 12t17 32h93q-2 -52 -42.5 -85t-104.5 -33zM14 0v100h55l172 460h-51v100h187q41 0 55 -37l190 -523h55v-100h-137l-55 155h-282l-44 -118q-13 -37 -56 -37h-89zM238 259h213l-93 248l-12 37h-2 q-6 -18 -13 -37z" />
<glyph unicode="&#x103;" horiz-adv-x="595" d="M305 533q-64 0 -104.5 34.5t-41.5 92.5h94q1 -23 16.5 -34t35.5 -11q21 0 37 11t17 34h94q-1 -58 -42 -92.5t-106 -34.5zM54 50v173q0 19 14.5 34.5t34.5 15.5h198q38 0 48 -33h39v137h-149q-57 0 -75 -59h-98v158h48q21 0 35.5 -14.5t14.5 -36.5v-20h2l45 71h237 q20 0 35.5 -15t15.5 -36v-325h62v-100h-112q-20 0 -35 13t-15 31v24h-2l-43 -68h-251q-20 0 -34.5 15.5t-14.5 34.5zM165 100h152q29 0 50 17.5t21 44.5v14h-223v-76z" />
<glyph unicode="&#x104;" horiz-adv-x="682" d="M14 0v100h55l172 460h-51v100h187q41 0 55 -37l190 -523h55v-100q-48 -38 -65 -58t-17 -35q0 -22 29 -22q9 0 19.5 2.5t16.5 4.5l6 3l19 -54q-38 -24 -88 -24q-38 0 -63.5 20t-25.5 57q0 58 77 106h-45l-55 155h-282l-44 -118q-13 -37 -56 -37h-89zM238 259h213l-93 248 l-12 37h-2q-6 -18 -13 -37z" />
<glyph unicode="&#x105;" horiz-adv-x="595" d="M54 50v173q0 19 14.5 34.5t34.5 15.5h198q38 0 48 -33h39v137h-149q-57 0 -75 -59h-98v158h48q21 0 35.5 -14.5t14.5 -36.5v-20h2l45 71h237q20 0 35.5 -15t15.5 -36v-325h62v-100q-48 -39 -65 -58.5t-17 -34.5q0 -22 32 -22q9 0 19 2.5t15 4.5l5 3l19 -54 q-37 -24 -88 -24q-38 0 -63.5 20t-25.5 57q0 58 77 106h-20q-20 0 -35 13t-15 31v24h-2l-43 -68h-251q-20 0 -34.5 15.5t-14.5 34.5zM165 100h152q29 0 50 17.5t21 44.5v14h-223v-76z" />
<glyph unicode="&#x106;" horiz-adv-x="664" d="M252 703l84 110h122l-66 -83q-23 -27 -55 -27h-85zM81 52v556q0 21 14.5 36.5t35.5 15.5h321l42 -66h2v17q0 19 15 34t36 15h59v-157h-111q-8 25 -28 41t-41 16h-234v-460h303v55h111v-103q0 -22 -15.5 -37t-36.5 -15h-423q-21 0 -35.5 15t-14.5 37z" />
<glyph unicode="&#x107;" horiz-adv-x="554" d="M203 540l84 120h122l-65 -91q-21 -29 -55 -29h-86zM68 50v375q0 22 14.5 36.5t36.5 14.5h234l43 -71h2v20q0 21 15 36t36 15h49v-161h-101q-8 27 -29 44.5t-44 17.5h-145v-277h211v55h108v-105q0 -22 -14.5 -36t-35.5 -14h-329q-22 0 -36.5 14t-14.5 36z" />
<glyph unicode="&#x10c;" horiz-adv-x="664" d="M290 703l-103 110h108l57 -63l60 63h107l-78 -83q-25 -27 -55 -27h-96zM81 52v556q0 21 14.5 36.5t35.5 15.5h321l42 -66h2v17q0 19 15 34t36 15h59v-157h-111q-8 25 -28 41t-41 16h-234v-460h303v55h111v-103q0 -22 -15.5 -37t-36.5 -15h-423q-21 0 -35.5 15t-14.5 37z " />
<glyph unicode="&#x10d;" horiz-adv-x="554" d="M231 540l-104 120h108l57 -70l60 70h107l-78 -91q-24 -29 -54 -29h-96zM68 50v375q0 22 14.5 36.5t36.5 14.5h234l43 -71h2v20q0 21 15 36t36 15h49v-161h-101q-18 62 -67 62h-151v-277h211v55h108v-105q0 -22 -14.5 -36t-35.5 -14h-329q-22 0 -36.5 14t-14.5 36z" />
<glyph unicode="&#x10e;" horiz-adv-x="731" d="M318 703l-103 110h108l57 -63l60 63h107l-78 -83q-25 -27 -55 -27h-96zM54 0v78q57 14 57 66v416h-57v100h112q20 0 35 -15t15 -33v-20h2l44 68h340q22 0 37.5 -15.5t15.5 -36.5v-434q0 -31 -25 -57l-107 -117h-469zM222 100h256q26 0 46 19t20 44v397h-254 q-28 0 -48 -19t-20 -49v-392z" />
<glyph unicode="&#x10f;" horiz-adv-x="632" d="M557 540l41 149h100l-35 -99q-19 -50 -61 -50h-45zM68 50v375q0 22 14 36.5t34 14.5h214q47 0 54 -36h40v150h-61v99h121q20 0 35.5 -15.5t15.5 -33.5v-540h62v-100h-113q-25 0 -38 12.5t-13 32.5v24h-2l-44 -69h-271q-20 0 -34 14t-14 36zM179 100h170q31 0 53 20t22 48 v209h-245v-277z" />
<glyph unicode="&#x110;" horiz-adv-x="733" d="M53 0v78q26 6 42 23.5t16 42.5v130h-58v102h58v184h-58v100h113q20 0 35.5 -14t15.5 -34v-16h2l40 64h342q24 0 40 -16t16 -40v-430q0 -29 -25 -57l-107 -117h-472zM222 100h256q26 0 46.5 19t20.5 44v397h-255q-28 0 -48 -18t-20 -45v-121h102v-102h-102v-174z" />
<glyph unicode="&#x111;" horiz-adv-x="635" d="M68 50v375q0 21 14 36t34 15h216q47 0 54 -36h41v84h-99v96h99v69h111v-69h62v-96h-62v-424h62v-100h-115q-49 0 -49 47v23h-2l-43 -70h-275q-20 0 -34 14t-14 36zM179 100h173q31 0 53 20.5t22 48.5v207h-248v-276z" />
<glyph unicode="&#x112;" horiz-adv-x="643" d="M170 712v79h297v-79h-297zM54 0v78q24 3 40.5 21.5t16.5 44.5v416h-57v100h381l40 -66h2v17q0 19 15.5 34t35.5 15h58v-157h-111q-8 25 -29.5 41t-45.5 16h-178v-182h215v-100h-215v-178h253v55h111v-103q0 -22 -14.5 -37t-36.5 -15h-481z" />
<glyph unicode="&#x113;" horiz-adv-x="564" d="M141 563v78h297v-78h-297zM67 50v375q0 21 15.5 36t35.5 15h342q22 0 36 -14.5t14 -36.5v-196q0 -22 -14 -36t-36 -14h-194q-41 0 -48 35h-40v-114h320v-100h-380q-20 0 -35.5 14.5t-15.5 35.5zM178 278h221v99h-221v-99z" />
<glyph unicode="&#x116;" horiz-adv-x="643" d="M266 707v121h111v-121h-111zM54 0v78q24 3 40.5 21.5t16.5 44.5v416h-57v100h381l40 -66h2v17q0 19 15.5 34t35.5 15h58v-157h-111q-8 25 -29.5 41t-45.5 16h-178v-182h215v-100h-215v-178h253v55h111v-103q0 -22 -14.5 -37t-36.5 -15h-481z" />
<glyph unicode="&#x117;" horiz-adv-x="564" d="M231 548v112h111v-112h-111zM67 50v375q0 21 15.5 36t35.5 15h342q22 0 36 -14.5t14 -36.5v-196q0 -22 -14 -36t-36 -14h-194q-41 0 -48 35h-40v-114h320v-100h-380q-20 0 -35.5 14.5t-15.5 35.5zM178 278h221v99h-221v-99z" />
<glyph unicode="&#x118;" horiz-adv-x="643" d="M54 0v78q25 3 41 19.5t16 41.5v421h-57v100h381l40 -66h2v17q0 19 15 34t36 15h58v-157h-111q-8 25 -29.5 41t-45.5 16h-178v-182h215v-100h-215v-178h253v55h111v-89q0 -34 -45 -66q-81 -56 -81 -93q0 -22 29 -22q9 0 19.5 2.5t16.5 4.5l6 3l19 -54q-38 -24 -88 -24 q-38 0 -63.5 20t-25.5 57q0 58 77 106h-396z" />
<glyph unicode="&#x119;" horiz-adv-x="564" d="M67 50v375q0 21 15.5 36t35.5 15h342q22 0 36 -14.5t14 -36.5v-196q0 -22 -14 -36t-36 -14h-194q-41 0 -48 35h-40v-114h320v-100q-47 -39 -64 -58.5t-17 -34.5q0 -22 31 -22q9 0 19 2.5t15 4.5l5 3l19 -54q-37 -24 -87 -24q-39 0 -64.5 20t-25.5 57q0 58 78 106h-289 q-20 0 -35.5 14.5t-15.5 35.5zM178 278h221v99h-221v-99z" />
<glyph unicode="&#x11a;" horiz-adv-x="643" d="M265 703l-103 110h108l57 -63l60 63h107l-78 -83q-25 -27 -55 -27h-96zM54 0v78q24 3 40.5 21.5t16.5 44.5v416h-57v100h381l40 -66h2v17q0 19 15.5 34t35.5 15h58v-157h-111q-8 25 -29.5 41t-45.5 16h-178v-182h215v-100h-215v-178h253v55h111v-103q0 -22 -14.5 -37 t-36.5 -15h-481z" />
<glyph unicode="&#x11b;" horiz-adv-x="564" d="M227 540l-104 120h108l57 -70l60 70h107l-78 -91q-24 -29 -54 -29h-96zM67 50v375q0 21 15.5 36t35.5 15h342q22 0 36 -14.5t14 -36.5v-196q0 -22 -14 -36t-36 -14h-194q-41 0 -48 35h-40v-114h320v-100h-380q-20 0 -35.5 14.5t-15.5 35.5zM178 278h221v99h-221v-99z" />
<glyph unicode="&#x11e;" horiz-adv-x="689" d="M352 700q-64 0 -104.5 33.5t-42.5 84.5h95q1 -20 16.5 -32t35.5 -12q21 0 37 12t17 32h93q-2 -52 -42.5 -85t-104.5 -33zM81 52v556q0 21 14 36.5t35 15.5h336l42 -66h3v18q0 19 15 33.5t37 14.5h58v-157h-111q-9 26 -28.5 41.5t-41.5 15.5h-248v-460h250q28 0 48 18.5 t20 43.5v81h-61v100h172v-343h-57q-24 0 -39 14t-15 34v16h-2l-40 -64h-338q-21 0 -35 15t-14 37z" />
<glyph unicode="&#x11f;" horiz-adv-x="604" d="M307 533q-65 0 -105.5 34.5t-41.5 92.5h95q1 -23 16.5 -34t35.5 -11q21 0 37 11t17 34h94q-1 -58 -42 -92.5t-106 -34.5zM68 90l74 53v2h-27q-20 0 -33.5 14t-13.5 37v229q0 21 15.5 36t35.5 15h235l46 -74h2v23q0 21 15.5 36t36.5 15h112v-99h-62v-182q0 -24 -14 -37 t-36 -13h-192q-29 0 -53 -13.5t-30 -33.5h330q19 0 33.5 -16t14.5 -36v-197q0 -19 -14.5 -35t-33.5 -16h-390q-20 0 -35.5 15.5t-15.5 35.5v241zM179 242h214v63q0 31 -21.5 51.5t-53.5 20.5h-139v-135zM179 34v-137h267v103h-182q-22 0 -32.5 7t-13.5 27h-39z" />
<glyph unicode="&#x122;" horiz-adv-x="690" d="M81 52v556q0 21 14 36.5t35 15.5h336l42 -66h3v18q0 19 15 33.5t37 14.5h59v-157h-112q-9 26 -28.5 41.5t-41.5 15.5h-248v-460h250q28 0 48 18.5t20 43.5v81h-61v100h173v-343h-58q-24 0 -39 14t-15 34v16h-2l-40 -64h-338q-21 0 -35 15t-14 37zM317 -42h100l-35 -98 q-19 -51 -61 -51h-45z" />
<glyph unicode="&#x123;" horiz-adv-x="604" d="M242 564l41 150h100l-35 -99q-19 -51 -62 -51h-44zM68 90l74 53v2h-27q-20 0 -33.5 14t-13.5 37v229q0 21 15.5 36t35.5 15h235l46 -74h2v23q0 21 15.5 36t36.5 15h112v-99h-62v-182q0 -24 -14 -37t-36 -13h-192q-29 0 -53 -13.5t-30 -33.5h330q19 0 33.5 -16t14.5 -36 v-197q0 -19 -14.5 -35t-33.5 -16h-390q-20 0 -35.5 15.5t-15.5 35.5v241zM179 242h214v63q0 31 -21.5 51.5t-53.5 20.5h-139v-135zM179 34v-137h267v103h-182q-22 0 -32.5 7t-13.5 27h-39z" />
<glyph unicode="&#x12a;" horiz-adv-x="337" d="M19 712v79h297v-79h-297zM55 0v77q57 16 57 67v416h-57v100h230v-80q-62 -10 -62 -64v-340q0 -38 -36 -48v-28h98v-100h-230z" />
<glyph unicode="&#x12b;" horiz-adv-x="314" d="M-4 563v78h297v-78h-297zM49 0v73q60 20 60 73v231h-60v99h120q21 0 36 -14.5t15 -35.5v-249q0 -37 -39 -47v-30h99v-100h-231z" />
<glyph unicode="&#x12e;" horiz-adv-x="337" d="M55 0v77q57 16 57 67v416h-57v100h230v-80q-62 -10 -62 -64v-340q0 -38 -36 -48v-28h98v-100q-48 -39 -65 -58.5t-17 -34.5q0 -9 8 -15.5t21 -6.5q9 0 19.5 2.5t16.5 4.5l6 3l19 -54q-37 -24 -88 -24q-38 0 -63.5 20t-25.5 57q0 58 77 106h-138z" />
<glyph unicode="&#x12f;" horiz-adv-x="315" d="M110 538v122h111v-122h-111zM48 0v73q28 7 45 27t17 46v231h-62v99h124q20 0 34.5 -14.5t14.5 -36.5v-246q0 -37 -37 -46v-33h99v-100q-47 -39 -64 -58.5t-17 -34.5q0 -22 31 -22q9 0 19 2.5t15 4.5l5 3l19 -54q-37 -24 -88 -24q-38 0 -63.5 20t-25.5 57q0 58 77 106 h-143z" />
<glyph unicode="&#x130;" horiz-adv-x="337" d="M111 706v121h112v-121h-112zM55 0v77q57 16 57 67v416h-57v100h230v-80q-62 -10 -62 -64v-340q0 -38 -36 -48v-28h98v-100h-230z" />
<glyph unicode="&#x131;" horiz-adv-x="315" d="M49 0v73q60 20 60 73v231h-60v99h121q21 0 36 -14.5t15 -35.5v-249q0 -37 -39 -47v-30h99v-100h-232z" />
<glyph unicode="&#x136;" horiz-adv-x="688" d="M54 0v78q26 6 41.5 23.5t15.5 42.5v416h-57v100h230v-80q-62 -12 -62 -65v-143h64l204 266q20 22 49 22h92v-100h-70l-170 -227l210 -233h62v-100h-89q-30 0 -47 20l-225 249h-80v-93q0 -39 -33 -48v-28h95v-100h-230zM308 -42h100l-35 -98q-17 -51 -61 -51h-45z" />
<glyph unicode="&#x137;" horiz-adv-x="578" d="M36 0v100h62v489h-61v100h123q20 0 34.5 -15t14.5 -34v-344h23l147 161q19 19 49 19h83v-99h-68l-115 -123l149 -154h65v-100h-86q-29 0 -48 18l-170 184h-29v-152q0 -22 -14 -36t-35 -14h-124zM249 -42h100l-35 -98q-17 -51 -61 -51h-45z" />
<glyph unicode="&#x139;" horiz-adv-x="569" d="M93 703l85 110h121l-65 -83q-21 -27 -55 -27h-86zM55 0v77q25 8 41 25.5t16 41.5v416h-57v100h228v-80q-60 -12 -60 -65v-415h221v55h110v-103q0 -23 -14 -37.5t-36 -14.5h-449z" />
<glyph unicode="&#x13a;" horiz-adv-x="303" d="M50 731l85 110h122l-66 -83q-23 -27 -55 -27h-86zM35 0v73q28 7 45 27t17 46v444h-62v99h124q20 0 34.5 -15t14.5 -34v-461q0 -16 -10 -29t-27 -17v-33h100v-100h-236z" />
<glyph unicode="&#x13b;" horiz-adv-x="569" d="M55 0v77q25 8 41 25.5t16 41.5v416h-57v100h228v-80q-60 -12 -60 -65v-415h221v55h110v-103q0 -23 -14 -37.5t-36 -14.5h-449zM269 -42h100l-35 -98q-19 -51 -62 -51h-44z" />
<glyph unicode="&#x13c;" horiz-adv-x="303" d="M35 0v73q28 7 45 27t17 46v444h-62v99h124q20 0 34.5 -15t14.5 -34v-461q0 -16 -10 -29t-27 -17v-33h100v-100h-236zM118 -42h100l-35 -98q-19 -51 -62 -51h-44z" />
<glyph unicode="&#x13d;" horiz-adv-x="570" d="M55 0v78q25 7 41 25t16 41v416h-57v100h229v-80q-60 -13 -60 -65v-415h219v57h111v-105q0 -23 -14.5 -37.5t-36.5 -14.5h-448zM325 499v161h110l-15 -110q-7 -51 -61 -51h-34z" />
<glyph unicode="&#x13e;" horiz-adv-x="304" d="M266 528v161h110l-15 -110q-7 -51 -61 -51h-34zM35 0v73q27 8 44.5 28t17.5 45v444h-62v99h124q20 0 34.5 -15t14.5 -34v-460q0 -16 -9.5 -29t-26.5 -17v-34h100v-100h-237z" />
<glyph unicode="&#x141;" horiz-adv-x="569" d="M54 0v78q25 7 41 25t16 41v61l-56 -39v118l56 39v237h-57v100h229v-80q-60 -13 -60 -65v-114l109 77v-118l-109 -77v-183h219v57h111v-105q0 -23 -14.5 -37.5t-36.5 -14.5h-448z" />
<glyph unicode="&#x142;" horiz-adv-x="303" d="M35 0v73q27 8 44.5 28t17.5 45v83l-62 -44v118l62 43v244h-62v99h124q20 0 34.5 -15t14.5 -34v-216l83 58v-117l-83 -58v-131q0 -16 -9.5 -28.5t-26.5 -13.5v-34h100v-100h-237z" />
<glyph unicode="&#x143;" horiz-adv-x="766" d="M288 703l84 110h122l-66 -83q-23 -27 -55 -27h-85zM54 0v78q25 5 42.5 23.5t17.5 42.5v416h-60v100h128q35 0 58 -36l273 -424l38 -66h2v426h-59v100h231v-80q-28 -5 -44.5 -22.5t-16.5 -42.5v-515h-149l-254 391q-9 14 -17.5 30t-12.5 25l-4 8h-2v-278q0 -39 -35 -48 v-28h96v-100h-232z" />
<glyph unicode="&#x144;" horiz-adv-x="656" d="M251 540l84 120h122l-66 -91q-21 -29 -54 -29h-86zM48 0v73q28 7 45 27t17 46v231h-62v99h113q25 0 38.5 -16t13.5 -34v-24h2l45 74h246q21 0 37 -15t16 -36v-325h62v-100h-123q-21 0 -35.5 14.5t-14.5 35.5v327h-152q-32 0 -53.5 -20.5t-21.5 -51.5v-126q0 -37 -37 -46 v-33h100v-100h-236z" />
<glyph unicode="&#x145;" horiz-adv-x="766" d="M54 0v78q25 5 42.5 23.5t17.5 42.5v416h-60v100h128q35 0 58 -36l273 -424l38 -66h2v426h-59v100h231v-80q-28 -5 -44.5 -22.5t-16.5 -42.5v-515h-149l-254 391q-9 14 -17.5 30t-12.5 25l-4 8h-2v-278q0 -39 -35 -48v-28h96v-100h-232zM346 -42h100l-35 -98 q-19 -51 -62 -51h-44z" />
<glyph unicode="&#x146;" horiz-adv-x="656" d="M48 0v73q28 7 45 27t17 46v231h-62v99h113q25 0 38.5 -16t13.5 -34v-24h2l45 74h246q21 0 37 -15t16 -36v-325h62v-100h-123q-21 0 -35.5 14.5t-14.5 35.5v327h-152q-32 0 -53.5 -20.5t-21.5 -51.5v-126q0 -37 -37 -46v-33h100v-100h-236zM301 -42h100l-35 -98 q-19 -51 -62 -51h-44z" />
<glyph unicode="&#x147;" horiz-adv-x="766" d="M54 0v78q25 5 42.5 23.5t17.5 42.5v416h-60v100h128q35 0 58 -36l273 -424l38 -66h2v426h-59v100h231v-80q-28 -5 -44.5 -22.5t-16.5 -42.5v-515h-149l-254 391q-9 14 -17.5 30t-12.5 25l-4 8h-2v-278q0 -39 -35 -48v-28h96v-100h-232zM326 703l-103 110h108l57 -63 l60 63h107l-78 -83q-25 -27 -55 -27h-96z" />
<glyph unicode="&#x148;" horiz-adv-x="656" d="M271 540l-103 120h108l57 -70l60 70h107l-78 -91q-24 -29 -55 -29h-96zM48 0v73q28 7 45 27t17 46v231h-62v99h113q25 0 38.5 -16t13.5 -34v-24h2l45 74h246q21 0 37 -15t16 -36v-325h62v-100h-123q-21 0 -35.5 14.5t-14.5 35.5v327h-152q-32 0 -53.5 -20.5t-21.5 -51.5 v-126q0 -37 -37 -46v-33h100v-100h-236z" />
<glyph unicode="&#x14c;" horiz-adv-x="710" d="M204 712v79h297v-79h-297zM81 52v556q0 21 14 36.5t35 15.5h447q20 0 36.5 -15.5t16.5 -36.5v-556q0 -22 -16.5 -37t-36.5 -15h-447q-21 0 -35 15t-14 37zM192 100h327v460h-327v-460z" />
<glyph unicode="&#x14d;" horiz-adv-x="579" d="M141 563v78h297v-78h-297zM67 50v375q0 21 15.5 36t36.5 15h341q22 0 36.5 -14.5t14.5 -36.5v-375q0 -22 -14.5 -36t-36.5 -14h-341q-21 0 -36.5 14.5t-15.5 35.5zM178 100h222v277h-222v-277z" />
<glyph unicode="&#x150;" horiz-adv-x="710" d="M387 703l72 110h103l-53 -82q-18 -28 -57 -28h-65zM184 703l73 110h104l-55 -82q-20 -28 -56 -28h-66zM81 52v556q0 21 14 36.5t35 15.5h447q20 0 36.5 -15.5t16.5 -36.5v-556q0 -22 -16.5 -37t-36.5 -15h-447q-21 0 -35 15t-14 37zM192 100h327v460h-327v-460z" />
<glyph unicode="&#x151;" horiz-adv-x="579" d="M324 540l72 120h102l-52 -90q-18 -30 -58 -30h-64zM121 540l73 120h104l-56 -90q-18 -30 -55 -30h-66zM67 50v375q0 21 15.5 36t36.5 15h341q22 0 36.5 -14.5t14.5 -36.5v-375q0 -22 -14.5 -36t-36.5 -14h-341q-21 0 -36.5 14.5t-15.5 35.5zM178 100h222v277h-222v-277z " />
<glyph unicode="&#x152;" horiz-adv-x="1052" d="M81 52v556q0 21 14.5 36.5t34.5 15.5h711l43 -66h2v18q0 18 15 33t35 15h59v-158h-110q-19 58 -75 58h-202v-189h236v-101h-236v-170h276v55h111v-103q0 -22 -15.5 -37t-35.5 -15h-814q-20 0 -34.5 15t-14.5 37zM192 100h304v460h-304v-460z" />
<glyph unicode="&#x153;" horiz-adv-x="866" d="M68 50v375q0 22 14.5 36.5t36.5 14.5h641q21 0 35.5 -14.5t14.5 -36.5v-202q0 -22 -14.5 -36t-35.5 -14h-176q-40 0 -45 35h-39v-108h303v-100h-684q-22 0 -36.5 14t-14.5 36zM500 272h199v105h-199v-105zM179 100h209v277h-209v-277z" />
<glyph unicode="&#x154;" horiz-adv-x="711" d="M280 703l85 110h121l-65 -83q-21 -27 -55 -27h-86zM55 0v77q25 7 41 26t16 41v416h-57v100h110q19 0 34.5 -15t15.5 -33v-20h2l43 68h308q20 0 35.5 -15.5t15.5 -36.5v-193q0 -31 -24 -57l-67 -73l102 -185h60v-100h-95q-40 0 -57 33l-117 214h-197v-67q0 -42 -36 -52 v-28h95v-100h-228zM224 346h215q29 0 49 20t20 49v145h-215q-29 0 -49 -18t-20 -48v-148z" />
<glyph unicode="&#x155;" horiz-adv-x="430" d="M137 540l85 120h122l-66 -91q-21 -29 -55 -29h-86zM48 0v73q29 8 45.5 27.5t16.5 45.5v231h-62v99h114q20 0 35 -15t15 -36v-23h2l47 74h151v-99h-116q-32 0 -53.5 -20.5t-21.5 -51.5v-126q0 -39 -37 -46v-33h98v-100h-234z" />
<glyph unicode="&#x156;" horiz-adv-x="711" d="M55 0v77q25 7 41 26t16 41v416h-57v100h110q19 0 34.5 -15t15.5 -33v-20h2l43 68h308q20 0 35.5 -15.5t15.5 -36.5v-193q0 -31 -24 -57l-67 -73l102 -185h60v-100h-95q-40 0 -57 33l-117 214h-197v-67q0 -42 -36 -52v-28h95v-100h-228zM224 346h215q29 0 49 20t20 49v145 h-215q-29 0 -49 -18t-20 -48v-148zM338 -42h100l-35 -98q-19 -51 -62 -51h-44z" />
<glyph unicode="&#x157;" horiz-adv-x="430" d="M48 0v73q29 8 45.5 27.5t16.5 45.5v231h-62v99h114q20 0 35 -15t15 -36v-23h2l47 74h151v-99h-116q-32 0 -53.5 -20.5t-21.5 -51.5v-126q0 -39 -37 -46v-33h98v-100h-234zM131 -42h100l-35 -98q-19 -51 -62 -51h-44z" />
<glyph unicode="&#x158;" horiz-adv-x="711" d="M293 703l-103 110h108l57 -63l60 63h107l-78 -83q-25 -27 -55 -27h-96zM55 0v77q25 7 41 26t16 41v416h-57v100h110q19 0 34.5 -15t15.5 -33v-20h2l43 68h308q20 0 35.5 -15.5t15.5 -36.5v-193q0 -31 -24 -57l-67 -73l102 -185h60v-100h-95q-40 0 -57 33l-117 214h-197 v-67q0 -42 -36 -52v-28h95v-100h-228zM224 346h215q29 0 49 20t20 49v145h-215q-29 0 -49 -18t-20 -48v-148z" />
<glyph unicode="&#x159;" horiz-adv-x="430" d="M166 540l-103 120h108l57 -70l60 70h107l-78 -91q-26 -29 -55 -29h-96zM48 0v73q29 8 45.5 27.5t16.5 45.5v231h-62v99h114q20 0 35 -15t15 -36v-23h2l47 74h151v-99h-116q-32 0 -53.5 -20.5t-21.5 -51.5v-126q0 -39 -37 -46v-33h98v-100h-234z" />
<glyph unicode="&#x15a;" horiz-adv-x="604" d="M201 703l85 110h121l-65 -83q-21 -27 -55 -27h-86zM60 50v105h111v-55h264v81l-340 222q-35 30 -35 70v135q0 22 13.5 37t36.5 15h273l42 -66h2v17q0 19 15 34t38 15h57v-157h-112q-8 25 -28 41t-42 16h-184v-78l331 -218q16 -13 23.5 -20.5t14 -22t6.5 -32.5v-137 q0 -21 -16 -36.5t-38 -15.5h-382q-19 0 -34.5 15t-15.5 35z" />
<glyph unicode="&#x15b;" horiz-adv-x="529" d="M167 540l84 120h122l-66 -91q-21 -29 -54 -29h-86zM56 50v105h111v-55h197v41l-274 122q-34 19 -34 56v107q0 23 15 36.5t34 13.5h215l45 -71h2v20q0 24 14.5 37.5t37.5 13.5h49v-162h-100q-5 28 -27 45.5t-46 17.5h-128v-39l271 -122q37 -20 37 -59v-107q0 -22 -14 -36 t-36 -14h-320q-22 0 -35.5 14.5t-13.5 35.5z" />
<glyph unicode="&#x15e;" d="M60 51v104h111v-55h264v81l-340 222q-35 30 -35 70v135q0 22 13.5 37t36.5 15h273l42 -66h2v17q0 18 15 33.5t38 15.5h57v-157h-112q-8 25 -28 41t-42 16h-184v-78l331 -218q26 -22 35 -38t9 -56v-117q0 -22 -16 -37.5t-38 -15.5h-154l-11 -45q26 -5 43 -22.5t17 -44.5 q0 -37 -26.5 -58.5t-63.5 -21.5q-45 0 -80 28l18 55q29 -17 49 -17q23 0 23 17q0 11 -16.5 20t-47.5 9l23 80h-154q-21 0 -36.5 14t-15.5 37z" />
<glyph unicode="&#x15f;" horiz-adv-x="528" d="M56 50v105h111v-55h197v41l-262 116q-26 15 -36 30t-10 48v91q0 23 15 36.5t34 13.5h215l45 -71h2v20q0 24 14.5 37.5t37.5 13.5h49v-162h-100q-5 28 -27 45.5t-46 17.5h-128v-39l271 -122q37 -20 37 -74v-92q0 -22 -14 -36t-36 -14h-125l-8 -35q26 -5 43 -22.5t17 -44.5 q0 -37 -26.5 -58t-63.5 -21q-46 0 -80 27l18 55q27 -16 49 -16t22 16q0 11 -16 19.5t-47 9.5l19 70h-122q-22 0 -35.5 14.5t-13.5 35.5z" />
<glyph unicode="&#x160;" horiz-adv-x="604" d="M240 703l-103 110h107l58 -63l60 63h106l-77 -83q-25 -27 -55 -27h-96zM60 50v105h111v-55h264v81l-340 222q-35 30 -35 70v135q0 22 13.5 37t36.5 15h273l42 -66h2v17q0 19 15 34t38 15h57v-157h-112q-8 25 -28 41t-42 16h-184v-78l331 -218q16 -13 23.5 -20.5t14 -22 t6.5 -32.5v-137q0 -21 -16 -36.5t-38 -15.5h-382q-19 0 -34.5 15t-15.5 35z" />
<glyph unicode="&#x161;" horiz-adv-x="529" d="M204 540l-104 120h108l57 -70l60 70h107l-78 -91q-24 -29 -54 -29h-96zM56 50v105h111v-55h197v41l-274 122q-34 19 -34 56v107q0 23 15 36.5t34 13.5h215l45 -71h2v20q0 24 14.5 37.5t37.5 13.5h49v-162h-100q-5 28 -27 45.5t-46 17.5h-128v-39l271 -122q37 -20 37 -59 v-107q0 -22 -14 -36t-36 -14h-320q-22 0 -35.5 14.5t-13.5 35.5z" />
<glyph unicode="&#x162;" horiz-adv-x="577" d="M169 0v78q27 6 45.5 25t18.5 41v416h-223v100h557v-100h-223v-383q0 -41 -38 -49v-28h100v-100h-81l-12 -45q27 -5 44 -22.5t17 -44.5q0 -37 -26.5 -58.5t-63.5 -21.5q-45 0 -80 28l17 55q30 -17 50 -17q22 0 22 17q0 10 -16 18.5t-47 10.5l22 80h-83z" />
<glyph unicode="&#x163;" horiz-adv-x="417" d="M95 50v279q0 26 -17 46t-44 26v75h61v110h111v-110h174v-99h-211v-34q37 -11 37 -56v-187h174v-100h-120l-9 -35q26 -5 43 -22.5t17 -44.5q0 -37 -26.5 -58t-63.5 -21q-44 0 -80 27l18 55q27 -16 49 -16q23 0 23 16q0 11 -16.5 19.5t-47.5 9.5l20 70h-43q-19 0 -34 14.5 t-15 35.5z" />
<glyph unicode="&#x164;" horiz-adv-x="577" d="M231 703l-103 110h108l57 -63l60 63h107l-78 -83q-25 -27 -55 -27h-96zM169 0v78q27 6 45.5 25t18.5 41v416h-223v100h557v-100h-223v-383q0 -41 -38 -49v-28h100v-100h-237z" />
<glyph unicode="&#x165;" horiz-adv-x="418" d="M290 528v161h110l-15 -110q-7 -51 -62 -51h-33zM95 50v278q0 24 -17.5 45t-43.5 28v75h61v112h111v-112h176v-100h-212v-33q36 -13 36 -58v-185h176v-100h-237q-19 0 -34.5 15t-15.5 35z" />
<glyph unicode="&#x16a;" horiz-adv-x="731" d="M213 712v79h297v-79h-297zM94 146v414h-57v100h168v-497q0 -26 20 -44.5t47 -18.5h184q28 0 49 19t21 44v445q0 21 14 36.5t35 15.5h119v-100h-57v-386q0 -29 -24 -57l-106 -117h-244q-40 0 -63 26z" />
<glyph unicode="&#x16b;" horiz-adv-x="648" d="M177 563v78h297v-78h-297zM97 50v327h-62v99h123q19 0 34.5 -15t15.5 -36v-325h157q31 0 52.5 19.5t21.5 48.5v209h-62v99h173v-376h63v-100h-113q-21 0 -35 13t-14 32v24h-2l-43 -69h-257q-23 0 -37.5 14t-14.5 36z" />
<glyph unicode="&#x16e;" horiz-adv-x="731" d="M368 696q-36 0 -61 25t-25 60q0 34 25 59t61 25t61.5 -25t25.5 -59q0 -35 -25 -60t-62 -25zM368 754q12 0 19.5 7.5t7.5 19.5q0 11 -7.5 19t-19.5 8t-19.5 -7.5t-7.5 -19.5q0 -27 27 -27zM94 146v414h-57v100h168v-497q0 -26 20 -44.5t47 -18.5h184q28 0 49 19t21 44v445 q0 21 14 36.5t35 15.5h119v-100h-57v-386q0 -29 -24 -57l-106 -117h-244q-40 0 -63 26z" />
<glyph unicode="&#x16f;" horiz-adv-x="648" d="M326 515q-37 0 -62 24.5t-25 60.5q0 34 25 59t62 25q36 0 61.5 -25t25.5 -59q0 -35 -25 -60t-62 -25zM326 573q11 0 19 7.5t8 19.5q0 11 -8 19t-19 8q-12 0 -19.5 -7.5t-7.5 -19.5q0 -27 27 -27zM97 50v327h-62v99h123q19 0 34.5 -15t15.5 -36v-325h157q31 0 52.5 19.5 t21.5 48.5v209h-62v99h173v-376h63v-100h-113q-21 0 -35 13t-14 32v24h-2l-43 -69h-257q-23 0 -37.5 14t-14.5 36z" />
<glyph unicode="&#x170;" horiz-adv-x="731" d="M406 703l72 110h103l-53 -82q-18 -28 -57 -28h-65zM203 703l73 110h104l-55 -82q-20 -28 -56 -28h-66zM94 146v414h-57v100h168v-497q0 -26 20 -44.5t47 -18.5h184q28 0 49 19t21 44v445q0 21 14 36.5t35 15.5h119v-100h-57v-386q0 -29 -24 -57l-106 -117h-244 q-40 0 -63 26z" />
<glyph unicode="&#x171;" horiz-adv-x="648" d="M341 540l72 120h103l-52 -90q-18 -30 -58 -30h-65zM138 540l73 120h104l-55 -90q-19 -30 -55 -30h-67zM97 50v327h-62v99h123q19 0 34.5 -15t15.5 -36v-325h157q31 0 52.5 19.5t21.5 48.5v209h-62v99h173v-376h63v-100h-113q-21 0 -35 13t-14 32v24h-2l-43 -69h-257 q-23 0 -37.5 14t-14.5 36z" />
<glyph unicode="&#x172;" horiz-adv-x="731" d="M94 146v414h-57v100h168v-497q0 -26 20 -44.5t47 -18.5h184q28 0 49 19t21 44v445q0 21 14 36.5t35 15.5h119v-100h-57v-386q0 -32 -24 -57q-123 -123 -155 -159t-32 -51q0 -22 29 -22q9 0 19 2.5t16 4.5l6 3l19 -54q-37 -24 -87 -24q-39 0 -64.5 20t-25.5 57 q0 58 78 106h-153q-40 0 -63 26z" />
<glyph unicode="&#x173;" horiz-adv-x="648" d="M97 50v327h-62v99h123q19 0 34.5 -15t15.5 -36v-325h157q31 0 52.5 19.5t21.5 48.5v209h-62v99h173v-376h63v-100q-48 -39 -65 -58.5t-17 -34.5q0 -22 32 -22q9 0 19 2.5t15 4.5l5 3l19 -54q-37 -24 -88 -24q-38 0 -63.5 20t-25.5 57q0 58 77 106h-21q-21 0 -35 13 t-14 32v24h-2l-43 -69h-257q-23 0 -37.5 14t-14.5 36z" />
<glyph unicode="&#x178;" horiz-adv-x="638" d="M373 716v113h112v-113h-112zM151 716v113h111v-113h-111zM204 0v78q25 5 43 23.5t18 42.5v100l-201 316h-56v100h117l196 -302l168 265q24 37 65 37h79v-100h-61l-196 -316v-68q0 -38 -38 -48v-28h97v-100h-231z" />
<glyph unicode="&#x179;" horiz-adv-x="617" d="M237 703l85 110h121l-65 -83q-21 -27 -55 -27h-86zM41 0v90l370 470h-160q-23 0 -43.5 -16t-30.5 -41h-113v157h61q21 0 36 -15t15 -34v-17h2l41 66h331v-95l-367 -465h281v55h112v-103q0 -22 -15.5 -37t-34.5 -15h-485z" />
<glyph unicode="&#x17a;" horiz-adv-x="526" d="M182 540l85 120h121l-65 -91q-21 -29 -55 -29h-86zM45 0v88l278 289h-89q-24 0 -45.5 -17.5t-29.5 -44.5h-99v161h48q21 0 36 -15t15 -36v-20h2l44 71h260v-85l-281 -291h186v55h111v-105q0 -21 -15 -35.5t-36 -14.5h-385z" />
<glyph unicode="&#x17b;" horiz-adv-x="617" d="M268 698v121h111v-121h-111zM41 0v90l370 470h-160q-23 0 -43.5 -16t-30.5 -41h-113v157h61q21 0 36 -15t15 -34v-17h2l41 66h331v-95l-367 -465h281v55h112v-103q0 -22 -15.5 -37t-34.5 -15h-485z" />
<glyph unicode="&#x17c;" horiz-adv-x="526" d="M225 548v112h111v-112h-111zM45 0v88l278 289h-89q-24 0 -45.5 -17.5t-29.5 -44.5h-99v161h48q21 0 36 -15t15 -36v-20h2l44 71h260v-85l-281 -291h186v55h111v-105q0 -21 -15 -35.5t-36 -14.5h-385z" />
<glyph unicode="&#x17d;" horiz-adv-x="617" d="M266 703l-103 110h107l58 -63l60 63h106l-77 -83q-25 -27 -55 -27h-96zM41 0v90l370 470h-160q-23 0 -43.5 -16t-30.5 -41h-113v157h61q21 0 36 -15t15 -34v-17h2l41 66h331v-95l-367 -465h281v55h112v-103q0 -22 -15.5 -37t-34.5 -15h-485z" />
<glyph unicode="&#x17e;" horiz-adv-x="526" d="M221 540l-103 120h107l58 -70l60 70h106l-77 -91q-26 -29 -55 -29h-96zM45 0v88l278 289h-89q-24 0 -45.5 -17.5t-29.5 -44.5h-99v161h48q21 0 36 -15t15 -36v-20h2l44 71h260v-85l-281 -291h186v55h111v-105q0 -21 -15 -35.5t-36 -14.5h-385z" />
<glyph unicode="&#x192;" horiz-adv-x="345" d="M-25 -103q29 0 52 16.5t28 51.5l35 281q3 26 -11.5 46t-40.5 28l11 74h61l10 90q3 29 31 59l124 117h135l-12 -100h-80q-32 0 -56.5 -20.5t-28.5 -52.5l-12 -93h105l-13 -100h-142l-5 -32q17 -5 25.5 -18.5t6.5 -30.5l-32 -245q-10 -79 -63 -124.5t-140 -45.5z" />
<glyph unicode="&#x218;" horiz-adv-x="604" d="M60 50v105h111v-55h264v81l-340 222q-35 30 -35 70v135q0 22 13.5 37t36.5 15h273l42 -66h2v17q0 19 15 34t38 15h57v-157h-112q-8 25 -28 41t-42 16h-184v-78l331 -218q16 -13 23.5 -20.5t14 -22t6.5 -32.5v-137q0 -21 -16 -36.5t-38 -15.5h-382q-19 0 -34.5 15 t-15.5 35zM279 -42h100l-35 -98q-19 -51 -61 -51h-45z" />
<glyph unicode="&#x219;" horiz-adv-x="529" d="M56 50v105h111v-55h197v41l-274 122q-34 19 -34 56v107q0 23 15 36.5t34 13.5h215l45 -71h2v20q0 24 14.5 37.5t37.5 13.5h49v-162h-100q-5 28 -27 45.5t-46 17.5h-128v-39l271 -122q37 -20 37 -59v-107q0 -22 -14 -36t-36 -14h-320q-22 0 -35.5 14.5t-13.5 35.5z M244 -42h100l-35 -98q-19 -51 -62 -51h-44z" />
<glyph unicode="&#x21a;" horiz-adv-x="577" d="M169 0v78q27 6 45.5 25t18.5 41v416h-223v100h557v-100h-223v-383q0 -41 -38 -49v-28h100v-100h-237zM246 -42h100l-35 -98q-19 -51 -62 -51h-44z" />
<glyph unicode="&#x21b;" horiz-adv-x="417" d="M95 50v279q0 26 -17 46t-44 26v75h61v110h111v-110h174v-99h-211v-34q37 -11 37 -56v-187h174v-100h-236q-19 0 -34 14.5t-15 35.5zM183 -42h100l-35 -98q-17 -51 -61 -51h-45z" />
<glyph unicode="&#x2c6;" horiz-adv-x="432" d="M50 540l76 90q25 30 65 30h90l101 -120h-107l-59 69l-59 -69h-107z" />
<glyph unicode="&#x2c7;" horiz-adv-x="432" d="M153 540l-103 120h108l57 -70l60 70h107l-78 -91q-24 -29 -55 -29h-96z" />
<glyph unicode="&#x2d8;" horiz-adv-x="394" d="M197 533q-65 0 -105.5 34.5t-41.5 92.5h95q3 -45 52 -45q21 0 37 11t17 34h93q-1 -58 -41.5 -92.5t-105.5 -34.5z" />
<glyph unicode="&#x2d9;" horiz-adv-x="211" d="M50 548v112h111v-112h-111z" />
<glyph unicode="&#x2da;" horiz-adv-x="275" d="M137 515q-37 0 -62 25t-25 60q0 34 25.5 59t61.5 25t62 -25t26 -59q0 -35 -25.5 -60t-62.5 -25zM137 573q12 0 19.5 7.5t7.5 19.5q0 11 -7.5 19t-19.5 8t-19.5 -7.5t-7.5 -19.5q0 -27 27 -27z" />
<glyph unicode="&#x2db;" horiz-adv-x="277" d="M50 -106q0 32 25 62t68 52l76 -8q-48 -39 -65 -58.5t-17 -34.5q0 -22 32 -22q9 0 19 2.5t15 4.5l5 3l19 -54q-37 -24 -88 -24q-38 0 -63.5 20t-25.5 57z" />
<glyph unicode="&#x2dc;" horiz-adv-x="457" d="M50 554q0 47 30.5 82t78.5 35q37 0 74.5 -25.5t54.5 -25.5q14 0 28 12t15 28h76q-4 -51 -34.5 -84t-76.5 -33q-34 0 -73 25.5t-54 25.5q-14 0 -27.5 -11.5t-15.5 -28.5h-76z" />
<glyph unicode="&#x2dd;" horiz-adv-x="478" d="M253 540l72 120h103l-53 -90q-17 -30 -57 -30h-65zM50 540l73 120h104l-55 -90q-19 -30 -56 -30h-66z" />
<glyph unicode="&#x3bc;" horiz-adv-x="650" d="M209 0v-191h-112v569h-61v98h122q19 0 35 -15t16 -35v-326h157q31 0 52.5 19t21.5 48v211h-62v98h174v-376h63v-100h-113q-22 0 -36 12t-14 32v26l-51 -70h-192z" />
<glyph unicode="&#x2009;" horiz-adv-x="10" />
<glyph unicode="&#x2013;" horiz-adv-x="717" d="M81 197v107h555v-107h-555z" />
<glyph unicode="&#x2014;" horiz-adv-x="951" d="M81 197v107h789v-107h-789z" />
<glyph unicode="&#x2018;" horiz-adv-x="227" d="M57 446v133q0 77 83 81v-88h33v-126h-116z" />
<glyph unicode="&#x2019;" horiz-adv-x="215" d="M81 446v88h-32v126h115v-134q0 -74 -83 -80z" />
<glyph unicode="&#x201a;" horiz-adv-x="252" d="M68 1v126h115v-135q0 -75 -82 -79v88h-33z" />
<glyph unicode="&#x201c;" horiz-adv-x="394" d="M224 446v133q0 39 19.5 59t64.5 22v-88h32v-126h-116zM57 446v133q0 77 83 81v-88h33v-126h-116z" />
<glyph unicode="&#x201d;" horiz-adv-x="368" d="M234 446v88h-33v126h116v-134q0 -74 -83 -80zM82 446v88h-33v126h116v-134q0 -74 -83 -80z" />
<glyph unicode="&#x201e;" horiz-adv-x="407" d="M223 1v126h115v-135q0 -75 -81 -79v88h-34zM68 1v126h115v-135q0 -75 -82 -79v88h-33z" />
<glyph unicode="&#x2020;" horiz-adv-x="517" d="M203 -202v579h-173v99h173v184h109v-184h175v-99h-175v-579h-109z" />
<glyph unicode="&#x2021;" horiz-adv-x="533" d="M33 0v100h178v270h-178v99h178v191h108v-191h181v-99h-181v-270h181v-100h-181v-201h-108v201h-178z" />
<glyph unicode="&#x2022;" horiz-adv-x="291" d="M145 251q-39 0 -65 25.5t-26 63.5t26 64.5t65 26.5t65.5 -26.5t26.5 -64.5t-26.5 -63.5t-65.5 -25.5z" />
<glyph unicode="&#x2026;" horiz-adv-x="639" d="M69 0v127h128v-127h-128zM255 0v127h127v-127h-127zM442 0v127h128v-127h-128z" />
<glyph unicode="&#x2030;" horiz-adv-x="1208" d="M127 0l489 660h112l-488 -660h-113zM283 291h-208q-17 0 -29 11t-12 27v293q0 15 12 26.5t29 11.5h208q16 0 28 -11.5t12 -26.5v-293q0 -16 -11.5 -27t-28.5 -11zM121 369h113v213h-113v-213zM533 38v293q0 15 12 26.5t29 11.5h208q16 0 28 -11.5t12 -26.5v-293 q0 -16 -11.5 -27t-28.5 -11h-208q-17 0 -29 11t-12 27zM620 78h113v213h-113v-213zM891 38v293q0 15 12 26.5t29 11.5h208q16 0 28 -11.5t12 -26.5v-293q0 -16 -11.5 -27t-28.5 -11h-208q-17 0 -29 11t-12 27zM978 78h113v213h-113v-213z" />
<glyph unicode="&#x2039;" horiz-adv-x="336" d="M173 62l-128 191l128 189h108l-130 -189l132 -191h-110z" />
<glyph unicode="&#x203a;" horiz-adv-x="335" d="M54 62l131 191l-130 189h107l128 -189l-128 -191h-108z" />
<glyph unicode="&#x2044;" horiz-adv-x="164" d="M-210 0l479 660h105l-478 -660h-106z" />
<glyph unicode="&#x2070;" horiz-adv-x="413" d="M103 291q-17 0 -29 11t-12 27v293q0 15 12 26.5t29 11.5h208q16 0 28 -11.5t12 -26.5v-293q0 -16 -11.5 -27t-28.5 -11h-208zM149 369h113v213h-113v-213z" />
<glyph unicode="&#x2074;" horiz-adv-x="372" d="M25 348v56l199 256h74v-235h32v-77h-32v-57h-88v57h-185zM135 425h75v97z" />
<glyph unicode="&#x2075;" horiz-adv-x="396" d="M96 291q-17 0 -29 10.5t-12 27.5v66h88v-26h110v83h-88q-16 0 -24 -18h-86v226h248q14 0 26 -11.5t12 -26.5v-64h-88v24h-110v-74l17 24h142q17 0 28 -12t11 -28v-163q0 -15 -12.5 -26.5t-27.5 -11.5h-205z" />
<glyph unicode="&#x2076;" horiz-adv-x="405" d="M102 291q-17 0 -28.5 11.5t-11.5 26.5v292q0 15 12.5 27t28.5 12h207q16 0 28 -11t12 -27v-64h-86v24h-115v-74l17 24h144q17 0 29 -12t12 -28v-163q0 -15 -12.5 -26.5t-28.5 -11.5h-208zM149 369h115v85h-89q-11 0 -18.5 -7.5t-7.5 -18.5v-59z" />
<glyph unicode="&#x2077;" horiz-adv-x="350" d="M96 291l135 291h-115v-26h-88v66q0 16 11.5 27t28.5 11h258v-62l-142 -307h-88z" />
<glyph unicode="&#x2078;" horiz-adv-x="409" d="M99 291q-17 0 -28.5 11.5t-11.5 26.5v105l34 29h-4q-13 0 -21.5 9.5t-8.5 21.5v128q0 15 11.5 26.5t28.5 11.5h210q17 0 28.5 -11.5t11.5 -26.5v-93l-36 -31h5q15 0 23 -9t8 -22v-138q0 -15 -13 -26.5t-28 -11.5h-209zM147 521h90q10 0 17 6.5t7 16.5v38h-114v-61z M147 369h114v74h-92q-8 0 -15 -7t-7 -15v-52z" />
<glyph unicode="&#x2079;" horiz-adv-x="406" d="M95 291q-17 0 -29 11t-12 27v64h89v-24h113v83l-16 -23h-145q-17 0 -29 11t-12 27v155q0 15 11.5 26.5t28.5 11.5h211q16 0 27.5 -11.5t11.5 -26.5v-292q0 -16 -12 -27.5t-28 -11.5h-209zM142 504h89q10 0 17.5 7.5t7.5 17.5v53h-114v-78z" />
<glyph unicode="&#x207d;" horiz-adv-x="233" d="M124 229q-3 3 -8.5 9t-19 27.5t-23.5 47t-18.5 67.5t-8.5 89q0 43 8 82t20 65t24 45.5t20 28.5l8 9h79q-3 -4 -8.5 -10.5t-19.5 -29.5t-24.5 -48t-19 -64t-8.5 -78q0 -42 8 -82t20 -67.5t24 -49t20 -31.5l8 -10h-81z" />
<glyph unicode="&#x207e;" horiz-adv-x="233" d="M28 229q3 4 8.5 11t19 30.5t24 49.5t19 66.5t8.5 82.5q0 39 -8 77.5t-19.5 65t-23.5 47t-20 30.5l-8 10h79q3 -3 8.5 -9.5t19.5 -28t24.5 -46t19 -64t8.5 -82.5q0 -47 -8 -89t-19.5 -68t-23.5 -46t-20 -28l-8 -9h-80z" />
<glyph unicode="&#x2080;" horiz-adv-x="413" d="M62 38v293q0 15 12 26.5t29 11.5h208q16 0 28 -11.5t12 -26.5v-293q0 -16 -11.5 -27t-28.5 -11h-208q-17 0 -29 11t-12 27zM149 78h113v213h-113v-213z" />
<glyph unicode="&#x2081;" horiz-adv-x="321" d="M47 0v78h82v213h-82v78h171v-291h76v-78h-247z" />
<glyph unicode="&#x2082;" horiz-adv-x="376" d="M42 0v50q0 28 27 57l167 170v14h-94v-26h-89v66q0 16 12 27t29 11h193q16 0 27.5 -11.5t11.5 -26.5v-53q0 -20 -26 -48l-151 -152h91v26h86v-66q0 -16 -12 -27t-29 -11h-243z" />
<glyph unicode="&#x2083;" horiz-adv-x="391" d="M50 38v66h87v-26h108v93h-79v64l61 56h-90v-26h-87v66q0 15 12 26.5t27 11.5h243v-59l-64 -59h24q16 0 28 -12.5t12 -27.5v-173q0 -15 -12 -26.5t-27 -11.5h-202q-16 0 -28.5 10.5t-12.5 27.5z" />
<glyph unicode="&#x2084;" horiz-adv-x="372" d="M25 57v56l199 256h74v-235h32v-77h-32v-57h-88v57h-185zM135 134h75v97z" />
<glyph unicode="&#x2085;" horiz-adv-x="396" d="M55 38v66h88v-26h110v83h-88q-16 0 -24 -18h-86v226h248q14 0 26 -11.5t12 -26.5v-64h-88v24h-110v-74l17 24h142q17 0 28 -12t11 -28v-163q0 -15 -12.5 -26.5t-27.5 -11.5h-205q-17 0 -29 10.5t-12 27.5z" />
<glyph unicode="&#x2086;" horiz-adv-x="406" d="M62 38v292q0 15 12.5 27t28.5 12h208q16 0 28 -11t12 -27v-64h-87v24h-115v-74l17 24h144q17 0 29 -12t12 -28v-163q0 -15 -12.5 -26.5t-28.5 -11.5h-208q-17 0 -28.5 11.5t-11.5 26.5zM149 78h115v85h-89q-11 0 -18.5 -7.5t-7.5 -18.5v-59z" />
<glyph unicode="&#x2087;" horiz-adv-x="350" d="M96 0l135 291h-115v-26h-88v66q0 16 11.5 27t28.5 11h258v-62l-142 -307h-88z" />
<glyph unicode="&#x2088;" horiz-adv-x="408" d="M59 38v105l34 29h-4q-13 0 -21.5 9.5t-8.5 21.5v128q0 15 11.5 26.5t28.5 11.5h210q17 0 28.5 -11.5t11.5 -26.5v-93l-36 -31h5q15 0 23 -9t8 -22v-138q0 -15 -13 -26.5t-28 -11.5h-209q-17 0 -28.5 11.5t-11.5 26.5zM147 230h90q10 0 17 6.5t7 16.5v38h-114v-61zM147 78 h114v74h-92q-8 0 -15 -7t-7 -15v-52z" />
<glyph unicode="&#x2089;" horiz-adv-x="406" d="M54 38v64h89v-24h113v83l-16 -23h-145q-17 0 -29 11t-12 27v155q0 15 11.5 26.5t28.5 11.5h211q16 0 27.5 -11.5t11.5 -26.5v-292q0 -16 -12 -27.5t-28 -11.5h-209q-17 0 -29 11t-12 27zM142 214h89q10 0 17.5 7.5t7.5 17.5v52h-114v-77z" />
<glyph unicode="&#x208d;" horiz-adv-x="233" d="M124 -62q-3 3 -8.5 9t-19 27.5t-23.5 47t-18.5 68t-8.5 88.5q0 68 20 125.5t40 81.5l20 24h79q-3 -4 -8.5 -10.5t-19.5 -30t-24.5 -48.5t-19 -64t-8.5 -78q0 -42 8 -82t20 -67.5t24 -49t20 -31.5l8 -10h-81z" />
<glyph unicode="&#x208e;" horiz-adv-x="234" d="M29 -62q3 4 8.5 11t19 30.5t24 49.5t19 66.5t8.5 82.5q0 63 -20 120.5t-40 83.5l-19 27h79q3 -3 8.5 -9.5t19.5 -28t24.5 -46.5t19 -64.5t8.5 -82.5q0 -74 -20 -134t-40 -83l-19 -23h-80z" />
<glyph unicode="&#x20ac;" horiz-adv-x="567" d="M101 150v67h-62v93h62v52h-62v93h62v27q0 27 27 57l108 121h297v-100h-251q-29 0 -49 -18.5t-20 -43.5v-43h220v-93h-220v-52h221v-93h-221v-56q0 -25 19.5 -43t49.5 -18h251v-100h-251q-49 0 -78 34z" />
<glyph unicode="&#x2122;" horiz-adv-x="874" d="M384 281v61q33 9 33 37v205h-33v76h85q22 0 32 -20l99 -175l100 176q11 19 35 19h84v-76h-34v-173q0 -22 -20 -28v-25h54v-77h-145v61q16 4 25.5 14t9.5 23v131l-68 -113h-80l-68 113v-99q0 -23 -23 -28v-25h57v-77h-143zM115 281v62q36 9 36 37v204h-131v76h338v-76 h-131v-173q0 -22 -21 -28v-25h54v-77h-145z" />
<glyph unicode="&#x2211;" horiz-adv-x="543" d="M36 0v89l239 244l-239 238v89h472v-103h-322l232 -226l-232 -228h322v-103h-472z" />
<glyph unicode="&#x2260;" horiz-adv-x="586" d="M107 47l49 90h-92v98h146l51 94h-197v99h254l55 90h101l-53 -90h101v-99h-159l-51 -94h210v-98h-263l-50 -90h-102z" />
<glyph unicode="&#x2264;" horiz-adv-x="580" d="M61 264v82l447 133v-101l-257 -72l257 -68v-103zM62 0v100h446v-100h-446z" />
<glyph unicode="&#x2265;" horiz-adv-x="580" d="M72 135v103l258 68l-258 72v101l447 -133v-82zM72 0v100h446v-100h-446z" />
<glyph unicode="&#x25ca;" horiz-adv-x="244" />
<glyph unicode="&#xe000;" horiz-adv-x="475" d="M0 475h475v-475h-475v475z" />
<glyph unicode="&#xe001;" horiz-adv-x="457" d="M50 705q0 42 31 78.5t78 36.5q37 0 74.5 -23t54.5 -23q16 0 28.5 11t14.5 25h76q-4 -47 -33.5 -81t-77.5 -34q-34 0 -73 22.5t-54 22.5q-16 0 -28.5 -10t-14.5 -25h-76z" />
<glyph unicode="&#xe002;" horiz-adv-x="394" d="M197 700q-64 0 -104.5 33.5t-42.5 84.5h95q1 -20 16 -32t36 -12t37 12t17 32h93q-2 -52 -42.5 -85t-104.5 -33z" />
<glyph unicode="&#xe003;" horiz-adv-x="270" d="M102 11h72l-14 -56q26 -5 43 -22.5t17 -44.5q0 -37 -26.5 -58.5t-63.5 -21.5q-43 0 -80 28l18 55q29 -17 49 -17q23 0 23 17q0 11 -16.5 20t-47.5 9z" />
<glyph unicode="&#xe004;" horiz-adv-x="432" d="M50 703l81 82q26 28 65 28h85l101 -110h-107l-59 63l-59 -63h-107z" />
<glyph unicode="&#xe005;" horiz-adv-x="136" d="M16 -41h55q20 0 34.5 -14.5t14.5 -34.5v-39q0 -45 -16 -66t-64 -22v89h-24v87z" />
<glyph unicode="&#xe006;" horiz-adv-x="211" d="M50 698v121h111v-121h-111z" />
<glyph unicode="&#xe007;" horiz-adv-x="277" d="M50 -106q0 32 25 62t68 52l76 -8q-48 -39 -65 -58.5t-17 -34.5q0 -9 8 -15.5t21 -6.5q9 0 19.5 2.5t16.5 4.5l6 3l19 -54q-37 -24 -88 -24q-38 0 -63.5 20t-25.5 57z" />
<glyph unicode="&#xe008;" horiz-adv-x="273" d="M136 696q-37 0 -61.5 24.5t-24.5 60.5q0 34 24.5 59t61.5 25q36 0 61.5 -25t25.5 -59q0 -35 -25.5 -60t-61.5 -25zM136 754q11 0 19 7.5t8 19.5q0 11 -8 19t-19 8q-12 0 -20 -8t-8 -19q0 -27 28 -27z" />
<glyph unicode="&#xe009;" horiz-adv-x="516" d="M55 45v92h105v-46h198v72l-270 166q-33 21 -33 57v116q0 18 14.5 32t35.5 14h101v53h99v-53h100q20 0 35 -13.5t15 -32.5v-90h-107v44h-188v-60l278 -172q25 -15 25 -51v-127q0 -19 -15.5 -32.5t-34.5 -13.5h-108v-53h-99v53h-101q-20 0 -35 13.5t-15 31.5z" />
<glyph unicode="&#xe00a;" horiz-adv-x="793" d="M149 0l405 547h93l-403 -547h-95zM277 241h-192q-14 0 -24 9.5t-10 22.5v242q0 12 10 22t24 10h192q13 0 23 -10t10 -22v-242q0 -13 -9.5 -22.5t-23.5 -9.5zM133 316h93v156h-93v-156zM485 32v242q0 12 10 22t24 10h192q13 0 23 -10t10 -22v-242q0 -13 -9.5 -22.5 t-23.5 -9.5h-192q-14 0 -24 9.5t-10 22.5zM567 75h93v156h-93v-156z" />
<glyph unicode="&#xe00b;" horiz-adv-x="341" d="M-2 -33l234 658h105l-234 -658h-105z" />
<glyph unicode="&#xe00c;" horiz-adv-x="602" d="M84 46v457q0 17 15 31t35 14h336q19 0 33 -14t14 -31v-457q0 -19 -13.5 -32.5t-33.5 -13.5h-336q-21 0 -35.5 13.5t-14.5 32.5zM189 91h223v365h-223v-365z" />
<glyph unicode="&#xe00d;" horiz-adv-x="440" d="M57 0v91h131v365h-131v92h237v-457h122v-91h-359z" />
<glyph unicode="&#xe00e;" horiz-adv-x="540" d="M49 0v65q0 24 9 39.5t31 37.5l284 279v35h-198v-45h-107v91q0 19 15.5 32.5t35.5 13.5h310q19 0 33.5 -14t14.5 -31v-87q0 -29 -36 -65l-262 -260h194v45h104v-90q0 -19 -14 -32.5t-34 -13.5h-380z" />
<glyph unicode="&#xe00f;" horiz-adv-x="560" d="M62 45v91h106v-45h213v178h-161v81l121 106h-173v-45h-106v91q0 18 14.5 32t32.5 14h376v-79l-122 -107h77q20 0 33 -14t13 -33v-269q0 -19 -13.5 -32.5t-32.5 -13.5h-329q-19 0 -34 13t-15 32z" />
<glyph unicode="&#xe010;" horiz-adv-x="534" d="M26 99v72l310 377h98v-357h51v-92h-51v-99h-106v99h-302zM156 191h172v202z" />
<glyph unicode="&#xe011;" horiz-adv-x="571" d="M72 45v91h105v-45h217v178h-164q-18 0 -34 -12.5t-23 -31.5h-101v323h381q18 0 33 -14t15 -32v-91h-106v45h-218v-136l31 42h248q17 0 30.5 -14.5t13.5 -32.5v-269q0 -19 -14 -32.5t-33 -13.5h-331q-20 0 -35 13t-15 32z" />
<glyph unicode="&#xe012;" horiz-adv-x="590" d="M84 46v456q0 17 15.5 31.5t34.5 14.5h336q20 0 34.5 -13.5t14.5 -32.5v-91h-104v45h-226v-138l32 44h252q21 0 34 -13.5t13 -33.5v-269q0 -19 -14.5 -32.5t-34.5 -13.5h-339q-20 0 -34 13.5t-14 32.5zM189 91h226v180h-173q-22 0 -37.5 -14t-15.5 -34v-132z" />
<glyph unicode="&#xe013;" horiz-adv-x="505" d="M138 0l225 456h-223v-45h-106v91q0 19 13.5 32.5t33.5 13.5h393v-82l-228 -466h-108z" />
<glyph unicode="&#xe014;" horiz-adv-x="599" d="M82 45v171l63 48h-15q-20 0 -34 14.5t-14 33.5v190q0 18 14 32t34 14h340q20 0 34 -14t14 -32v-148l-63 -48h14q23 0 36 -13.5t13 -34.5v-213q0 -18 -15 -31.5t-35 -13.5h-338q-20 0 -34 13t-14 32zM187 331h171q23 0 38.5 13.5t15.5 33.5v78h-225v-125zM187 91h225v149 h-177q-17 0 -32.5 -14t-15.5 -32v-103z" />
<glyph unicode="&#xe015;" horiz-adv-x="589" d="M70 46v90h105v-45h224v153l-32 -42h-247q-20 0 -35 13.5t-15 32.5v254q0 18 14 32t34 14h338q19 0 34 -14.5t15 -31.5v-455q0 -20 -15 -33.5t-35 -13.5h-336q-20 0 -34.5 13.5t-14.5 32.5zM174 295h172q22 0 37.5 14t15.5 34v113h-225v-161z" />
<glyph unicode="&#xe016;" horiz-adv-x="342" d="M239 -33l-236 658h105l237 -658h-106z" />
<glyph unicode="&#xe017;" horiz-adv-x="254" d="M79 -119v791h96v-791h-96z" />
<glyph unicode="&#xe018;" horiz-adv-x="538" d="M122 58q-21 0 -35 13t-14 33v342q0 19 14 32.5t35 13.5h104v56h96v-56h100q20 0 33.5 -13t13.5 -33v-97h-107v51h-184v-251h184v50h107v-95q0 -20 -13.5 -33t-33.5 -13h-100v-58h-96v58h-104z" />
<glyph unicode="&#xe019;" horiz-adv-x="516" d="M52 0v69q21 4 35.5 17.5t14.5 30.5v84h-49v86h49v118q0 25 26 51l93 92h144q18 0 33.5 -14t15.5 -32v-92h-106v46h-46q-22 0 -38 -13t-16 -31v-125h90v-86h-90v-44q0 -30 -31 -43v-23h195v45h105v-94q0 -18 -15.5 -30t-29.5 -12h-380z" />
<glyph unicode="&#xe01a;" horiz-adv-x="587" d="M96 167v75h132l-27 40h-105v77h58l-63 97h-52v92h101l154 -235l132 203q20 32 59 32h63v-92h-54l-63 -97h59v-77h-108l-26 -40h134v-75h-143v-167h-105v167h-146z" />
<glyph unicode="&#xe01b;" horiz-adv-x="378" d="M-16 -77q22 0 42 13t23 37l29 223q6 50 -43 65l8 69h54l8 69q3 28 29 52l108 97h125l-11 -92h-73q-25 0 -45.5 -15.5t-24.5 -38.5l-11 -72h91l-12 -92h-124l-3 -22q33 -10 28 -48l-28 -192q-10 -68 -57 -106t-125 -38z" />
<glyph unicode="&#xe01c;" horiz-adv-x="1105" d="M147 0l405 547h93l-403 -547h-95zM275 241h-192q-14 0 -24 9.5t-10 22.5v242q0 12 10 22t24 10h192q13 0 23 -10t10 -22v-242q0 -13 -9.5 -22.5t-23.5 -9.5zM131 316h93v156h-93v-156zM483 32v242q0 12 10 22t24 10h192q13 0 23 -10t10 -22v-242q0 -13 -9.5 -22.5 t-23.5 -9.5h-192q-14 0 -24 9.5t-10 22.5zM565 75h93v156h-93v-156zM803 32v242q0 12 10 22t24 10h192q13 0 23 -10t10 -22v-242q0 -13 -9.5 -22.5t-23.5 -9.5h-192q-14 0 -24 9.5t-10 22.5zM885 75h93v156h-93v-156z" />
<glyph unicode="&#xe01d;" horiz-adv-x="164" d="M-210 0l479 660h105l-478 -660h-106z" />
<glyph unicode="&#xe01e;" horiz-adv-x="545" d="M102 127v46h-54v81h54v42h-54v81h54v21q0 22 17 39l105 111h263v-92h-227q-24 0 -38 -14.5t-14 -35.5v-29h192v-81h-192v-42h193v-81h-193v-33q0 -20 14 -34.5t38 -14.5h227v-91h-222q-45 0 -70 27z" />
<glyph unicode="&#xe01f;" horiz-adv-x="514" d="M149 0v72q23 4 39 19.5t16 33.5v331h-189v92h485v-92h-189v-307q0 -14 -9.5 -24.5t-24.5 -14.5v-19h86v-91h-214zM224 -42h100l-35 -98q-17 -51 -61 -51h-45z" />
<glyph unicode="&#xe020;" horiz-adv-x="286" d="M142 197q-36 0 -60.5 23.5t-24.5 59.5q0 35 25 59.5t60 24.5t61 -24.5t26 -59.5t-26 -59t-61 -24z" />
<glyph unicode="&#xe021;" horiz-adv-x="924" d="M88 47v409h-47v92h153v-457h159q25 0 44 16t19 39v310h-50v92h156v-457h152q24 0 42 16t18 39v356q0 19 15 32.5t32 13.5h109v-92h-50v-320q0 -25 -21 -48l-85 -88h-272q-17 0 -28 12t-11 29v16l-42 -57h-243q-20 0 -35 13.5t-15 33.5z" />
<glyph unicode="&#xe022;" horiz-adv-x="647" d="M90 47v409h-50v92h156v-457h114q25 0 44 19l112 114v278q0 19 14 32.5t32 13.5h108v-92h-49v-237q0 -29 -21 -48l-172 -171h-239q-21 0 -35 12.5t-14 34.5z" />
<glyph unicode="&#xe023;" horiz-adv-x="651" d="M82 50v561q0 19 15.5 34t36.5 15h385q20 0 35 -15.5t15 -33.5v-561q0 -21 -14.5 -35.5t-35.5 -14.5h-385q-22 0 -37 14t-15 36zM458 183v377h-200zM193 100h197l-197 372v-372z" />
<glyph unicode="&#xe024;" horiz-adv-x="602" d="M84 46v456q0 18 14.5 32t34.5 14h337q19 0 33 -14t14 -32v-456q0 -19 -13.5 -32.5t-33.5 -13.5h-337q-20 0 -34.5 13.5t-14.5 32.5zM411 165v290h-159zM190 93h159l-159 289v-289z" />
<glyph unicode="&#xe027;" horiz-adv-x="413" d="M103 372q-17 0 -29 11t-12 27v293q0 15 12 26.5t29 11.5h208q16 0 28 -11.5t12 -26.5v-293q0 -16 -11.5 -27t-28.5 -11h-208zM149 450h113v213h-113v-213z" />
<glyph unicode="&#xe028;" horiz-adv-x="321" d="M47 372v78h82v213h-82v78h171v-291h76v-78h-247z" />
<glyph unicode="&#xe029;" horiz-adv-x="376" d="M42 372v50q0 28 27 57l167 170v14h-94v-26h-89v66q0 16 12 27t29 11h193q16 0 27.5 -11.5t11.5 -26.5v-53q0 -20 -26 -48l-151 -152h91v26h86v-66q0 -16 -12 -27t-29 -11h-243z" />
<glyph unicode="&#xe02a;" horiz-adv-x="392" d="M293 372h-202q-16 0 -28.5 10.5t-12.5 27.5v66h87v-26h108v93h-79v64l61 56h-90v-26h-87v66q0 15 12 26.5t27 11.5h243v-59l-64 -59h24q16 0 28 -12.5t12 -27.5v-173q0 -15 -12 -26.5t-27 -11.5z" />
<glyph unicode="&#xe02b;" horiz-adv-x="372" d="M25 429v56l199 256h74v-235h32v-77h-32v-57h-88v57h-185zM135 506h75v97z" />
<glyph unicode="&#xe02c;" horiz-adv-x="396" d="M96 372q-17 0 -29 10.5t-12 27.5v66h88v-26h110v83h-88q-16 0 -24 -18h-86v226h248q14 0 26 -11.5t12 -26.5v-64h-88v24h-110v-74l17 24h142q17 0 28 -12t11 -28v-163q0 -15 -12.5 -26.5t-27.5 -11.5h-205z" />
<glyph unicode="&#xe02d;" horiz-adv-x="405" d="M102 372q-17 0 -28.5 11.5t-11.5 26.5v292q0 15 12.5 27t28.5 12h208q16 0 28 -11t12 -27v-64h-87v24h-115v-74l17 24h144q17 0 29 -12t12 -28v-163q0 -15 -12.5 -26.5t-28.5 -11.5h-208zM149 450h115v85h-89q-11 0 -18.5 -7.5t-7.5 -18.5v-59z" />
<glyph unicode="&#xe02e;" horiz-adv-x="350" d="M96 372l135 291h-115v-26h-88v66q0 16 11.5 27t28.5 11h258v-62l-142 -307h-88z" />
<glyph unicode="&#xe02f;" horiz-adv-x="409" d="M99 372q-17 0 -28.5 11.5t-11.5 26.5v105l34 29h-4q-13 0 -21.5 9.5t-8.5 21.5v128q0 15 11.5 26.5t28.5 11.5h210q17 0 28.5 -11.5t11.5 -26.5v-93l-36 -31h5q15 0 23 -9t8 -22v-138q0 -15 -13 -26.5t-28 -11.5h-209zM147 602h90q10 0 17 6.5t7 16.5v38h-114v-61z M147 450h114v74h-92q-8 0 -15 -7t-7 -15v-52z" />
<glyph unicode="&#xe030;" horiz-adv-x="406" d="M95 372q-17 0 -29 11t-12 27v64h89v-24h113v83l-16 -23h-145q-17 0 -29 11t-12 27v155q0 15 11.5 26.5t28.5 11.5h211q16 0 27.5 -11.5t11.5 -26.5v-292q0 -16 -12 -27.5t-28 -11.5h-209zM142 585h89q10 0 17.5 7.5t7.5 17.5v53h-114v-78z" />
<glyph unicode="&#xe031;" horiz-adv-x="233" d="M124 310q-3 3 -8.5 9t-19 27.5t-23.5 47t-18.5 67.5t-8.5 89q0 43 8 82t20 65t24 45.5t20 28.5l8 9h79q-3 -4 -8.5 -10.5t-19.5 -29.5t-24.5 -48t-19 -64t-8.5 -78q0 -42 8 -82t20 -67.5t24 -49t20 -31.5l8 -10h-81z" />
<glyph unicode="&#xe032;" horiz-adv-x="233" d="M28 310q3 4 8.5 11t19 30.5t24 49.5t19 66.5t8.5 82.5q0 39 -8 77.5t-19.5 65t-23.5 47t-20 30.5l-8 10h79q3 -3 8.5 -9.5t19.5 -28t24.5 -46t19 -64t8.5 -82.5q0 -47 -8 -89t-19.5 -68t-23.5 -46t-20 -29l-8 -8h-80z" />
<glyph unicode="&#xe033;" horiz-adv-x="413" d="M62 -82v293q0 15 12 26.5t29 11.5h208q16 0 28 -11.5t12 -26.5v-293q0 -16 -11.5 -27t-28.5 -11h-208q-17 0 -29 11t-12 27zM149 -42h113v213h-113v-213z" />
<glyph unicode="&#xe034;" horiz-adv-x="321" d="M47 -120v78h82v213h-82v78h171v-291h76v-78h-247z" />
<glyph unicode="&#xe035;" horiz-adv-x="376" d="M42 -120v50q0 28 27 57l167 170v14h-94v-26h-89v66q0 16 12 27t29 11h193q16 0 27.5 -11.5t11.5 -26.5v-53q0 -20 -26 -48l-151 -152h91v26h86v-66q0 -16 -12 -27t-29 -11h-243z" />
<glyph unicode="&#xe036;" horiz-adv-x="391" d="M50 -82v66h87v-26h108v93h-79v64l61 56h-90v-26h-87v66q0 15 12 26.5t27 11.5h243v-59l-64 -59h24q16 0 28 -12.5t12 -27.5v-173q0 -15 -12 -26.5t-27 -11.5h-202q-16 0 -28.5 10.5t-12.5 27.5z" />
<glyph unicode="&#xe037;" horiz-adv-x="372" d="M25 -63v56l199 256h74v-235h32v-77h-32v-57h-88v57h-185zM135 14h75v97z" />
<glyph unicode="&#xe038;" horiz-adv-x="396" d="M55 -82v66h88v-26h110v83h-88q-16 0 -24 -18h-86v226h248q14 0 26 -11.5t12 -26.5v-64h-88v24h-110v-74l17 24h142q17 0 28 -12t11 -28v-163q0 -15 -12.5 -26.5t-27.5 -11.5h-205q-17 0 -29 10.5t-12 27.5z" />
<glyph unicode="&#xe039;" horiz-adv-x="406" d="M62 -82v292q0 15 12.5 27t28.5 12h208q16 0 28 -11t12 -27v-64h-87v24h-115v-74l17 24h144q17 0 29 -12t12 -28v-163q0 -15 -12.5 -26.5t-28.5 -11.5h-208q-17 0 -28.5 11.5t-11.5 26.5zM149 -42h115v85h-89q-11 0 -18.5 -7.5t-7.5 -18.5v-59z" />
<glyph unicode="&#xe03a;" horiz-adv-x="350" d="M96 -120l135 291h-115v-26h-88v66q0 16 11.5 27t28.5 11h258v-62l-142 -307h-88z" />
<glyph unicode="&#xe03b;" horiz-adv-x="408" d="M59 -82v105l34 29h-4q-13 0 -21.5 9.5t-8.5 21.5v128q0 15 11.5 26.5t28.5 11.5h210q17 0 28.5 -11.5t11.5 -26.5v-93l-36 -31h5q15 0 23 -9t8 -22v-138q0 -15 -13 -26.5t-28 -11.5h-209q-17 0 -28.5 11.5t-11.5 26.5zM147 110h90q10 0 17 6.5t7 16.5v38h-114v-61z M147 -42h114v74h-92q-8 0 -15 -7t-7 -15v-52z" />
<glyph unicode="&#xe03c;" horiz-adv-x="406" d="M54 -82v64h89v-24h113v83l-16 -23h-145q-17 0 -29 11t-12 27v155q0 15 11.5 26.5t28.5 11.5h211q16 0 27.5 -11.5t11.5 -26.5v-292q0 -16 -12 -27.5t-28 -11.5h-209q-17 0 -29 11t-12 27zM142 94h89q10 0 17.5 7.5t7.5 17.5v52h-114v-77z" />
<glyph unicode="&#xe03d;" horiz-adv-x="233" d="M124 -182q-3 3 -8.5 9t-19 27.5t-23.5 47t-18.5 68t-8.5 88.5q0 68 20 125.5t40 81.5l20 24h79q-3 -4 -8.5 -10.5t-19.5 -30t-24.5 -48.5t-19 -64t-8.5 -78q0 -42 8 -82t20 -67.5t24 -49t20 -31.5l8 -10h-81z" />
<glyph unicode="&#xe03e;" horiz-adv-x="234" d="M29 -182q3 4 8.5 11t19 30.5t24 49.5t19 66.5t8.5 82.5q0 63 -20 120.5t-40 83.5l-19 27h79q3 -3 8.5 -9.5t19.5 -28t24.5 -46.5t19 -64.5t8.5 -82.5q0 -74 -20 -134t-40 -83l-19 -23h-80z" />
<glyph unicode="&#xe495;" horiz-adv-x="721" d="M99 51v509h-57v100h168v-560h134q30 0 53 24l130 142v344q0 20 15.5 35t34.5 15h118v-100h-57v-294q0 -33 -23 -56l-199 -210h-266q-22 0 -36.5 14t-14.5 37z" />
<glyph unicode="&#xe496;" horiz-adv-x="1044" d="M99 51v509h-57v100h168v-560h187q32 0 54.5 20.5t22.5 51.5v388h-58v100h169v-560h178q30 0 52.5 20.5t22.5 51.5v438q0 20 15 35t34 15h118v-100h-56v-394q0 -29 -23 -56l-100 -110h-294q-21 0 -35.5 14t-14.5 37v25h-2l-48 -76h-281q-21 0 -36.5 15t-15.5 36z" />
<glyph unicode="&#xe4d5;" horiz-adv-x="612" d="M97 51v326h-62v99h173v-376h131q30 0 52 20.5t22 50.5v255q0 21 15.5 35.5t34.5 14.5h123v-99h-62v-212q0 -30 -22 -56l-99 -109h-256q-21 0 -35.5 14t-14.5 37z" />
<glyph unicode="&#xe4d6;" horiz-adv-x="930" d="M97 51v326h-62v99h173v-376h136q31 0 53 20t22 51v206h-63v99h175v-376h127q30 0 52 20.5t22 50.5v255q0 21 15 35.5t34 14.5h123v-99h-61v-212q0 -29 -23 -56l-99 -109h-243q-22 0 -36 11.5t-14 33.5v25h-2l-44 -70h-233q-21 0 -36.5 15t-15.5 36z" />
<glyph unicode="&#xe4d8;" horiz-adv-x="637" d="M97 51v326h-62v99h173v-376h147q30 0 52 20.5t22 50.5v255q0 21 15 35.5t34 14.5h123v-99h-62v-410q0 -32 -21 -53l-104 -116h-301v99h249q30 0 48.5 17t18.5 46v81h-41q-5 -41 -50 -41h-191q-21 0 -35.5 14t-14.5 37z" />
<glyph unicode="&#xf60b;" horiz-adv-x="734" d="M85 46v456q0 18 14 32t34 14h482q18 0 33 -14.5t15 -31.5v-324q0 -19 -15 -33t-33 -14h-154q-13 0 -21.5 8t-8.5 21v13l-35 -42h-126q-16 0 -27 11t-11 26v209q0 15 11.5 27.5t26.5 12.5h248v-202h49v246h-385v-375h482v-86h-531q-21 0 -34.5 13t-13.5 33zM323 215h68 q14 0 24 8t10 21v88h-102v-117z" />
<glyph unicode="&#xf60c;" horiz-adv-x="322" d="M107 -29v234h-68v85q68 8 68 55v231q0 18 14.5 33t34.5 15h114v-92h-58v-183q0 -24 -17 -37l-46 -35h26q15 0 26 -10t11 -25v-227h58v-90h-114q-20 0 -34.5 13.5t-14.5 32.5z" />
<glyph unicode="&#xf60d;" horiz-adv-x="322" d="M52 17h58v183q0 24 17 37l46 35h-26q-16 0 -26.5 10t-10.5 25v227h-58v90h114q20 0 34.5 -13.5t14.5 -32.5v-234h68v-85q-68 -9 -68 -55v-231q0 -18 -14.5 -33t-34.5 -15h-114v92z" />
<glyph unicode="&#xf60e;" horiz-adv-x="294" d="M77 -29v605q0 18 15 33t35 15h113v-92h-58v-517h58v-90h-113q-21 0 -35.5 13.5t-14.5 32.5z" />
<glyph unicode="&#xf60f;" horiz-adv-x="294" d="M54 15h58v517h-58v92h114q18 0 33.5 -15t15.5 -33v-605q0 -19 -15 -32.5t-34 -13.5h-114v90z" />
<glyph unicode="&#xf618;" horiz-adv-x="303" d="M179 -75q-5 5 -13.5 14t-29.5 41t-37 69.5t-29.5 99t-13.5 128.5q0 63 13 122t31.5 97.5t37 68t31.5 43.5l13 13h96q-5 -5 -13.5 -15t-30 -44t-38 -71.5t-30 -95.5t-13.5 -118q0 -62 13 -121t31.5 -99t36.5 -71.5t31 -45.5l13 -15h-99z" />
<glyph unicode="&#xf619;" horiz-adv-x="303" d="M26 -75q5 5 13.5 15t30 44.5t38 72.5t30 98t13.5 122q0 60 -13 117.5t-31.5 96.5t-36.5 70t-31 45l-13 15h96q5 -5 13.5 -14t30.5 -42t38.5 -69.5t30 -96t13.5 -122.5q0 -67 -13 -128t-31 -100t-36.5 -68.5t-31.5 -42.5l-13 -13h-97z" />
<glyph unicode="&#xf640;" d="M296 588q-63 0 -103.5 33.5t-42.5 84.5h95q1 -20 16 -32t35 -12q21 0 37 12t17 32h94q-2 -52 -42.5 -85t-105.5 -33zM18 0v91h51l137 365h-43v92h171q40 0 53 -34l156 -423h50v-91h-129l-48 125h-226l-37 -91q-15 -34 -52 -34h-83zM223 223h160l-78 220z" />
<glyph unicode="&#xf641;" d="M136 600v79h297v-79h-297zM18 0v91h51l137 365h-43v92h171q40 0 53 -34l156 -423h50v-91h-129l-48 125h-226l-37 -91q-15 -34 -52 -34h-83zM223 223h160l-78 220z" />
<glyph unicode="&#xf642;" d="M18 0v91h51l137 365h-43v92h171q40 0 53 -34l156 -423h50v-91q-47 -39 -64 -58.5t-17 -34.5q0 -22 28 -22q9 0 19.5 2.5t16.5 4.5l6 3l19 -54q-37 -24 -88 -24q-38 0 -63.5 20t-25.5 57q0 58 77 106h-37l-48 125h-226l-37 -91q-15 -34 -52 -34h-83zM223 223h160l-78 220z " />
<glyph unicode="&#xf643;" horiz-adv-x="594" d="M213 591l84 110h122l-66 -83q-23 -27 -55 -27h-85zM71 48v452q0 20 14 34t35 14h280l33 -47v11q0 14 11 25t26 11h68v-139h-106q-5 22 -21.5 34.5t-34.5 12.5h-200v-365h256v45h106v-88q0 -20 -15 -34t-35 -14h-368q-21 0 -35 13.5t-14 34.5z" />
<glyph unicode="&#xf644;" horiz-adv-x="594" d="M249 591l-103 110h108l57 -63l60 63h107l-78 -83q-25 -27 -55 -27h-96zM71 48v452q0 20 14 34t35 14h280l33 -47v11q0 14 11 25t26 11h68v-139h-106q-5 22 -21.5 34.5t-34.5 12.5h-200v-365h256v45h106v-88q0 -20 -15 -34t-35 -14h-368q-21 0 -35 13.5t-14 34.5z" />
<glyph unicode="&#xf645;" horiz-adv-x="652" d="M279 591l-103 110h108l57 -63l60 63h107l-78 -83q-25 -27 -55 -27h-96zM51 0v73q23 5 36.5 19.5t13.5 32.5v331h-50v92h113q16 0 27.5 -10.5t11.5 -24.5v-12l34 47h298q20 0 35 -14.5t15 -33.5v-352q0 -27 -23 -51l-94 -97h-417zM206 91h219q21 0 37.5 15t16.5 34v316 h-218q-22 0 -38.5 -13.5t-16.5 -34.5v-317z" />
<glyph unicode="&#xf646;" horiz-adv-x="652" d="M49 0v73q23 5 37 18t14 32v99h-49v95h49v139h-51v92h114q16 0 27.5 -11t11.5 -27v-10l34 48h291q25 0 41.5 -18t16.5 -42v-340q0 -27 -23 -51l-94 -97h-419zM206 92h218q21 0 38 14t17 32v318h-218q-22 0 -38.5 -13.5t-16.5 -32.5v-93h91v-95h-91v-130z" />
<glyph unicode="&#xf647;" horiz-adv-x="578" d="M230 591l-103 110h108l57 -63l60 63h107l-78 -83q-25 -27 -55 -27h-96zM51 0v73q21 5 35.5 19.5t14.5 32.5v331h-50v92h335l34 -47v11q0 15 10.5 25.5t28.5 10.5h64v-139h-105q-6 22 -24.5 34.5t-38.5 12.5h-149v-137h187v-93h-187v-135h212v45h105v-88q0 -20 -13.5 -34 t-33.5 -14h-425z" />
<glyph unicode="&#xf648;" horiz-adv-x="578" d="M232 595v121h111v-121h-111zM51 0v73q21 5 35.5 19.5t14.5 32.5v331h-50v92h335l34 -47v11q0 15 10.5 25.5t28.5 10.5h64v-139h-105q-6 22 -24.5 34.5t-38.5 12.5h-149v-137h187v-93h-187v-135h212v45h105v-88q0 -20 -13.5 -34t-33.5 -14h-425z" />
<glyph unicode="&#xf649;" horiz-adv-x="578" d="M136 600v79h298v-79h-298zM51 0v73q21 5 35.5 19.5t14.5 32.5v331h-50v92h335l34 -47v11q0 15 10.5 25.5t28.5 10.5h64v-139h-105q-6 22 -24.5 34.5t-38.5 12.5h-149v-137h187v-93h-187v-135h212v45h105v-88q0 -20 -13.5 -34t-33.5 -14h-425z" />
<glyph unicode="&#xf64a;" horiz-adv-x="578" d="M51 0v73q21 5 35.5 19.5t14.5 32.5v331h-50v92h335l34 -47v11q0 15 10.5 25.5t28.5 10.5h64v-139h-105q-6 22 -24.5 34.5t-38.5 12.5h-149v-137h187v-93h-187v-135h212v45h105v-88q0 -8 -1.5 -13.5t-9 -12.5t-10 -9t-16.5 -13q-81 -61 -81 -93q0 -22 29 -22q9 0 19.5 2.5 t16.5 4.5l6 3l19 -54q-38 -24 -88 -24q-38 0 -63.5 20t-25.5 57q0 58 77 106h-344z" />
<glyph unicode="&#xf64b;" d="M311 588q-64 0 -104.5 33.5t-42.5 84.5h95q1 -20 16.5 -32t35.5 -12q21 0 37 12t17 32h93q-2 -52 -42.5 -85t-104.5 -33zM72 48v452q0 20 13.5 34t34.5 14h282l31 -47v11q0 15 10.5 25.5t27.5 10.5h69v-139h-105q-7 21 -22.5 34t-33.5 13h-202v-365h205q22 0 37.5 14.5 t15.5 34.5v57h-52v92h157v-289h-67q-18 0 -28.5 10.5t-10.5 24.5v9l-31 -44h-283q-22 0 -35 13.5t-13 34.5z" />
<glyph unicode="&#xf64c;" d="M72 48v452q0 20 13.5 34t34.5 14h282l31 -47v11q0 15 10.5 25.5t27.5 10.5h69v-139h-105q-7 21 -22.5 34t-33.5 13h-202v-365h205q22 0 37.5 14.5t15.5 34.5v57h-52v92h157v-289h-67q-18 0 -28.5 10.5t-10.5 24.5v9l-31 -44h-283q-22 0 -35 13.5t-13 34.5zM280 -42h100 l-35 -98q-19 -51 -61 -51h-45z" />
<glyph unicode="&#xf64d;" horiz-adv-x="310" d="M6 600v79h297v-79h-297zM52 0v75q21 4 35 18t14 32v331h-49v92h209v-75q-54 -5 -54 -51v-267q0 -34 -31 -45v-19h85v-91h-209z" />
<glyph unicode="&#xf64e;" horiz-adv-x="309" d="M51 0v75q21 4 35.5 18t14.5 32v331h-50v92h209v-75q-54 -5 -54 -51v-267q0 -34 -31 -45v-19h85v-91q-47 -39 -64 -58.5t-17 -34.5q0 -22 29 -22q9 0 19 2.5t16 4.5l6 3l19 -54q-37 -24 -87 -24q-39 0 -64.5 20t-25.5 57q0 59 78 106h-118z" />
<glyph unicode="&#xf64f;" horiz-adv-x="612" d="M52 0v73q22 5 35 19t13 33v331h-48v92h206v-75q-24 -4 -38.5 -17.5t-14.5 -32.5v-109h46l168 214q20 20 46 20h86v-92h-64l-137 -180l171 -185h57v-91h-83q-25 0 -44 17l-185 202h-61v-64q0 -34 -28 -45v-19h81v-91h-206zM280 -42h100l-35 -98q-19 -51 -62 -51h-44z" />
<glyph unicode="&#xf650;" horiz-adv-x="514" d="M80 591l85 110h122l-66 -83q-23 -27 -55 -27h-86zM51 0v72q22 4 36 19t14 33v332h-50v92h209v-75q-24 -5 -38.5 -18t-14.5 -32v-332h185v45h104v-88q0 -21 -13.5 -34.5t-35.5 -13.5h-396z" />
<glyph unicode="&#xf651;" horiz-adv-x="522" d="M51 0v72q20 5 35 19t15 30v335h-50v92h209v-76q-23 -2 -38 -16t-15 -32v-332h184v46h105v-90q0 -20 -14 -34t-35 -14h-396zM297 407v141h103l-14 -97q-6 -44 -55 -44h-34z" />
<glyph unicode="&#xf652;" horiz-adv-x="514" d="M51 0v72q22 4 36 19t14 33v332h-50v92h209v-75q-24 -5 -38.5 -18t-14.5 -32v-332h185v45h104v-88q0 -21 -13.5 -34.5t-35.5 -13.5h-396zM241 -42h100l-35 -98q-17 -51 -61 -51h-45z" />
<glyph unicode="&#xf653;" horiz-adv-x="671" d="M250 591l85 110h121l-65 -83q-21 -27 -55 -27h-86zM51 0v73q21 5 36 19.5t15 32.5v331h-51v92h114q32 0 52 -32l259 -393v333h-52v92h208v-75q-51 -9 -51 -53v-420h-139l-235 356v-201q0 -35 -30 -45v-19h82v-91h-208z" />
<glyph unicode="&#xf654;" horiz-adv-x="671" d="M287 608l-103 121h107l58 -70l60 70h106l-77 -91q-26 -30 -55 -30h-96zM51 0v73q21 5 36 19.5t15 32.5v331h-51v92h114q32 0 52 -32l259 -393v333h-52v92h208v-75q-51 -9 -51 -53v-420h-139l-235 356v-201q0 -35 -30 -45v-19h82v-91h-208z" />
<glyph unicode="&#xf655;" horiz-adv-x="671" d="M51 0v73q21 5 36 19.5t15 32.5v331h-51v92h114q32 0 52 -32l259 -393v333h-52v92h208v-75q-51 -9 -51 -53v-420h-139l-235 356v-201q0 -35 -30 -45v-19h82v-91h-208zM309 -42h100l-35 -98q-17 -51 -61 -51h-45z" />
<glyph unicode="&#xf656;" horiz-adv-x="633" d="M348 591l72 110h103l-53 -82q-18 -28 -57 -28h-65zM145 591l73 110h104l-55 -82q-20 -28 -56 -28h-66zM72 48v452q0 20 13.5 34t34.5 14h391q20 0 35.5 -14.5t15.5 -33.5v-452q0 -20 -15.5 -34t-35.5 -14h-391q-21 0 -34.5 13.5t-13.5 34.5zM177 91h279v365h-279v-365z " />
<glyph unicode="&#xf657;" horiz-adv-x="633" d="M168 600v79h297v-79h-297zM72 48v452q0 20 13.5 34t34.5 14h391q20 0 35.5 -14.5t15.5 -33.5v-452q0 -20 -15.5 -34t-35.5 -14h-391q-21 0 -34.5 13.5t-13.5 34.5zM177 91h279v365h-279v-365z" />
<glyph unicode="&#xf658;" horiz-adv-x="625" d="M244 591l84 110h122l-66 -83q-23 -27 -55 -27h-85zM52 0v72q20 5 34 19.5t14 32.5v332h-48v92h109q15 0 26 -10.5t11 -24.5v-12l33 47h262q19 0 34 -14.5t15 -33.5v-157q0 -27 -23 -51l-53 -56l82 -145h53v-91h-86q-38 0 -54 30l-96 171h-159v-45q0 -36 -29 -46v-19h79 v-91h-204zM206 292h178q22 0 36.5 14t14.5 34v116h-175q-22 0 -38 -13t-16 -34v-117z" />
<glyph unicode="&#xf659;" horiz-adv-x="625" d="M263 591l-103 110h107l58 -63l60 63h106l-77 -83q-25 -27 -55 -27h-96zM52 0v72q20 5 34 19.5t14 32.5v332h-48v92h109q15 0 26 -10.5t11 -24.5v-12l33 47h262q19 0 34 -14.5t15 -33.5v-157q0 -27 -23 -51l-53 -56l82 -145h53v-91h-86q-38 0 -54 30l-96 171h-159v-45 q0 -36 -29 -46v-19h79v-91h-204zM206 292h178q22 0 36.5 14t14.5 34v116h-175q-22 0 -38 -13t-16 -34v-117z" />
<glyph unicode="&#xf65a;" horiz-adv-x="625" d="M52 0v72q20 5 34 19.5t14 32.5v332h-48v92h109q15 0 26 -10.5t11 -24.5v-12l33 47h262q19 0 34 -14.5t15 -33.5v-157q0 -27 -23 -51l-53 -56l82 -145h53v-91h-86q-38 0 -54 30l-96 171h-159v-45q0 -36 -29 -46v-19h79v-91h-204zM206 292h178q22 0 36.5 14t14.5 34v116 h-175q-22 0 -38 -13t-16 -34v-117zM303 -42h100l-35 -98q-19 -51 -62 -51h-44z" />
<glyph unicode="&#xf65b;" horiz-adv-x="545" d="M173 591l85 110h121l-65 -83q-21 -27 -55 -27h-86zM57 46v90h106v-45h222v58l-295 181q-33 21 -33 63v107q0 20 13.5 34t35.5 14h237l34 -47v11q0 15 11 25.5t29 10.5h66v-139h-107q-7 21 -23.5 34t-34.5 13h-155v-51l285 -176q43 -27 43 -69v-112q0 -21 -15.5 -34.5 t-36.5 -13.5h-333q-20 0 -34.5 13.5t-14.5 32.5z" />
<glyph unicode="&#xf65c;" horiz-adv-x="545" d="M57 46v90h106v-45h222v58l-295 181q-33 21 -33 63v107q0 20 13.5 34t35.5 14h237l34 -47v11q0 15 11 25.5t29 10.5h66v-139h-107q-7 21 -23.5 34t-34.5 13h-155v-51l285 -176q43 -27 43 -69v-112q0 -21 -15.5 -34.5t-36.5 -13.5h-130l-11 -45q26 -5 43 -22.5t17 -44.5 q0 -37 -26.5 -58.5t-63.5 -21.5q-45 0 -80 28l18 55q29 -17 49 -17q23 0 23 17q0 10 -17 19.5t-47 9.5l23 80h-131q-20 0 -34.5 13.5t-14.5 32.5z" />
<glyph unicode="&#xf65d;" horiz-adv-x="545" d="M57 46v90h106v-45h222v58l-295 181q-33 21 -33 63v107q0 20 13.5 34t35.5 14h237l34 -47v11q0 15 11 25.5t29 10.5h66v-139h-107q-7 21 -23.5 34t-34.5 13h-155v-51l285 -176q43 -27 43 -69v-112q0 -21 -15.5 -34.5t-36.5 -13.5h-333q-20 0 -34.5 13.5t-14.5 32.5z M249 -42h100l-35 -98q-19 -51 -61 -51h-45z" />
<glyph unicode="&#xf65e;" horiz-adv-x="514" d="M206 591l-103 110h107l58 -63l60 63h106l-77 -83q-25 -27 -55 -27h-96zM149 0v72q23 4 39 19.5t16 33.5v331h-189v92h485v-92h-189v-307q0 -14 -9.5 -24.5t-24.5 -14.5v-19h86v-91h-214z" />
<glyph unicode="&#xf65f;" horiz-adv-x="514" d="M149 0v72q23 4 39 19.5t16 33.5v331h-189v92h485v-92h-189v-307q0 -14 -9.5 -24.5t-24.5 -14.5v-19h86v-91h-62l-11 -45q26 -5 43 -22.5t17 -44.5q0 -37 -26.5 -58.5t-63.5 -21.5q-45 0 -80 28l18 55q29 -17 49 -17q23 0 23 17q0 10 -16.5 19t-47.5 10l23 80h-80z" />
<glyph unicode="&#xf660;" horiz-adv-x="637" d="M363 591l72 110h103l-53 -82q-18 -28 -57 -28h-65zM160 591l73 110h104l-55 -82q-20 -28 -56 -28h-66zM82 125v331h-50v92h155v-405q0 -22 17.5 -37t39.5 -15h149q23 0 39.5 15t16.5 37v357q0 20 14 34t34 14h108v-92h-50v-305q0 -27 -23 -51l-94 -100h-201q-38 0 -60 23 z" />
<glyph unicode="&#xf661;" horiz-adv-x="637" d="M174 600v79h297v-79h-297zM82 125v331h-50v92h155v-405q0 -22 17.5 -37t39.5 -15h149q23 0 39.5 15t16.5 37v357q0 20 14 34t34 14h108v-92h-50v-305q0 -27 -23 -51l-94 -100h-201q-38 0 -60 23z" />
<glyph unicode="&#xf662;" horiz-adv-x="637" d="M269 -106q0 58 77 106h-109q-38 0 -60 23l-95 102v331h-50v92h155v-405q0 -22 17.5 -37t39.5 -15h149q23 0 39.5 15t16.5 37v357q0 20 14 34t34 14h108v-92h-50v-305q0 -28 -23 -51q-34 -35 -83 -85q-63 -63 -77.5 -80t-14.5 -28q0 -22 28 -22q9 0 19.5 2.5t16.5 4.5l6 3 l19 -54q-37 -24 -88 -24q-38 0 -63.5 20t-25.5 57z" />
<glyph unicode="&#xf663;" horiz-adv-x="637" d="M327 584q-37 0 -61.5 24.5t-24.5 60.5q0 34 24.5 59t61.5 25q36 0 61.5 -25t25.5 -59q0 -35 -25.5 -60t-61.5 -25zM327 642q11 0 19 7.5t8 19.5q0 11 -8 19t-19 8q-12 0 -19.5 -7.5t-7.5 -19.5q0 -27 27 -27zM82 125v331h-50v92h155v-405q0 -22 17.5 -37t39.5 -15h149 q23 0 39.5 15t16.5 37v357q0 20 14 34t34 14h108v-92h-50v-305q0 -27 -23 -51l-94 -100h-201q-38 0 -60 23z" />
<glyph unicode="&#xf664;" horiz-adv-x="557" d="M204 591l84 110h122l-66 -83q-23 -27 -55 -27h-85zM40 0v81l319 375h-130q-23 0 -39.5 -12.5t-22.5 -34.5h-107v139h68q16 0 27.5 -11t11.5 -25v-11l36 47h289v-86l-315 -371h234v45h106v-88q0 -20 -14.5 -34t-33.5 -14h-429z" />
<glyph unicode="&#xf665;" horiz-adv-x="557" d="M234 586v121h112v-121h-112zM40 0v81l319 375h-130q-23 0 -39.5 -12.5t-22.5 -34.5h-107v139h68q16 0 27.5 -11t11.5 -25v-11l36 47h289v-86l-315 -371h234v45h106v-88q0 -20 -14.5 -34t-33.5 -14h-429z" />
<glyph unicode="&#xf666;" horiz-adv-x="309" d="M101 587v121h111v-121h-111zM51 0v75q21 4 35.5 18t14.5 32v331h-50v92h209v-75q-54 -5 -54 -51v-267q0 -34 -31 -45v-19h85v-91h-209z" />
<glyph unicode="&#xf667;" horiz-adv-x="1035" d="M547 46v90h105v-45h223v58l-295 181q-33 20 -33 63v107q0 20 13.5 34t34.5 14h238l33 -47v11q0 15 11.5 25.5t29.5 10.5h65v-139h-106q-7 21 -23.5 34t-34.5 13h-157v-51l287 -176q43 -26 43 -69v-112q0 -21 -15 -34.5t-36 -13.5h-335q-19 0 -33.5 13.5t-14.5 32.5z M57 46v90h105v-45h223v58l-295 181q-33 21 -33 63v107q0 20 13.5 34t35.5 14h237l34 -47v11q0 15 11 25.5t29 10.5h66v-139h-107q-7 21 -23.5 34t-34.5 13h-156v-51l286 -176q43 -27 43 -69v-112q0 -21 -15.5 -34.5t-36.5 -13.5h-333q-20 0 -34.5 13.5t-14.5 32.5z" />
<glyph unicode="&#xf6c3;" horiz-adv-x="241" d="M91 -42h100l-35 -98q-19 -51 -61 -51h-45z" />
<glyph unicode="&#xf6c9;" horiz-adv-x="306" d="M50 703l84 110h122l-65 -83q-21 -27 -55 -27h-86z" />
<glyph unicode="&#xf6ca;" horiz-adv-x="432" d="M153 703l-103 110h108l57 -63l60 63h107l-78 -83q-25 -27 -55 -27h-96z" />
<glyph unicode="&#xf6ce;" horiz-adv-x="306" d="M256 703h-86q-32 0 -56 27l-64 83h122z" />
<glyph unicode="&#xf6cf;" horiz-adv-x="478" d="M253 703l72 110h103l-53 -82q-18 -28 -57 -28h-65zM50 703l73 110h104l-55 -82q-20 -28 -56 -28h-66z" />
<glyph unicode="&#xf6d0;" horiz-adv-x="397" d="M50 712v79h297v-79h-297z" />
<glyph unicode="&#xf6f9;" horiz-adv-x="513" d="M50 0v72q20 5 35 19t15 30v39l-50 -33v110l50 34v185h-50v92h209v-76q-23 -2 -38 -16t-15 -32v-83l94 63v-110l-94 -63v-139h184v46h105v-90q0 -20 -13.5 -34t-35.5 -14h-396z" />
<glyph unicode="&#xf6fa;" horiz-adv-x="936" d="M71 48v452q0 20 14 34t34 14h624l34 -47v12q0 14 11.5 24.5t28.5 10.5h64v-140h-104q-7 21 -25 34.5t-38 13.5h-174v-142h207v-95h-207v-128h235v45h106v-88q0 -21 -14.5 -34.5t-34.5 -13.5h-713q-20 0 -34 13.5t-14 34.5zM176 91h258v365h-258v-365z" />
<glyph unicode="&#xf6fd;" horiz-adv-x="545" d="M210 591l-103 110h107l58 -63l60 63h106l-77 -83q-25 -27 -55 -27h-96zM57 46v90h106v-45h222v58l-295 181q-33 21 -33 63v107q0 20 13.5 34t35.5 14h237l34 -47v11q0 15 11 25.5t29 10.5h66v-139h-107q-7 21 -23.5 34t-34.5 13h-155v-51l285 -176q43 -27 43 -69v-112 q0 -21 -15.5 -34.5t-36.5 -13.5h-333q-20 0 -34.5 13.5t-14.5 32.5z" />
<glyph unicode="&#xf6ff;" horiz-adv-x="557" d="M232 591l-103 110h108l57 -63l60 63h107l-78 -83q-25 -27 -55 -27h-96zM40 0v81l319 375h-130q-23 0 -39.5 -12.5t-22.5 -34.5h-107v139h68q16 0 27.5 -11t11.5 -25v-11l36 47h289v-86l-315 -371h234v45h106v-88q0 -20 -14.5 -34t-33.5 -14h-429z" />
<glyph unicode="&#xf721;" horiz-adv-x="278" d="M86 0v104h106v-104h-106zM86 160v412h106v-412h-106z" />
<glyph unicode="&#xf726;" horiz-adv-x="622" d="M81 49v208q0 19 12 31t31 12h14l-57 55v145q0 20 13.5 34t34.5 14h248v-92h-191v-80q0 -21 17 -35.5t42 -14.5h173v34h105v-34h62v-92h-62v-234h-393q-20 0 -34.5 14t-14.5 35zM186 91h232v143h-232v-143z" />
<glyph unicode="&#xf73f;" horiz-adv-x="476" d="M152 160v53q0 45 30 68l144 110v89h-184v-45h-106v92q0 18 13.5 31.5t33.5 13.5h302q19 0 33 -14t14 -31v-135q0 -43 -35 -71l-141 -109v-52h-104zM152 0v104h104v-104h-104z" />
<glyph unicode="&#xf761;" d="M18 0v91h51l137 365h-43v92h171q40 0 53 -34l156 -423h50v-91h-129l-48 125h-226l-37 -91q-15 -34 -52 -34h-83zM223 223h160l-78 220z" />
<glyph unicode="&#xf762;" horiz-adv-x="624" d="M51 0v71q23 5 36.5 20t13.5 33v332h-50v92h111q15 0 26 -11t11 -24v-12l35 47h270q20 0 35.5 -14.5t15.5 -33.5v-136l-57 -56h15q42 0 42 -50v-210q0 -21 -12.5 -34.5t-36.5 -13.5h-455zM207 317h187q24 0 40 14t16 36v89h-187q-23 0 -39.5 -13.5t-16.5 -36.5v-89z M207 91h243v131h-243v-131z" />
<glyph unicode="&#xf763;" horiz-adv-x="594" d="M71 48v452q0 20 14 34t35 14h280l33 -47v11q0 14 11 25t26 11h68v-139h-106q-5 22 -21.5 34.5t-34.5 12.5h-200v-365h256v45h106v-88q0 -20 -15 -34t-35 -14h-368q-21 0 -35 13.5t-14 34.5z" />
<glyph unicode="&#xf764;" horiz-adv-x="652" d="M51 0v73q23 5 36.5 19.5t13.5 32.5v331h-50v92h113q16 0 27.5 -10.5t11.5 -24.5v-12l34 47h298q20 0 35 -14.5t15 -33.5v-352q0 -27 -23 -51l-94 -97h-417zM206 91h219q21 0 37.5 15t16.5 34v316h-224q-21 0 -35 -13.5t-14 -34.5v-317z" />
<glyph unicode="&#xf765;" horiz-adv-x="578" d="M51 0v73q21 5 35.5 19.5t14.5 32.5v331h-50v92h335l34 -47v11q0 15 10.5 25.5t28.5 10.5h64v-139h-105q-14 47 -58 47h-154v-137h187v-93h-187v-135h212v45h105v-88q0 -20 -13.5 -34t-33.5 -14h-425z" />
<glyph unicode="&#xf766;" horiz-adv-x="521" d="M51 0v73q22 4 36 19t14 33v331h-50v92h309l32 -47v11q0 15 11 25.5t28 10.5h67v-139h-104q-16 47 -54 47h-133v-152h188v-92h-188v-57q0 -32 -31 -45v-19h85v-91h-210z" />
<glyph unicode="&#xf767;" d="M72 48v452q0 20 13.5 34t34.5 14h282l31 -47v11q0 15 10.5 25.5t27.5 10.5h69v-139h-105q-7 21 -22.5 34t-33.5 13h-202v-365h205q22 0 37.5 14.5t15.5 34.5v57h-52v92h157v-289h-67q-18 0 -28.5 10.5t-10.5 24.5v9l-31 -44h-283q-22 0 -35 13.5t-13 34.5z" />
<glyph unicode="&#xf768;" horiz-adv-x="669" d="M52 0v75q22 4 35 18.5t13 31.5v331h-48v92h106q21 0 34.5 -14t13.5 -34v-209h23q13 26 42 26h192v183q0 20 13.5 34t34.5 14h105v-92h-48v-365h48v-91h-105q-21 0 -34.5 13.5t-13.5 34.5v177h-257v-70q0 -34 -30 -45v-19h82v-91h-206z" />
<glyph unicode="&#xf769;" horiz-adv-x="309" d="M51 0v75q21 4 35.5 18t14.5 32v331h-50v92h209v-75q-54 -5 -54 -51v-267q0 -34 -31 -45v-19h85v-91h-209z" />
<glyph unicode="&#xf76a;" horiz-adv-x="287" d="M-36 -15h72q23 0 38.5 14t15.5 35v422h-49v92h207v-74q-24 -4 -38 -17.5t-14 -34.5v-387q0 -23 -21 -48l-89 -92h-122v90z" />
<glyph unicode="&#xf76b;" horiz-adv-x="612" d="M52 0v73q22 5 35 19t13 33v331h-48v92h206v-75q-24 -4 -38.5 -17.5t-14.5 -32.5v-109h46l168 214q20 20 46 20h86v-92h-64l-137 -180l171 -185h57v-91h-83q-25 0 -44 17l-185 202h-61v-64q0 -34 -28 -45v-19h81v-91h-206z" />
<glyph unicode="&#xf76c;" horiz-adv-x="514" d="M51 0v72q22 4 36 19t14 33v332h-50v92h209v-75q-24 -5 -38.5 -18t-14.5 -32v-332h185v45h104v-88q0 -21 -13.5 -34.5t-35.5 -13.5h-396z" />
<glyph unicode="&#xf76d;" horiz-adv-x="750" d="M51 0v74q21 5 36 19.5t15 31.5v331h-51v92h124q29 0 45 -25l155 -272l157 272q15 25 48 25h120v-92h-53v-301q0 -32 -30 -45v-19h83v-91h-210v73q22 5 36.5 19.5t14.5 32.5v230l-105 -195h-123l-105 195v-200q0 -34 -31 -45v-19h83v-91h-209z" />
<glyph unicode="&#xf76e;" horiz-adv-x="671" d="M51 0v73q21 5 36 19.5t15 32.5v331h-51v92h114q32 0 52 -32l259 -393v333h-52v92h208v-75q-51 -9 -51 -53v-420h-139l-235 356v-201q0 -35 -30 -45v-19h82v-91h-208z" />
<glyph unicode="&#xf76f;" horiz-adv-x="632" d="M72 48v452q0 20 13.5 34t34.5 14h390q20 0 35.5 -14.5t15.5 -33.5v-452q0 -20 -15.5 -34t-35.5 -14h-390q-21 0 -34.5 13.5t-13.5 34.5zM177 91h279v365h-279v-365z" />
<glyph unicode="&#xf770;" horiz-adv-x="592" d="M51 0v72q21 4 35.5 19.5t14.5 32.5v332h-50v92h109q16 0 27.5 -10.5t11.5 -24.5v-12l35 47h270q19 0 34.5 -14.5t15.5 -33.5v-180q0 -28 -23 -52l-93 -96h-231v-17q0 -34 -31 -45v-19h82v-91h-207zM207 264h186q22 0 38.5 13.5t16.5 33.5v145h-191q-22 0 -36 -13t-14 -34 v-145z" />
<glyph unicode="&#xf771;" horiz-adv-x="650" d="M71 48v452q0 19 15 33.5t35 14.5h390q19 0 34 -14.5t15 -33.5v-343q0 -35 -32 -47v-19h82v-91h-489q-20 0 -35 14t-15 34zM176 91h225q22 0 38 14.5t16 34.5v316h-279v-365z" />
<glyph unicode="&#xf772;" horiz-adv-x="625" d="M52 0v72q20 5 34 19.5t14 32.5v332h-48v92h109q15 0 26 -10.5t11 -24.5v-12l33 47h262q19 0 34 -14.5t15 -33.5v-157q0 -27 -23 -51l-53 -56l82 -145h53v-91h-86q-37 0 -54 30l-96 171h-159v-45q0 -36 -29 -46v-19h79v-91h-204zM206 292h178q22 0 36.5 14t14.5 34v116 h-180q-22 0 -35.5 -13t-13.5 -34v-117z" />
<glyph unicode="&#xf773;" horiz-adv-x="545" d="M57 46v90h106v-45h222v58l-295 181q-33 21 -33 63v107q0 20 13.5 34t35.5 14h237l34 -47v11q0 15 11 25.5t29 10.5h66v-139h-107q-15 47 -53 47h-160v-51l285 -176q43 -27 43 -69v-112q0 -21 -15.5 -34.5t-36.5 -13.5h-333q-20 0 -34.5 13.5t-14.5 32.5z" />
<glyph unicode="&#xf774;" horiz-adv-x="514" d="M149 0v72q23 4 39 19.5t16 33.5v331h-189v92h485v-92h-189v-307q0 -14 -9.5 -24.5t-24.5 -14.5v-19h86v-91h-214z" />
<glyph unicode="&#xf775;" horiz-adv-x="637" d="M82 125v331h-50v92h155v-405q0 -22 17.5 -37t39.5 -15h149q23 0 39.5 15t16.5 37v357q0 20 14 34t34 14h108v-92h-50v-305q0 -27 -23 -51l-94 -100h-201q-38 0 -60 23z" />
<glyph unicode="&#xf776;" horiz-adv-x="596" d="M213 37l-151 419h-49v92h125l161 -460l149 425q5 14 19 24.5t32 10.5h83v-92h-50l-161 -456h-105q-39 0 -53 37z" />
<glyph unicode="&#xf777;" horiz-adv-x="906" d="M179 38l-114 418h-49v92h131l122 -451l108 359h-42v92h174l129 -451l113 414q11 37 50 37h89v-92h-50l-123 -456h-112q-42 0 -53 35l-100 335l-112 -370h-109q-41 0 -52 38z" />
<glyph unicode="&#xf778;" horiz-adv-x="614" d="M45 0v91h53l147 181l-144 184h-54v92h114l150 -194l124 164q23 30 53 30h79v-92h-54l-140 -184l146 -181h52v-91h-81q-28 0 -44 20l-137 167l-135 -168q-13 -19 -46 -19h-83z" />
<glyph unicode="&#xf779;" horiz-adv-x="559" d="M174 0v72q23 5 38.5 20t15.5 33v74l-165 257h-51v92h109l160 -241l137 208q22 33 61 33h69v-92h-51l-164 -257v-45q0 -32 -32 -44v-19h84v-91h-211z" />
<glyph unicode="&#xf77a;" horiz-adv-x="557" d="M40 0v81l319 375h-135q-44 0 -57 -47h-107v139h68q16 0 27.5 -11t11.5 -25v-11l36 47h289v-86l-315 -371h234v45h106v-88q0 -20 -14.5 -34t-33.5 -14h-429z" />
<glyph unicode="&#xf7a1;" horiz-adv-x="258" d="M76 -171v412h106v-412h-106zM76 296v105h106v-105h-106z" />
<glyph unicode="&#xf7bf;" horiz-adv-x="359" d="M188 297v104h106v-104h-106zM13 -126v126q0 53 35 80l140 108v64h106v-65q0 -47 -30 -69l-145 -109v-88h183v44h106v-91q0 -18 -14 -31.5t-33 -13.5h-301q-20 0 -33.5 14t-13.5 31z" />
<glyph unicode="&#xf7e0;" d="M372 591h-86q-32 0 -56 27l-64 83h122zM18 0v91h51l137 365h-43v92h171q40 0 53 -34l156 -423h50v-91h-129l-48 125h-226l-37 -91q-15 -34 -52 -34h-83zM223 223h160l-78 220z" />
<glyph unicode="&#xf7e1;" d="M205 591l85 110h122l-66 -83q-23 -27 -55 -27h-86zM18 0v91h51l137 365h-43v92h171q40 0 53 -34l156 -423h50v-91h-129l-48 125h-226l-37 -91q-15 -34 -52 -34h-83zM223 223h160l-78 220z" />
<glyph unicode="&#xf7e2;" d="M125 591l81 82q26 28 65 28h84l101 -110h-106l-59 63l-59 -63h-107zM18 0v91h51l137 365h-43v92h171q40 0 53 -34l156 -423h50v-91h-129l-48 125h-226l-37 -91q-15 -34 -52 -34h-83zM223 223h160l-78 220z" />
<glyph unicode="&#xf7e3;" d="M104 593q0 42 30.5 78.5t77.5 36.5q37 0 74.5 -23t55.5 -23q16 0 28 10.5t14 25.5h76q-4 -48 -33 -81.5t-77 -33.5q-35 0 -73.5 22.5t-53.5 22.5q-17 0 -29 -10t-14 -25h-76zM18 0v91h51l137 365h-43v92h171q40 0 53 -34l156 -423h50v-91h-129l-48 125h-226l-37 -91 q-15 -34 -52 -34h-83zM223 223h160l-78 220z" />
<glyph unicode="&#xf7e4;" d="M337 604v113h112v-113h-112zM115 604v113h112v-113h-112zM18 0v91h51l137 365h-43v92h171q40 0 53 -34l156 -423h50v-91h-129l-48 125h-226l-37 -91q-15 -34 -52 -34h-83zM223 223h160l-78 220z" />
<glyph unicode="&#xf7e5;" d="M283 584q-37 0 -61.5 24.5t-24.5 60.5q0 34 24.5 59t61.5 25q36 0 61.5 -25t25.5 -59q0 -35 -25.5 -60t-61.5 -25zM283 642q11 0 19 7.5t8 19.5q0 11 -8 19t-19 8q-13 0 -20.5 -8t-7.5 -19q0 -27 28 -27zM18 0v91h51l137 365h-43v92h171q40 0 53 -34l156 -423h50v-91 h-129l-48 125h-226l-37 -91q-15 -34 -52 -34h-83zM223 223h160l-78 220z" />
<glyph unicode="&#xf7e6;" horiz-adv-x="842" d="M11 0v91h52l204 365h-42v92h421l33 -47v12q0 14 11 24.5t27 10.5h70v-138h-108q-7 20 -24.5 33t-36.5 13h-122v-144h165v-91h-165v-130h185v45h106v-88q0 -21 -15 -34.5t-36 -13.5h-297q-21 0 -35 13.5t-14 34.5v173h-141l-103 -189q-5 -11 -10 -17t-15 -10.5t-26 -4.5 h-84zM300 312h90v144h-9z" />
<glyph unicode="&#xf7e7;" horiz-adv-x="594" d="M71 48v452q0 20 14 34t35 14h280l33 -47v11q0 14 11 25t26 11h68v-139h-106q-5 22 -21.5 34.5t-34.5 12.5h-200v-365h256v45h106v-88q0 -20 -15 -34t-35 -14h-147l-11 -45q26 -5 43 -22.5t17 -44.5q0 -37 -26.5 -58.5t-63.5 -21.5q-45 0 -80 28l18 55q29 -17 49 -17 q23 0 23 17q0 10 -16 19t-48 10l23 80h-149q-21 0 -35 13.5t-14 34.5z" />
<glyph unicode="&#xf7e8;" horiz-adv-x="578" d="M362 591h-86q-32 0 -56 27l-64 83h122zM51 0v73q21 5 35.5 19.5t14.5 32.5v331h-50v92h335l34 -47v11q0 15 10.5 25.5t28.5 10.5h64v-139h-105q-6 22 -24.5 34.5t-38.5 12.5h-149v-137h187v-93h-187v-135h212v45h105v-88q0 -20 -13.5 -34t-33.5 -14h-425z" />
<glyph unicode="&#xf7e9;" horiz-adv-x="578" d="M205 591l84 110h122l-66 -83q-23 -27 -54 -27h-86zM51 0v73q21 5 35.5 19.5t14.5 32.5v331h-50v92h335l34 -47v11q0 15 10.5 25.5t28.5 10.5h64v-139h-105q-6 22 -24.5 34.5t-38.5 12.5h-149v-137h187v-93h-187v-135h212v45h105v-88q0 -20 -13.5 -34t-33.5 -14h-425z" />
<glyph unicode="&#xf7ea;" horiz-adv-x="578" d="M113 591l81 82q26 28 65 28h84l101 -110h-106l-59 63l-59 -63h-107zM51 0v73q21 5 35.5 19.5t14.5 32.5v331h-50v92h335l34 -47v11q0 15 10.5 25.5t28.5 10.5h64v-139h-105q-6 22 -24.5 34.5t-38.5 12.5h-149v-137h187v-93h-187v-135h212v45h105v-88q0 -20 -13.5 -34 t-33.5 -14h-425z" />
<glyph unicode="&#xf7eb;" horiz-adv-x="578" d="M338 604v113h111v-113h-111zM116 604v113h111v-113h-111zM51 0v73q21 5 35.5 19.5t14.5 32.5v331h-50v92h335l34 -47v11q0 15 10.5 25.5t28.5 10.5h64v-139h-105q-6 22 -24.5 34.5t-38.5 12.5h-149v-137h187v-93h-187v-135h212v45h105v-88q0 -20 -13.5 -34t-33.5 -14 h-425z" />
<glyph unicode="&#xf7ec;" horiz-adv-x="309" d="M242 591h-86q-32 0 -56 27l-64 83h122zM51 0v75q21 4 35.5 18t14.5 32v331h-50v92h209v-75q-54 -6 -54 -51v-267q0 -34 -31 -45v-19h85v-91h-209z" />
<glyph unicode="&#xf7ed;" horiz-adv-x="309" d="M74 591l84 110h122l-65 -83q-21 -27 -55 -27h-86zM51 0v75q21 4 35.5 18t14.5 32v331h-50v92h209v-75q-54 -5 -54 -51v-267q0 -34 -31 -45v-19h85v-91h-209z" />
<glyph unicode="&#xf7ee;" horiz-adv-x="309" d="M-10 591l81 82q26 28 65 28h85l101 -110h-107l-59 63l-59 -63h-107zM51 0v75q21 4 35.5 18t14.5 32v331h-50v92h209v-75q-54 -6 -54 -51v-267q0 -34 -31 -45v-19h85v-91h-209z" />
<glyph unicode="&#xf7ef;" horiz-adv-x="309" d="M211 604v113h112v-113h-112zM-11 604v113h111v-113h-111zM51 0v75q21 4 35.5 18t14.5 32v331h-50v92h209v-75q-54 -6 -54 -51v-267q0 -34 -31 -45v-19h85v-91h-209z" />
<glyph unicode="&#xf7f1;" horiz-adv-x="671" d="M179 593q0 42 31 78.5t78 36.5q37 0 74.5 -23t54.5 -23q16 0 28.5 11t14.5 25h76q-4 -47 -33.5 -81t-77.5 -34q-34 0 -73 22.5t-54 22.5q-16 0 -28.5 -10t-14.5 -25h-76zM51 0v73q21 5 36 19.5t15 32.5v331h-51v92h114q32 0 52 -32l259 -393v333h-52v92h208v-75 q-51 -9 -51 -53v-420h-139l-235 356v-201q0 -35 -30 -45v-19h82v-91h-208z" />
<glyph unicode="&#xf7f2;" horiz-adv-x="633" d="M404 591h-87q-31 0 -55 27l-64 83h121zM72 48v452q0 20 13.5 34t34.5 14h391q20 0 35.5 -14.5t15.5 -33.5v-452q0 -20 -15.5 -34t-35.5 -14h-391q-21 0 -34.5 13.5t-13.5 34.5zM177 91h279v365h-279v-365z" />
<glyph unicode="&#xf7f3;" horiz-adv-x="633" d="M236 591l84 110h122l-66 -83q-23 -27 -55 -27h-85zM72 48v452q0 20 13.5 34t34.5 14h391q20 0 35.5 -14.5t15.5 -33.5v-452q0 -20 -15.5 -34t-35.5 -14h-391q-21 0 -34.5 13.5t-13.5 34.5zM177 91h279v365h-279v-365z" />
<glyph unicode="&#xf7f4;" horiz-adv-x="633" d="M149 591l81 82q26 28 65 28h85l101 -110h-107l-59 63l-59 -63h-107zM72 48v452q0 20 13.5 34t34.5 14h391q20 0 35.5 -14.5t15.5 -33.5v-452q0 -20 -15.5 -34t-35.5 -14h-391q-21 0 -34.5 13.5t-13.5 34.5zM177 91h279v365h-279v-365z" />
<glyph unicode="&#xf7f5;" horiz-adv-x="633" d="M143 593q0 42 31 78.5t78 36.5q37 0 74.5 -23t54.5 -23q16 0 28.5 11t14.5 25h76q-4 -47 -33.5 -81t-77.5 -34q-34 0 -72.5 22.5t-54.5 22.5t-28.5 -10t-14.5 -25h-76zM72 48v452q0 20 13.5 34t34.5 14h391q20 0 35.5 -14.5t15.5 -33.5v-452q0 -20 -15.5 -34t-35.5 -14 h-391q-21 0 -34.5 13.5t-13.5 34.5zM177 91h279v365h-279v-365z" />
<glyph unicode="&#xf7f6;" horiz-adv-x="633" d="M368 604v113h112v-113h-112zM146 604v113h112v-113h-112zM72 48v452q0 20 13.5 34t34.5 14h391q20 0 35.5 -14.5t15.5 -33.5v-452q0 -20 -15.5 -34t-35.5 -14h-391q-21 0 -34.5 13.5t-13.5 34.5zM177 91h279v365h-279v-365z" />
<glyph unicode="&#xf7f8;" horiz-adv-x="625" d="M55 -53l38 61q-21 15 -21 40v451q0 20 13.5 34.5t33.5 14.5h316l40 57h102l-45 -67q21 -13 21 -39v-451q0 -20 -15.5 -34t-34.5 -14h-314l-37 -53h-97zM178 150l197 305h-197v-305zM249 93h198v303z" />
<glyph unicode="&#xf7f9;" horiz-adv-x="637" d="M405 591h-86q-34 0 -55 27l-65 83h122zM82 125v331h-50v92h155v-405q0 -22 17.5 -37t39.5 -15h149q23 0 39.5 15t16.5 37v357q0 20 14 34t34 14h108v-92h-50v-305q0 -27 -23 -51l-94 -100h-201q-38 0 -60 23z" />
<glyph unicode="&#xf7fa;" horiz-adv-x="637" d="M243 591l85 110h121l-65 -83q-21 -27 -55 -27h-86zM82 125v331h-50v92h155v-405q0 -22 17.5 -37t39.5 -15h149q23 0 39.5 15t16.5 37v357q0 20 14 34t34 14h108v-92h-50v-305q0 -27 -23 -51l-94 -100h-201q-38 0 -60 23z" />
<glyph unicode="&#xf7fb;" horiz-adv-x="637" d="M159 591l81 82q26 28 65 28h84l101 -110h-106l-59 63l-59 -63h-107zM82 125v331h-50v92h155v-405q0 -22 17.5 -37t39.5 -15h149q23 0 39.5 15t16.5 37v357q0 20 14 34t34 14h108v-92h-50v-305q0 -27 -23 -51l-94 -100h-201q-38 0 -60 23z" />
<glyph unicode="&#xf7fc;" horiz-adv-x="637" d="M378 604v113h111v-113h-111zM156 604v113h111v-113h-111zM82 125v331h-50v92h155v-405q0 -22 17.5 -37t39.5 -15h149q23 0 39.5 15t16.5 37v357q0 20 14 34t34 14h108v-92h-50v-305q0 -27 -23 -51l-94 -100h-201q-38 0 -60 23z" />
<glyph unicode="&#xf7fd;" horiz-adv-x="559" d="M198 591l84 110h122l-66 -83q-23 -27 -55 -27h-85zM174 0v72q23 5 38.5 20t15.5 33v74l-165 257h-51v92h109l160 -241l137 208q22 33 61 33h69v-92h-51l-164 -257v-45q0 -32 -32 -44v-19h84v-91h-211z" />
<glyph unicode="&#xf7ff;" horiz-adv-x="559" d="M335 604v113h112v-113h-112zM113 604v113h112v-113h-112zM174 0v72q23 5 38.5 20t15.5 33v74l-165 257h-51v92h109l160 -241l137 208q22 33 61 33h69v-92h-51l-164 -257v-45q0 -32 -32 -44v-19h84v-91h-211z" />
<glyph unicode="&#xf8ff;" horiz-adv-x="844" d="M50 197v206l372 372l372 -372v-206l-372 -372zM113 234l309 -310l310 310v132l-310 310l-309 -310v-132zM168 366l97 98h59v59l98 98l255 -255l-97 -97l-29 30v-63h-62l29 -29l-96 -94z" />
</font>
</defs>
</svg>
